<?xml version="1.0" encoding="utf-8" standalone="no"?>
<!DOCTYPE svg PUBLIC "-//W3C//DTD SVG 1.1//EN"
  "http://www.w3.org/Graphics/SVG/1.1/DTD/svg11.dtd">
<svg height="493.95825pt" version="1.1" viewBox="0 0 496.420312 493.95825" width="496.420312pt" xmlns="http://www.w3.org/2000/svg" xmlns:xlink="http://www.w3.org/1999/xlink">
 <metadata>
  <rdf:RDF xmlns:cc="http://creativecommons.org/ns#" xmlns:dc="http://purl.org/dc/elements/1.1/" xmlns:rdf="http://www.w3.org/1999/02/22-rdf-syntax-ns#">
   <cc:Work>
    <dc:type rdf:resource="http://purl.org/dc/dcmitype/StillImage"/>
    <dc:date>2022-01-25T10:31:20.002332</dc:date>
    <dc:format>image/svg+xml</dc:format>
    <dc:creator>
     <cc:Agent>
      <dc:title>Matplotlib v3.4.2, https://matplotlib.org/</dc:title>
     </cc:Agent>
    </dc:creator>
   </cc:Work>
  </rdf:RDF>
 </metadata>
 <defs>
  <style type="text/css">*{stroke-linecap:butt;stroke-linejoin:round;}</style>
 </defs>
 <g id="figure_1">
  <g id="patch_1">
   <path d="M 0 493.95825 
L 496.420312 493.95825 
L 496.420312 0 
L 0 0 
z
" style="fill:none;"/>
  </g>
  <g id="axes_1">
   <g id="patch_2">
    <path d="M 58.048438 456.29575 
L 456.448437 456.29575 
L 456.448437 35.89575 
L 58.048438 35.89575 
z
" style="fill:none;"/>
   </g>
   <g id="matplotlib.axis_1">
    <g id="xtick_1">
     <g id="line2d_1">
      <defs>
       <path d="M 0 0 
L 0 3.5 
" id="m758e899b04" style="stroke:#000000;stroke-width:0.8;"/>
      </defs>
      <g>
       <use style="stroke:#000000;stroke-width:0.8;" x="75.593089" xlink:href="#m758e899b04" y="456.29575"/>
      </g>
     </g>
     <g id="text_1">
      <!-- 0.0 -->
      <g transform="translate(66.56262 470.947312)scale(0.1 -0.1)">
       <defs>
        <path d="M 1509 2344 
Q 1509 2516 1629 2641 
Q 1750 2766 1919 2766 
Q 2094 2766 2219 2641 
Q 2344 2516 2344 2344 
Q 2344 2169 2220 2047 
Q 2097 1925 1919 1925 
Q 1744 1925 1626 2044 
Q 1509 2163 1509 2344 
z
M 1925 4250 
Q 1484 4250 1267 3775 
Q 1050 3300 1050 2328 
Q 1050 1359 1267 884 
Q 1484 409 1925 409 
Q 2369 409 2586 884 
Q 2803 1359 2803 2328 
Q 2803 3300 2586 3775 
Q 2369 4250 1925 4250 
z
M 1925 4750 
Q 2672 4750 3055 4137 
Q 3438 3525 3438 2328 
Q 3438 1134 3055 521 
Q 2672 -91 1925 -91 
Q 1178 -91 797 521 
Q 416 1134 416 2328 
Q 416 3525 797 4137 
Q 1178 4750 1925 4750 
z
" id="DejaVuSansMono-30" transform="scale(0.015625)"/>
        <path d="M 1528 953 
L 2316 953 
L 2316 0 
L 1528 0 
L 1528 953 
z
" id="DejaVuSansMono-2e" transform="scale(0.015625)"/>
       </defs>
       <use xlink:href="#DejaVuSansMono-30"/>
       <use x="60.205078" xlink:href="#DejaVuSansMono-2e"/>
       <use x="120.410156" xlink:href="#DejaVuSansMono-30"/>
      </g>
     </g>
    </g>
    <g id="xtick_2">
     <g id="line2d_2">
      <g>
       <use style="stroke:#000000;stroke-width:0.8;" x="148.142341" xlink:href="#m758e899b04" y="456.29575"/>
      </g>
     </g>
     <g id="text_2">
      <!-- 0.2 -->
      <g transform="translate(139.111872 470.947312)scale(0.1 -0.1)">
       <defs>
        <path d="M 1166 531 
L 3309 531 
L 3309 0 
L 475 0 
L 475 531 
Q 1059 1147 1496 1619 
Q 1934 2091 2100 2284 
Q 2413 2666 2522 2902 
Q 2631 3138 2631 3384 
Q 2631 3775 2401 3997 
Q 2172 4219 1772 4219 
Q 1488 4219 1175 4116 
Q 863 4013 513 3803 
L 513 4441 
Q 834 4594 1145 4672 
Q 1456 4750 1759 4750 
Q 2444 4750 2861 4386 
Q 3278 4022 3278 3431 
Q 3278 3131 3139 2831 
Q 3000 2531 2688 2169 
Q 2513 1966 2180 1606 
Q 1847 1247 1166 531 
z
" id="DejaVuSansMono-32" transform="scale(0.015625)"/>
       </defs>
       <use xlink:href="#DejaVuSansMono-30"/>
       <use x="60.205078" xlink:href="#DejaVuSansMono-2e"/>
       <use x="120.410156" xlink:href="#DejaVuSansMono-32"/>
      </g>
     </g>
    </g>
    <g id="xtick_3">
     <g id="line2d_3">
      <g>
       <use style="stroke:#000000;stroke-width:0.8;" x="220.691592" xlink:href="#m758e899b04" y="456.29575"/>
      </g>
     </g>
     <g id="text_3">
      <!-- 0.4 -->
      <g transform="translate(211.661123 470.947312)scale(0.1 -0.1)">
       <defs>
        <path d="M 2297 4091 
L 825 1625 
L 2297 1625 
L 2297 4091 
z
M 2194 4666 
L 2925 4666 
L 2925 1625 
L 3547 1625 
L 3547 1113 
L 2925 1113 
L 2925 0 
L 2297 0 
L 2297 1113 
L 319 1113 
L 319 1709 
L 2194 4666 
z
" id="DejaVuSansMono-34" transform="scale(0.015625)"/>
       </defs>
       <use xlink:href="#DejaVuSansMono-30"/>
       <use x="60.205078" xlink:href="#DejaVuSansMono-2e"/>
       <use x="120.410156" xlink:href="#DejaVuSansMono-34"/>
      </g>
     </g>
    </g>
    <g id="xtick_4">
     <g id="line2d_4">
      <g>
       <use style="stroke:#000000;stroke-width:0.8;" x="293.240844" xlink:href="#m758e899b04" y="456.29575"/>
      </g>
     </g>
     <g id="text_4">
      <!-- 0.6 -->
      <g transform="translate(284.210375 470.947312)scale(0.1 -0.1)">
       <defs>
        <path d="M 3097 4563 
L 3097 3981 
Q 2900 4097 2678 4158 
Q 2456 4219 2216 4219 
Q 1616 4219 1306 3767 
Q 997 3316 997 2438 
Q 1147 2750 1412 2917 
Q 1678 3084 2022 3084 
Q 2697 3084 3067 2670 
Q 3438 2256 3438 1497 
Q 3438 741 3056 325 
Q 2675 -91 1984 -91 
Q 1172 -91 794 492 
Q 416 1075 416 2328 
Q 416 3509 870 4129 
Q 1325 4750 2188 4750 
Q 2419 4750 2650 4701 
Q 2881 4653 3097 4563 
z
M 1972 2591 
Q 1569 2591 1337 2300 
Q 1106 2009 1106 1497 
Q 1106 984 1337 693 
Q 1569 403 1972 403 
Q 2391 403 2603 679 
Q 2816 956 2816 1497 
Q 2816 2041 2603 2316 
Q 2391 2591 1972 2591 
z
" id="DejaVuSansMono-36" transform="scale(0.015625)"/>
       </defs>
       <use xlink:href="#DejaVuSansMono-30"/>
       <use x="60.205078" xlink:href="#DejaVuSansMono-2e"/>
       <use x="120.410156" xlink:href="#DejaVuSansMono-36"/>
      </g>
     </g>
    </g>
    <g id="xtick_5">
     <g id="line2d_5">
      <g>
       <use style="stroke:#000000;stroke-width:0.8;" x="365.790095" xlink:href="#m758e899b04" y="456.29575"/>
      </g>
     </g>
     <g id="text_5">
      <!-- 0.8 -->
      <g transform="translate(356.759626 470.947312)scale(0.1 -0.1)">
       <defs>
        <path d="M 1925 2216 
Q 1503 2216 1273 1980 
Q 1044 1744 1044 1313 
Q 1044 881 1276 642 
Q 1509 403 1925 403 
Q 2350 403 2579 639 
Q 2809 875 2809 1313 
Q 2809 1741 2576 1978 
Q 2344 2216 1925 2216 
z
M 1375 2478 
Q 972 2581 745 2862 
Q 519 3144 519 3541 
Q 519 4097 897 4423 
Q 1275 4750 1925 4750 
Q 2578 4750 2956 4423 
Q 3334 4097 3334 3541 
Q 3334 3144 3107 2862 
Q 2881 2581 2478 2478 
Q 2947 2375 3195 2062 
Q 3444 1750 3444 1253 
Q 3444 622 3041 265 
Q 2638 -91 1925 -91 
Q 1213 -91 811 264 
Q 409 619 409 1247 
Q 409 1747 657 2061 
Q 906 2375 1375 2478 
z
M 1147 3481 
Q 1147 3106 1347 2909 
Q 1547 2713 1925 2713 
Q 2306 2713 2506 2909 
Q 2706 3106 2706 3481 
Q 2706 3863 2507 4063 
Q 2309 4263 1925 4263 
Q 1547 4263 1347 4061 
Q 1147 3859 1147 3481 
z
" id="DejaVuSansMono-38" transform="scale(0.015625)"/>
       </defs>
       <use xlink:href="#DejaVuSansMono-30"/>
       <use x="60.205078" xlink:href="#DejaVuSansMono-2e"/>
       <use x="120.410156" xlink:href="#DejaVuSansMono-38"/>
      </g>
     </g>
    </g>
    <g id="xtick_6">
     <g id="line2d_6">
      <g>
       <use style="stroke:#000000;stroke-width:0.8;" x="438.339347" xlink:href="#m758e899b04" y="456.29575"/>
      </g>
     </g>
     <g id="text_6">
      <!-- 1.0 -->
      <g transform="translate(429.308878 470.947312)scale(0.1 -0.1)">
       <defs>
        <path d="M 844 531 
L 1825 531 
L 1825 4097 
L 769 3859 
L 769 4434 
L 1819 4666 
L 2450 4666 
L 2450 531 
L 3419 531 
L 3419 0 
L 844 0 
L 844 531 
z
" id="DejaVuSansMono-31" transform="scale(0.015625)"/>
       </defs>
       <use xlink:href="#DejaVuSansMono-31"/>
       <use x="60.205078" xlink:href="#DejaVuSansMono-2e"/>
       <use x="120.410156" xlink:href="#DejaVuSansMono-30"/>
      </g>
     </g>
    </g>
    <g id="text_7">
     <!-- Fraction of reads -->
     <g transform="translate(206.075781 484.678562)scale(0.1 -0.1)">
      <defs>
       <path d="M 728 4666 
L 3475 4666 
L 3475 4134 
L 1363 4134 
L 1363 2759 
L 3278 2759 
L 3278 2228 
L 1363 2228 
L 1363 0 
L 728 0 
L 728 4666 
z
" id="DejaVuSansMono-46" transform="scale(0.015625)"/>
       <path d="M 3609 2778 
Q 3425 2922 3234 2987 
Q 3044 3053 2816 3053 
Q 2278 3053 1993 2715 
Q 1709 2378 1709 1741 
L 1709 0 
L 1131 0 
L 1131 3500 
L 1709 3500 
L 1709 2816 
Q 1853 3188 2151 3386 
Q 2450 3584 2859 3584 
Q 3072 3584 3256 3531 
Q 3441 3478 3609 3366 
L 3609 2778 
z
" id="DejaVuSansMono-72" transform="scale(0.015625)"/>
       <path d="M 2194 1759 
L 2003 1759 
Q 1500 1759 1245 1582 
Q 991 1406 991 1056 
Q 991 741 1181 566 
Q 1372 391 1709 391 
Q 2184 391 2456 720 
Q 2728 1050 2731 1631 
L 2731 1759 
L 2194 1759 
z
M 3309 1997 
L 3309 0 
L 2731 0 
L 2731 519 
Q 2547 206 2267 57 
Q 1988 -91 1588 -91 
Q 1053 -91 734 211 
Q 416 513 416 1019 
Q 416 1603 808 1906 
Q 1200 2209 1959 2209 
L 2731 2209 
L 2731 2300 
Q 2728 2719 2518 2908 
Q 2309 3097 1850 3097 
Q 1556 3097 1256 3012 
Q 956 2928 672 2766 
L 672 3341 
Q 991 3463 1283 3523 
Q 1575 3584 1850 3584 
Q 2284 3584 2592 3456 
Q 2900 3328 3091 3072 
Q 3209 2916 3259 2686 
Q 3309 2456 3309 1997 
z
" id="DejaVuSansMono-61" transform="scale(0.015625)"/>
       <path d="M 3316 178 
Q 3084 44 2839 -23 
Q 2594 -91 2338 -91 
Q 1525 -91 1067 396 
Q 609 884 609 1747 
Q 609 2609 1067 3096 
Q 1525 3584 2338 3584 
Q 2591 3584 2831 3518 
Q 3072 3453 3316 3316 
L 3316 2713 
Q 3088 2916 2858 3006 
Q 2628 3097 2338 3097 
Q 1797 3097 1506 2747 
Q 1216 2397 1216 1747 
Q 1216 1100 1508 748 
Q 1800 397 2338 397 
Q 2638 397 2875 489 
Q 3113 581 3316 775 
L 3316 178 
z
" id="DejaVuSansMono-63" transform="scale(0.015625)"/>
       <path d="M 1919 4494 
L 1919 3500 
L 3225 3500 
L 3225 3053 
L 1919 3053 
L 1919 1153 
Q 1919 766 2066 612 
Q 2213 459 2578 459 
L 3225 459 
L 3225 0 
L 2522 0 
Q 1875 0 1609 259 
Q 1344 519 1344 1153 
L 1344 3053 
L 409 3053 
L 409 3500 
L 1344 3500 
L 1344 4494 
L 1919 4494 
z
" id="DejaVuSansMono-74" transform="scale(0.015625)"/>
       <path d="M 800 3500 
L 2272 3500 
L 2272 447 
L 3413 447 
L 3413 0 
L 556 0 
L 556 447 
L 1697 447 
L 1697 3053 
L 800 3053 
L 800 3500 
z
M 1697 4863 
L 2272 4863 
L 2272 4134 
L 1697 4134 
L 1697 4863 
z
" id="DejaVuSansMono-69" transform="scale(0.015625)"/>
       <path d="M 1925 3097 
Q 1488 3097 1263 2756 
Q 1038 2416 1038 1747 
Q 1038 1081 1263 739 
Q 1488 397 1925 397 
Q 2366 397 2591 739 
Q 2816 1081 2816 1747 
Q 2816 2416 2591 2756 
Q 2366 3097 1925 3097 
z
M 1925 3584 
Q 2653 3584 3039 3112 
Q 3425 2641 3425 1747 
Q 3425 850 3040 379 
Q 2656 -91 1925 -91 
Q 1197 -91 812 379 
Q 428 850 428 1747 
Q 428 2641 812 3112 
Q 1197 3584 1925 3584 
z
" id="DejaVuSansMono-6f" transform="scale(0.015625)"/>
       <path d="M 3284 2169 
L 3284 0 
L 2706 0 
L 2706 2169 
Q 2706 2641 2540 2862 
Q 2375 3084 2022 3084 
Q 1619 3084 1401 2798 
Q 1184 2513 1184 1978 
L 1184 0 
L 609 0 
L 609 3500 
L 1184 3500 
L 1184 2975 
Q 1338 3275 1600 3429 
Q 1863 3584 2222 3584 
Q 2756 3584 3020 3232 
Q 3284 2881 3284 2169 
z
" id="DejaVuSansMono-6e" transform="scale(0.015625)"/>
       <path id="DejaVuSansMono-20" transform="scale(0.015625)"/>
       <path d="M 3322 4863 
L 3322 4384 
L 2669 4384 
Q 2359 4384 2239 4257 
Q 2119 4131 2119 3809 
L 2119 3500 
L 3322 3500 
L 3322 3053 
L 2119 3053 
L 2119 0 
L 1544 0 
L 1544 3053 
L 609 3053 
L 609 3500 
L 1544 3500 
L 1544 3744 
Q 1544 4319 1808 4591 
Q 2072 4863 2631 4863 
L 3322 4863 
z
" id="DejaVuSansMono-66" transform="scale(0.015625)"/>
       <path d="M 3475 1894 
L 3475 1613 
L 984 1613 
L 984 1594 
Q 984 1022 1282 709 
Q 1581 397 2125 397 
Q 2400 397 2700 484 
Q 3000 572 3341 750 
L 3341 178 
Q 3013 44 2708 -23 
Q 2403 -91 2119 -91 
Q 1303 -91 843 398 
Q 384 888 384 1747 
Q 384 2584 834 3084 
Q 1284 3584 2034 3584 
Q 2703 3584 3089 3131 
Q 3475 2678 3475 1894 
z
M 2900 2063 
Q 2888 2569 2661 2833 
Q 2434 3097 2009 3097 
Q 1594 3097 1325 2822 
Q 1056 2547 1006 2059 
L 2900 2063 
z
" id="DejaVuSansMono-65" transform="scale(0.015625)"/>
       <path d="M 2681 3053 
L 2681 4863 
L 3256 4863 
L 3256 0 
L 2681 0 
L 2681 441 
Q 2538 181 2298 45 
Q 2059 -91 1747 -91 
Q 1113 -91 748 401 
Q 384 894 384 1759 
Q 384 2613 750 3098 
Q 1116 3584 1747 3584 
Q 2063 3584 2303 3448 
Q 2544 3313 2681 3053 
z
M 991 1747 
Q 991 1078 1203 737 
Q 1416 397 1831 397 
Q 2247 397 2464 740 
Q 2681 1084 2681 1747 
Q 2681 2413 2464 2755 
Q 2247 3097 1831 3097 
Q 1416 3097 1203 2756 
Q 991 2416 991 1747 
z
" id="DejaVuSansMono-64" transform="scale(0.015625)"/>
       <path d="M 3041 3378 
L 3041 2816 
Q 2794 2959 2544 3031 
Q 2294 3103 2034 3103 
Q 1644 3103 1451 2976 
Q 1259 2850 1259 2591 
Q 1259 2356 1403 2240 
Q 1547 2125 2119 2016 
L 2350 1972 
Q 2778 1891 2998 1647 
Q 3219 1403 3219 1013 
Q 3219 494 2850 201 
Q 2481 -91 1825 -91 
Q 1566 -91 1281 -36 
Q 997 19 666 128 
L 666 722 
Q 988 556 1281 473 
Q 1575 391 1838 391 
Q 2219 391 2428 545 
Q 2638 700 2638 978 
Q 2638 1378 1872 1531 
L 1847 1538 
L 1631 1581 
Q 1134 1678 906 1908 
Q 678 2138 678 2534 
Q 678 3038 1018 3311 
Q 1359 3584 1991 3584 
Q 2272 3584 2531 3532 
Q 2791 3481 3041 3378 
z
" id="DejaVuSansMono-73" transform="scale(0.015625)"/>
      </defs>
      <use xlink:href="#DejaVuSansMono-46"/>
      <use x="60.205078" xlink:href="#DejaVuSansMono-72"/>
      <use x="120.410156" xlink:href="#DejaVuSansMono-61"/>
      <use x="180.615234" xlink:href="#DejaVuSansMono-63"/>
      <use x="240.820312" xlink:href="#DejaVuSansMono-74"/>
      <use x="301.025391" xlink:href="#DejaVuSansMono-69"/>
      <use x="361.230469" xlink:href="#DejaVuSansMono-6f"/>
      <use x="421.435547" xlink:href="#DejaVuSansMono-6e"/>
      <use x="481.640625" xlink:href="#DejaVuSansMono-20"/>
      <use x="541.845703" xlink:href="#DejaVuSansMono-6f"/>
      <use x="602.050781" xlink:href="#DejaVuSansMono-66"/>
      <use x="662.255859" xlink:href="#DejaVuSansMono-20"/>
      <use x="722.460938" xlink:href="#DejaVuSansMono-72"/>
      <use x="782.666016" xlink:href="#DejaVuSansMono-65"/>
      <use x="842.871094" xlink:href="#DejaVuSansMono-61"/>
      <use x="903.076172" xlink:href="#DejaVuSansMono-64"/>
      <use x="963.28125" xlink:href="#DejaVuSansMono-73"/>
     </g>
    </g>
   </g>
   <g id="matplotlib.axis_2">
    <g id="ytick_1">
     <g id="line2d_7">
      <defs>
       <path d="M 0 0 
L -3.5 0 
" id="mc726ced574" style="stroke:#000000;stroke-width:0.8;"/>
      </defs>
      <g>
       <use style="stroke:#000000;stroke-width:0.8;" x="58.048438" xlink:href="#mc726ced574" y="442.837286"/>
      </g>
     </g>
     <g id="text_8">
      <!-- 0.675 -->
      <g transform="translate(20.946875 446.663067)scale(0.1 -0.1)">
       <defs>
        <path d="M 434 4666 
L 3372 4666 
L 3372 4397 
L 1703 0 
L 1044 0 
L 2669 4134 
L 434 4134 
L 434 4666 
z
" id="DejaVuSansMono-37" transform="scale(0.015625)"/>
        <path d="M 647 4666 
L 3009 4666 
L 3009 4134 
L 1222 4134 
L 1222 2988 
Q 1356 3038 1492 3061 
Q 1628 3084 1766 3084 
Q 2491 3084 2916 2656 
Q 3341 2228 3341 1497 
Q 3341 759 2895 334 
Q 2450 -91 1678 -91 
Q 1306 -91 998 -41 
Q 691 9 447 109 
L 447 750 
Q 734 594 1025 517 
Q 1316 441 1619 441 
Q 2141 441 2423 716 
Q 2706 991 2706 1497 
Q 2706 1997 2414 2275 
Q 2122 2553 1600 2553 
Q 1347 2553 1106 2495 
Q 866 2438 647 2322 
L 647 4666 
z
" id="DejaVuSansMono-35" transform="scale(0.015625)"/>
       </defs>
       <use xlink:href="#DejaVuSansMono-30"/>
       <use x="60.205078" xlink:href="#DejaVuSansMono-2e"/>
       <use x="120.410156" xlink:href="#DejaVuSansMono-36"/>
       <use x="180.615234" xlink:href="#DejaVuSansMono-37"/>
       <use x="240.820312" xlink:href="#DejaVuSansMono-35"/>
      </g>
     </g>
    </g>
    <g id="ytick_2">
     <g id="line2d_8">
      <g>
       <use style="stroke:#000000;stroke-width:0.8;" x="58.048438" xlink:href="#mc726ced574" y="392.26808"/>
      </g>
     </g>
     <g id="text_9">
      <!-- 0.700 -->
      <g transform="translate(20.946875 396.093862)scale(0.1 -0.1)">
       <use xlink:href="#DejaVuSansMono-30"/>
       <use x="60.205078" xlink:href="#DejaVuSansMono-2e"/>
       <use x="120.410156" xlink:href="#DejaVuSansMono-37"/>
       <use x="180.615234" xlink:href="#DejaVuSansMono-30"/>
       <use x="240.820312" xlink:href="#DejaVuSansMono-30"/>
      </g>
     </g>
    </g>
    <g id="ytick_3">
     <g id="line2d_9">
      <g>
       <use style="stroke:#000000;stroke-width:0.8;" x="58.048438" xlink:href="#mc726ced574" y="341.698875"/>
      </g>
     </g>
     <g id="text_10">
      <!-- 0.725 -->
      <g transform="translate(20.946875 345.524656)scale(0.1 -0.1)">
       <use xlink:href="#DejaVuSansMono-30"/>
       <use x="60.205078" xlink:href="#DejaVuSansMono-2e"/>
       <use x="120.410156" xlink:href="#DejaVuSansMono-37"/>
       <use x="180.615234" xlink:href="#DejaVuSansMono-32"/>
       <use x="240.820312" xlink:href="#DejaVuSansMono-35"/>
      </g>
     </g>
    </g>
    <g id="ytick_4">
     <g id="line2d_10">
      <g>
       <use style="stroke:#000000;stroke-width:0.8;" x="58.048438" xlink:href="#mc726ced574" y="291.12967"/>
      </g>
     </g>
     <g id="text_11">
      <!-- 0.750 -->
      <g transform="translate(20.946875 294.955451)scale(0.1 -0.1)">
       <use xlink:href="#DejaVuSansMono-30"/>
       <use x="60.205078" xlink:href="#DejaVuSansMono-2e"/>
       <use x="120.410156" xlink:href="#DejaVuSansMono-37"/>
       <use x="180.615234" xlink:href="#DejaVuSansMono-35"/>
       <use x="240.820312" xlink:href="#DejaVuSansMono-30"/>
      </g>
     </g>
    </g>
    <g id="ytick_5">
     <g id="line2d_11">
      <g>
       <use style="stroke:#000000;stroke-width:0.8;" x="58.048438" xlink:href="#mc726ced574" y="240.560464"/>
      </g>
     </g>
     <g id="text_12">
      <!-- 0.775 -->
      <g transform="translate(20.946875 244.386246)scale(0.1 -0.1)">
       <use xlink:href="#DejaVuSansMono-30"/>
       <use x="60.205078" xlink:href="#DejaVuSansMono-2e"/>
       <use x="120.410156" xlink:href="#DejaVuSansMono-37"/>
       <use x="180.615234" xlink:href="#DejaVuSansMono-37"/>
       <use x="240.820312" xlink:href="#DejaVuSansMono-35"/>
      </g>
     </g>
    </g>
    <g id="ytick_6">
     <g id="line2d_12">
      <g>
       <use style="stroke:#000000;stroke-width:0.8;" x="58.048438" xlink:href="#mc726ced574" y="189.991259"/>
      </g>
     </g>
     <g id="text_13">
      <!-- 0.800 -->
      <g transform="translate(20.946875 193.81704)scale(0.1 -0.1)">
       <use xlink:href="#DejaVuSansMono-30"/>
       <use x="60.205078" xlink:href="#DejaVuSansMono-2e"/>
       <use x="120.410156" xlink:href="#DejaVuSansMono-38"/>
       <use x="180.615234" xlink:href="#DejaVuSansMono-30"/>
       <use x="240.820312" xlink:href="#DejaVuSansMono-30"/>
      </g>
     </g>
    </g>
    <g id="ytick_7">
     <g id="line2d_13">
      <g>
       <use style="stroke:#000000;stroke-width:0.8;" x="58.048438" xlink:href="#mc726ced574" y="139.422053"/>
      </g>
     </g>
     <g id="text_14">
      <!-- 0.825 -->
      <g transform="translate(20.946875 143.247835)scale(0.1 -0.1)">
       <use xlink:href="#DejaVuSansMono-30"/>
       <use x="60.205078" xlink:href="#DejaVuSansMono-2e"/>
       <use x="120.410156" xlink:href="#DejaVuSansMono-38"/>
       <use x="180.615234" xlink:href="#DejaVuSansMono-32"/>
       <use x="240.820312" xlink:href="#DejaVuSansMono-35"/>
      </g>
     </g>
    </g>
    <g id="ytick_8">
     <g id="line2d_14">
      <g>
       <use style="stroke:#000000;stroke-width:0.8;" x="58.048438" xlink:href="#mc726ced574" y="88.852848"/>
      </g>
     </g>
     <g id="text_15">
      <!-- 0.850 -->
      <g transform="translate(20.946875 92.678629)scale(0.1 -0.1)">
       <use xlink:href="#DejaVuSansMono-30"/>
       <use x="60.205078" xlink:href="#DejaVuSansMono-2e"/>
       <use x="120.410156" xlink:href="#DejaVuSansMono-38"/>
       <use x="180.615234" xlink:href="#DejaVuSansMono-35"/>
       <use x="240.820312" xlink:href="#DejaVuSansMono-30"/>
      </g>
     </g>
    </g>
    <g id="ytick_9">
     <g id="line2d_15">
      <g>
       <use style="stroke:#000000;stroke-width:0.8;" x="58.048438" xlink:href="#mc726ced574" y="38.283643"/>
      </g>
     </g>
     <g id="text_16">
      <!-- 0.875 -->
      <g transform="translate(20.946875 42.109424)scale(0.1 -0.1)">
       <use xlink:href="#DejaVuSansMono-30"/>
       <use x="60.205078" xlink:href="#DejaVuSansMono-2e"/>
       <use x="120.410156" xlink:href="#DejaVuSansMono-38"/>
       <use x="180.615234" xlink:href="#DejaVuSansMono-37"/>
       <use x="240.820312" xlink:href="#DejaVuSansMono-35"/>
      </g>
     </g>
    </g>
    <g id="text_17">
     <!-- Average match rate -->
     <g transform="translate(14.798438 300.278562)rotate(-90)scale(0.1 -0.1)">
      <defs>
       <path d="M 1925 4109 
L 1259 1722 
L 2591 1722 
L 1925 4109 
z
M 1544 4666 
L 2309 4666 
L 3738 0 
L 3084 0 
L 2741 1216 
L 1106 1216 
L 769 0 
L 116 0 
L 1544 4666 
z
" id="DejaVuSansMono-41" transform="scale(0.015625)"/>
       <path d="M 313 3500 
L 909 3500 
L 1925 563 
L 2944 3500 
L 3541 3500 
L 2297 0 
L 1556 0 
L 313 3500 
z
" id="DejaVuSansMono-76" transform="scale(0.015625)"/>
       <path d="M 2681 1778 
Q 2681 2425 2470 2761 
Q 2259 3097 1856 3097 
Q 1434 3097 1212 2761 
Q 991 2425 991 1778 
Q 991 1131 1214 792 
Q 1438 453 1863 453 
Q 2259 453 2470 793 
Q 2681 1134 2681 1778 
z
M 3256 225 
Q 3256 -563 2884 -969 
Q 2513 -1375 1791 -1375 
Q 1553 -1375 1293 -1331 
Q 1034 -1288 775 -1203 
L 775 -634 
Q 1081 -778 1331 -847 
Q 1581 -916 1791 -916 
Q 2256 -916 2468 -662 
Q 2681 -409 2681 141 
L 2681 166 
L 2681 556 
Q 2544 263 2306 119 
Q 2069 -25 1728 -25 
Q 1116 -25 750 465 
Q 384 956 384 1778 
Q 384 2603 750 3093 
Q 1116 3584 1728 3584 
Q 2066 3584 2300 3450 
Q 2534 3316 2681 3034 
L 2681 3488 
L 3256 3488 
L 3256 225 
z
" id="DejaVuSansMono-67" transform="scale(0.015625)"/>
       <path d="M 2113 3144 
Q 2219 3369 2383 3476 
Q 2547 3584 2778 3584 
Q 3200 3584 3373 3257 
Q 3547 2931 3547 2028 
L 3547 0 
L 3022 0 
L 3022 2003 
Q 3022 2744 2939 2923 
Q 2856 3103 2638 3103 
Q 2388 3103 2295 2911 
Q 2203 2719 2203 2003 
L 2203 0 
L 1678 0 
L 1678 2003 
Q 1678 2753 1589 2928 
Q 1500 3103 1269 3103 
Q 1041 3103 952 2911 
Q 863 2719 863 2003 
L 863 0 
L 341 0 
L 341 3500 
L 863 3500 
L 863 3200 
Q 966 3388 1120 3486 
Q 1275 3584 1472 3584 
Q 1709 3584 1867 3475 
Q 2025 3366 2113 3144 
z
" id="DejaVuSansMono-6d" transform="scale(0.015625)"/>
       <path d="M 3284 2169 
L 3284 0 
L 2706 0 
L 2706 2169 
Q 2706 2641 2540 2862 
Q 2375 3084 2022 3084 
Q 1619 3084 1401 2798 
Q 1184 2513 1184 1978 
L 1184 0 
L 609 0 
L 609 4863 
L 1184 4863 
L 1184 2975 
Q 1338 3275 1600 3429 
Q 1863 3584 2222 3584 
Q 2756 3584 3020 3232 
Q 3284 2881 3284 2169 
z
" id="DejaVuSansMono-68" transform="scale(0.015625)"/>
      </defs>
      <use xlink:href="#DejaVuSansMono-41"/>
      <use x="60.205078" xlink:href="#DejaVuSansMono-76"/>
      <use x="120.410156" xlink:href="#DejaVuSansMono-65"/>
      <use x="180.615234" xlink:href="#DejaVuSansMono-72"/>
      <use x="240.820312" xlink:href="#DejaVuSansMono-61"/>
      <use x="301.025391" xlink:href="#DejaVuSansMono-67"/>
      <use x="361.230469" xlink:href="#DejaVuSansMono-65"/>
      <use x="421.435547" xlink:href="#DejaVuSansMono-20"/>
      <use x="481.640625" xlink:href="#DejaVuSansMono-6d"/>
      <use x="541.845703" xlink:href="#DejaVuSansMono-61"/>
      <use x="602.050781" xlink:href="#DejaVuSansMono-74"/>
      <use x="662.255859" xlink:href="#DejaVuSansMono-63"/>
      <use x="722.460938" xlink:href="#DejaVuSansMono-68"/>
      <use x="782.666016" xlink:href="#DejaVuSansMono-20"/>
      <use x="842.871094" xlink:href="#DejaVuSansMono-72"/>
      <use x="903.076172" xlink:href="#DejaVuSansMono-61"/>
      <use x="963.28125" xlink:href="#DejaVuSansMono-74"/>
      <use x="1023.486328" xlink:href="#DejaVuSansMono-65"/>
     </g>
    </g>
   </g>
   <g id="line2d_16">
    <path clip-path="url(#p8bd716a72b)" d="M 438.339347 124.063759 
L 437.555403 122.468844 
L 436.77146 121.362117 
L 434.41963 118.807063 
L 433.635687 118.132677 
L 432.851743 117.293286 
L 428.148083 113.624451 
L 423.444423 110.187493 
L 422.66048 109.517906 
L 417.172877 106.049123 
L 415.60499 105.206008 
L 413.25316 103.903073 
L 410.117387 102.329079 
L 408.5495 101.483272 
L 406.19767 100.224443 
L 396.006407 96.111878 
L 388.166974 93.398504 
L 385.815144 92.423548 
L 382.67937 91.322334 
L 381.895427 90.923345 
L 380.32754 90.484005 
L 378.759654 89.906176 
L 377.97571 89.744528 
L 376.407824 89.178763 
L 372.488107 87.865623 
L 371.704164 87.453891 
L 370.92022 87.259546 
L 367.000504 85.742313 
L 366.21656 85.57855 
L 365.432617 85.279453 
L 363.86473 84.841082 
L 357.593184 82.794449 
L 356.025297 82.345685 
L 352.889524 81.297203 
L 352.10558 81.187805 
L 350.537694 80.785385 
L 349.75375 80.643248 
L 348.185864 80.125677 
L 343.482204 78.956067 
L 339.562487 77.515452 
L 335.64277 76.58833 
L 334.074884 76.115825 
L 331.723054 75.530796 
L 330.155167 75.322937 
L 327.803337 74.862893 
L 323.099677 73.49184 
L 321.531791 73.175178 
L 318.396017 72.435236 
L 317.612074 72.084958 
L 311.340527 70.663643 
L 308.204754 70.14165 
L 306.636867 69.820431 
L 305.068981 69.569106 
L 302.717151 68.591194 
L 301.149264 68.142164 
L 300.365321 67.921803 
L 299.581377 67.836397 
L 298.013491 67.432862 
L 296.445604 67.175269 
L 295.661661 67.092938 
L 294.093774 66.616599 
L 292.525887 66.376407 
L 290.958001 66.125517 
L 290.174057 65.93419 
L 289.390114 65.619405 
L 287.822227 65.336768 
L 283.902511 64.856115 
L 282.334624 64.710797 
L 279.982794 64.306106 
L 279.198851 64.019055 
L 277.630964 63.994578 
L 275.279134 63.658638 
L 272.143361 63.053061 
L 270.575474 63.042354 
L 269.791531 63.054864 
L 265.087871 62.361276 
L 264.303927 62.351835 
L 262.736041 61.901315 
L 261.952097 61.598927 
L 261.168154 61.431868 
L 259.600267 61.436794 
L 258.032381 61.235121 
L 257.248438 60.865617 
L 250.976891 60.111281 
L 249.409004 59.624812 
L 247.841118 59.310608 
L 245.489288 59.06469 
L 243.921401 58.745021 
L 241.569571 58.210728 
L 238.433798 58.02425 
L 236.865911 57.721043 
L 233.730138 57.470343 
L 232.946194 57.343876 
L 231.378308 57.326666 
L 230.594364 57.20649 
L 229.810421 57.264215 
L 229.026478 57.185744 
L 228.242534 56.96073 
L 226.674648 56.982628 
L 224.322818 56.635518 
L 223.538874 56.472256 
L 221.970988 56.349552 
L 221.187044 56.13628 
L 218.835214 55.945105 
L 215.699441 56.007976 
L 214.915498 55.869121 
L 214.131554 56.041484 
L 212.563668 55.769529 
L 206.292121 55.910504 
L 205.508178 55.634191 
L 203.940291 55.615272 
L 198.452688 55.230024 
L 197.668744 55.004841 
L 196.100858 55.145843 
L 195.316914 55.339341 
L 193.749028 55.459989 
L 189.829311 56.140157 
L 189.045368 55.703814 
L 185.909595 55.985391 
L 185.125651 55.586742 
L 184.341708 55.751735 
L 183.557765 55.672853 
L 182.773821 55.753408 
L 181.989878 55.479902 
L 181.205935 55.711961 
L 179.638048 55.773615 
L 178.854105 55.50491 
L 177.286218 55.811724 
L 176.502275 56.052123 
L 175.718331 56.171555 
L 174.934388 56.092155 
L 173.366501 56.427136 
L 169.446785 56.420873 
L 167.094955 56.556587 
L 166.311011 56.743337 
L 163.959181 56.779737 
L 163.175238 57.04078 
L 160.823408 57.021528 
L 160.039465 57.101784 
L 159.255521 56.619634 
L 158.471578 56.990621 
L 156.903691 56.996825 
L 156.119748 57.241127 
L 155.335805 57.165377 
L 154.551861 57.46156 
L 153.767918 57.516826 
L 152.983975 57.245974 
L 152.200031 57.292686 
L 151.416088 57.788012 
L 150.632145 57.436036 
L 149.064258 57.580147 
L 146.712428 58.177134 
L 145.144541 58.419026 
L 144.360598 58.584271 
L 143.576655 58.884011 
L 142.792711 58.91202 
L 142.008768 59.395953 
L 140.440881 60.074754 
L 139.656938 60.243931 
L 138.872995 60.692786 
L 136.521165 61.617724 
L 135.737221 62.045275 
L 134.953278 62.818033 
L 134.169335 63.426663 
L 133.385391 63.229869 
L 132.601448 63.620202 
L 131.817505 63.509297 
L 131.033561 63.851958 
L 130.249618 64.588244 
L 129.465675 64.445004 
L 128.681731 64.15675 
L 127.897788 64.660525 
L 127.113845 64.857009 
L 124.762015 67.120558 
L 123.978072 67.636986 
L 123.194128 67.394339 
L 122.410185 67.579394 
L 121.626242 68.1275 
L 119.274412 71.005712 
L 118.490468 71.458825 
L 117.706525 72.787509 
L 116.922582 73.40641 
L 116.138638 73.079789 
L 114.570752 75.43708 
L 113.786808 75.599858 
L 113.002865 75.536007 
L 112.218922 75.954064 
L 111.434978 77.249152 
L 110.651035 77.639852 
L 109.867092 78.284369 
L 109.083148 79.293673 
L 108.299205 79.638162 
L 106.731318 81.627085 
L 104.379488 85.36235 
L 103.595545 86.366417 
L 102.027658 89.73409 
L 101.243715 89.857109 
L 100.459772 91.776023 
L 98.891885 95.003009 
L 98.107942 96.019074 
L 97.323998 99.263553 
L 96.540055 101.771922 
L 95.756112 105.096576 
L 94.972168 107.374681 
L 94.188225 109.032929 
L 93.404282 109.942711 
L 92.620338 111.840893 
L 90.268508 123.912641 
L 89.484565 127.943021 
L 87.916678 139.688287 
L 86.348792 150.111495 
L 85.564848 157.282628 
L 84.780905 161.316971 
L 83.996962 167.347551 
L 82.429075 187.663273 
L 81.645132 199.769794 
L 80.861188 214.121183 
L 79.293302 250.942838 
L 78.509358 288.255434 
L 77.725415 317.411776 
L 76.157528 437.186659 
L 76.157528 437.186659 
" style="fill:none;stroke:#000000;stroke-linecap:square;stroke-width:1.5;"/>
   </g>
   <g id="patch_3">
    <path d="M 58.048438 456.29575 
L 58.048438 35.89575 
" style="fill:none;stroke:#000000;stroke-linecap:square;stroke-linejoin:miter;stroke-width:0.8;"/>
   </g>
   <g id="patch_4">
    <path d="M 456.448437 456.29575 
L 456.448437 35.89575 
" style="fill:none;stroke:#000000;stroke-linecap:square;stroke-linejoin:miter;stroke-width:0.8;"/>
   </g>
   <g id="patch_5">
    <path d="M 58.048438 456.29575 
L 456.448438 456.29575 
" style="fill:none;stroke:#000000;stroke-linecap:square;stroke-linejoin:miter;stroke-width:0.8;"/>
   </g>
   <g id="patch_6">
    <path d="M 58.048438 35.89575 
L 456.448438 35.89575 
" style="fill:none;stroke:#000000;stroke-linecap:square;stroke-linejoin:miter;stroke-width:0.8;"/>
   </g>
   <g id="text_18">
    <!-- Bonito - CATCaller -->
    <g transform="translate(192.229063 16.381875)scale(0.12 -0.12)">
     <defs>
      <path d="M 1153 2228 
L 1153 519 
L 1900 519 
Q 2450 519 2684 711 
Q 2919 903 2919 1344 
Q 2919 1800 2672 2014 
Q 2425 2228 1900 2228 
L 1153 2228 
z
M 1153 4147 
L 1153 2741 
L 1888 2741 
Q 2344 2741 2548 2916 
Q 2753 3091 2753 3481 
Q 2753 3834 2551 3990 
Q 2350 4147 1888 4147 
L 1153 4147 
z
M 519 4666 
L 1900 4666 
Q 2616 4666 3003 4356 
Q 3391 4047 3391 3481 
Q 3391 3053 3186 2806 
Q 2981 2559 2572 2497 
Q 3031 2428 3292 2104 
Q 3553 1781 3553 1281 
Q 3553 647 3137 323 
Q 2722 0 1900 0 
L 519 0 
L 519 4666 
z
" id="DejaVuSansMono-42" transform="scale(0.015625)"/>
      <path d="M 1113 2009 
L 2741 2009 
L 2741 1497 
L 1113 1497 
L 1113 2009 
z
" id="DejaVuSansMono-2d" transform="scale(0.015625)"/>
      <path d="M 3353 166 
Q 3113 38 2859 -26 
Q 2606 -91 2322 -91 
Q 1425 -91 929 543 
Q 434 1178 434 2328 
Q 434 3472 932 4111 
Q 1431 4750 2322 4750 
Q 2606 4750 2859 4686 
Q 3113 4622 3353 4494 
L 3353 3847 
Q 3122 4038 2856 4138 
Q 2591 4238 2322 4238 
Q 1706 4238 1400 3763 
Q 1094 3288 1094 2328 
Q 1094 1372 1400 897 
Q 1706 422 2322 422 
Q 2597 422 2861 522 
Q 3125 622 3353 813 
L 3353 166 
z
" id="DejaVuSansMono-43" transform="scale(0.015625)"/>
      <path d="M 147 4666 
L 3706 4666 
L 3706 4134 
L 2247 4134 
L 2247 0 
L 1613 0 
L 1613 4134 
L 147 4134 
L 147 4666 
z
" id="DejaVuSansMono-54" transform="scale(0.015625)"/>
      <path d="M 1997 1269 
Q 1997 881 2139 684 
Q 2281 488 2559 488 
L 3231 488 
L 3231 0 
L 2503 0 
Q 1988 0 1705 331 
Q 1422 663 1422 1269 
L 1422 4447 
L 500 4447 
L 500 4897 
L 1997 4897 
L 1997 1269 
z
" id="DejaVuSansMono-6c" transform="scale(0.015625)"/>
     </defs>
     <use xlink:href="#DejaVuSansMono-42"/>
     <use x="60.205078" xlink:href="#DejaVuSansMono-6f"/>
     <use x="120.410156" xlink:href="#DejaVuSansMono-6e"/>
     <use x="180.615234" xlink:href="#DejaVuSansMono-69"/>
     <use x="240.820312" xlink:href="#DejaVuSansMono-74"/>
     <use x="301.025391" xlink:href="#DejaVuSansMono-6f"/>
     <use x="361.230469" xlink:href="#DejaVuSansMono-20"/>
     <use x="421.435547" xlink:href="#DejaVuSansMono-2d"/>
     <use x="481.640625" xlink:href="#DejaVuSansMono-20"/>
     <use x="541.845703" xlink:href="#DejaVuSansMono-43"/>
     <use x="602.050781" xlink:href="#DejaVuSansMono-41"/>
     <use x="662.255859" xlink:href="#DejaVuSansMono-54"/>
     <use x="722.460938" xlink:href="#DejaVuSansMono-43"/>
     <use x="782.666016" xlink:href="#DejaVuSansMono-61"/>
     <use x="842.871094" xlink:href="#DejaVuSansMono-6c"/>
     <use x="903.076172" xlink:href="#DejaVuSansMono-6c"/>
     <use x="963.28125" xlink:href="#DejaVuSansMono-65"/>
     <use x="1023.486328" xlink:href="#DejaVuSansMono-72"/>
    </g>
    <!-- AUC: 0.854 -->
    <g transform="translate(221.126563 29.89575)scale(0.12 -0.12)">
     <defs>
      <path d="M 459 1791 
L 459 4666 
L 1094 4666 
L 1094 1503 
Q 1094 1163 1112 1017 
Q 1131 872 1178 794 
Q 1278 609 1467 515 
Q 1656 422 1925 422 
Q 2197 422 2384 515 
Q 2572 609 2675 794 
Q 2722 872 2740 1015 
Q 2759 1159 2759 1497 
L 2759 4666 
L 3391 4666 
L 3391 1791 
Q 3391 1075 3302 773 
Q 3213 472 2994 275 
Q 2788 91 2522 0 
Q 2256 -91 1925 -91 
Q 1597 -91 1331 0 
Q 1066 91 856 275 
Q 641 469 550 776 
Q 459 1084 459 1791 
z
" id="DejaVuSansMono-55" transform="scale(0.015625)"/>
      <path d="M 1528 3322 
L 2316 3322 
L 2316 2375 
L 1528 2375 
L 1528 3322 
z
M 1528 953 
L 2316 953 
L 2316 0 
L 1528 0 
L 1528 953 
z
" id="DejaVuSansMono-3a" transform="scale(0.015625)"/>
     </defs>
     <use xlink:href="#DejaVuSansMono-41"/>
     <use x="60.205078" xlink:href="#DejaVuSansMono-55"/>
     <use x="120.410156" xlink:href="#DejaVuSansMono-43"/>
     <use x="180.615234" xlink:href="#DejaVuSansMono-3a"/>
     <use x="240.820312" xlink:href="#DejaVuSansMono-20"/>
     <use x="301.025391" xlink:href="#DejaVuSansMono-30"/>
     <use x="361.230469" xlink:href="#DejaVuSansMono-2e"/>
     <use x="421.435547" xlink:href="#DejaVuSansMono-38"/>
     <use x="481.640625" xlink:href="#DejaVuSansMono-35"/>
     <use x="541.845703" xlink:href="#DejaVuSansMono-34"/>
    </g>
   </g>
  </g>
  <g id="axes_2">
   <g id="matplotlib.axis_3">
    <g id="ytick_10">
     <g id="line2d_17">
      <defs>
       <path d="M 0 0 
L 3.5 0 
" id="m79f6f96875" style="stroke:#000000;stroke-width:0.8;"/>
      </defs>
      <g>
       <use style="stroke:#000000;stroke-width:0.8;" x="456.448437" xlink:href="#m79f6f96875" y="409.138065"/>
      </g>
     </g>
     <g id="text_19">
      <!-- 4 -->
      <g transform="translate(463.448437 412.963846)scale(0.1 -0.1)">
       <use xlink:href="#DejaVuSansMono-34"/>
      </g>
     </g>
    </g>
    <g id="ytick_11">
     <g id="line2d_18">
      <g>
       <use style="stroke:#000000;stroke-width:0.8;" x="456.448437" xlink:href="#m79f6f96875" y="345.511054"/>
      </g>
     </g>
     <g id="text_20">
      <!-- 6 -->
      <g transform="translate(463.448437 349.336835)scale(0.1 -0.1)">
       <use xlink:href="#DejaVuSansMono-36"/>
      </g>
     </g>
    </g>
    <g id="ytick_12">
     <g id="line2d_19">
      <g>
       <use style="stroke:#000000;stroke-width:0.8;" x="456.448437" xlink:href="#m79f6f96875" y="281.884042"/>
      </g>
     </g>
     <g id="text_21">
      <!-- 8 -->
      <g transform="translate(463.448437 285.709823)scale(0.1 -0.1)">
       <use xlink:href="#DejaVuSansMono-38"/>
      </g>
     </g>
    </g>
    <g id="ytick_13">
     <g id="line2d_20">
      <g>
       <use style="stroke:#000000;stroke-width:0.8;" x="456.448437" xlink:href="#m79f6f96875" y="218.257031"/>
      </g>
     </g>
     <g id="text_22">
      <!-- 10 -->
      <g transform="translate(463.448437 222.082812)scale(0.1 -0.1)">
       <use xlink:href="#DejaVuSansMono-31"/>
       <use x="60.205078" xlink:href="#DejaVuSansMono-30"/>
      </g>
     </g>
    </g>
    <g id="ytick_14">
     <g id="line2d_21">
      <g>
       <use style="stroke:#000000;stroke-width:0.8;" x="456.448437" xlink:href="#m79f6f96875" y="154.630019"/>
      </g>
     </g>
     <g id="text_23">
      <!-- 12 -->
      <g transform="translate(463.448437 158.4558)scale(0.1 -0.1)">
       <use xlink:href="#DejaVuSansMono-31"/>
       <use x="60.205078" xlink:href="#DejaVuSansMono-32"/>
      </g>
     </g>
    </g>
    <g id="ytick_15">
     <g id="line2d_22">
      <g>
       <use style="stroke:#000000;stroke-width:0.8;" x="456.448437" xlink:href="#m79f6f96875" y="91.003008"/>
      </g>
     </g>
     <g id="text_24">
      <!-- 14 -->
      <g transform="translate(463.448437 94.828789)scale(0.1 -0.1)">
       <use xlink:href="#DejaVuSansMono-31"/>
       <use x="60.205078" xlink:href="#DejaVuSansMono-34"/>
      </g>
     </g>
    </g>
    <g id="text_25">
     <!-- Minimum read-mean PhredQ score -->
     <g transform="translate(487.140625 336.400437)rotate(-90)scale(0.1 -0.1)">
      <defs>
       <path d="M 269 4666 
L 1113 4666 
L 1919 2291 
L 2731 4666 
L 3578 4666 
L 3578 0 
L 2994 0 
L 2994 4122 
L 2163 1663 
L 1684 1663 
L 850 4122 
L 850 0 
L 269 0 
L 269 4666 
z
" id="DejaVuSansMono-4d" transform="scale(0.015625)"/>
       <path d="M 609 1325 
L 609 3494 
L 1184 3494 
L 1184 1325 
Q 1184 853 1351 631 
Q 1519 409 1869 409 
Q 2275 409 2490 695 
Q 2706 981 2706 1516 
L 2706 3494 
L 3284 3494 
L 3284 0 
L 2706 0 
L 2706 525 
Q 2553 222 2289 65 
Q 2025 -91 1672 -91 
Q 1134 -91 871 261 
Q 609 613 609 1325 
z
" id="DejaVuSansMono-75" transform="scale(0.015625)"/>
       <path d="M 1247 4147 
L 1247 2394 
L 1978 2394 
Q 2416 2394 2661 2625 
Q 2906 2856 2906 3272 
Q 2906 3688 2662 3917 
Q 2419 4147 1978 4147 
L 1247 4147 
z
M 616 4666 
L 1978 4666 
Q 2759 4666 3162 4311 
Q 3566 3956 3566 3272 
Q 3566 2581 3164 2228 
Q 2763 1875 1978 1875 
L 1247 1875 
L 1247 0 
L 616 0 
L 616 4666 
z
" id="DejaVuSansMono-50" transform="scale(0.015625)"/>
       <path d="M 2047 -84 
Q 2025 -84 1984 -87 
Q 1944 -91 1919 -91 
Q 1138 -91 752 509 
Q 366 1109 366 2328 
Q 366 3550 752 4150 
Q 1138 4750 1925 4750 
Q 2716 4750 3102 4150 
Q 3488 3550 3488 2328 
Q 3488 1409 3273 848 
Q 3059 288 2625 63 
L 3250 -531 
L 2778 -844 
L 2047 -84 
z
M 2828 2328 
Q 2828 3356 2617 3797 
Q 2406 4238 1925 4238 
Q 1447 4238 1236 3797 
Q 1025 3356 1025 2328 
Q 1025 1303 1236 862 
Q 1447 422 1925 422 
Q 2406 422 2617 861 
Q 2828 1300 2828 2328 
z
" id="DejaVuSansMono-51" transform="scale(0.015625)"/>
      </defs>
      <use xlink:href="#DejaVuSansMono-4d"/>
      <use x="60.205078" xlink:href="#DejaVuSansMono-69"/>
      <use x="120.410156" xlink:href="#DejaVuSansMono-6e"/>
      <use x="180.615234" xlink:href="#DejaVuSansMono-69"/>
      <use x="240.820312" xlink:href="#DejaVuSansMono-6d"/>
      <use x="301.025391" xlink:href="#DejaVuSansMono-75"/>
      <use x="361.230469" xlink:href="#DejaVuSansMono-6d"/>
      <use x="421.435547" xlink:href="#DejaVuSansMono-20"/>
      <use x="481.640625" xlink:href="#DejaVuSansMono-72"/>
      <use x="541.845703" xlink:href="#DejaVuSansMono-65"/>
      <use x="602.050781" xlink:href="#DejaVuSansMono-61"/>
      <use x="662.255859" xlink:href="#DejaVuSansMono-64"/>
      <use x="722.460938" xlink:href="#DejaVuSansMono-2d"/>
      <use x="782.666016" xlink:href="#DejaVuSansMono-6d"/>
      <use x="842.871094" xlink:href="#DejaVuSansMono-65"/>
      <use x="903.076172" xlink:href="#DejaVuSansMono-61"/>
      <use x="963.28125" xlink:href="#DejaVuSansMono-6e"/>
      <use x="1023.486328" xlink:href="#DejaVuSansMono-20"/>
      <use x="1083.691406" xlink:href="#DejaVuSansMono-50"/>
      <use x="1143.896484" xlink:href="#DejaVuSansMono-68"/>
      <use x="1204.101562" xlink:href="#DejaVuSansMono-72"/>
      <use x="1264.306641" xlink:href="#DejaVuSansMono-65"/>
      <use x="1324.511719" xlink:href="#DejaVuSansMono-64"/>
      <use x="1384.716797" xlink:href="#DejaVuSansMono-51"/>
      <use x="1444.921875" xlink:href="#DejaVuSansMono-20"/>
      <use x="1505.126953" xlink:href="#DejaVuSansMono-73"/>
      <use x="1565.332031" xlink:href="#DejaVuSansMono-63"/>
      <use x="1625.537109" xlink:href="#DejaVuSansMono-6f"/>
      <use x="1685.742188" xlink:href="#DejaVuSansMono-72"/>
      <use x="1745.947266" xlink:href="#DejaVuSansMono-65"/>
     </g>
    </g>
   </g>
   <g id="line2d_23">
    <path clip-path="url(#p8bd716a72b)" d="M 438.339347 437.186659 
L 437.555403 351.260581 
L 436.77146 340.476335 
L 434.41963 319.371676 
L 432.0678 308.210612 
L 431.283857 305.639561 
L 430.499913 302.244225 
L 428.148083 294.071197 
L 427.36414 291.456851 
L 425.796253 287.176492 
L 424.228367 283.62475 
L 422.66048 281.15537 
L 419.524707 275.596084 
L 418.740763 274.438037 
L 417.95682 272.77428 
L 414.037103 266.493305 
L 410.117387 261.267895 
L 409.333443 260.397177 
L 408.5495 259.147186 
L 406.981613 257.294439 
L 406.19767 256.586125 
L 404.629783 254.739978 
L 403.84584 253.564076 
L 399.926123 249.906183 
L 398.358237 248.168002 
L 396.79035 246.776756 
L 395.222463 245.243768 
L 390.518803 240.647454 
L 389.73486 239.726992 
L 388.166974 238.421353 
L 387.38303 237.566012 
L 386.599087 237.037436 
L 385.0312 235.573163 
L 381.895427 232.989414 
L 380.32754 231.753669 
L 378.759654 230.432501 
L 376.407824 228.685524 
L 374.055994 227.230529 
L 370.92022 224.972918 
L 370.136277 224.559499 
L 369.352334 223.909844 
L 365.432617 221.465495 
L 362.296844 219.271879 
L 358.377127 216.860588 
L 356.80924 215.806189 
L 350.537694 212.092023 
L 348.969807 211.330437 
L 347.40192 210.337234 
L 345.05009 208.942428 
L 342.69826 207.658466 
L 341.914317 207.176564 
L 340.34643 206.437296 
L 332.506997 202.487452 
L 330.93911 201.718686 
L 330.155167 201.252968 
L 329.371224 200.944922 
L 327.803337 200.037144 
L 326.23545 199.25156 
L 323.88362 198.09695 
L 321.531791 197.036568 
L 319.963904 196.249517 
L 314.476301 193.69188 
L 312.908414 193.078772 
L 309.772641 191.530596 
L 307.420811 190.63256 
L 303.501094 188.959011 
L 287.822227 182.376309 
L 284.686454 181.333583 
L 280.766737 179.905825 
L 261.168154 173.290686 
L 259.600267 172.628619 
L 256.464494 171.612318 
L 254.896608 171.142653 
L 254.112664 170.916035 
L 253.328721 170.538826 
L 251.760834 170.017716 
L 240.001684 165.839543 
L 238.433798 165.354923 
L 236.865911 164.777879 
L 229.026478 162.323201 
L 227.458591 161.721126 
L 223.538874 160.530488 
L 217.267328 158.482753 
L 213.347611 157.15883 
L 211.779724 156.518656 
L 207.860008 155.381756 
L 205.508178 154.605585 
L 203.156348 153.81075 
L 194.532971 151.305725 
L 190.613255 150.189384 
L 181.205935 146.968378 
L 178.070161 145.949145 
L 174.934388 144.9837 
L 171.014671 143.66043 
L 169.446785 143.196907 
L 164.743125 141.491434 
L 163.175238 140.983414 
L 159.255521 139.29775 
L 157.687635 138.773287 
L 156.903691 138.381562 
L 155.335805 137.857678 
L 153.767918 137.22859 
L 149.848201 135.697213 
L 143.576655 133.4038 
L 131.817505 128.440211 
L 131.033561 128.146292 
L 130.249618 127.701071 
L 127.113845 126.402967 
L 124.762015 125.228368 
L 123.194128 124.542098 
L 121.626242 123.814796 
L 120.058355 122.960881 
L 117.706525 121.651712 
L 116.138638 120.965673 
L 113.002865 119.050146 
L 111.434978 118.04427 
L 109.083148 116.571905 
L 105.947375 114.406609 
L 104.379488 113.412521 
L 102.027658 111.926944 
L 100.459772 110.657275 
L 96.540055 107.69206 
L 93.404282 104.757149 
L 91.836395 103.27008 
L 88.700622 99.814195 
L 86.348792 96.989686 
L 82.429075 90.310681 
L 80.861188 85.973204 
L 79.293302 80.241235 
L 78.509358 76.853146 
L 77.725415 71.570359 
L 76.941472 65.003234 
L 76.157528 55.004841 
L 76.157528 55.004841 
" style="fill:none;stroke:#ff0000;stroke-linecap:square;stroke-width:1.5;"/>
   </g>
   <g id="patch_7">
    <path d="M 58.048438 456.29575 
L 58.048438 35.89575 
" style="fill:none;stroke:#000000;stroke-linecap:square;stroke-linejoin:miter;stroke-width:0.8;"/>
   </g>
   <g id="patch_8">
    <path d="M 456.448437 456.29575 
L 456.448437 35.89575 
" style="fill:none;stroke:#000000;stroke-linecap:square;stroke-linejoin:miter;stroke-width:0.8;"/>
   </g>
   <g id="patch_9">
    <path d="M 58.048438 456.29575 
L 456.448438 456.29575 
" style="fill:none;stroke:#000000;stroke-linecap:square;stroke-linejoin:miter;stroke-width:0.8;"/>
   </g>
   <g id="patch_10">
    <path d="M 58.048438 35.89575 
L 456.448438 35.89575 
" style="fill:none;stroke:#000000;stroke-linecap:square;stroke-linejoin:miter;stroke-width:0.8;"/>
   </g>
  </g>
 </g>
 <defs>
  <clipPath id="p8bd716a72b">
   <rect height="420.4" width="398.4" x="58.048438" y="35.89575"/>
  </clipPath>
 </defs>
</svg>
