<?xml version="1.0" encoding="utf-8" standalone="no"?>
<!DOCTYPE svg PUBLIC "-//W3C//DTD SVG 1.1//EN"
  "http://www.w3.org/Graphics/SVG/1.1/DTD/svg11.dtd">
<svg height="493.95825pt" version="1.1" viewBox="0 0 496.4 493.95825" width="496.4pt" xmlns="http://www.w3.org/2000/svg" xmlns:xlink="http://www.w3.org/1999/xlink">
 <metadata>
  <rdf:RDF xmlns:cc="http://creativecommons.org/ns#" xmlns:dc="http://purl.org/dc/elements/1.1/" xmlns:rdf="http://www.w3.org/1999/02/22-rdf-syntax-ns#">
   <cc:Work>
    <dc:type rdf:resource="http://purl.org/dc/dcmitype/StillImage"/>
    <dc:date>2022-01-25T10:31:24.611657</dc:date>
    <dc:format>image/svg+xml</dc:format>
    <dc:creator>
     <cc:Agent>
      <dc:title>Matplotlib v3.4.2, https://matplotlib.org/</dc:title>
     </cc:Agent>
    </dc:creator>
   </cc:Work>
  </rdf:RDF>
 </metadata>
 <defs>
  <style type="text/css">*{stroke-linecap:butt;stroke-linejoin:round;}</style>
 </defs>
 <g id="figure_1">
  <g id="patch_1">
   <path d="M 0 493.95825 
L 496.4 493.95825 
L 496.4 0 
L 0 0 
z
" style="fill:none;"/>
  </g>
  <g id="axes_1">
   <g id="patch_2">
    <path d="M 52.028125 456.29575 
L 456.428125 456.29575 
L 456.428125 35.89575 
L 52.028125 35.89575 
z
" style="fill:none;"/>
   </g>
   <g id="matplotlib.axis_1">
    <g id="xtick_1">
     <g id="line2d_1">
      <defs>
       <path d="M 0 0 
L 0 3.5 
" id="m08ddc00c2a" style="stroke:#000000;stroke-width:0.8;"/>
      </defs>
      <g>
       <use style="stroke:#000000;stroke-width:0.8;" x="69.74867" xlink:href="#m08ddc00c2a" y="456.29575"/>
      </g>
     </g>
     <g id="text_1">
      <!-- 0.0 -->
      <g transform="translate(60.718201 470.947312)scale(0.1 -0.1)">
       <defs>
        <path d="M 1509 2344 
Q 1509 2516 1629 2641 
Q 1750 2766 1919 2766 
Q 2094 2766 2219 2641 
Q 2344 2516 2344 2344 
Q 2344 2169 2220 2047 
Q 2097 1925 1919 1925 
Q 1744 1925 1626 2044 
Q 1509 2163 1509 2344 
z
M 1925 4250 
Q 1484 4250 1267 3775 
Q 1050 3300 1050 2328 
Q 1050 1359 1267 884 
Q 1484 409 1925 409 
Q 2369 409 2586 884 
Q 2803 1359 2803 2328 
Q 2803 3300 2586 3775 
Q 2369 4250 1925 4250 
z
M 1925 4750 
Q 2672 4750 3055 4137 
Q 3438 3525 3438 2328 
Q 3438 1134 3055 521 
Q 2672 -91 1925 -91 
Q 1178 -91 797 521 
Q 416 1134 416 2328 
Q 416 3525 797 4137 
Q 1178 4750 1925 4750 
z
" id="DejaVuSansMono-30" transform="scale(0.015625)"/>
        <path d="M 1528 953 
L 2316 953 
L 2316 0 
L 1528 0 
L 1528 953 
z
" id="DejaVuSansMono-2e" transform="scale(0.015625)"/>
       </defs>
       <use xlink:href="#DejaVuSansMono-30"/>
       <use x="60.205078" xlink:href="#DejaVuSansMono-2e"/>
       <use x="120.410156" xlink:href="#DejaVuSansMono-30"/>
      </g>
     </g>
    </g>
    <g id="xtick_2">
     <g id="line2d_2">
      <g>
       <use style="stroke:#000000;stroke-width:0.8;" x="143.408197" xlink:href="#m08ddc00c2a" y="456.29575"/>
      </g>
     </g>
     <g id="text_2">
      <!-- 0.2 -->
      <g transform="translate(134.377729 470.947312)scale(0.1 -0.1)">
       <defs>
        <path d="M 1166 531 
L 3309 531 
L 3309 0 
L 475 0 
L 475 531 
Q 1059 1147 1496 1619 
Q 1934 2091 2100 2284 
Q 2413 2666 2522 2902 
Q 2631 3138 2631 3384 
Q 2631 3775 2401 3997 
Q 2172 4219 1772 4219 
Q 1488 4219 1175 4116 
Q 863 4013 513 3803 
L 513 4441 
Q 834 4594 1145 4672 
Q 1456 4750 1759 4750 
Q 2444 4750 2861 4386 
Q 3278 4022 3278 3431 
Q 3278 3131 3139 2831 
Q 3000 2531 2688 2169 
Q 2513 1966 2180 1606 
Q 1847 1247 1166 531 
z
" id="DejaVuSansMono-32" transform="scale(0.015625)"/>
       </defs>
       <use xlink:href="#DejaVuSansMono-30"/>
       <use x="60.205078" xlink:href="#DejaVuSansMono-2e"/>
       <use x="120.410156" xlink:href="#DejaVuSansMono-32"/>
      </g>
     </g>
    </g>
    <g id="xtick_3">
     <g id="line2d_3">
      <g>
       <use style="stroke:#000000;stroke-width:0.8;" x="217.067725" xlink:href="#m08ddc00c2a" y="456.29575"/>
      </g>
     </g>
     <g id="text_3">
      <!-- 0.4 -->
      <g transform="translate(208.037256 470.947312)scale(0.1 -0.1)">
       <defs>
        <path d="M 2297 4091 
L 825 1625 
L 2297 1625 
L 2297 4091 
z
M 2194 4666 
L 2925 4666 
L 2925 1625 
L 3547 1625 
L 3547 1113 
L 2925 1113 
L 2925 0 
L 2297 0 
L 2297 1113 
L 319 1113 
L 319 1709 
L 2194 4666 
z
" id="DejaVuSansMono-34" transform="scale(0.015625)"/>
       </defs>
       <use xlink:href="#DejaVuSansMono-30"/>
       <use x="60.205078" xlink:href="#DejaVuSansMono-2e"/>
       <use x="120.410156" xlink:href="#DejaVuSansMono-34"/>
      </g>
     </g>
    </g>
    <g id="xtick_4">
     <g id="line2d_4">
      <g>
       <use style="stroke:#000000;stroke-width:0.8;" x="290.727252" xlink:href="#m08ddc00c2a" y="456.29575"/>
      </g>
     </g>
     <g id="text_4">
      <!-- 0.6 -->
      <g transform="translate(281.696783 470.947312)scale(0.1 -0.1)">
       <defs>
        <path d="M 3097 4563 
L 3097 3981 
Q 2900 4097 2678 4158 
Q 2456 4219 2216 4219 
Q 1616 4219 1306 3767 
Q 997 3316 997 2438 
Q 1147 2750 1412 2917 
Q 1678 3084 2022 3084 
Q 2697 3084 3067 2670 
Q 3438 2256 3438 1497 
Q 3438 741 3056 325 
Q 2675 -91 1984 -91 
Q 1172 -91 794 492 
Q 416 1075 416 2328 
Q 416 3509 870 4129 
Q 1325 4750 2188 4750 
Q 2419 4750 2650 4701 
Q 2881 4653 3097 4563 
z
M 1972 2591 
Q 1569 2591 1337 2300 
Q 1106 2009 1106 1497 
Q 1106 984 1337 693 
Q 1569 403 1972 403 
Q 2391 403 2603 679 
Q 2816 956 2816 1497 
Q 2816 2041 2603 2316 
Q 2391 2591 1972 2591 
z
" id="DejaVuSansMono-36" transform="scale(0.015625)"/>
       </defs>
       <use xlink:href="#DejaVuSansMono-30"/>
       <use x="60.205078" xlink:href="#DejaVuSansMono-2e"/>
       <use x="120.410156" xlink:href="#DejaVuSansMono-36"/>
      </g>
     </g>
    </g>
    <g id="xtick_5">
     <g id="line2d_5">
      <g>
       <use style="stroke:#000000;stroke-width:0.8;" x="364.386779" xlink:href="#m08ddc00c2a" y="456.29575"/>
      </g>
     </g>
     <g id="text_5">
      <!-- 0.8 -->
      <g transform="translate(355.356311 470.947312)scale(0.1 -0.1)">
       <defs>
        <path d="M 1925 2216 
Q 1503 2216 1273 1980 
Q 1044 1744 1044 1313 
Q 1044 881 1276 642 
Q 1509 403 1925 403 
Q 2350 403 2579 639 
Q 2809 875 2809 1313 
Q 2809 1741 2576 1978 
Q 2344 2216 1925 2216 
z
M 1375 2478 
Q 972 2581 745 2862 
Q 519 3144 519 3541 
Q 519 4097 897 4423 
Q 1275 4750 1925 4750 
Q 2578 4750 2956 4423 
Q 3334 4097 3334 3541 
Q 3334 3144 3107 2862 
Q 2881 2581 2478 2478 
Q 2947 2375 3195 2062 
Q 3444 1750 3444 1253 
Q 3444 622 3041 265 
Q 2638 -91 1925 -91 
Q 1213 -91 811 264 
Q 409 619 409 1247 
Q 409 1747 657 2061 
Q 906 2375 1375 2478 
z
M 1147 3481 
Q 1147 3106 1347 2909 
Q 1547 2713 1925 2713 
Q 2306 2713 2506 2909 
Q 2706 3106 2706 3481 
Q 2706 3863 2507 4063 
Q 2309 4263 1925 4263 
Q 1547 4263 1347 4061 
Q 1147 3859 1147 3481 
z
" id="DejaVuSansMono-38" transform="scale(0.015625)"/>
       </defs>
       <use xlink:href="#DejaVuSansMono-30"/>
       <use x="60.205078" xlink:href="#DejaVuSansMono-2e"/>
       <use x="120.410156" xlink:href="#DejaVuSansMono-38"/>
      </g>
     </g>
    </g>
    <g id="xtick_6">
     <g id="line2d_6">
      <g>
       <use style="stroke:#000000;stroke-width:0.8;" x="438.046307" xlink:href="#m08ddc00c2a" y="456.29575"/>
      </g>
     </g>
     <g id="text_6">
      <!-- 1.0 -->
      <g transform="translate(429.015838 470.947312)scale(0.1 -0.1)">
       <defs>
        <path d="M 844 531 
L 1825 531 
L 1825 4097 
L 769 3859 
L 769 4434 
L 1819 4666 
L 2450 4666 
L 2450 531 
L 3419 531 
L 3419 0 
L 844 0 
L 844 531 
z
" id="DejaVuSansMono-31" transform="scale(0.015625)"/>
       </defs>
       <use xlink:href="#DejaVuSansMono-31"/>
       <use x="60.205078" xlink:href="#DejaVuSansMono-2e"/>
       <use x="120.410156" xlink:href="#DejaVuSansMono-30"/>
      </g>
     </g>
    </g>
    <g id="text_7">
     <!-- Fraction of reads -->
     <g transform="translate(203.055469 484.678562)scale(0.1 -0.1)">
      <defs>
       <path d="M 728 4666 
L 3475 4666 
L 3475 4134 
L 1363 4134 
L 1363 2759 
L 3278 2759 
L 3278 2228 
L 1363 2228 
L 1363 0 
L 728 0 
L 728 4666 
z
" id="DejaVuSansMono-46" transform="scale(0.015625)"/>
       <path d="M 3609 2778 
Q 3425 2922 3234 2987 
Q 3044 3053 2816 3053 
Q 2278 3053 1993 2715 
Q 1709 2378 1709 1741 
L 1709 0 
L 1131 0 
L 1131 3500 
L 1709 3500 
L 1709 2816 
Q 1853 3188 2151 3386 
Q 2450 3584 2859 3584 
Q 3072 3584 3256 3531 
Q 3441 3478 3609 3366 
L 3609 2778 
z
" id="DejaVuSansMono-72" transform="scale(0.015625)"/>
       <path d="M 2194 1759 
L 2003 1759 
Q 1500 1759 1245 1582 
Q 991 1406 991 1056 
Q 991 741 1181 566 
Q 1372 391 1709 391 
Q 2184 391 2456 720 
Q 2728 1050 2731 1631 
L 2731 1759 
L 2194 1759 
z
M 3309 1997 
L 3309 0 
L 2731 0 
L 2731 519 
Q 2547 206 2267 57 
Q 1988 -91 1588 -91 
Q 1053 -91 734 211 
Q 416 513 416 1019 
Q 416 1603 808 1906 
Q 1200 2209 1959 2209 
L 2731 2209 
L 2731 2300 
Q 2728 2719 2518 2908 
Q 2309 3097 1850 3097 
Q 1556 3097 1256 3012 
Q 956 2928 672 2766 
L 672 3341 
Q 991 3463 1283 3523 
Q 1575 3584 1850 3584 
Q 2284 3584 2592 3456 
Q 2900 3328 3091 3072 
Q 3209 2916 3259 2686 
Q 3309 2456 3309 1997 
z
" id="DejaVuSansMono-61" transform="scale(0.015625)"/>
       <path d="M 3316 178 
Q 3084 44 2839 -23 
Q 2594 -91 2338 -91 
Q 1525 -91 1067 396 
Q 609 884 609 1747 
Q 609 2609 1067 3096 
Q 1525 3584 2338 3584 
Q 2591 3584 2831 3518 
Q 3072 3453 3316 3316 
L 3316 2713 
Q 3088 2916 2858 3006 
Q 2628 3097 2338 3097 
Q 1797 3097 1506 2747 
Q 1216 2397 1216 1747 
Q 1216 1100 1508 748 
Q 1800 397 2338 397 
Q 2638 397 2875 489 
Q 3113 581 3316 775 
L 3316 178 
z
" id="DejaVuSansMono-63" transform="scale(0.015625)"/>
       <path d="M 1919 4494 
L 1919 3500 
L 3225 3500 
L 3225 3053 
L 1919 3053 
L 1919 1153 
Q 1919 766 2066 612 
Q 2213 459 2578 459 
L 3225 459 
L 3225 0 
L 2522 0 
Q 1875 0 1609 259 
Q 1344 519 1344 1153 
L 1344 3053 
L 409 3053 
L 409 3500 
L 1344 3500 
L 1344 4494 
L 1919 4494 
z
" id="DejaVuSansMono-74" transform="scale(0.015625)"/>
       <path d="M 800 3500 
L 2272 3500 
L 2272 447 
L 3413 447 
L 3413 0 
L 556 0 
L 556 447 
L 1697 447 
L 1697 3053 
L 800 3053 
L 800 3500 
z
M 1697 4863 
L 2272 4863 
L 2272 4134 
L 1697 4134 
L 1697 4863 
z
" id="DejaVuSansMono-69" transform="scale(0.015625)"/>
       <path d="M 1925 3097 
Q 1488 3097 1263 2756 
Q 1038 2416 1038 1747 
Q 1038 1081 1263 739 
Q 1488 397 1925 397 
Q 2366 397 2591 739 
Q 2816 1081 2816 1747 
Q 2816 2416 2591 2756 
Q 2366 3097 1925 3097 
z
M 1925 3584 
Q 2653 3584 3039 3112 
Q 3425 2641 3425 1747 
Q 3425 850 3040 379 
Q 2656 -91 1925 -91 
Q 1197 -91 812 379 
Q 428 850 428 1747 
Q 428 2641 812 3112 
Q 1197 3584 1925 3584 
z
" id="DejaVuSansMono-6f" transform="scale(0.015625)"/>
       <path d="M 3284 2169 
L 3284 0 
L 2706 0 
L 2706 2169 
Q 2706 2641 2540 2862 
Q 2375 3084 2022 3084 
Q 1619 3084 1401 2798 
Q 1184 2513 1184 1978 
L 1184 0 
L 609 0 
L 609 3500 
L 1184 3500 
L 1184 2975 
Q 1338 3275 1600 3429 
Q 1863 3584 2222 3584 
Q 2756 3584 3020 3232 
Q 3284 2881 3284 2169 
z
" id="DejaVuSansMono-6e" transform="scale(0.015625)"/>
       <path id="DejaVuSansMono-20" transform="scale(0.015625)"/>
       <path d="M 3322 4863 
L 3322 4384 
L 2669 4384 
Q 2359 4384 2239 4257 
Q 2119 4131 2119 3809 
L 2119 3500 
L 3322 3500 
L 3322 3053 
L 2119 3053 
L 2119 0 
L 1544 0 
L 1544 3053 
L 609 3053 
L 609 3500 
L 1544 3500 
L 1544 3744 
Q 1544 4319 1808 4591 
Q 2072 4863 2631 4863 
L 3322 4863 
z
" id="DejaVuSansMono-66" transform="scale(0.015625)"/>
       <path d="M 3475 1894 
L 3475 1613 
L 984 1613 
L 984 1594 
Q 984 1022 1282 709 
Q 1581 397 2125 397 
Q 2400 397 2700 484 
Q 3000 572 3341 750 
L 3341 178 
Q 3013 44 2708 -23 
Q 2403 -91 2119 -91 
Q 1303 -91 843 398 
Q 384 888 384 1747 
Q 384 2584 834 3084 
Q 1284 3584 2034 3584 
Q 2703 3584 3089 3131 
Q 3475 2678 3475 1894 
z
M 2900 2063 
Q 2888 2569 2661 2833 
Q 2434 3097 2009 3097 
Q 1594 3097 1325 2822 
Q 1056 2547 1006 2059 
L 2900 2063 
z
" id="DejaVuSansMono-65" transform="scale(0.015625)"/>
       <path d="M 2681 3053 
L 2681 4863 
L 3256 4863 
L 3256 0 
L 2681 0 
L 2681 441 
Q 2538 181 2298 45 
Q 2059 -91 1747 -91 
Q 1113 -91 748 401 
Q 384 894 384 1759 
Q 384 2613 750 3098 
Q 1116 3584 1747 3584 
Q 2063 3584 2303 3448 
Q 2544 3313 2681 3053 
z
M 991 1747 
Q 991 1078 1203 737 
Q 1416 397 1831 397 
Q 2247 397 2464 740 
Q 2681 1084 2681 1747 
Q 2681 2413 2464 2755 
Q 2247 3097 1831 3097 
Q 1416 3097 1203 2756 
Q 991 2416 991 1747 
z
" id="DejaVuSansMono-64" transform="scale(0.015625)"/>
       <path d="M 3041 3378 
L 3041 2816 
Q 2794 2959 2544 3031 
Q 2294 3103 2034 3103 
Q 1644 3103 1451 2976 
Q 1259 2850 1259 2591 
Q 1259 2356 1403 2240 
Q 1547 2125 2119 2016 
L 2350 1972 
Q 2778 1891 2998 1647 
Q 3219 1403 3219 1013 
Q 3219 494 2850 201 
Q 2481 -91 1825 -91 
Q 1566 -91 1281 -36 
Q 997 19 666 128 
L 666 722 
Q 988 556 1281 473 
Q 1575 391 1838 391 
Q 2219 391 2428 545 
Q 2638 700 2638 978 
Q 2638 1378 1872 1531 
L 1847 1538 
L 1631 1581 
Q 1134 1678 906 1908 
Q 678 2138 678 2534 
Q 678 3038 1018 3311 
Q 1359 3584 1991 3584 
Q 2272 3584 2531 3532 
Q 2791 3481 3041 3378 
z
" id="DejaVuSansMono-73" transform="scale(0.015625)"/>
      </defs>
      <use xlink:href="#DejaVuSansMono-46"/>
      <use x="60.205078" xlink:href="#DejaVuSansMono-72"/>
      <use x="120.410156" xlink:href="#DejaVuSansMono-61"/>
      <use x="180.615234" xlink:href="#DejaVuSansMono-63"/>
      <use x="240.820312" xlink:href="#DejaVuSansMono-74"/>
      <use x="301.025391" xlink:href="#DejaVuSansMono-69"/>
      <use x="361.230469" xlink:href="#DejaVuSansMono-6f"/>
      <use x="421.435547" xlink:href="#DejaVuSansMono-6e"/>
      <use x="481.640625" xlink:href="#DejaVuSansMono-20"/>
      <use x="541.845703" xlink:href="#DejaVuSansMono-6f"/>
      <use x="602.050781" xlink:href="#DejaVuSansMono-66"/>
      <use x="662.255859" xlink:href="#DejaVuSansMono-20"/>
      <use x="722.460938" xlink:href="#DejaVuSansMono-72"/>
      <use x="782.666016" xlink:href="#DejaVuSansMono-65"/>
      <use x="842.871094" xlink:href="#DejaVuSansMono-61"/>
      <use x="903.076172" xlink:href="#DejaVuSansMono-64"/>
      <use x="963.28125" xlink:href="#DejaVuSansMono-73"/>
     </g>
    </g>
   </g>
   <g id="matplotlib.axis_2">
    <g id="ytick_1">
     <g id="line2d_7">
      <defs>
       <path d="M 0 0 
L -3.5 0 
" id="md697f42a0f" style="stroke:#000000;stroke-width:0.8;"/>
      </defs>
      <g>
       <use style="stroke:#000000;stroke-width:0.8;" x="52.028125" xlink:href="#md697f42a0f" y="442.74414"/>
      </g>
     </g>
     <g id="text_8">
      <!-- 0.76 -->
      <g transform="translate(20.946875 446.569921)scale(0.1 -0.1)">
       <defs>
        <path d="M 434 4666 
L 3372 4666 
L 3372 4397 
L 1703 0 
L 1044 0 
L 2669 4134 
L 434 4134 
L 434 4666 
z
" id="DejaVuSansMono-37" transform="scale(0.015625)"/>
       </defs>
       <use xlink:href="#DejaVuSansMono-30"/>
       <use x="60.205078" xlink:href="#DejaVuSansMono-2e"/>
       <use x="120.410156" xlink:href="#DejaVuSansMono-37"/>
       <use x="180.615234" xlink:href="#DejaVuSansMono-36"/>
      </g>
     </g>
    </g>
    <g id="ytick_2">
     <g id="line2d_8">
      <g>
       <use style="stroke:#000000;stroke-width:0.8;" x="52.028125" xlink:href="#md697f42a0f" y="378.41265"/>
      </g>
     </g>
     <g id="text_9">
      <!-- 0.78 -->
      <g transform="translate(20.946875 382.238431)scale(0.1 -0.1)">
       <use xlink:href="#DejaVuSansMono-30"/>
       <use x="60.205078" xlink:href="#DejaVuSansMono-2e"/>
       <use x="120.410156" xlink:href="#DejaVuSansMono-37"/>
       <use x="180.615234" xlink:href="#DejaVuSansMono-38"/>
      </g>
     </g>
    </g>
    <g id="ytick_3">
     <g id="line2d_9">
      <g>
       <use style="stroke:#000000;stroke-width:0.8;" x="52.028125" xlink:href="#md697f42a0f" y="314.081159"/>
      </g>
     </g>
     <g id="text_10">
      <!-- 0.80 -->
      <g transform="translate(20.946875 317.90694)scale(0.1 -0.1)">
       <use xlink:href="#DejaVuSansMono-30"/>
       <use x="60.205078" xlink:href="#DejaVuSansMono-2e"/>
       <use x="120.410156" xlink:href="#DejaVuSansMono-38"/>
       <use x="180.615234" xlink:href="#DejaVuSansMono-30"/>
      </g>
     </g>
    </g>
    <g id="ytick_4">
     <g id="line2d_10">
      <g>
       <use style="stroke:#000000;stroke-width:0.8;" x="52.028125" xlink:href="#md697f42a0f" y="249.749669"/>
      </g>
     </g>
     <g id="text_11">
      <!-- 0.82 -->
      <g transform="translate(20.946875 253.57545)scale(0.1 -0.1)">
       <use xlink:href="#DejaVuSansMono-30"/>
       <use x="60.205078" xlink:href="#DejaVuSansMono-2e"/>
       <use x="120.410156" xlink:href="#DejaVuSansMono-38"/>
       <use x="180.615234" xlink:href="#DejaVuSansMono-32"/>
      </g>
     </g>
    </g>
    <g id="ytick_5">
     <g id="line2d_11">
      <g>
       <use style="stroke:#000000;stroke-width:0.8;" x="52.028125" xlink:href="#md697f42a0f" y="185.418178"/>
      </g>
     </g>
     <g id="text_12">
      <!-- 0.84 -->
      <g transform="translate(20.946875 189.243959)scale(0.1 -0.1)">
       <use xlink:href="#DejaVuSansMono-30"/>
       <use x="60.205078" xlink:href="#DejaVuSansMono-2e"/>
       <use x="120.410156" xlink:href="#DejaVuSansMono-38"/>
       <use x="180.615234" xlink:href="#DejaVuSansMono-34"/>
      </g>
     </g>
    </g>
    <g id="ytick_6">
     <g id="line2d_12">
      <g>
       <use style="stroke:#000000;stroke-width:0.8;" x="52.028125" xlink:href="#md697f42a0f" y="121.086688"/>
      </g>
     </g>
     <g id="text_13">
      <!-- 0.86 -->
      <g transform="translate(20.946875 124.912469)scale(0.1 -0.1)">
       <use xlink:href="#DejaVuSansMono-30"/>
       <use x="60.205078" xlink:href="#DejaVuSansMono-2e"/>
       <use x="120.410156" xlink:href="#DejaVuSansMono-38"/>
       <use x="180.615234" xlink:href="#DejaVuSansMono-36"/>
      </g>
     </g>
    </g>
    <g id="ytick_7">
     <g id="line2d_13">
      <g>
       <use style="stroke:#000000;stroke-width:0.8;" x="52.028125" xlink:href="#md697f42a0f" y="56.755197"/>
      </g>
     </g>
     <g id="text_14">
      <!-- 0.88 -->
      <g transform="translate(20.946875 60.580978)scale(0.1 -0.1)">
       <use xlink:href="#DejaVuSansMono-30"/>
       <use x="60.205078" xlink:href="#DejaVuSansMono-2e"/>
       <use x="120.410156" xlink:href="#DejaVuSansMono-38"/>
       <use x="180.615234" xlink:href="#DejaVuSansMono-38"/>
      </g>
     </g>
    </g>
    <g id="text_15">
     <!-- Average match rate -->
     <g transform="translate(14.798438 300.278562)rotate(-90)scale(0.1 -0.1)">
      <defs>
       <path d="M 1925 4109 
L 1259 1722 
L 2591 1722 
L 1925 4109 
z
M 1544 4666 
L 2309 4666 
L 3738 0 
L 3084 0 
L 2741 1216 
L 1106 1216 
L 769 0 
L 116 0 
L 1544 4666 
z
" id="DejaVuSansMono-41" transform="scale(0.015625)"/>
       <path d="M 313 3500 
L 909 3500 
L 1925 563 
L 2944 3500 
L 3541 3500 
L 2297 0 
L 1556 0 
L 313 3500 
z
" id="DejaVuSansMono-76" transform="scale(0.015625)"/>
       <path d="M 2681 1778 
Q 2681 2425 2470 2761 
Q 2259 3097 1856 3097 
Q 1434 3097 1212 2761 
Q 991 2425 991 1778 
Q 991 1131 1214 792 
Q 1438 453 1863 453 
Q 2259 453 2470 793 
Q 2681 1134 2681 1778 
z
M 3256 225 
Q 3256 -563 2884 -969 
Q 2513 -1375 1791 -1375 
Q 1553 -1375 1293 -1331 
Q 1034 -1288 775 -1203 
L 775 -634 
Q 1081 -778 1331 -847 
Q 1581 -916 1791 -916 
Q 2256 -916 2468 -662 
Q 2681 -409 2681 141 
L 2681 166 
L 2681 556 
Q 2544 263 2306 119 
Q 2069 -25 1728 -25 
Q 1116 -25 750 465 
Q 384 956 384 1778 
Q 384 2603 750 3093 
Q 1116 3584 1728 3584 
Q 2066 3584 2300 3450 
Q 2534 3316 2681 3034 
L 2681 3488 
L 3256 3488 
L 3256 225 
z
" id="DejaVuSansMono-67" transform="scale(0.015625)"/>
       <path d="M 2113 3144 
Q 2219 3369 2383 3476 
Q 2547 3584 2778 3584 
Q 3200 3584 3373 3257 
Q 3547 2931 3547 2028 
L 3547 0 
L 3022 0 
L 3022 2003 
Q 3022 2744 2939 2923 
Q 2856 3103 2638 3103 
Q 2388 3103 2295 2911 
Q 2203 2719 2203 2003 
L 2203 0 
L 1678 0 
L 1678 2003 
Q 1678 2753 1589 2928 
Q 1500 3103 1269 3103 
Q 1041 3103 952 2911 
Q 863 2719 863 2003 
L 863 0 
L 341 0 
L 341 3500 
L 863 3500 
L 863 3200 
Q 966 3388 1120 3486 
Q 1275 3584 1472 3584 
Q 1709 3584 1867 3475 
Q 2025 3366 2113 3144 
z
" id="DejaVuSansMono-6d" transform="scale(0.015625)"/>
       <path d="M 3284 2169 
L 3284 0 
L 2706 0 
L 2706 2169 
Q 2706 2641 2540 2862 
Q 2375 3084 2022 3084 
Q 1619 3084 1401 2798 
Q 1184 2513 1184 1978 
L 1184 0 
L 609 0 
L 609 4863 
L 1184 4863 
L 1184 2975 
Q 1338 3275 1600 3429 
Q 1863 3584 2222 3584 
Q 2756 3584 3020 3232 
Q 3284 2881 3284 2169 
z
" id="DejaVuSansMono-68" transform="scale(0.015625)"/>
      </defs>
      <use xlink:href="#DejaVuSansMono-41"/>
      <use x="60.205078" xlink:href="#DejaVuSansMono-76"/>
      <use x="120.410156" xlink:href="#DejaVuSansMono-65"/>
      <use x="180.615234" xlink:href="#DejaVuSansMono-72"/>
      <use x="240.820312" xlink:href="#DejaVuSansMono-61"/>
      <use x="301.025391" xlink:href="#DejaVuSansMono-67"/>
      <use x="361.230469" xlink:href="#DejaVuSansMono-65"/>
      <use x="421.435547" xlink:href="#DejaVuSansMono-20"/>
      <use x="481.640625" xlink:href="#DejaVuSansMono-6d"/>
      <use x="541.845703" xlink:href="#DejaVuSansMono-61"/>
      <use x="602.050781" xlink:href="#DejaVuSansMono-74"/>
      <use x="662.255859" xlink:href="#DejaVuSansMono-63"/>
      <use x="722.460938" xlink:href="#DejaVuSansMono-68"/>
      <use x="782.666016" xlink:href="#DejaVuSansMono-20"/>
      <use x="842.871094" xlink:href="#DejaVuSansMono-72"/>
      <use x="903.076172" xlink:href="#DejaVuSansMono-61"/>
      <use x="963.28125" xlink:href="#DejaVuSansMono-74"/>
      <use x="1023.486328" xlink:href="#DejaVuSansMono-65"/>
     </g>
    </g>
   </g>
   <g id="line2d_14">
    <path clip-path="url(#p2918ae8ba1)" d="M 438.046307 179.316557 
L 437.259077 176.823402 
L 436.471847 174.863269 
L 433.322927 168.908107 
L 432.535698 167.918686 
L 430.174008 164.160004 
L 426.237858 159.521388 
L 419.940019 153.078568 
L 418.365559 151.592691 
L 415.21664 148.551843 
L 413.64218 147.500391 
L 412.06772 146.138931 
L 407.344341 142.620879 
L 405.769881 141.352348 
L 404.195421 140.382321 
L 401.833731 138.563484 
L 400.259272 137.634621 
L 398.684812 136.493324 
L 397.110352 135.331695 
L 395.535892 134.494346 
L 394.748662 133.837548 
L 393.174202 132.961968 
L 392.386973 132.24632 
L 391.599743 131.731673 
L 390.812513 131.394629 
L 388.450823 129.995914 
L 387.663593 129.339187 
L 384.514674 127.813263 
L 381.365754 125.928184 
L 379.791294 124.81053 
L 379.004064 124.271515 
L 378.216834 123.962726 
L 377.429604 123.282037 
L 376.642375 122.903618 
L 375.067915 121.943595 
L 374.280685 121.492064 
L 372.706225 120.811978 
L 371.918995 120.40286 
L 371.131765 119.859431 
L 369.557305 118.96488 
L 366.408386 117.138153 
L 364.833926 116.460448 
L 363.259466 115.769387 
L 360.110547 114.449484 
L 357.748857 113.017895 
L 356.961627 112.538536 
L 356.174397 112.299953 
L 354.599937 111.417963 
L 353.025478 110.824782 
L 351.451018 110.055532 
L 350.663788 109.650752 
L 348.302098 108.096391 
L 345.940408 107.044657 
L 344.365949 105.999728 
L 342.791489 105.330353 
L 341.217029 104.618847 
L 340.429799 104.489231 
L 338.855339 103.920684 
L 338.068109 103.644633 
L 335.70642 102.231925 
L 334.91919 102.117243 
L 332.5575 100.858816 
L 331.77027 100.652242 
L 328.621351 99.227222 
L 325.472431 98.134802 
L 324.685201 97.754613 
L 323.897971 97.529154 
L 323.110741 97.152619 
L 321.536282 96.559762 
L 318.387362 95.28042 
L 316.025672 94.301757 
L 312.089523 92.810259 
L 311.302293 92.236857 
L 308.940603 91.39529 
L 307.366143 90.951456 
L 306.578913 90.673024 
L 305.004454 89.783386 
L 303.429994 89.332925 
L 301.068304 88.22282 
L 299.493844 87.793304 
L 297.919384 86.811756 
L 297.132155 86.700811 
L 295.557695 86.142237 
L 294.770465 86.020697 
L 293.196005 85.140863 
L 292.408775 84.925256 
L 291.621545 84.568934 
L 290.834315 84.351585 
L 288.472626 83.239045 
L 286.898166 82.415861 
L 286.110936 82.243493 
L 285.323706 82.228558 
L 284.536476 82.006555 
L 283.749246 81.409253 
L 282.174786 81.271949 
L 280.600327 80.945655 
L 279.813097 80.928775 
L 279.025867 80.616538 
L 278.238637 80.519662 
L 277.451407 80.060496 
L 275.876947 79.744951 
L 275.089717 79.534748 
L 274.302487 79.514362 
L 271.940798 78.913311 
L 271.153568 78.427006 
L 268.791878 77.7255 
L 267.217418 77.115889 
L 266.430188 76.668146 
L 265.642959 76.48206 
L 264.855729 76.436874 
L 263.281269 75.770112 
L 262.494039 75.614469 
L 260.919579 74.644932 
L 260.132349 74.505247 
L 259.345119 74.058044 
L 258.557889 73.968372 
L 256.98343 73.551329 
L 255.40897 73.396891 
L 254.62174 73.26839 
L 253.83451 73.008081 
L 252.26005 72.100748 
L 251.47282 71.779311 
L 250.68559 71.231911 
L 246.749441 70.307949 
L 245.962211 70.004818 
L 245.174981 69.937218 
L 242.813291 68.841439 
L 242.026062 68.83388 
L 241.238832 68.521202 
L 237.302682 67.5987 
L 236.515452 66.990824 
L 235.728222 66.932332 
L 233.366533 66.42818 
L 232.579303 65.834884 
L 231.004843 65.498164 
L 227.068693 64.466988 
L 226.281464 64.073623 
L 225.494234 63.974383 
L 224.707004 63.998575 
L 223.919774 63.67189 
L 223.132544 63.685599 
L 222.345314 63.41142 
L 221.558084 62.962847 
L 219.983624 62.82274 
L 219.196394 62.788542 
L 218.409165 62.419648 
L 217.621935 61.609503 
L 216.834705 61.187638 
L 216.047475 61.120391 
L 214.473015 60.692791 
L 212.898555 61.043387 
L 212.111325 60.578232 
L 211.324095 60.439716 
L 210.536866 60.527948 
L 209.749636 60.081996 
L 208.962406 59.871912 
L 208.175176 59.478664 
L 205.813486 60.055411 
L 205.026256 59.939046 
L 203.451796 59.360592 
L 201.090107 59.79353 
L 199.515647 59.604652 
L 197.153957 59.524513 
L 196.366727 59.55108 
L 195.579497 59.307447 
L 194.792267 59.43638 
L 194.005038 59.187503 
L 193.217808 59.098422 
L 192.430578 58.675472 
L 190.856118 58.397576 
L 190.068888 58.153446 
L 189.281658 58.143219 
L 188.494428 58.444548 
L 184.558279 59.220606 
L 183.771049 58.972961 
L 182.983819 58.471945 
L 181.409359 57.9925 
L 180.622129 58.039015 
L 178.26044 57.09004 
L 177.47321 57.115714 
L 176.68598 56.907341 
L 175.89875 56.924649 
L 175.11152 56.661206 
L 174.32429 56.251886 
L 173.53706 56.469403 
L 172.74983 56.165841 
L 169.600911 56.537479 
L 168.026451 56.30545 
L 166.451991 56.378805 
L 164.877531 55.937193 
L 164.090301 55.842912 
L 162.515842 56.470872 
L 160.154152 56.930026 
L 159.366922 56.047464 
L 158.579692 55.915642 
L 157.792462 55.471458 
L 157.005232 55.832802 
L 156.218002 55.948427 
L 155.430772 55.651049 
L 154.643543 55.576793 
L 153.856313 55.125442 
L 153.069083 55.327859 
L 152.281853 55.004841 
L 151.494623 55.735686 
L 150.707393 55.678067 
L 149.920163 55.946199 
L 149.132933 56.0292 
L 148.345703 55.979937 
L 147.558473 55.797364 
L 146.771244 55.419334 
L 145.984014 55.224259 
L 145.196784 55.38591 
L 144.409554 55.896548 
L 143.622324 56.039439 
L 141.260634 57.873481 
L 140.473404 57.951014 
L 139.686174 58.593327 
L 138.898945 57.964966 
L 138.111715 57.687762 
L 136.537255 57.608016 
L 135.750025 58.091694 
L 134.962795 58.184198 
L 134.175565 58.147223 
L 133.388335 58.284057 
L 132.601105 58.678021 
L 131.813875 58.764028 
L 131.026646 59.071468 
L 130.239416 59.117887 
L 129.452186 60.056329 
L 127.090496 61.261548 
L 125.516036 63.23518 
L 124.728806 63.195033 
L 123.941576 63.832112 
L 123.154347 64.061542 
L 122.367117 63.869093 
L 121.579887 63.466052 
L 120.792657 63.593553 
L 120.005427 64.599436 
L 119.218197 64.964235 
L 116.856507 67.637054 
L 116.069277 68.651542 
L 115.282048 68.168415 
L 113.707588 69.318644 
L 112.920358 69.264453 
L 111.345898 71.639316 
L 110.558668 72.962572 
L 109.771438 72.870845 
L 108.984208 73.713478 
L 107.409749 76.053888 
L 106.622519 76.260097 
L 105.835289 77.175817 
L 105.048059 78.894484 
L 104.260829 79.803965 
L 103.473599 82.142428 
L 102.686369 82.000578 
L 101.899139 83.819882 
L 101.111909 84.168841 
L 100.324679 85.149776 
L 99.53745 85.625086 
L 98.75022 87.459399 
L 97.96299 90.017765 
L 97.17576 90.250706 
L 96.38853 89.811811 
L 95.6013 90.786883 
L 94.81407 92.66941 
L 94.02684 95.683659 
L 93.23961 96.507599 
L 92.45238 96.512001 
L 91.665151 100.233515 
L 90.877921 102.417278 
L 90.090691 103.262809 
L 89.303461 105.749708 
L 86.941771 111.354337 
L 86.154541 113.692272 
L 85.367311 119.189552 
L 84.580081 120.472927 
L 83.792851 123.950687 
L 82.218392 135.967816 
L 79.069472 176.344921 
L 77.495012 195.533142 
L 76.707782 194.213344 
L 75.920552 203.932781 
L 75.133323 222.966429 
L 73.558863 277.702611 
L 72.771633 287.619335 
L 71.984403 303.652255 
L 70.409943 437.186659 
L 70.409943 437.186659 
" style="fill:none;stroke:#000000;stroke-linecap:square;stroke-width:1.5;"/>
   </g>
   <g id="patch_3">
    <path d="M 52.028125 456.29575 
L 52.028125 35.89575 
" style="fill:none;stroke:#000000;stroke-linecap:square;stroke-linejoin:miter;stroke-width:0.8;"/>
   </g>
   <g id="patch_4">
    <path d="M 456.428125 456.29575 
L 456.428125 35.89575 
" style="fill:none;stroke:#000000;stroke-linecap:square;stroke-linejoin:miter;stroke-width:0.8;"/>
   </g>
   <g id="patch_5">
    <path d="M 52.028125 456.29575 
L 456.428125 456.29575 
" style="fill:none;stroke:#000000;stroke-linecap:square;stroke-linejoin:miter;stroke-width:0.8;"/>
   </g>
   <g id="patch_6">
    <path d="M 52.028125 35.89575 
L 456.428125 35.89575 
" style="fill:none;stroke:#000000;stroke-linecap:square;stroke-linejoin:miter;stroke-width:0.8;"/>
   </g>
   <g id="text_16">
    <!-- Bonito - LSTM5 -->
    <g transform="translate(203.6575 16.381875)scale(0.12 -0.12)">
     <defs>
      <path d="M 1153 2228 
L 1153 519 
L 1900 519 
Q 2450 519 2684 711 
Q 2919 903 2919 1344 
Q 2919 1800 2672 2014 
Q 2425 2228 1900 2228 
L 1153 2228 
z
M 1153 4147 
L 1153 2741 
L 1888 2741 
Q 2344 2741 2548 2916 
Q 2753 3091 2753 3481 
Q 2753 3834 2551 3990 
Q 2350 4147 1888 4147 
L 1153 4147 
z
M 519 4666 
L 1900 4666 
Q 2616 4666 3003 4356 
Q 3391 4047 3391 3481 
Q 3391 3053 3186 2806 
Q 2981 2559 2572 2497 
Q 3031 2428 3292 2104 
Q 3553 1781 3553 1281 
Q 3553 647 3137 323 
Q 2722 0 1900 0 
L 519 0 
L 519 4666 
z
" id="DejaVuSansMono-42" transform="scale(0.015625)"/>
      <path d="M 1113 2009 
L 2741 2009 
L 2741 1497 
L 1113 1497 
L 1113 2009 
z
" id="DejaVuSansMono-2d" transform="scale(0.015625)"/>
      <path d="M 672 4666 
L 1306 4666 
L 1306 531 
L 3559 531 
L 3559 0 
L 672 0 
L 672 4666 
z
" id="DejaVuSansMono-4c" transform="scale(0.015625)"/>
      <path d="M 3163 4506 
L 3163 3866 
Q 2875 4050 2586 4144 
Q 2297 4238 2003 4238 
Q 1556 4238 1297 4030 
Q 1038 3822 1038 3469 
Q 1038 3159 1208 2996 
Q 1378 2834 1844 2725 
L 2175 2650 
Q 2831 2497 3131 2169 
Q 3431 1841 3431 1275 
Q 3431 609 3018 259 
Q 2606 -91 1819 -91 
Q 1491 -91 1159 -20 
Q 828 50 494 191 
L 494 863 
Q 853 634 1173 528 
Q 1494 422 1819 422 
Q 2297 422 2562 636 
Q 2828 850 2828 1234 
Q 2828 1584 2645 1768 
Q 2463 1953 2009 2053 
L 1672 2131 
Q 1022 2278 728 2575 
Q 434 2872 434 3372 
Q 434 3997 854 4373 
Q 1275 4750 1972 4750 
Q 2241 4750 2537 4689 
Q 2834 4628 3163 4506 
z
" id="DejaVuSansMono-53" transform="scale(0.015625)"/>
      <path d="M 147 4666 
L 3706 4666 
L 3706 4134 
L 2247 4134 
L 2247 0 
L 1613 0 
L 1613 4134 
L 147 4134 
L 147 4666 
z
" id="DejaVuSansMono-54" transform="scale(0.015625)"/>
      <path d="M 269 4666 
L 1113 4666 
L 1919 2291 
L 2731 4666 
L 3578 4666 
L 3578 0 
L 2994 0 
L 2994 4122 
L 2163 1663 
L 1684 1663 
L 850 4122 
L 850 0 
L 269 0 
L 269 4666 
z
" id="DejaVuSansMono-4d" transform="scale(0.015625)"/>
      <path d="M 647 4666 
L 3009 4666 
L 3009 4134 
L 1222 4134 
L 1222 2988 
Q 1356 3038 1492 3061 
Q 1628 3084 1766 3084 
Q 2491 3084 2916 2656 
Q 3341 2228 3341 1497 
Q 3341 759 2895 334 
Q 2450 -91 1678 -91 
Q 1306 -91 998 -41 
Q 691 9 447 109 
L 447 750 
Q 734 594 1025 517 
Q 1316 441 1619 441 
Q 2141 441 2423 716 
Q 2706 991 2706 1497 
Q 2706 1997 2414 2275 
Q 2122 2553 1600 2553 
Q 1347 2553 1106 2495 
Q 866 2438 647 2322 
L 647 4666 
z
" id="DejaVuSansMono-35" transform="scale(0.015625)"/>
     </defs>
     <use xlink:href="#DejaVuSansMono-42"/>
     <use x="60.205078" xlink:href="#DejaVuSansMono-6f"/>
     <use x="120.410156" xlink:href="#DejaVuSansMono-6e"/>
     <use x="180.615234" xlink:href="#DejaVuSansMono-69"/>
     <use x="240.820312" xlink:href="#DejaVuSansMono-74"/>
     <use x="301.025391" xlink:href="#DejaVuSansMono-6f"/>
     <use x="361.230469" xlink:href="#DejaVuSansMono-20"/>
     <use x="421.435547" xlink:href="#DejaVuSansMono-2d"/>
     <use x="481.640625" xlink:href="#DejaVuSansMono-20"/>
     <use x="541.845703" xlink:href="#DejaVuSansMono-4c"/>
     <use x="602.050781" xlink:href="#DejaVuSansMono-53"/>
     <use x="662.255859" xlink:href="#DejaVuSansMono-54"/>
     <use x="722.460938" xlink:href="#DejaVuSansMono-4d"/>
     <use x="782.666016" xlink:href="#DejaVuSansMono-35"/>
    </g>
    <!-- AUC: 0.867 -->
    <g transform="translate(218.10625 29.89575)scale(0.12 -0.12)">
     <defs>
      <path d="M 459 1791 
L 459 4666 
L 1094 4666 
L 1094 1503 
Q 1094 1163 1112 1017 
Q 1131 872 1178 794 
Q 1278 609 1467 515 
Q 1656 422 1925 422 
Q 2197 422 2384 515 
Q 2572 609 2675 794 
Q 2722 872 2740 1015 
Q 2759 1159 2759 1497 
L 2759 4666 
L 3391 4666 
L 3391 1791 
Q 3391 1075 3302 773 
Q 3213 472 2994 275 
Q 2788 91 2522 0 
Q 2256 -91 1925 -91 
Q 1597 -91 1331 0 
Q 1066 91 856 275 
Q 641 469 550 776 
Q 459 1084 459 1791 
z
" id="DejaVuSansMono-55" transform="scale(0.015625)"/>
      <path d="M 3353 166 
Q 3113 38 2859 -26 
Q 2606 -91 2322 -91 
Q 1425 -91 929 543 
Q 434 1178 434 2328 
Q 434 3472 932 4111 
Q 1431 4750 2322 4750 
Q 2606 4750 2859 4686 
Q 3113 4622 3353 4494 
L 3353 3847 
Q 3122 4038 2856 4138 
Q 2591 4238 2322 4238 
Q 1706 4238 1400 3763 
Q 1094 3288 1094 2328 
Q 1094 1372 1400 897 
Q 1706 422 2322 422 
Q 2597 422 2861 522 
Q 3125 622 3353 813 
L 3353 166 
z
" id="DejaVuSansMono-43" transform="scale(0.015625)"/>
      <path d="M 1528 3322 
L 2316 3322 
L 2316 2375 
L 1528 2375 
L 1528 3322 
z
M 1528 953 
L 2316 953 
L 2316 0 
L 1528 0 
L 1528 953 
z
" id="DejaVuSansMono-3a" transform="scale(0.015625)"/>
     </defs>
     <use xlink:href="#DejaVuSansMono-41"/>
     <use x="60.205078" xlink:href="#DejaVuSansMono-55"/>
     <use x="120.410156" xlink:href="#DejaVuSansMono-43"/>
     <use x="180.615234" xlink:href="#DejaVuSansMono-3a"/>
     <use x="240.820312" xlink:href="#DejaVuSansMono-20"/>
     <use x="301.025391" xlink:href="#DejaVuSansMono-30"/>
     <use x="361.230469" xlink:href="#DejaVuSansMono-2e"/>
     <use x="421.435547" xlink:href="#DejaVuSansMono-38"/>
     <use x="481.640625" xlink:href="#DejaVuSansMono-36"/>
     <use x="541.845703" xlink:href="#DejaVuSansMono-37"/>
    </g>
   </g>
  </g>
  <g id="axes_2">
   <g id="matplotlib.axis_3">
    <g id="ytick_8">
     <g id="line2d_15">
      <defs>
       <path d="M 0 0 
L 3.5 0 
" id="mc2c51b396a" style="stroke:#000000;stroke-width:0.8;"/>
      </defs>
      <g>
       <use style="stroke:#000000;stroke-width:0.8;" x="456.428125" xlink:href="#mc2c51b396a" y="392.942473"/>
      </g>
     </g>
     <g id="text_17">
      <!-- 6 -->
      <g transform="translate(463.428125 396.768254)scale(0.1 -0.1)">
       <use xlink:href="#DejaVuSansMono-36"/>
      </g>
     </g>
    </g>
    <g id="ytick_9">
     <g id="line2d_16">
      <g>
       <use style="stroke:#000000;stroke-width:0.8;" x="456.428125" xlink:href="#mc2c51b396a" y="321.39805"/>
      </g>
     </g>
     <g id="text_18">
      <!-- 8 -->
      <g transform="translate(463.428125 325.223831)scale(0.1 -0.1)">
       <use xlink:href="#DejaVuSansMono-38"/>
      </g>
     </g>
    </g>
    <g id="ytick_10">
     <g id="line2d_17">
      <g>
       <use style="stroke:#000000;stroke-width:0.8;" x="456.428125" xlink:href="#mc2c51b396a" y="249.853628"/>
      </g>
     </g>
     <g id="text_19">
      <!-- 10 -->
      <g transform="translate(463.428125 253.679409)scale(0.1 -0.1)">
       <use xlink:href="#DejaVuSansMono-31"/>
       <use x="60.205078" xlink:href="#DejaVuSansMono-30"/>
      </g>
     </g>
    </g>
    <g id="ytick_11">
     <g id="line2d_18">
      <g>
       <use style="stroke:#000000;stroke-width:0.8;" x="456.428125" xlink:href="#mc2c51b396a" y="178.309206"/>
      </g>
     </g>
     <g id="text_20">
      <!-- 12 -->
      <g transform="translate(463.428125 182.134987)scale(0.1 -0.1)">
       <use xlink:href="#DejaVuSansMono-31"/>
       <use x="60.205078" xlink:href="#DejaVuSansMono-32"/>
      </g>
     </g>
    </g>
    <g id="ytick_12">
     <g id="line2d_19">
      <g>
       <use style="stroke:#000000;stroke-width:0.8;" x="456.428125" xlink:href="#mc2c51b396a" y="106.764783"/>
      </g>
     </g>
     <g id="text_21">
      <!-- 14 -->
      <g transform="translate(463.428125 110.590565)scale(0.1 -0.1)">
       <use xlink:href="#DejaVuSansMono-31"/>
       <use x="60.205078" xlink:href="#DejaVuSansMono-34"/>
      </g>
     </g>
    </g>
    <g id="text_22">
     <!-- Minimum read-mean PhredQ score -->
     <g transform="translate(487.120312 336.400437)rotate(-90)scale(0.1 -0.1)">
      <defs>
       <path d="M 609 1325 
L 609 3494 
L 1184 3494 
L 1184 1325 
Q 1184 853 1351 631 
Q 1519 409 1869 409 
Q 2275 409 2490 695 
Q 2706 981 2706 1516 
L 2706 3494 
L 3284 3494 
L 3284 0 
L 2706 0 
L 2706 525 
Q 2553 222 2289 65 
Q 2025 -91 1672 -91 
Q 1134 -91 871 261 
Q 609 613 609 1325 
z
" id="DejaVuSansMono-75" transform="scale(0.015625)"/>
       <path d="M 1247 4147 
L 1247 2394 
L 1978 2394 
Q 2416 2394 2661 2625 
Q 2906 2856 2906 3272 
Q 2906 3688 2662 3917 
Q 2419 4147 1978 4147 
L 1247 4147 
z
M 616 4666 
L 1978 4666 
Q 2759 4666 3162 4311 
Q 3566 3956 3566 3272 
Q 3566 2581 3164 2228 
Q 2763 1875 1978 1875 
L 1247 1875 
L 1247 0 
L 616 0 
L 616 4666 
z
" id="DejaVuSansMono-50" transform="scale(0.015625)"/>
       <path d="M 2047 -84 
Q 2025 -84 1984 -87 
Q 1944 -91 1919 -91 
Q 1138 -91 752 509 
Q 366 1109 366 2328 
Q 366 3550 752 4150 
Q 1138 4750 1925 4750 
Q 2716 4750 3102 4150 
Q 3488 3550 3488 2328 
Q 3488 1409 3273 848 
Q 3059 288 2625 63 
L 3250 -531 
L 2778 -844 
L 2047 -84 
z
M 2828 2328 
Q 2828 3356 2617 3797 
Q 2406 4238 1925 4238 
Q 1447 4238 1236 3797 
Q 1025 3356 1025 2328 
Q 1025 1303 1236 862 
Q 1447 422 1925 422 
Q 2406 422 2617 861 
Q 2828 1300 2828 2328 
z
" id="DejaVuSansMono-51" transform="scale(0.015625)"/>
      </defs>
      <use xlink:href="#DejaVuSansMono-4d"/>
      <use x="60.205078" xlink:href="#DejaVuSansMono-69"/>
      <use x="120.410156" xlink:href="#DejaVuSansMono-6e"/>
      <use x="180.615234" xlink:href="#DejaVuSansMono-69"/>
      <use x="240.820312" xlink:href="#DejaVuSansMono-6d"/>
      <use x="301.025391" xlink:href="#DejaVuSansMono-75"/>
      <use x="361.230469" xlink:href="#DejaVuSansMono-6d"/>
      <use x="421.435547" xlink:href="#DejaVuSansMono-20"/>
      <use x="481.640625" xlink:href="#DejaVuSansMono-72"/>
      <use x="541.845703" xlink:href="#DejaVuSansMono-65"/>
      <use x="602.050781" xlink:href="#DejaVuSansMono-61"/>
      <use x="662.255859" xlink:href="#DejaVuSansMono-64"/>
      <use x="722.460938" xlink:href="#DejaVuSansMono-2d"/>
      <use x="782.666016" xlink:href="#DejaVuSansMono-6d"/>
      <use x="842.871094" xlink:href="#DejaVuSansMono-65"/>
      <use x="903.076172" xlink:href="#DejaVuSansMono-61"/>
      <use x="963.28125" xlink:href="#DejaVuSansMono-6e"/>
      <use x="1023.486328" xlink:href="#DejaVuSansMono-20"/>
      <use x="1083.691406" xlink:href="#DejaVuSansMono-50"/>
      <use x="1143.896484" xlink:href="#DejaVuSansMono-68"/>
      <use x="1204.101562" xlink:href="#DejaVuSansMono-72"/>
      <use x="1264.306641" xlink:href="#DejaVuSansMono-65"/>
      <use x="1324.511719" xlink:href="#DejaVuSansMono-64"/>
      <use x="1384.716797" xlink:href="#DejaVuSansMono-51"/>
      <use x="1444.921875" xlink:href="#DejaVuSansMono-20"/>
      <use x="1505.126953" xlink:href="#DejaVuSansMono-73"/>
      <use x="1565.332031" xlink:href="#DejaVuSansMono-63"/>
      <use x="1625.537109" xlink:href="#DejaVuSansMono-6f"/>
      <use x="1685.742188" xlink:href="#DejaVuSansMono-72"/>
      <use x="1745.947266" xlink:href="#DejaVuSansMono-65"/>
     </g>
    </g>
   </g>
   <g id="line2d_20">
    <path clip-path="url(#p2918ae8ba1)" d="M 438.046307 437.186659 
L 437.259077 399.779061 
L 436.471847 387.419035 
L 435.684617 379.243657 
L 433.322927 364.211321 
L 432.535698 360.698479 
L 431.748468 357.82605 
L 430.174008 349.885794 
L 428.599548 343.198604 
L 427.812318 340.742156 
L 426.237858 334.704327 
L 424.663399 330.960919 
L 423.088939 326.421648 
L 421.514479 322.168301 
L 417.578329 314.389334 
L 416.00387 310.744772 
L 414.42941 308.140728 
L 413.64218 306.548703 
L 412.06772 304.004524 
L 409.70603 299.528138 
L 408.131571 297.276969 
L 406.557111 295.17087 
L 405.769881 293.88718 
L 404.982651 292.933998 
L 403.408191 290.070954 
L 401.833731 287.647834 
L 401.046501 286.776441 
L 399.472042 284.498819 
L 397.897582 282.413779 
L 396.323122 280.142381 
L 393.961432 277.092441 
L 393.174202 276.462835 
L 392.386973 275.322219 
L 390.025283 272.529648 
L 389.238053 271.355195 
L 388.450823 270.612867 
L 387.663593 269.70662 
L 386.876363 268.587941 
L 386.089133 267.885501 
L 385.301903 267.002872 
L 383.727444 265.728226 
L 382.940214 264.999541 
L 382.152984 264.04915 
L 381.365754 263.366004 
L 377.429604 259.248629 
L 374.280685 256.390646 
L 372.706225 255.293307 
L 368.770076 251.562056 
L 364.046696 247.414983 
L 363.259466 246.586857 
L 360.897777 244.64471 
L 356.174397 240.488371 
L 351.451018 236.904661 
L 349.876558 235.836925 
L 348.302098 234.941209 
L 344.365949 232.010159 
L 342.004259 230.604268 
L 340.429799 229.035996 
L 338.068109 227.511518 
L 336.49365 226.543711 
L 334.13196 224.891692 
L 333.34473 224.278169 
L 332.5575 223.836499 
L 330.19581 222.149757 
L 324.685201 218.591491 
L 323.110741 217.658638 
L 322.323511 217.040596 
L 321.536282 216.615657 
L 320.749052 216.007186 
L 305.004454 206.962806 
L 303.429994 206.261258 
L 301.855534 205.30742 
L 300.281074 204.499382 
L 299.493844 203.994485 
L 297.919384 203.185368 
L 295.557695 201.910398 
L 292.408775 200.476175 
L 286.898166 197.558826 
L 284.536476 196.524705 
L 282.174786 195.388872 
L 281.387557 195.070291 
L 279.813097 194.289338 
L 273.515258 191.372222 
L 243.600521 177.651786 
L 242.813291 177.405546 
L 241.238832 176.586616 
L 238.089912 175.25893 
L 234.940992 174.043243 
L 229.430383 171.828733 
L 224.707004 169.988479 
L 223.132544 169.174041 
L 217.621935 166.794545 
L 214.473015 165.580022 
L 212.898555 164.853351 
L 203.451796 161.320043 
L 201.877337 160.656658 
L 194.792267 158.04511 
L 193.217808 157.294089 
L 191.643348 156.725007 
L 189.281658 155.767849 
L 186.919968 154.686885 
L 185.345509 154.01482 
L 183.771049 153.310615 
L 182.196589 152.738366 
L 180.622129 152.053933 
L 172.74983 148.663987 
L 171.17537 147.869649 
L 157.005232 141.969182 
L 156.218002 141.497301 
L 155.430772 141.192127 
L 153.856313 140.376059 
L 150.707393 138.774683 
L 146.771244 136.862782 
L 145.984014 136.554166 
L 144.409554 135.694875 
L 142.835094 134.986689 
L 138.111715 132.493258 
L 134.962795 131.056845 
L 134.175565 130.62085 
L 133.388335 130.318503 
L 131.026646 128.816425 
L 130.239416 128.485993 
L 127.877726 127.186053 
L 126.303266 126.229768 
L 123.941576 124.512322 
L 121.579887 123.255305 
L 120.792657 122.860302 
L 120.005427 122.30798 
L 118.430967 121.431881 
L 115.282048 119.655006 
L 112.920358 118.221131 
L 108.984208 115.821615 
L 108.196978 115.136799 
L 107.409749 114.608491 
L 106.622519 113.936718 
L 105.048059 113.046301 
L 101.899139 110.739473 
L 100.324679 109.778342 
L 96.38853 106.51108 
L 93.23961 103.908895 
L 90.877921 101.301301 
L 88.516231 99.162231 
L 86.154541 97.031592 
L 83.792851 94.051494 
L 82.218392 92.06711 
L 79.069472 87.507894 
L 78.282242 86.559845 
L 76.707782 83.432557 
L 75.920552 81.653251 
L 75.133323 79.549879 
L 73.558863 74.317553 
L 71.984403 68.635233 
L 71.197173 63.409523 
L 70.409943 55.004841 
L 70.409943 55.004841 
" style="fill:none;stroke:#ff0000;stroke-linecap:square;stroke-width:1.5;"/>
   </g>
   <g id="patch_7">
    <path d="M 52.028125 456.29575 
L 52.028125 35.89575 
" style="fill:none;stroke:#000000;stroke-linecap:square;stroke-linejoin:miter;stroke-width:0.8;"/>
   </g>
   <g id="patch_8">
    <path d="M 456.428125 456.29575 
L 456.428125 35.89575 
" style="fill:none;stroke:#000000;stroke-linecap:square;stroke-linejoin:miter;stroke-width:0.8;"/>
   </g>
   <g id="patch_9">
    <path d="M 52.028125 456.29575 
L 456.428125 456.29575 
" style="fill:none;stroke:#000000;stroke-linecap:square;stroke-linejoin:miter;stroke-width:0.8;"/>
   </g>
   <g id="patch_10">
    <path d="M 52.028125 35.89575 
L 456.428125 35.89575 
" style="fill:none;stroke:#000000;stroke-linecap:square;stroke-linejoin:miter;stroke-width:0.8;"/>
   </g>
  </g>
 </g>
 <defs>
  <clipPath id="p2918ae8ba1">
   <rect height="420.4" width="404.4" x="52.028125" y="35.89575"/>
  </clipPath>
 </defs>
</svg>
