<?xml version="1.0" encoding="utf-8" standalone="no"?>
<!DOCTYPE svg PUBLIC "-//W3C//DTD SVG 1.1//EN"
  "http://www.w3.org/Graphics/SVG/1.1/DTD/svg11.dtd">
<svg height="493.95825pt" version="1.1" viewBox="0 0 496.4 493.95825" width="496.4pt" xmlns="http://www.w3.org/2000/svg" xmlns:xlink="http://www.w3.org/1999/xlink">
 <metadata>
  <rdf:RDF xmlns:cc="http://creativecommons.org/ns#" xmlns:dc="http://purl.org/dc/elements/1.1/" xmlns:rdf="http://www.w3.org/1999/02/22-rdf-syntax-ns#">
   <cc:Work>
    <dc:type rdf:resource="http://purl.org/dc/dcmitype/StillImage"/>
    <dc:date>2022-01-25T10:31:35.527678</dc:date>
    <dc:format>image/svg+xml</dc:format>
    <dc:creator>
     <cc:Agent>
      <dc:title>Matplotlib v3.4.2, https://matplotlib.org/</dc:title>
     </cc:Agent>
    </dc:creator>
   </cc:Work>
  </rdf:RDF>
 </metadata>
 <defs>
  <style type="text/css">*{stroke-linecap:butt;stroke-linejoin:round;}</style>
 </defs>
 <g id="figure_1">
  <g id="patch_1">
   <path d="M 0 493.95825 
L 496.4 493.95825 
L 496.4 0 
L 0 0 
z
" style="fill:none;"/>
  </g>
  <g id="axes_1">
   <g id="patch_2">
    <path d="M 52.028125 456.29575 
L 456.428125 456.29575 
L 456.428125 35.89575 
L 52.028125 35.89575 
z
" style="fill:none;"/>
   </g>
   <g id="matplotlib.axis_1">
    <g id="xtick_1">
     <g id="line2d_1">
      <defs>
       <path d="M 0 0 
L 0 3.5 
" id="me768978bea" style="stroke:#000000;stroke-width:0.8;"/>
      </defs>
      <g>
       <use style="stroke:#000000;stroke-width:0.8;" x="69.640106" xlink:href="#me768978bea" y="456.29575"/>
      </g>
     </g>
     <g id="text_1">
      <!-- 0.0 -->
      <g transform="translate(60.609638 470.947312)scale(0.1 -0.1)">
       <defs>
        <path d="M 1509 2344 
Q 1509 2516 1629 2641 
Q 1750 2766 1919 2766 
Q 2094 2766 2219 2641 
Q 2344 2516 2344 2344 
Q 2344 2169 2220 2047 
Q 2097 1925 1919 1925 
Q 1744 1925 1626 2044 
Q 1509 2163 1509 2344 
z
M 1925 4250 
Q 1484 4250 1267 3775 
Q 1050 3300 1050 2328 
Q 1050 1359 1267 884 
Q 1484 409 1925 409 
Q 2369 409 2586 884 
Q 2803 1359 2803 2328 
Q 2803 3300 2586 3775 
Q 2369 4250 1925 4250 
z
M 1925 4750 
Q 2672 4750 3055 4137 
Q 3438 3525 3438 2328 
Q 3438 1134 3055 521 
Q 2672 -91 1925 -91 
Q 1178 -91 797 521 
Q 416 1134 416 2328 
Q 416 3525 797 4137 
Q 1178 4750 1925 4750 
z
" id="DejaVuSansMono-30" transform="scale(0.015625)"/>
        <path d="M 1528 953 
L 2316 953 
L 2316 0 
L 1528 0 
L 1528 953 
z
" id="DejaVuSansMono-2e" transform="scale(0.015625)"/>
       </defs>
       <use xlink:href="#DejaVuSansMono-30"/>
       <use x="60.205078" xlink:href="#DejaVuSansMono-2e"/>
       <use x="120.410156" xlink:href="#DejaVuSansMono-30"/>
      </g>
     </g>
    </g>
    <g id="xtick_2">
     <g id="line2d_2">
      <g>
       <use style="stroke:#000000;stroke-width:0.8;" x="143.321346" xlink:href="#me768978bea" y="456.29575"/>
      </g>
     </g>
     <g id="text_2">
      <!-- 0.2 -->
      <g transform="translate(134.290878 470.947312)scale(0.1 -0.1)">
       <defs>
        <path d="M 1166 531 
L 3309 531 
L 3309 0 
L 475 0 
L 475 531 
Q 1059 1147 1496 1619 
Q 1934 2091 2100 2284 
Q 2413 2666 2522 2902 
Q 2631 3138 2631 3384 
Q 2631 3775 2401 3997 
Q 2172 4219 1772 4219 
Q 1488 4219 1175 4116 
Q 863 4013 513 3803 
L 513 4441 
Q 834 4594 1145 4672 
Q 1456 4750 1759 4750 
Q 2444 4750 2861 4386 
Q 3278 4022 3278 3431 
Q 3278 3131 3139 2831 
Q 3000 2531 2688 2169 
Q 2513 1966 2180 1606 
Q 1847 1247 1166 531 
z
" id="DejaVuSansMono-32" transform="scale(0.015625)"/>
       </defs>
       <use xlink:href="#DejaVuSansMono-30"/>
       <use x="60.205078" xlink:href="#DejaVuSansMono-2e"/>
       <use x="120.410156" xlink:href="#DejaVuSansMono-32"/>
      </g>
     </g>
    </g>
    <g id="xtick_3">
     <g id="line2d_3">
      <g>
       <use style="stroke:#000000;stroke-width:0.8;" x="217.002587" xlink:href="#me768978bea" y="456.29575"/>
      </g>
     </g>
     <g id="text_3">
      <!-- 0.4 -->
      <g transform="translate(207.972118 470.947312)scale(0.1 -0.1)">
       <defs>
        <path d="M 2297 4091 
L 825 1625 
L 2297 1625 
L 2297 4091 
z
M 2194 4666 
L 2925 4666 
L 2925 1625 
L 3547 1625 
L 3547 1113 
L 2925 1113 
L 2925 0 
L 2297 0 
L 2297 1113 
L 319 1113 
L 319 1709 
L 2194 4666 
z
" id="DejaVuSansMono-34" transform="scale(0.015625)"/>
       </defs>
       <use xlink:href="#DejaVuSansMono-30"/>
       <use x="60.205078" xlink:href="#DejaVuSansMono-2e"/>
       <use x="120.410156" xlink:href="#DejaVuSansMono-34"/>
      </g>
     </g>
    </g>
    <g id="xtick_4">
     <g id="line2d_4">
      <g>
       <use style="stroke:#000000;stroke-width:0.8;" x="290.683827" xlink:href="#me768978bea" y="456.29575"/>
      </g>
     </g>
     <g id="text_4">
      <!-- 0.6 -->
      <g transform="translate(281.653358 470.947312)scale(0.1 -0.1)">
       <defs>
        <path d="M 3097 4563 
L 3097 3981 
Q 2900 4097 2678 4158 
Q 2456 4219 2216 4219 
Q 1616 4219 1306 3767 
Q 997 3316 997 2438 
Q 1147 2750 1412 2917 
Q 1678 3084 2022 3084 
Q 2697 3084 3067 2670 
Q 3438 2256 3438 1497 
Q 3438 741 3056 325 
Q 2675 -91 1984 -91 
Q 1172 -91 794 492 
Q 416 1075 416 2328 
Q 416 3509 870 4129 
Q 1325 4750 2188 4750 
Q 2419 4750 2650 4701 
Q 2881 4653 3097 4563 
z
M 1972 2591 
Q 1569 2591 1337 2300 
Q 1106 2009 1106 1497 
Q 1106 984 1337 693 
Q 1569 403 1972 403 
Q 2391 403 2603 679 
Q 2816 956 2816 1497 
Q 2816 2041 2603 2316 
Q 2391 2591 1972 2591 
z
" id="DejaVuSansMono-36" transform="scale(0.015625)"/>
       </defs>
       <use xlink:href="#DejaVuSansMono-30"/>
       <use x="60.205078" xlink:href="#DejaVuSansMono-2e"/>
       <use x="120.410156" xlink:href="#DejaVuSansMono-36"/>
      </g>
     </g>
    </g>
    <g id="xtick_5">
     <g id="line2d_5">
      <g>
       <use style="stroke:#000000;stroke-width:0.8;" x="364.365067" xlink:href="#me768978bea" y="456.29575"/>
      </g>
     </g>
     <g id="text_5">
      <!-- 0.8 -->
      <g transform="translate(355.334598 470.947312)scale(0.1 -0.1)">
       <defs>
        <path d="M 1925 2216 
Q 1503 2216 1273 1980 
Q 1044 1744 1044 1313 
Q 1044 881 1276 642 
Q 1509 403 1925 403 
Q 2350 403 2579 639 
Q 2809 875 2809 1313 
Q 2809 1741 2576 1978 
Q 2344 2216 1925 2216 
z
M 1375 2478 
Q 972 2581 745 2862 
Q 519 3144 519 3541 
Q 519 4097 897 4423 
Q 1275 4750 1925 4750 
Q 2578 4750 2956 4423 
Q 3334 4097 3334 3541 
Q 3334 3144 3107 2862 
Q 2881 2581 2478 2478 
Q 2947 2375 3195 2062 
Q 3444 1750 3444 1253 
Q 3444 622 3041 265 
Q 2638 -91 1925 -91 
Q 1213 -91 811 264 
Q 409 619 409 1247 
Q 409 1747 657 2061 
Q 906 2375 1375 2478 
z
M 1147 3481 
Q 1147 3106 1347 2909 
Q 1547 2713 1925 2713 
Q 2306 2713 2506 2909 
Q 2706 3106 2706 3481 
Q 2706 3863 2507 4063 
Q 2309 4263 1925 4263 
Q 1547 4263 1347 4061 
Q 1147 3859 1147 3481 
z
" id="DejaVuSansMono-38" transform="scale(0.015625)"/>
       </defs>
       <use xlink:href="#DejaVuSansMono-30"/>
       <use x="60.205078" xlink:href="#DejaVuSansMono-2e"/>
       <use x="120.410156" xlink:href="#DejaVuSansMono-38"/>
      </g>
     </g>
    </g>
    <g id="xtick_6">
     <g id="line2d_6">
      <g>
       <use style="stroke:#000000;stroke-width:0.8;" x="438.046307" xlink:href="#me768978bea" y="456.29575"/>
      </g>
     </g>
     <g id="text_6">
      <!-- 1.0 -->
      <g transform="translate(429.015838 470.947312)scale(0.1 -0.1)">
       <defs>
        <path d="M 844 531 
L 1825 531 
L 1825 4097 
L 769 3859 
L 769 4434 
L 1819 4666 
L 2450 4666 
L 2450 531 
L 3419 531 
L 3419 0 
L 844 0 
L 844 531 
z
" id="DejaVuSansMono-31" transform="scale(0.015625)"/>
       </defs>
       <use xlink:href="#DejaVuSansMono-31"/>
       <use x="60.205078" xlink:href="#DejaVuSansMono-2e"/>
       <use x="120.410156" xlink:href="#DejaVuSansMono-30"/>
      </g>
     </g>
    </g>
    <g id="text_7">
     <!-- Fraction of reads -->
     <g transform="translate(203.055469 484.678562)scale(0.1 -0.1)">
      <defs>
       <path d="M 728 4666 
L 3475 4666 
L 3475 4134 
L 1363 4134 
L 1363 2759 
L 3278 2759 
L 3278 2228 
L 1363 2228 
L 1363 0 
L 728 0 
L 728 4666 
z
" id="DejaVuSansMono-46" transform="scale(0.015625)"/>
       <path d="M 3609 2778 
Q 3425 2922 3234 2987 
Q 3044 3053 2816 3053 
Q 2278 3053 1993 2715 
Q 1709 2378 1709 1741 
L 1709 0 
L 1131 0 
L 1131 3500 
L 1709 3500 
L 1709 2816 
Q 1853 3188 2151 3386 
Q 2450 3584 2859 3584 
Q 3072 3584 3256 3531 
Q 3441 3478 3609 3366 
L 3609 2778 
z
" id="DejaVuSansMono-72" transform="scale(0.015625)"/>
       <path d="M 2194 1759 
L 2003 1759 
Q 1500 1759 1245 1582 
Q 991 1406 991 1056 
Q 991 741 1181 566 
Q 1372 391 1709 391 
Q 2184 391 2456 720 
Q 2728 1050 2731 1631 
L 2731 1759 
L 2194 1759 
z
M 3309 1997 
L 3309 0 
L 2731 0 
L 2731 519 
Q 2547 206 2267 57 
Q 1988 -91 1588 -91 
Q 1053 -91 734 211 
Q 416 513 416 1019 
Q 416 1603 808 1906 
Q 1200 2209 1959 2209 
L 2731 2209 
L 2731 2300 
Q 2728 2719 2518 2908 
Q 2309 3097 1850 3097 
Q 1556 3097 1256 3012 
Q 956 2928 672 2766 
L 672 3341 
Q 991 3463 1283 3523 
Q 1575 3584 1850 3584 
Q 2284 3584 2592 3456 
Q 2900 3328 3091 3072 
Q 3209 2916 3259 2686 
Q 3309 2456 3309 1997 
z
" id="DejaVuSansMono-61" transform="scale(0.015625)"/>
       <path d="M 3316 178 
Q 3084 44 2839 -23 
Q 2594 -91 2338 -91 
Q 1525 -91 1067 396 
Q 609 884 609 1747 
Q 609 2609 1067 3096 
Q 1525 3584 2338 3584 
Q 2591 3584 2831 3518 
Q 3072 3453 3316 3316 
L 3316 2713 
Q 3088 2916 2858 3006 
Q 2628 3097 2338 3097 
Q 1797 3097 1506 2747 
Q 1216 2397 1216 1747 
Q 1216 1100 1508 748 
Q 1800 397 2338 397 
Q 2638 397 2875 489 
Q 3113 581 3316 775 
L 3316 178 
z
" id="DejaVuSansMono-63" transform="scale(0.015625)"/>
       <path d="M 1919 4494 
L 1919 3500 
L 3225 3500 
L 3225 3053 
L 1919 3053 
L 1919 1153 
Q 1919 766 2066 612 
Q 2213 459 2578 459 
L 3225 459 
L 3225 0 
L 2522 0 
Q 1875 0 1609 259 
Q 1344 519 1344 1153 
L 1344 3053 
L 409 3053 
L 409 3500 
L 1344 3500 
L 1344 4494 
L 1919 4494 
z
" id="DejaVuSansMono-74" transform="scale(0.015625)"/>
       <path d="M 800 3500 
L 2272 3500 
L 2272 447 
L 3413 447 
L 3413 0 
L 556 0 
L 556 447 
L 1697 447 
L 1697 3053 
L 800 3053 
L 800 3500 
z
M 1697 4863 
L 2272 4863 
L 2272 4134 
L 1697 4134 
L 1697 4863 
z
" id="DejaVuSansMono-69" transform="scale(0.015625)"/>
       <path d="M 1925 3097 
Q 1488 3097 1263 2756 
Q 1038 2416 1038 1747 
Q 1038 1081 1263 739 
Q 1488 397 1925 397 
Q 2366 397 2591 739 
Q 2816 1081 2816 1747 
Q 2816 2416 2591 2756 
Q 2366 3097 1925 3097 
z
M 1925 3584 
Q 2653 3584 3039 3112 
Q 3425 2641 3425 1747 
Q 3425 850 3040 379 
Q 2656 -91 1925 -91 
Q 1197 -91 812 379 
Q 428 850 428 1747 
Q 428 2641 812 3112 
Q 1197 3584 1925 3584 
z
" id="DejaVuSansMono-6f" transform="scale(0.015625)"/>
       <path d="M 3284 2169 
L 3284 0 
L 2706 0 
L 2706 2169 
Q 2706 2641 2540 2862 
Q 2375 3084 2022 3084 
Q 1619 3084 1401 2798 
Q 1184 2513 1184 1978 
L 1184 0 
L 609 0 
L 609 3500 
L 1184 3500 
L 1184 2975 
Q 1338 3275 1600 3429 
Q 1863 3584 2222 3584 
Q 2756 3584 3020 3232 
Q 3284 2881 3284 2169 
z
" id="DejaVuSansMono-6e" transform="scale(0.015625)"/>
       <path id="DejaVuSansMono-20" transform="scale(0.015625)"/>
       <path d="M 3322 4863 
L 3322 4384 
L 2669 4384 
Q 2359 4384 2239 4257 
Q 2119 4131 2119 3809 
L 2119 3500 
L 3322 3500 
L 3322 3053 
L 2119 3053 
L 2119 0 
L 1544 0 
L 1544 3053 
L 609 3053 
L 609 3500 
L 1544 3500 
L 1544 3744 
Q 1544 4319 1808 4591 
Q 2072 4863 2631 4863 
L 3322 4863 
z
" id="DejaVuSansMono-66" transform="scale(0.015625)"/>
       <path d="M 3475 1894 
L 3475 1613 
L 984 1613 
L 984 1594 
Q 984 1022 1282 709 
Q 1581 397 2125 397 
Q 2400 397 2700 484 
Q 3000 572 3341 750 
L 3341 178 
Q 3013 44 2708 -23 
Q 2403 -91 2119 -91 
Q 1303 -91 843 398 
Q 384 888 384 1747 
Q 384 2584 834 3084 
Q 1284 3584 2034 3584 
Q 2703 3584 3089 3131 
Q 3475 2678 3475 1894 
z
M 2900 2063 
Q 2888 2569 2661 2833 
Q 2434 3097 2009 3097 
Q 1594 3097 1325 2822 
Q 1056 2547 1006 2059 
L 2900 2063 
z
" id="DejaVuSansMono-65" transform="scale(0.015625)"/>
       <path d="M 2681 3053 
L 2681 4863 
L 3256 4863 
L 3256 0 
L 2681 0 
L 2681 441 
Q 2538 181 2298 45 
Q 2059 -91 1747 -91 
Q 1113 -91 748 401 
Q 384 894 384 1759 
Q 384 2613 750 3098 
Q 1116 3584 1747 3584 
Q 2063 3584 2303 3448 
Q 2544 3313 2681 3053 
z
M 991 1747 
Q 991 1078 1203 737 
Q 1416 397 1831 397 
Q 2247 397 2464 740 
Q 2681 1084 2681 1747 
Q 2681 2413 2464 2755 
Q 2247 3097 1831 3097 
Q 1416 3097 1203 2756 
Q 991 2416 991 1747 
z
" id="DejaVuSansMono-64" transform="scale(0.015625)"/>
       <path d="M 3041 3378 
L 3041 2816 
Q 2794 2959 2544 3031 
Q 2294 3103 2034 3103 
Q 1644 3103 1451 2976 
Q 1259 2850 1259 2591 
Q 1259 2356 1403 2240 
Q 1547 2125 2119 2016 
L 2350 1972 
Q 2778 1891 2998 1647 
Q 3219 1403 3219 1013 
Q 3219 494 2850 201 
Q 2481 -91 1825 -91 
Q 1566 -91 1281 -36 
Q 997 19 666 128 
L 666 722 
Q 988 556 1281 473 
Q 1575 391 1838 391 
Q 2219 391 2428 545 
Q 2638 700 2638 978 
Q 2638 1378 1872 1531 
L 1847 1538 
L 1631 1581 
Q 1134 1678 906 1908 
Q 678 2138 678 2534 
Q 678 3038 1018 3311 
Q 1359 3584 1991 3584 
Q 2272 3584 2531 3532 
Q 2791 3481 3041 3378 
z
" id="DejaVuSansMono-73" transform="scale(0.015625)"/>
      </defs>
      <use xlink:href="#DejaVuSansMono-46"/>
      <use x="60.205078" xlink:href="#DejaVuSansMono-72"/>
      <use x="120.410156" xlink:href="#DejaVuSansMono-61"/>
      <use x="180.615234" xlink:href="#DejaVuSansMono-63"/>
      <use x="240.820312" xlink:href="#DejaVuSansMono-74"/>
      <use x="301.025391" xlink:href="#DejaVuSansMono-69"/>
      <use x="361.230469" xlink:href="#DejaVuSansMono-6f"/>
      <use x="421.435547" xlink:href="#DejaVuSansMono-6e"/>
      <use x="481.640625" xlink:href="#DejaVuSansMono-20"/>
      <use x="541.845703" xlink:href="#DejaVuSansMono-6f"/>
      <use x="602.050781" xlink:href="#DejaVuSansMono-66"/>
      <use x="662.255859" xlink:href="#DejaVuSansMono-20"/>
      <use x="722.460938" xlink:href="#DejaVuSansMono-72"/>
      <use x="782.666016" xlink:href="#DejaVuSansMono-65"/>
      <use x="842.871094" xlink:href="#DejaVuSansMono-61"/>
      <use x="903.076172" xlink:href="#DejaVuSansMono-64"/>
      <use x="963.28125" xlink:href="#DejaVuSansMono-73"/>
     </g>
    </g>
   </g>
   <g id="matplotlib.axis_2">
    <g id="ytick_1">
     <g id="line2d_7">
      <defs>
       <path d="M 0 0 
L -3.5 0 
" id="m1e46740759" style="stroke:#000000;stroke-width:0.8;"/>
      </defs>
      <g>
       <use style="stroke:#000000;stroke-width:0.8;" x="52.028125" xlink:href="#m1e46740759" y="412.171349"/>
      </g>
     </g>
     <g id="text_8">
      <!-- 0.74 -->
      <g transform="translate(20.946875 415.99713)scale(0.1 -0.1)">
       <defs>
        <path d="M 434 4666 
L 3372 4666 
L 3372 4397 
L 1703 0 
L 1044 0 
L 2669 4134 
L 434 4134 
L 434 4666 
z
" id="DejaVuSansMono-37" transform="scale(0.015625)"/>
       </defs>
       <use xlink:href="#DejaVuSansMono-30"/>
       <use x="60.205078" xlink:href="#DejaVuSansMono-2e"/>
       <use x="120.410156" xlink:href="#DejaVuSansMono-37"/>
       <use x="180.615234" xlink:href="#DejaVuSansMono-34"/>
      </g>
     </g>
    </g>
    <g id="ytick_2">
     <g id="line2d_8">
      <g>
       <use style="stroke:#000000;stroke-width:0.8;" x="52.028125" xlink:href="#m1e46740759" y="358.907806"/>
      </g>
     </g>
     <g id="text_9">
      <!-- 0.76 -->
      <g transform="translate(20.946875 362.733587)scale(0.1 -0.1)">
       <use xlink:href="#DejaVuSansMono-30"/>
       <use x="60.205078" xlink:href="#DejaVuSansMono-2e"/>
       <use x="120.410156" xlink:href="#DejaVuSansMono-37"/>
       <use x="180.615234" xlink:href="#DejaVuSansMono-36"/>
      </g>
     </g>
    </g>
    <g id="ytick_3">
     <g id="line2d_9">
      <g>
       <use style="stroke:#000000;stroke-width:0.8;" x="52.028125" xlink:href="#m1e46740759" y="305.644263"/>
      </g>
     </g>
     <g id="text_10">
      <!-- 0.78 -->
      <g transform="translate(20.946875 309.470044)scale(0.1 -0.1)">
       <use xlink:href="#DejaVuSansMono-30"/>
       <use x="60.205078" xlink:href="#DejaVuSansMono-2e"/>
       <use x="120.410156" xlink:href="#DejaVuSansMono-37"/>
       <use x="180.615234" xlink:href="#DejaVuSansMono-38"/>
      </g>
     </g>
    </g>
    <g id="ytick_4">
     <g id="line2d_10">
      <g>
       <use style="stroke:#000000;stroke-width:0.8;" x="52.028125" xlink:href="#m1e46740759" y="252.38072"/>
      </g>
     </g>
     <g id="text_11">
      <!-- 0.80 -->
      <g transform="translate(20.946875 256.206501)scale(0.1 -0.1)">
       <use xlink:href="#DejaVuSansMono-30"/>
       <use x="60.205078" xlink:href="#DejaVuSansMono-2e"/>
       <use x="120.410156" xlink:href="#DejaVuSansMono-38"/>
       <use x="180.615234" xlink:href="#DejaVuSansMono-30"/>
      </g>
     </g>
    </g>
    <g id="ytick_5">
     <g id="line2d_11">
      <g>
       <use style="stroke:#000000;stroke-width:0.8;" x="52.028125" xlink:href="#m1e46740759" y="199.117177"/>
      </g>
     </g>
     <g id="text_12">
      <!-- 0.82 -->
      <g transform="translate(20.946875 202.942959)scale(0.1 -0.1)">
       <use xlink:href="#DejaVuSansMono-30"/>
       <use x="60.205078" xlink:href="#DejaVuSansMono-2e"/>
       <use x="120.410156" xlink:href="#DejaVuSansMono-38"/>
       <use x="180.615234" xlink:href="#DejaVuSansMono-32"/>
      </g>
     </g>
    </g>
    <g id="ytick_6">
     <g id="line2d_12">
      <g>
       <use style="stroke:#000000;stroke-width:0.8;" x="52.028125" xlink:href="#m1e46740759" y="145.853634"/>
      </g>
     </g>
     <g id="text_13">
      <!-- 0.84 -->
      <g transform="translate(20.946875 149.679416)scale(0.1 -0.1)">
       <use xlink:href="#DejaVuSansMono-30"/>
       <use x="60.205078" xlink:href="#DejaVuSansMono-2e"/>
       <use x="120.410156" xlink:href="#DejaVuSansMono-38"/>
       <use x="180.615234" xlink:href="#DejaVuSansMono-34"/>
      </g>
     </g>
    </g>
    <g id="ytick_7">
     <g id="line2d_13">
      <g>
       <use style="stroke:#000000;stroke-width:0.8;" x="52.028125" xlink:href="#m1e46740759" y="92.590092"/>
      </g>
     </g>
     <g id="text_14">
      <!-- 0.86 -->
      <g transform="translate(20.946875 96.415873)scale(0.1 -0.1)">
       <use xlink:href="#DejaVuSansMono-30"/>
       <use x="60.205078" xlink:href="#DejaVuSansMono-2e"/>
       <use x="120.410156" xlink:href="#DejaVuSansMono-38"/>
       <use x="180.615234" xlink:href="#DejaVuSansMono-36"/>
      </g>
     </g>
    </g>
    <g id="ytick_8">
     <g id="line2d_14">
      <g>
       <use style="stroke:#000000;stroke-width:0.8;" x="52.028125" xlink:href="#m1e46740759" y="39.326549"/>
      </g>
     </g>
     <g id="text_15">
      <!-- 0.88 -->
      <g transform="translate(20.946875 43.15233)scale(0.1 -0.1)">
       <use xlink:href="#DejaVuSansMono-30"/>
       <use x="60.205078" xlink:href="#DejaVuSansMono-2e"/>
       <use x="120.410156" xlink:href="#DejaVuSansMono-38"/>
       <use x="180.615234" xlink:href="#DejaVuSansMono-38"/>
      </g>
     </g>
    </g>
    <g id="text_16">
     <!-- Average match rate -->
     <g transform="translate(14.798438 300.278562)rotate(-90)scale(0.1 -0.1)">
      <defs>
       <path d="M 1925 4109 
L 1259 1722 
L 2591 1722 
L 1925 4109 
z
M 1544 4666 
L 2309 4666 
L 3738 0 
L 3084 0 
L 2741 1216 
L 1106 1216 
L 769 0 
L 116 0 
L 1544 4666 
z
" id="DejaVuSansMono-41" transform="scale(0.015625)"/>
       <path d="M 313 3500 
L 909 3500 
L 1925 563 
L 2944 3500 
L 3541 3500 
L 2297 0 
L 1556 0 
L 313 3500 
z
" id="DejaVuSansMono-76" transform="scale(0.015625)"/>
       <path d="M 2681 1778 
Q 2681 2425 2470 2761 
Q 2259 3097 1856 3097 
Q 1434 3097 1212 2761 
Q 991 2425 991 1778 
Q 991 1131 1214 792 
Q 1438 453 1863 453 
Q 2259 453 2470 793 
Q 2681 1134 2681 1778 
z
M 3256 225 
Q 3256 -563 2884 -969 
Q 2513 -1375 1791 -1375 
Q 1553 -1375 1293 -1331 
Q 1034 -1288 775 -1203 
L 775 -634 
Q 1081 -778 1331 -847 
Q 1581 -916 1791 -916 
Q 2256 -916 2468 -662 
Q 2681 -409 2681 141 
L 2681 166 
L 2681 556 
Q 2544 263 2306 119 
Q 2069 -25 1728 -25 
Q 1116 -25 750 465 
Q 384 956 384 1778 
Q 384 2603 750 3093 
Q 1116 3584 1728 3584 
Q 2066 3584 2300 3450 
Q 2534 3316 2681 3034 
L 2681 3488 
L 3256 3488 
L 3256 225 
z
" id="DejaVuSansMono-67" transform="scale(0.015625)"/>
       <path d="M 2113 3144 
Q 2219 3369 2383 3476 
Q 2547 3584 2778 3584 
Q 3200 3584 3373 3257 
Q 3547 2931 3547 2028 
L 3547 0 
L 3022 0 
L 3022 2003 
Q 3022 2744 2939 2923 
Q 2856 3103 2638 3103 
Q 2388 3103 2295 2911 
Q 2203 2719 2203 2003 
L 2203 0 
L 1678 0 
L 1678 2003 
Q 1678 2753 1589 2928 
Q 1500 3103 1269 3103 
Q 1041 3103 952 2911 
Q 863 2719 863 2003 
L 863 0 
L 341 0 
L 341 3500 
L 863 3500 
L 863 3200 
Q 966 3388 1120 3486 
Q 1275 3584 1472 3584 
Q 1709 3584 1867 3475 
Q 2025 3366 2113 3144 
z
" id="DejaVuSansMono-6d" transform="scale(0.015625)"/>
       <path d="M 3284 2169 
L 3284 0 
L 2706 0 
L 2706 2169 
Q 2706 2641 2540 2862 
Q 2375 3084 2022 3084 
Q 1619 3084 1401 2798 
Q 1184 2513 1184 1978 
L 1184 0 
L 609 0 
L 609 4863 
L 1184 4863 
L 1184 2975 
Q 1338 3275 1600 3429 
Q 1863 3584 2222 3584 
Q 2756 3584 3020 3232 
Q 3284 2881 3284 2169 
z
" id="DejaVuSansMono-68" transform="scale(0.015625)"/>
      </defs>
      <use xlink:href="#DejaVuSansMono-41"/>
      <use x="60.205078" xlink:href="#DejaVuSansMono-76"/>
      <use x="120.410156" xlink:href="#DejaVuSansMono-65"/>
      <use x="180.615234" xlink:href="#DejaVuSansMono-72"/>
      <use x="240.820312" xlink:href="#DejaVuSansMono-61"/>
      <use x="301.025391" xlink:href="#DejaVuSansMono-67"/>
      <use x="361.230469" xlink:href="#DejaVuSansMono-65"/>
      <use x="421.435547" xlink:href="#DejaVuSansMono-20"/>
      <use x="481.640625" xlink:href="#DejaVuSansMono-6d"/>
      <use x="541.845703" xlink:href="#DejaVuSansMono-61"/>
      <use x="602.050781" xlink:href="#DejaVuSansMono-74"/>
      <use x="662.255859" xlink:href="#DejaVuSansMono-63"/>
      <use x="722.460938" xlink:href="#DejaVuSansMono-68"/>
      <use x="782.666016" xlink:href="#DejaVuSansMono-20"/>
      <use x="842.871094" xlink:href="#DejaVuSansMono-72"/>
      <use x="903.076172" xlink:href="#DejaVuSansMono-61"/>
      <use x="963.28125" xlink:href="#DejaVuSansMono-74"/>
      <use x="1023.486328" xlink:href="#DejaVuSansMono-65"/>
     </g>
    </g>
   </g>
   <g id="line2d_15">
    <path clip-path="url(#pc40bd1ca2d)" d="M 438.046307 149.085551 
L 437.260759 146.74943 
L 435.689663 143.863135 
L 433.33302 141.064091 
L 431.761925 139.468162 
L 430.976377 138.835911 
L 428.619733 136.500453 
L 426.26309 134.513996 
L 425.477542 133.904746 
L 423.906447 132.933967 
L 419.19316 129.492638 
L 417.622064 128.543361 
L 416.050969 127.487511 
L 414.479873 126.613194 
L 412.908778 125.904928 
L 412.12323 125.294656 
L 408.981039 123.846235 
L 406.624395 122.584372 
L 405.838848 122.290169 
L 405.0533 121.758456 
L 399.554465 119.057541 
L 398.768918 118.535297 
L 397.197822 117.940952 
L 395.626726 117.268379 
L 394.841179 117.029619 
L 394.055631 116.607015 
L 393.270083 116.370019 
L 392.484535 115.898335 
L 391.698987 115.596684 
L 390.127892 114.74951 
L 387.771249 113.789475 
L 383.84351 111.801241 
L 380.701318 110.404578 
L 379.915771 109.930632 
L 368.132554 105.141737 
L 367.347006 104.882691 
L 365.775911 104.08485 
L 363.419267 103.299058 
L 361.062624 102.529082 
L 359.491528 101.990477 
L 357.134885 101.162425 
L 356.349337 100.882783 
L 354.778242 100.545075 
L 352.421598 99.864738 
L 351.63605 99.352077 
L 350.064955 98.624195 
L 349.279407 98.476395 
L 346.922764 97.320425 
L 346.137216 96.959872 
L 344.56612 96.508185 
L 339.067286 94.980059 
L 337.49619 94.582979 
L 331.997356 93.027212 
L 329.640712 92.529099 
L 328.069617 92.105413 
L 326.498521 91.849567 
L 324.927426 91.405745 
L 323.35633 90.797043 
L 321.785235 90.366602 
L 313.929757 87.662543 
L 313.144209 87.31144 
L 310.787566 86.622194 
L 309.21647 86.137105 
L 304.503183 84.861652 
L 300.575444 83.887557 
L 299.004349 83.790567 
L 296.647705 83.486329 
L 295.862158 83.14975 
L 293.505514 82.630059 
L 292.719966 82.155428 
L 289.577775 81.568592 
L 288.00668 80.882039 
L 281.722297 79.50964 
L 280.93675 79.179295 
L 280.151202 79.14565 
L 277.009011 78.07939 
L 276.223463 78.091168 
L 275.437915 77.799329 
L 273.081272 77.389475 
L 271.510176 76.950124 
L 269.153533 76.623376 
L 268.367985 76.211527 
L 267.582437 75.983182 
L 266.79689 75.522726 
L 266.011342 75.311469 
L 265.225794 74.90626 
L 264.440246 74.722528 
L 263.654698 74.659775 
L 262.869151 74.220118 
L 261.298055 73.796496 
L 256.584768 72.754131 
L 255.013673 72.108169 
L 253.442577 71.655491 
L 252.657029 71.653469 
L 251.871482 71.297749 
L 251.085934 71.267896 
L 250.300386 71.108366 
L 248.729291 70.978458 
L 247.943743 70.88899 
L 246.372647 70.120996 
L 244.801552 70.034594 
L 244.016004 69.986947 
L 243.230456 69.732849 
L 241.65936 69.588002 
L 240.873813 69.275875 
L 237.731622 69.042083 
L 236.946074 68.703807 
L 235.374978 68.719071 
L 234.58943 68.885436 
L 233.018335 68.667821 
L 231.447239 68.585133 
L 229.876144 68.106914 
L 226.733953 66.916374 
L 223.591761 66.678164 
L 222.020666 66.426716 
L 221.235118 66.515595 
L 218.092927 65.665308 
L 216.521831 64.866472 
L 215.736284 64.884243 
L 214.950736 64.742605 
L 214.165188 64.401158 
L 213.37964 64.518758 
L 211.808545 64.15306 
L 211.022997 64.083482 
L 210.237449 63.824523 
L 207.880806 63.727623 
L 206.30971 63.295331 
L 205.524162 63.313805 
L 204.738615 62.849068 
L 203.167519 63.098733 
L 201.596423 62.685555 
L 200.810876 62.543844 
L 198.454232 62.456316 
L 197.668684 62.225702 
L 196.097589 62.238955 
L 195.312041 61.987431 
L 193.740946 62.190145 
L 192.16985 61.911381 
L 190.598754 61.253476 
L 189.813207 61.27414 
L 188.242111 60.619984 
L 186.671015 60.664026 
L 185.885468 60.417459 
L 184.314372 60.386089 
L 181.957729 59.816976 
L 181.172181 59.961097 
L 179.601085 59.919322 
L 178.815538 59.501328 
L 178.02999 59.605356 
L 175.673346 59.074067 
L 174.887799 59.038483 
L 173.316703 59.388896 
L 172.531155 59.188547 
L 171.745608 59.171 
L 170.96006 58.83033 
L 170.174512 58.806756 
L 169.388964 58.65302 
L 167.817869 58.885523 
L 167.032321 58.90112 
L 166.246773 58.208483 
L 165.461225 58.514507 
L 164.675677 58.107501 
L 163.89013 57.827444 
L 163.104582 58.025629 
L 162.319034 57.631214 
L 161.533486 57.689606 
L 160.747939 57.457124 
L 159.962391 57.353993 
L 159.176843 57.632711 
L 158.391295 57.668134 
L 157.605747 57.895014 
L 156.8202 57.075597 
L 155.249104 56.877067 
L 154.463556 56.614235 
L 152.892461 56.614365 
L 152.106913 56.310221 
L 151.321365 55.75953 
L 149.75027 56.341556 
L 148.964722 55.265519 
L 148.179174 55.199832 
L 147.393626 55.004841 
L 146.608078 55.347097 
L 145.822531 55.922399 
L 145.036983 55.925016 
L 144.251435 56.428226 
L 143.465887 56.071476 
L 142.680339 56.229855 
L 141.894792 56.796982 
L 141.109244 57.000072 
L 140.323696 56.155299 
L 139.538148 56.256603 
L 138.752601 56.695965 
L 137.967053 56.705756 
L 137.181505 57.079954 
L 136.395957 57.707673 
L 135.610409 57.681664 
L 134.824862 57.781585 
L 134.039314 58.106195 
L 133.253766 56.883246 
L 132.468218 57.103642 
L 131.68267 57.697469 
L 130.111575 58.217349 
L 128.540479 58.034922 
L 127.754932 58.161139 
L 126.183836 59.093199 
L 125.398288 60.140918 
L 124.61274 60.61347 
L 123.827193 61.665221 
L 123.041645 61.862783 
L 122.256097 61.866254 
L 121.470549 62.849126 
L 120.685001 62.566739 
L 119.899454 63.176099 
L 119.113906 62.688389 
L 118.328358 62.462151 
L 117.54281 63.015244 
L 115.971715 62.905452 
L 115.186167 63.540967 
L 114.400619 63.695127 
L 113.615071 63.607839 
L 112.829524 64.534034 
L 112.043976 63.716254 
L 111.258428 63.820687 
L 110.47288 64.807179 
L 109.687332 65.237389 
L 108.901785 64.988204 
L 108.116237 64.875318 
L 107.330689 65.661101 
L 106.545141 66.606289 
L 105.759594 66.602388 
L 104.974046 66.340186 
L 104.188498 66.835722 
L 103.40295 66.683908 
L 102.617402 65.703467 
L 101.831855 67.121323 
L 101.046307 67.610726 
L 100.260759 67.542914 
L 99.475211 68.500184 
L 98.689663 70.295759 
L 97.904116 70.838769 
L 97.118568 72.120336 
L 96.33302 71.606044 
L 94.761925 76.340619 
L 93.976377 78.189679 
L 93.190829 80.638365 
L 92.405281 84.824163 
L 91.619733 85.188207 
L 90.834186 87.156875 
L 90.048638 86.913036 
L 89.26309 85.841013 
L 88.477542 88.395155 
L 87.691994 90.150812 
L 86.906447 94.134708 
L 86.120899 96.590009 
L 85.335351 96.926456 
L 84.549803 102.598231 
L 83.764256 105.992979 
L 82.19316 120.683281 
L 80.622064 128.348131 
L 78.265421 149.666119 
L 77.479873 151.817183 
L 76.694325 160.394354 
L 75.908778 166.771256 
L 74.337682 195.867085 
L 73.552134 212.74919 
L 72.766587 239.476906 
L 71.981039 275.344746 
L 71.195491 302.594532 
L 70.409943 437.186659 
L 70.409943 437.186659 
" style="fill:none;stroke:#000000;stroke-linecap:square;stroke-width:1.5;"/>
   </g>
   <g id="patch_3">
    <path d="M 52.028125 456.29575 
L 52.028125 35.89575 
" style="fill:none;stroke:#000000;stroke-linecap:square;stroke-linejoin:miter;stroke-width:0.8;"/>
   </g>
   <g id="patch_4">
    <path d="M 456.428125 456.29575 
L 456.428125 35.89575 
" style="fill:none;stroke:#000000;stroke-linecap:square;stroke-linejoin:miter;stroke-width:0.8;"/>
   </g>
   <g id="patch_5">
    <path d="M 52.028125 456.29575 
L 456.428125 456.29575 
" style="fill:none;stroke:#000000;stroke-linecap:square;stroke-linejoin:miter;stroke-width:0.8;"/>
   </g>
   <g id="patch_6">
    <path d="M 52.028125 35.89575 
L 456.428125 35.89575 
" style="fill:none;stroke:#000000;stroke-linecap:square;stroke-linejoin:miter;stroke-width:0.8;"/>
   </g>
   <g id="text_17">
    <!-- CATCaller - LSTM3 -->
    <g transform="translate(192.820938 16.381875)scale(0.12 -0.12)">
     <defs>
      <path d="M 3353 166 
Q 3113 38 2859 -26 
Q 2606 -91 2322 -91 
Q 1425 -91 929 543 
Q 434 1178 434 2328 
Q 434 3472 932 4111 
Q 1431 4750 2322 4750 
Q 2606 4750 2859 4686 
Q 3113 4622 3353 4494 
L 3353 3847 
Q 3122 4038 2856 4138 
Q 2591 4238 2322 4238 
Q 1706 4238 1400 3763 
Q 1094 3288 1094 2328 
Q 1094 1372 1400 897 
Q 1706 422 2322 422 
Q 2597 422 2861 522 
Q 3125 622 3353 813 
L 3353 166 
z
" id="DejaVuSansMono-43" transform="scale(0.015625)"/>
      <path d="M 147 4666 
L 3706 4666 
L 3706 4134 
L 2247 4134 
L 2247 0 
L 1613 0 
L 1613 4134 
L 147 4134 
L 147 4666 
z
" id="DejaVuSansMono-54" transform="scale(0.015625)"/>
      <path d="M 1997 1269 
Q 1997 881 2139 684 
Q 2281 488 2559 488 
L 3231 488 
L 3231 0 
L 2503 0 
Q 1988 0 1705 331 
Q 1422 663 1422 1269 
L 1422 4447 
L 500 4447 
L 500 4897 
L 1997 4897 
L 1997 1269 
z
" id="DejaVuSansMono-6c" transform="scale(0.015625)"/>
      <path d="M 1113 2009 
L 2741 2009 
L 2741 1497 
L 1113 1497 
L 1113 2009 
z
" id="DejaVuSansMono-2d" transform="scale(0.015625)"/>
      <path d="M 672 4666 
L 1306 4666 
L 1306 531 
L 3559 531 
L 3559 0 
L 672 0 
L 672 4666 
z
" id="DejaVuSansMono-4c" transform="scale(0.015625)"/>
      <path d="M 3163 4506 
L 3163 3866 
Q 2875 4050 2586 4144 
Q 2297 4238 2003 4238 
Q 1556 4238 1297 4030 
Q 1038 3822 1038 3469 
Q 1038 3159 1208 2996 
Q 1378 2834 1844 2725 
L 2175 2650 
Q 2831 2497 3131 2169 
Q 3431 1841 3431 1275 
Q 3431 609 3018 259 
Q 2606 -91 1819 -91 
Q 1491 -91 1159 -20 
Q 828 50 494 191 
L 494 863 
Q 853 634 1173 528 
Q 1494 422 1819 422 
Q 2297 422 2562 636 
Q 2828 850 2828 1234 
Q 2828 1584 2645 1768 
Q 2463 1953 2009 2053 
L 1672 2131 
Q 1022 2278 728 2575 
Q 434 2872 434 3372 
Q 434 3997 854 4373 
Q 1275 4750 1972 4750 
Q 2241 4750 2537 4689 
Q 2834 4628 3163 4506 
z
" id="DejaVuSansMono-53" transform="scale(0.015625)"/>
      <path d="M 269 4666 
L 1113 4666 
L 1919 2291 
L 2731 4666 
L 3578 4666 
L 3578 0 
L 2994 0 
L 2994 4122 
L 2163 1663 
L 1684 1663 
L 850 4122 
L 850 0 
L 269 0 
L 269 4666 
z
" id="DejaVuSansMono-4d" transform="scale(0.015625)"/>
      <path d="M 2425 2497 
Q 2884 2375 3128 2064 
Q 3372 1753 3372 1288 
Q 3372 644 2939 276 
Q 2506 -91 1741 -91 
Q 1419 -91 1084 -31 
Q 750 28 428 141 
L 428 769 
Q 747 603 1056 522 
Q 1366 441 1672 441 
Q 2191 441 2469 675 
Q 2747 909 2747 1350 
Q 2747 1756 2469 1995 
Q 2191 2234 1716 2234 
L 1234 2234 
L 1234 2753 
L 1716 2753 
Q 2150 2753 2394 2943 
Q 2638 3134 2638 3475 
Q 2638 3834 2411 4026 
Q 2184 4219 1766 4219 
Q 1488 4219 1191 4156 
Q 894 4094 569 3969 
L 569 4550 
Q 947 4650 1242 4700 
Q 1538 4750 1766 4750 
Q 2447 4750 2855 4408 
Q 3263 4066 3263 3500 
Q 3263 3116 3048 2859 
Q 2834 2603 2425 2497 
z
" id="DejaVuSansMono-33" transform="scale(0.015625)"/>
     </defs>
     <use xlink:href="#DejaVuSansMono-43"/>
     <use x="60.205078" xlink:href="#DejaVuSansMono-41"/>
     <use x="120.410156" xlink:href="#DejaVuSansMono-54"/>
     <use x="180.615234" xlink:href="#DejaVuSansMono-43"/>
     <use x="240.820312" xlink:href="#DejaVuSansMono-61"/>
     <use x="301.025391" xlink:href="#DejaVuSansMono-6c"/>
     <use x="361.230469" xlink:href="#DejaVuSansMono-6c"/>
     <use x="421.435547" xlink:href="#DejaVuSansMono-65"/>
     <use x="481.640625" xlink:href="#DejaVuSansMono-72"/>
     <use x="541.845703" xlink:href="#DejaVuSansMono-20"/>
     <use x="602.050781" xlink:href="#DejaVuSansMono-2d"/>
     <use x="662.255859" xlink:href="#DejaVuSansMono-20"/>
     <use x="722.460938" xlink:href="#DejaVuSansMono-4c"/>
     <use x="782.666016" xlink:href="#DejaVuSansMono-53"/>
     <use x="842.871094" xlink:href="#DejaVuSansMono-54"/>
     <use x="903.076172" xlink:href="#DejaVuSansMono-4d"/>
     <use x="963.28125" xlink:href="#DejaVuSansMono-33"/>
    </g>
    <!-- AUC: 0.86 -->
    <g transform="translate(221.718437 29.89575)scale(0.12 -0.12)">
     <defs>
      <path d="M 459 1791 
L 459 4666 
L 1094 4666 
L 1094 1503 
Q 1094 1163 1112 1017 
Q 1131 872 1178 794 
Q 1278 609 1467 515 
Q 1656 422 1925 422 
Q 2197 422 2384 515 
Q 2572 609 2675 794 
Q 2722 872 2740 1015 
Q 2759 1159 2759 1497 
L 2759 4666 
L 3391 4666 
L 3391 1791 
Q 3391 1075 3302 773 
Q 3213 472 2994 275 
Q 2788 91 2522 0 
Q 2256 -91 1925 -91 
Q 1597 -91 1331 0 
Q 1066 91 856 275 
Q 641 469 550 776 
Q 459 1084 459 1791 
z
" id="DejaVuSansMono-55" transform="scale(0.015625)"/>
      <path d="M 1528 3322 
L 2316 3322 
L 2316 2375 
L 1528 2375 
L 1528 3322 
z
M 1528 953 
L 2316 953 
L 2316 0 
L 1528 0 
L 1528 953 
z
" id="DejaVuSansMono-3a" transform="scale(0.015625)"/>
     </defs>
     <use xlink:href="#DejaVuSansMono-41"/>
     <use x="60.205078" xlink:href="#DejaVuSansMono-55"/>
     <use x="120.410156" xlink:href="#DejaVuSansMono-43"/>
     <use x="180.615234" xlink:href="#DejaVuSansMono-3a"/>
     <use x="240.820312" xlink:href="#DejaVuSansMono-20"/>
     <use x="301.025391" xlink:href="#DejaVuSansMono-30"/>
     <use x="361.230469" xlink:href="#DejaVuSansMono-2e"/>
     <use x="421.435547" xlink:href="#DejaVuSansMono-38"/>
     <use x="481.640625" xlink:href="#DejaVuSansMono-36"/>
    </g>
   </g>
  </g>
  <g id="axes_2">
   <g id="matplotlib.axis_3">
    <g id="ytick_9">
     <g id="line2d_16">
      <defs>
       <path d="M 0 0 
L 3.5 0 
" id="m93ad5cbe15" style="stroke:#000000;stroke-width:0.8;"/>
      </defs>
      <g>
       <use style="stroke:#000000;stroke-width:0.8;" x="456.428125" xlink:href="#m93ad5cbe15" y="411.624126"/>
      </g>
     </g>
     <g id="text_18">
      <!-- 6 -->
      <g transform="translate(463.428125 415.449908)scale(0.1 -0.1)">
       <use xlink:href="#DejaVuSansMono-36"/>
      </g>
     </g>
    </g>
    <g id="ytick_10">
     <g id="line2d_17">
      <g>
       <use style="stroke:#000000;stroke-width:0.8;" x="456.428125" xlink:href="#m93ad5cbe15" y="327.483824"/>
      </g>
     </g>
     <g id="text_19">
      <!-- 8 -->
      <g transform="translate(463.428125 331.309605)scale(0.1 -0.1)">
       <use xlink:href="#DejaVuSansMono-38"/>
      </g>
     </g>
    </g>
    <g id="ytick_11">
     <g id="line2d_18">
      <g>
       <use style="stroke:#000000;stroke-width:0.8;" x="456.428125" xlink:href="#m93ad5cbe15" y="243.343521"/>
      </g>
     </g>
     <g id="text_20">
      <!-- 10 -->
      <g transform="translate(463.428125 247.169302)scale(0.1 -0.1)">
       <use xlink:href="#DejaVuSansMono-31"/>
       <use x="60.205078" xlink:href="#DejaVuSansMono-30"/>
      </g>
     </g>
    </g>
    <g id="ytick_12">
     <g id="line2d_19">
      <g>
       <use style="stroke:#000000;stroke-width:0.8;" x="456.428125" xlink:href="#m93ad5cbe15" y="159.203219"/>
      </g>
     </g>
     <g id="text_21">
      <!-- 12 -->
      <g transform="translate(463.428125 163.029)scale(0.1 -0.1)">
       <use xlink:href="#DejaVuSansMono-31"/>
       <use x="60.205078" xlink:href="#DejaVuSansMono-32"/>
      </g>
     </g>
    </g>
    <g id="ytick_13">
     <g id="line2d_20">
      <g>
       <use style="stroke:#000000;stroke-width:0.8;" x="456.428125" xlink:href="#m93ad5cbe15" y="75.062916"/>
      </g>
     </g>
     <g id="text_22">
      <!-- 14 -->
      <g transform="translate(463.428125 78.888697)scale(0.1 -0.1)">
       <use xlink:href="#DejaVuSansMono-31"/>
       <use x="60.205078" xlink:href="#DejaVuSansMono-34"/>
      </g>
     </g>
    </g>
    <g id="text_23">
     <!-- Minimum read-mean PhredQ score -->
     <g transform="translate(487.120312 336.400437)rotate(-90)scale(0.1 -0.1)">
      <defs>
       <path d="M 609 1325 
L 609 3494 
L 1184 3494 
L 1184 1325 
Q 1184 853 1351 631 
Q 1519 409 1869 409 
Q 2275 409 2490 695 
Q 2706 981 2706 1516 
L 2706 3494 
L 3284 3494 
L 3284 0 
L 2706 0 
L 2706 525 
Q 2553 222 2289 65 
Q 2025 -91 1672 -91 
Q 1134 -91 871 261 
Q 609 613 609 1325 
z
" id="DejaVuSansMono-75" transform="scale(0.015625)"/>
       <path d="M 1247 4147 
L 1247 2394 
L 1978 2394 
Q 2416 2394 2661 2625 
Q 2906 2856 2906 3272 
Q 2906 3688 2662 3917 
Q 2419 4147 1978 4147 
L 1247 4147 
z
M 616 4666 
L 1978 4666 
Q 2759 4666 3162 4311 
Q 3566 3956 3566 3272 
Q 3566 2581 3164 2228 
Q 2763 1875 1978 1875 
L 1247 1875 
L 1247 0 
L 616 0 
L 616 4666 
z
" id="DejaVuSansMono-50" transform="scale(0.015625)"/>
       <path d="M 2047 -84 
Q 2025 -84 1984 -87 
Q 1944 -91 1919 -91 
Q 1138 -91 752 509 
Q 366 1109 366 2328 
Q 366 3550 752 4150 
Q 1138 4750 1925 4750 
Q 2716 4750 3102 4150 
Q 3488 3550 3488 2328 
Q 3488 1409 3273 848 
Q 3059 288 2625 63 
L 3250 -531 
L 2778 -844 
L 2047 -84 
z
M 2828 2328 
Q 2828 3356 2617 3797 
Q 2406 4238 1925 4238 
Q 1447 4238 1236 3797 
Q 1025 3356 1025 2328 
Q 1025 1303 1236 862 
Q 1447 422 1925 422 
Q 2406 422 2617 861 
Q 2828 1300 2828 2328 
z
" id="DejaVuSansMono-51" transform="scale(0.015625)"/>
      </defs>
      <use xlink:href="#DejaVuSansMono-4d"/>
      <use x="60.205078" xlink:href="#DejaVuSansMono-69"/>
      <use x="120.410156" xlink:href="#DejaVuSansMono-6e"/>
      <use x="180.615234" xlink:href="#DejaVuSansMono-69"/>
      <use x="240.820312" xlink:href="#DejaVuSansMono-6d"/>
      <use x="301.025391" xlink:href="#DejaVuSansMono-75"/>
      <use x="361.230469" xlink:href="#DejaVuSansMono-6d"/>
      <use x="421.435547" xlink:href="#DejaVuSansMono-20"/>
      <use x="481.640625" xlink:href="#DejaVuSansMono-72"/>
      <use x="541.845703" xlink:href="#DejaVuSansMono-65"/>
      <use x="602.050781" xlink:href="#DejaVuSansMono-61"/>
      <use x="662.255859" xlink:href="#DejaVuSansMono-64"/>
      <use x="722.460938" xlink:href="#DejaVuSansMono-2d"/>
      <use x="782.666016" xlink:href="#DejaVuSansMono-6d"/>
      <use x="842.871094" xlink:href="#DejaVuSansMono-65"/>
      <use x="903.076172" xlink:href="#DejaVuSansMono-61"/>
      <use x="963.28125" xlink:href="#DejaVuSansMono-6e"/>
      <use x="1023.486328" xlink:href="#DejaVuSansMono-20"/>
      <use x="1083.691406" xlink:href="#DejaVuSansMono-50"/>
      <use x="1143.896484" xlink:href="#DejaVuSansMono-68"/>
      <use x="1204.101562" xlink:href="#DejaVuSansMono-72"/>
      <use x="1264.306641" xlink:href="#DejaVuSansMono-65"/>
      <use x="1324.511719" xlink:href="#DejaVuSansMono-64"/>
      <use x="1384.716797" xlink:href="#DejaVuSansMono-51"/>
      <use x="1444.921875" xlink:href="#DejaVuSansMono-20"/>
      <use x="1505.126953" xlink:href="#DejaVuSansMono-73"/>
      <use x="1565.332031" xlink:href="#DejaVuSansMono-63"/>
      <use x="1625.537109" xlink:href="#DejaVuSansMono-6f"/>
      <use x="1685.742188" xlink:href="#DejaVuSansMono-72"/>
      <use x="1745.947266" xlink:href="#DejaVuSansMono-65"/>
     </g>
    </g>
   </g>
   <g id="line2d_21">
    <path clip-path="url(#pc40bd1ca2d)" d="M 438.046307 437.186659 
L 437.260759 385.309273 
L 436.475211 369.114016 
L 434.904116 352.077556 
L 432.547472 337.989169 
L 431.761925 334.305352 
L 429.405281 327.081683 
L 427.834186 321.853848 
L 427.048638 319.970778 
L 426.26309 317.050855 
L 425.477542 315.041564 
L 423.906447 311.794773 
L 423.120899 310.098783 
L 421.549803 305.696779 
L 418.407612 298.806349 
L 417.622064 297.718776 
L 416.836517 296.368826 
L 416.050969 294.413503 
L 414.479873 291.330311 
L 411.337682 286.847882 
L 410.552134 285.919961 
L 408.195491 282.079805 
L 401.911109 273.260681 
L 400.340013 271.504122 
L 397.98337 268.59356 
L 395.626726 266.343287 
L 390.127892 260.013359 
L 389.342344 259.395445 
L 387.771249 257.910748 
L 384.629057 255.000238 
L 383.84351 254.051408 
L 383.057962 253.35422 
L 381.486866 251.582786 
L 376.77358 247.416994 
L 375.988032 246.555926 
L 372.845841 244.008212 
L 366.561458 238.775905 
L 364.204815 236.947493 
L 361.848172 234.930397 
L 361.062624 234.510107 
L 359.491528 233.290552 
L 357.920433 231.964746 
L 357.134885 231.531035 
L 355.563789 230.213347 
L 353.207146 228.453089 
L 352.421598 227.816923 
L 350.064955 226.359953 
L 347.708311 224.623387 
L 346.137216 223.553512 
L 343.780573 222.081565 
L 342.209477 220.860956 
L 330.42626 213.414097 
L 329.640712 213.090497 
L 326.498521 211.257433 
L 317.857496 206.24258 
L 317.071948 205.690647 
L 313.144209 203.551267 
L 310.787566 202.17561 
L 308.430922 200.96544 
L 306.859827 200.184257 
L 305.288731 199.32032 
L 293.505514 193.462878 
L 291.934419 192.710745 
L 289.577775 191.369361 
L 287.221132 190.210146 
L 282.507845 187.809662 
L 279.365654 186.464976 
L 277.009011 185.080623 
L 269.939081 182.070656 
L 266.79689 180.598771 
L 260.512507 177.707311 
L 258.155864 176.595594 
L 256.584768 175.932534 
L 255.013673 175.104704 
L 252.657029 174.153768 
L 250.300386 173.176654 
L 246.372647 171.577591 
L 240.088265 168.86283 
L 239.302717 168.378092 
L 235.374978 166.793565 
L 233.803883 166.218555 
L 232.232787 165.42615 
L 230.661691 164.818287 
L 229.090596 164.050808 
L 225.948405 162.626486 
L 208.666353 155.562631 
L 206.30971 154.75065 
L 200.025328 151.896298 
L 199.23978 151.44499 
L 196.883137 150.435716 
L 192.955398 148.688424 
L 191.384302 148.029748 
L 189.027659 146.825311 
L 182.743277 143.825681 
L 181.957729 143.350328 
L 180.386633 142.679626 
L 178.815538 141.949998 
L 177.244442 141.380195 
L 176.458894 141.160164 
L 174.102251 140.064262 
L 172.531155 139.414386 
L 167.032321 136.580881 
L 159.962391 133.39331 
L 158.391295 132.773497 
L 156.8202 132.186605 
L 156.034652 131.914205 
L 152.106913 130.04239 
L 149.75027 128.907752 
L 140.323696 124.588121 
L 139.538148 124.167977 
L 137.967053 123.528426 
L 134.824862 121.99383 
L 129.326027 119.044576 
L 123.827193 116.181131 
L 123.041645 115.642494 
L 121.470549 114.931806 
L 119.899454 114.133419 
L 118.328358 113.367197 
L 116.757263 112.518479 
L 115.186167 111.554705 
L 114.400619 111.179744 
L 112.043976 109.753031 
L 102.617402 104.366639 
L 101.831855 103.742683 
L 101.046307 103.314896 
L 99.475211 102.122997 
L 97.904116 101.165184 
L 94.761925 99.080204 
L 91.619733 96.780533 
L 90.048638 95.40735 
L 88.477542 94.12462 
L 87.691994 93.126791 
L 86.120899 91.894274 
L 83.764256 89.861072 
L 82.978708 88.978263 
L 82.19316 87.740149 
L 79.836517 85.131588 
L 79.050969 83.758821 
L 78.265421 82.725694 
L 75.908778 78.803674 
L 73.552134 73.00449 
L 72.766587 70.909154 
L 71.981039 68.375976 
L 71.195491 63.654976 
L 70.409943 55.004841 
L 70.409943 55.004841 
" style="fill:none;stroke:#ff0000;stroke-linecap:square;stroke-width:1.5;"/>
   </g>
   <g id="patch_7">
    <path d="M 52.028125 456.29575 
L 52.028125 35.89575 
" style="fill:none;stroke:#000000;stroke-linecap:square;stroke-linejoin:miter;stroke-width:0.8;"/>
   </g>
   <g id="patch_8">
    <path d="M 456.428125 456.29575 
L 456.428125 35.89575 
" style="fill:none;stroke:#000000;stroke-linecap:square;stroke-linejoin:miter;stroke-width:0.8;"/>
   </g>
   <g id="patch_9">
    <path d="M 52.028125 456.29575 
L 456.428125 456.29575 
" style="fill:none;stroke:#000000;stroke-linecap:square;stroke-linejoin:miter;stroke-width:0.8;"/>
   </g>
   <g id="patch_10">
    <path d="M 52.028125 35.89575 
L 456.428125 35.89575 
" style="fill:none;stroke:#000000;stroke-linecap:square;stroke-linejoin:miter;stroke-width:0.8;"/>
   </g>
  </g>
 </g>
 <defs>
  <clipPath id="pc40bd1ca2d">
   <rect height="420.4" width="404.4" x="52.028125" y="35.89575"/>
  </clipPath>
 </defs>
</svg>
