<?xml version="1.0" encoding="utf-8" standalone="no"?>
<!DOCTYPE svg PUBLIC "-//W3C//DTD SVG 1.1//EN"
  "http://www.w3.org/Graphics/SVG/1.1/DTD/svg11.dtd">
<svg height="493.95825pt" version="1.1" viewBox="0 0 496.379687 493.95825" width="496.379687pt" xmlns="http://www.w3.org/2000/svg" xmlns:xlink="http://www.w3.org/1999/xlink">
 <metadata>
  <rdf:RDF xmlns:cc="http://creativecommons.org/ns#" xmlns:dc="http://purl.org/dc/elements/1.1/" xmlns:rdf="http://www.w3.org/1999/02/22-rdf-syntax-ns#">
   <cc:Work>
    <dc:type rdf:resource="http://purl.org/dc/dcmitype/StillImage"/>
    <dc:date>2022-01-25T10:32:04.151403</dc:date>
    <dc:format>image/svg+xml</dc:format>
    <dc:creator>
     <cc:Agent>
      <dc:title>Matplotlib v3.4.2, https://matplotlib.org/</dc:title>
     </cc:Agent>
    </dc:creator>
   </cc:Work>
  </rdf:RDF>
 </metadata>
 <defs>
  <style type="text/css">*{stroke-linecap:butt;stroke-linejoin:round;}</style>
 </defs>
 <g id="figure_1">
  <g id="patch_1">
   <path d="M 0 493.95825 
L 496.379687 493.95825 
L 496.379687 0 
L 0 0 
z
" style="fill:none;"/>
  </g>
  <g id="axes_1">
   <g id="patch_2">
    <path d="M 46.007813 456.29575 
L 456.407812 456.29575 
L 456.407812 35.89575 
L 46.007813 35.89575 
z
" style="fill:none;"/>
   </g>
   <g id="matplotlib.axis_1">
    <g id="xtick_1">
     <g id="line2d_1">
      <defs>
       <path d="M 0 0 
L 0 3.5 
" id="m1658cf5f27" style="stroke:#000000;stroke-width:0.8;"/>
      </defs>
      <g>
       <use style="stroke:#000000;stroke-width:0.8;" x="64.630673" xlink:href="#m1658cf5f27" y="456.29575"/>
      </g>
     </g>
     <g id="text_1">
      <!-- 0.0 -->
      <g transform="translate(55.600204 470.947312)scale(0.1 -0.1)">
       <defs>
        <path d="M 1509 2344 
Q 1509 2516 1629 2641 
Q 1750 2766 1919 2766 
Q 2094 2766 2219 2641 
Q 2344 2516 2344 2344 
Q 2344 2169 2220 2047 
Q 2097 1925 1919 1925 
Q 1744 1925 1626 2044 
Q 1509 2163 1509 2344 
z
M 1925 4250 
Q 1484 4250 1267 3775 
Q 1050 3300 1050 2328 
Q 1050 1359 1267 884 
Q 1484 409 1925 409 
Q 2369 409 2586 884 
Q 2803 1359 2803 2328 
Q 2803 3300 2586 3775 
Q 2369 4250 1925 4250 
z
M 1925 4750 
Q 2672 4750 3055 4137 
Q 3438 3525 3438 2328 
Q 3438 1134 3055 521 
Q 2672 -91 1925 -91 
Q 1178 -91 797 521 
Q 416 1134 416 2328 
Q 416 3525 797 4137 
Q 1178 4750 1925 4750 
z
" id="DejaVuSansMono-30" transform="scale(0.015625)"/>
        <path d="M 1528 953 
L 2316 953 
L 2316 0 
L 1528 0 
L 1528 953 
z
" id="DejaVuSansMono-2e" transform="scale(0.015625)"/>
       </defs>
       <use xlink:href="#DejaVuSansMono-30"/>
       <use x="60.205078" xlink:href="#DejaVuSansMono-2e"/>
       <use x="120.410156" xlink:href="#DejaVuSansMono-30"/>
      </g>
     </g>
    </g>
    <g id="xtick_2">
     <g id="line2d_2">
      <g>
       <use style="stroke:#000000;stroke-width:0.8;" x="139.255192" xlink:href="#m1658cf5f27" y="456.29575"/>
      </g>
     </g>
     <g id="text_2">
      <!-- 0.2 -->
      <g transform="translate(130.224723 470.947312)scale(0.1 -0.1)">
       <defs>
        <path d="M 1166 531 
L 3309 531 
L 3309 0 
L 475 0 
L 475 531 
Q 1059 1147 1496 1619 
Q 1934 2091 2100 2284 
Q 2413 2666 2522 2902 
Q 2631 3138 2631 3384 
Q 2631 3775 2401 3997 
Q 2172 4219 1772 4219 
Q 1488 4219 1175 4116 
Q 863 4013 513 3803 
L 513 4441 
Q 834 4594 1145 4672 
Q 1456 4750 1759 4750 
Q 2444 4750 2861 4386 
Q 3278 4022 3278 3431 
Q 3278 3131 3139 2831 
Q 3000 2531 2688 2169 
Q 2513 1966 2180 1606 
Q 1847 1247 1166 531 
z
" id="DejaVuSansMono-32" transform="scale(0.015625)"/>
       </defs>
       <use xlink:href="#DejaVuSansMono-30"/>
       <use x="60.205078" xlink:href="#DejaVuSansMono-2e"/>
       <use x="120.410156" xlink:href="#DejaVuSansMono-32"/>
      </g>
     </g>
    </g>
    <g id="xtick_3">
     <g id="line2d_3">
      <g>
       <use style="stroke:#000000;stroke-width:0.8;" x="213.879711" xlink:href="#m1658cf5f27" y="456.29575"/>
      </g>
     </g>
     <g id="text_3">
      <!-- 0.4 -->
      <g transform="translate(204.849242 470.947312)scale(0.1 -0.1)">
       <defs>
        <path d="M 2297 4091 
L 825 1625 
L 2297 1625 
L 2297 4091 
z
M 2194 4666 
L 2925 4666 
L 2925 1625 
L 3547 1625 
L 3547 1113 
L 2925 1113 
L 2925 0 
L 2297 0 
L 2297 1113 
L 319 1113 
L 319 1709 
L 2194 4666 
z
" id="DejaVuSansMono-34" transform="scale(0.015625)"/>
       </defs>
       <use xlink:href="#DejaVuSansMono-30"/>
       <use x="60.205078" xlink:href="#DejaVuSansMono-2e"/>
       <use x="120.410156" xlink:href="#DejaVuSansMono-34"/>
      </g>
     </g>
    </g>
    <g id="xtick_4">
     <g id="line2d_4">
      <g>
       <use style="stroke:#000000;stroke-width:0.8;" x="288.504229" xlink:href="#m1658cf5f27" y="456.29575"/>
      </g>
     </g>
     <g id="text_4">
      <!-- 0.6 -->
      <g transform="translate(279.473761 470.947312)scale(0.1 -0.1)">
       <defs>
        <path d="M 3097 4563 
L 3097 3981 
Q 2900 4097 2678 4158 
Q 2456 4219 2216 4219 
Q 1616 4219 1306 3767 
Q 997 3316 997 2438 
Q 1147 2750 1412 2917 
Q 1678 3084 2022 3084 
Q 2697 3084 3067 2670 
Q 3438 2256 3438 1497 
Q 3438 741 3056 325 
Q 2675 -91 1984 -91 
Q 1172 -91 794 492 
Q 416 1075 416 2328 
Q 416 3509 870 4129 
Q 1325 4750 2188 4750 
Q 2419 4750 2650 4701 
Q 2881 4653 3097 4563 
z
M 1972 2591 
Q 1569 2591 1337 2300 
Q 1106 2009 1106 1497 
Q 1106 984 1337 693 
Q 1569 403 1972 403 
Q 2391 403 2603 679 
Q 2816 956 2816 1497 
Q 2816 2041 2603 2316 
Q 2391 2591 1972 2591 
z
" id="DejaVuSansMono-36" transform="scale(0.015625)"/>
       </defs>
       <use xlink:href="#DejaVuSansMono-30"/>
       <use x="60.205078" xlink:href="#DejaVuSansMono-2e"/>
       <use x="120.410156" xlink:href="#DejaVuSansMono-36"/>
      </g>
     </g>
    </g>
    <g id="xtick_5">
     <g id="line2d_5">
      <g>
       <use style="stroke:#000000;stroke-width:0.8;" x="363.128748" xlink:href="#m1658cf5f27" y="456.29575"/>
      </g>
     </g>
     <g id="text_5">
      <!-- 0.8 -->
      <g transform="translate(354.098279 470.947312)scale(0.1 -0.1)">
       <defs>
        <path d="M 1925 2216 
Q 1503 2216 1273 1980 
Q 1044 1744 1044 1313 
Q 1044 881 1276 642 
Q 1509 403 1925 403 
Q 2350 403 2579 639 
Q 2809 875 2809 1313 
Q 2809 1741 2576 1978 
Q 2344 2216 1925 2216 
z
M 1375 2478 
Q 972 2581 745 2862 
Q 519 3144 519 3541 
Q 519 4097 897 4423 
Q 1275 4750 1925 4750 
Q 2578 4750 2956 4423 
Q 3334 4097 3334 3541 
Q 3334 3144 3107 2862 
Q 2881 2581 2478 2478 
Q 2947 2375 3195 2062 
Q 3444 1750 3444 1253 
Q 3444 622 3041 265 
Q 2638 -91 1925 -91 
Q 1213 -91 811 264 
Q 409 619 409 1247 
Q 409 1747 657 2061 
Q 906 2375 1375 2478 
z
M 1147 3481 
Q 1147 3106 1347 2909 
Q 1547 2713 1925 2713 
Q 2306 2713 2506 2909 
Q 2706 3106 2706 3481 
Q 2706 3863 2507 4063 
Q 2309 4263 1925 4263 
Q 1547 4263 1347 4061 
Q 1147 3859 1147 3481 
z
" id="DejaVuSansMono-38" transform="scale(0.015625)"/>
       </defs>
       <use xlink:href="#DejaVuSansMono-30"/>
       <use x="60.205078" xlink:href="#DejaVuSansMono-2e"/>
       <use x="120.410156" xlink:href="#DejaVuSansMono-38"/>
      </g>
     </g>
    </g>
    <g id="xtick_6">
     <g id="line2d_6">
      <g>
       <use style="stroke:#000000;stroke-width:0.8;" x="437.753267" xlink:href="#m1658cf5f27" y="456.29575"/>
      </g>
     </g>
     <g id="text_6">
      <!-- 1.0 -->
      <g transform="translate(428.722798 470.947312)scale(0.1 -0.1)">
       <defs>
        <path d="M 844 531 
L 1825 531 
L 1825 4097 
L 769 3859 
L 769 4434 
L 1819 4666 
L 2450 4666 
L 2450 531 
L 3419 531 
L 3419 0 
L 844 0 
L 844 531 
z
" id="DejaVuSansMono-31" transform="scale(0.015625)"/>
       </defs>
       <use xlink:href="#DejaVuSansMono-31"/>
       <use x="60.205078" xlink:href="#DejaVuSansMono-2e"/>
       <use x="120.410156" xlink:href="#DejaVuSansMono-30"/>
      </g>
     </g>
    </g>
    <g id="text_7">
     <!-- Fraction of reads -->
     <g transform="translate(200.035156 484.678562)scale(0.1 -0.1)">
      <defs>
       <path d="M 728 4666 
L 3475 4666 
L 3475 4134 
L 1363 4134 
L 1363 2759 
L 3278 2759 
L 3278 2228 
L 1363 2228 
L 1363 0 
L 728 0 
L 728 4666 
z
" id="DejaVuSansMono-46" transform="scale(0.015625)"/>
       <path d="M 3609 2778 
Q 3425 2922 3234 2987 
Q 3044 3053 2816 3053 
Q 2278 3053 1993 2715 
Q 1709 2378 1709 1741 
L 1709 0 
L 1131 0 
L 1131 3500 
L 1709 3500 
L 1709 2816 
Q 1853 3188 2151 3386 
Q 2450 3584 2859 3584 
Q 3072 3584 3256 3531 
Q 3441 3478 3609 3366 
L 3609 2778 
z
" id="DejaVuSansMono-72" transform="scale(0.015625)"/>
       <path d="M 2194 1759 
L 2003 1759 
Q 1500 1759 1245 1582 
Q 991 1406 991 1056 
Q 991 741 1181 566 
Q 1372 391 1709 391 
Q 2184 391 2456 720 
Q 2728 1050 2731 1631 
L 2731 1759 
L 2194 1759 
z
M 3309 1997 
L 3309 0 
L 2731 0 
L 2731 519 
Q 2547 206 2267 57 
Q 1988 -91 1588 -91 
Q 1053 -91 734 211 
Q 416 513 416 1019 
Q 416 1603 808 1906 
Q 1200 2209 1959 2209 
L 2731 2209 
L 2731 2300 
Q 2728 2719 2518 2908 
Q 2309 3097 1850 3097 
Q 1556 3097 1256 3012 
Q 956 2928 672 2766 
L 672 3341 
Q 991 3463 1283 3523 
Q 1575 3584 1850 3584 
Q 2284 3584 2592 3456 
Q 2900 3328 3091 3072 
Q 3209 2916 3259 2686 
Q 3309 2456 3309 1997 
z
" id="DejaVuSansMono-61" transform="scale(0.015625)"/>
       <path d="M 3316 178 
Q 3084 44 2839 -23 
Q 2594 -91 2338 -91 
Q 1525 -91 1067 396 
Q 609 884 609 1747 
Q 609 2609 1067 3096 
Q 1525 3584 2338 3584 
Q 2591 3584 2831 3518 
Q 3072 3453 3316 3316 
L 3316 2713 
Q 3088 2916 2858 3006 
Q 2628 3097 2338 3097 
Q 1797 3097 1506 2747 
Q 1216 2397 1216 1747 
Q 1216 1100 1508 748 
Q 1800 397 2338 397 
Q 2638 397 2875 489 
Q 3113 581 3316 775 
L 3316 178 
z
" id="DejaVuSansMono-63" transform="scale(0.015625)"/>
       <path d="M 1919 4494 
L 1919 3500 
L 3225 3500 
L 3225 3053 
L 1919 3053 
L 1919 1153 
Q 1919 766 2066 612 
Q 2213 459 2578 459 
L 3225 459 
L 3225 0 
L 2522 0 
Q 1875 0 1609 259 
Q 1344 519 1344 1153 
L 1344 3053 
L 409 3053 
L 409 3500 
L 1344 3500 
L 1344 4494 
L 1919 4494 
z
" id="DejaVuSansMono-74" transform="scale(0.015625)"/>
       <path d="M 800 3500 
L 2272 3500 
L 2272 447 
L 3413 447 
L 3413 0 
L 556 0 
L 556 447 
L 1697 447 
L 1697 3053 
L 800 3053 
L 800 3500 
z
M 1697 4863 
L 2272 4863 
L 2272 4134 
L 1697 4134 
L 1697 4863 
z
" id="DejaVuSansMono-69" transform="scale(0.015625)"/>
       <path d="M 1925 3097 
Q 1488 3097 1263 2756 
Q 1038 2416 1038 1747 
Q 1038 1081 1263 739 
Q 1488 397 1925 397 
Q 2366 397 2591 739 
Q 2816 1081 2816 1747 
Q 2816 2416 2591 2756 
Q 2366 3097 1925 3097 
z
M 1925 3584 
Q 2653 3584 3039 3112 
Q 3425 2641 3425 1747 
Q 3425 850 3040 379 
Q 2656 -91 1925 -91 
Q 1197 -91 812 379 
Q 428 850 428 1747 
Q 428 2641 812 3112 
Q 1197 3584 1925 3584 
z
" id="DejaVuSansMono-6f" transform="scale(0.015625)"/>
       <path d="M 3284 2169 
L 3284 0 
L 2706 0 
L 2706 2169 
Q 2706 2641 2540 2862 
Q 2375 3084 2022 3084 
Q 1619 3084 1401 2798 
Q 1184 2513 1184 1978 
L 1184 0 
L 609 0 
L 609 3500 
L 1184 3500 
L 1184 2975 
Q 1338 3275 1600 3429 
Q 1863 3584 2222 3584 
Q 2756 3584 3020 3232 
Q 3284 2881 3284 2169 
z
" id="DejaVuSansMono-6e" transform="scale(0.015625)"/>
       <path id="DejaVuSansMono-20" transform="scale(0.015625)"/>
       <path d="M 3322 4863 
L 3322 4384 
L 2669 4384 
Q 2359 4384 2239 4257 
Q 2119 4131 2119 3809 
L 2119 3500 
L 3322 3500 
L 3322 3053 
L 2119 3053 
L 2119 0 
L 1544 0 
L 1544 3053 
L 609 3053 
L 609 3500 
L 1544 3500 
L 1544 3744 
Q 1544 4319 1808 4591 
Q 2072 4863 2631 4863 
L 3322 4863 
z
" id="DejaVuSansMono-66" transform="scale(0.015625)"/>
       <path d="M 3475 1894 
L 3475 1613 
L 984 1613 
L 984 1594 
Q 984 1022 1282 709 
Q 1581 397 2125 397 
Q 2400 397 2700 484 
Q 3000 572 3341 750 
L 3341 178 
Q 3013 44 2708 -23 
Q 2403 -91 2119 -91 
Q 1303 -91 843 398 
Q 384 888 384 1747 
Q 384 2584 834 3084 
Q 1284 3584 2034 3584 
Q 2703 3584 3089 3131 
Q 3475 2678 3475 1894 
z
M 2900 2063 
Q 2888 2569 2661 2833 
Q 2434 3097 2009 3097 
Q 1594 3097 1325 2822 
Q 1056 2547 1006 2059 
L 2900 2063 
z
" id="DejaVuSansMono-65" transform="scale(0.015625)"/>
       <path d="M 2681 3053 
L 2681 4863 
L 3256 4863 
L 3256 0 
L 2681 0 
L 2681 441 
Q 2538 181 2298 45 
Q 2059 -91 1747 -91 
Q 1113 -91 748 401 
Q 384 894 384 1759 
Q 384 2613 750 3098 
Q 1116 3584 1747 3584 
Q 2063 3584 2303 3448 
Q 2544 3313 2681 3053 
z
M 991 1747 
Q 991 1078 1203 737 
Q 1416 397 1831 397 
Q 2247 397 2464 740 
Q 2681 1084 2681 1747 
Q 2681 2413 2464 2755 
Q 2247 3097 1831 3097 
Q 1416 3097 1203 2756 
Q 991 2416 991 1747 
z
" id="DejaVuSansMono-64" transform="scale(0.015625)"/>
       <path d="M 3041 3378 
L 3041 2816 
Q 2794 2959 2544 3031 
Q 2294 3103 2034 3103 
Q 1644 3103 1451 2976 
Q 1259 2850 1259 2591 
Q 1259 2356 1403 2240 
Q 1547 2125 2119 2016 
L 2350 1972 
Q 2778 1891 2998 1647 
Q 3219 1403 3219 1013 
Q 3219 494 2850 201 
Q 2481 -91 1825 -91 
Q 1566 -91 1281 -36 
Q 997 19 666 128 
L 666 722 
Q 988 556 1281 473 
Q 1575 391 1838 391 
Q 2219 391 2428 545 
Q 2638 700 2638 978 
Q 2638 1378 1872 1531 
L 1847 1538 
L 1631 1581 
Q 1134 1678 906 1908 
Q 678 2138 678 2534 
Q 678 3038 1018 3311 
Q 1359 3584 1991 3584 
Q 2272 3584 2531 3532 
Q 2791 3481 3041 3378 
z
" id="DejaVuSansMono-73" transform="scale(0.015625)"/>
      </defs>
      <use xlink:href="#DejaVuSansMono-46"/>
      <use x="60.205078" xlink:href="#DejaVuSansMono-72"/>
      <use x="120.410156" xlink:href="#DejaVuSansMono-61"/>
      <use x="180.615234" xlink:href="#DejaVuSansMono-63"/>
      <use x="240.820312" xlink:href="#DejaVuSansMono-74"/>
      <use x="301.025391" xlink:href="#DejaVuSansMono-69"/>
      <use x="361.230469" xlink:href="#DejaVuSansMono-6f"/>
      <use x="421.435547" xlink:href="#DejaVuSansMono-6e"/>
      <use x="481.640625" xlink:href="#DejaVuSansMono-20"/>
      <use x="541.845703" xlink:href="#DejaVuSansMono-6f"/>
      <use x="602.050781" xlink:href="#DejaVuSansMono-66"/>
      <use x="662.255859" xlink:href="#DejaVuSansMono-20"/>
      <use x="722.460938" xlink:href="#DejaVuSansMono-72"/>
      <use x="782.666016" xlink:href="#DejaVuSansMono-65"/>
      <use x="842.871094" xlink:href="#DejaVuSansMono-61"/>
      <use x="903.076172" xlink:href="#DejaVuSansMono-64"/>
      <use x="963.28125" xlink:href="#DejaVuSansMono-73"/>
     </g>
    </g>
   </g>
   <g id="matplotlib.axis_2">
    <g id="ytick_1">
     <g id="line2d_7">
      <defs>
       <path d="M 0 0 
L -3.5 0 
" id="mde79ddf7aa" style="stroke:#000000;stroke-width:0.8;"/>
      </defs>
      <g>
       <use style="stroke:#000000;stroke-width:0.8;" x="46.007813" xlink:href="#mde79ddf7aa" y="415.935585"/>
      </g>
     </g>
     <g id="text_8">
      <!-- 0.4 -->
      <g transform="translate(20.946875 419.761366)scale(0.1 -0.1)">
       <use xlink:href="#DejaVuSansMono-30"/>
       <use x="60.205078" xlink:href="#DejaVuSansMono-2e"/>
       <use x="120.410156" xlink:href="#DejaVuSansMono-34"/>
      </g>
     </g>
    </g>
    <g id="ytick_2">
     <g id="line2d_8">
      <g>
       <use style="stroke:#000000;stroke-width:0.8;" x="46.007813" xlink:href="#mde79ddf7aa" y="338.69637"/>
      </g>
     </g>
     <g id="text_9">
      <!-- 0.5 -->
      <g transform="translate(20.946875 342.522151)scale(0.1 -0.1)">
       <defs>
        <path d="M 647 4666 
L 3009 4666 
L 3009 4134 
L 1222 4134 
L 1222 2988 
Q 1356 3038 1492 3061 
Q 1628 3084 1766 3084 
Q 2491 3084 2916 2656 
Q 3341 2228 3341 1497 
Q 3341 759 2895 334 
Q 2450 -91 1678 -91 
Q 1306 -91 998 -41 
Q 691 9 447 109 
L 447 750 
Q 734 594 1025 517 
Q 1316 441 1619 441 
Q 2141 441 2423 716 
Q 2706 991 2706 1497 
Q 2706 1997 2414 2275 
Q 2122 2553 1600 2553 
Q 1347 2553 1106 2495 
Q 866 2438 647 2322 
L 647 4666 
z
" id="DejaVuSansMono-35" transform="scale(0.015625)"/>
       </defs>
       <use xlink:href="#DejaVuSansMono-30"/>
       <use x="60.205078" xlink:href="#DejaVuSansMono-2e"/>
       <use x="120.410156" xlink:href="#DejaVuSansMono-35"/>
      </g>
     </g>
    </g>
    <g id="ytick_3">
     <g id="line2d_9">
      <g>
       <use style="stroke:#000000;stroke-width:0.8;" x="46.007813" xlink:href="#mde79ddf7aa" y="261.457155"/>
      </g>
     </g>
     <g id="text_10">
      <!-- 0.6 -->
      <g transform="translate(20.946875 265.282937)scale(0.1 -0.1)">
       <use xlink:href="#DejaVuSansMono-30"/>
       <use x="60.205078" xlink:href="#DejaVuSansMono-2e"/>
       <use x="120.410156" xlink:href="#DejaVuSansMono-36"/>
      </g>
     </g>
    </g>
    <g id="ytick_4">
     <g id="line2d_10">
      <g>
       <use style="stroke:#000000;stroke-width:0.8;" x="46.007813" xlink:href="#mde79ddf7aa" y="184.217941"/>
      </g>
     </g>
     <g id="text_11">
      <!-- 0.7 -->
      <g transform="translate(20.946875 188.043722)scale(0.1 -0.1)">
       <defs>
        <path d="M 434 4666 
L 3372 4666 
L 3372 4397 
L 1703 0 
L 1044 0 
L 2669 4134 
L 434 4134 
L 434 4666 
z
" id="DejaVuSansMono-37" transform="scale(0.015625)"/>
       </defs>
       <use xlink:href="#DejaVuSansMono-30"/>
       <use x="60.205078" xlink:href="#DejaVuSansMono-2e"/>
       <use x="120.410156" xlink:href="#DejaVuSansMono-37"/>
      </g>
     </g>
    </g>
    <g id="ytick_5">
     <g id="line2d_11">
      <g>
       <use style="stroke:#000000;stroke-width:0.8;" x="46.007813" xlink:href="#mde79ddf7aa" y="106.978726"/>
      </g>
     </g>
     <g id="text_12">
      <!-- 0.8 -->
      <g transform="translate(20.946875 110.804507)scale(0.1 -0.1)">
       <use xlink:href="#DejaVuSansMono-30"/>
       <use x="60.205078" xlink:href="#DejaVuSansMono-2e"/>
       <use x="120.410156" xlink:href="#DejaVuSansMono-38"/>
      </g>
     </g>
    </g>
    <g id="text_13">
     <!-- Average match rate -->
     <g transform="translate(14.798438 300.278562)rotate(-90)scale(0.1 -0.1)">
      <defs>
       <path d="M 1925 4109 
L 1259 1722 
L 2591 1722 
L 1925 4109 
z
M 1544 4666 
L 2309 4666 
L 3738 0 
L 3084 0 
L 2741 1216 
L 1106 1216 
L 769 0 
L 116 0 
L 1544 4666 
z
" id="DejaVuSansMono-41" transform="scale(0.015625)"/>
       <path d="M 313 3500 
L 909 3500 
L 1925 563 
L 2944 3500 
L 3541 3500 
L 2297 0 
L 1556 0 
L 313 3500 
z
" id="DejaVuSansMono-76" transform="scale(0.015625)"/>
       <path d="M 2681 1778 
Q 2681 2425 2470 2761 
Q 2259 3097 1856 3097 
Q 1434 3097 1212 2761 
Q 991 2425 991 1778 
Q 991 1131 1214 792 
Q 1438 453 1863 453 
Q 2259 453 2470 793 
Q 2681 1134 2681 1778 
z
M 3256 225 
Q 3256 -563 2884 -969 
Q 2513 -1375 1791 -1375 
Q 1553 -1375 1293 -1331 
Q 1034 -1288 775 -1203 
L 775 -634 
Q 1081 -778 1331 -847 
Q 1581 -916 1791 -916 
Q 2256 -916 2468 -662 
Q 2681 -409 2681 141 
L 2681 166 
L 2681 556 
Q 2544 263 2306 119 
Q 2069 -25 1728 -25 
Q 1116 -25 750 465 
Q 384 956 384 1778 
Q 384 2603 750 3093 
Q 1116 3584 1728 3584 
Q 2066 3584 2300 3450 
Q 2534 3316 2681 3034 
L 2681 3488 
L 3256 3488 
L 3256 225 
z
" id="DejaVuSansMono-67" transform="scale(0.015625)"/>
       <path d="M 2113 3144 
Q 2219 3369 2383 3476 
Q 2547 3584 2778 3584 
Q 3200 3584 3373 3257 
Q 3547 2931 3547 2028 
L 3547 0 
L 3022 0 
L 3022 2003 
Q 3022 2744 2939 2923 
Q 2856 3103 2638 3103 
Q 2388 3103 2295 2911 
Q 2203 2719 2203 2003 
L 2203 0 
L 1678 0 
L 1678 2003 
Q 1678 2753 1589 2928 
Q 1500 3103 1269 3103 
Q 1041 3103 952 2911 
Q 863 2719 863 2003 
L 863 0 
L 341 0 
L 341 3500 
L 863 3500 
L 863 3200 
Q 966 3388 1120 3486 
Q 1275 3584 1472 3584 
Q 1709 3584 1867 3475 
Q 2025 3366 2113 3144 
z
" id="DejaVuSansMono-6d" transform="scale(0.015625)"/>
       <path d="M 3284 2169 
L 3284 0 
L 2706 0 
L 2706 2169 
Q 2706 2641 2540 2862 
Q 2375 3084 2022 3084 
Q 1619 3084 1401 2798 
Q 1184 2513 1184 1978 
L 1184 0 
L 609 0 
L 609 4863 
L 1184 4863 
L 1184 2975 
Q 1338 3275 1600 3429 
Q 1863 3584 2222 3584 
Q 2756 3584 3020 3232 
Q 3284 2881 3284 2169 
z
" id="DejaVuSansMono-68" transform="scale(0.015625)"/>
      </defs>
      <use xlink:href="#DejaVuSansMono-41"/>
      <use x="60.205078" xlink:href="#DejaVuSansMono-76"/>
      <use x="120.410156" xlink:href="#DejaVuSansMono-65"/>
      <use x="180.615234" xlink:href="#DejaVuSansMono-72"/>
      <use x="240.820312" xlink:href="#DejaVuSansMono-61"/>
      <use x="301.025391" xlink:href="#DejaVuSansMono-67"/>
      <use x="361.230469" xlink:href="#DejaVuSansMono-65"/>
      <use x="421.435547" xlink:href="#DejaVuSansMono-20"/>
      <use x="481.640625" xlink:href="#DejaVuSansMono-6d"/>
      <use x="541.845703" xlink:href="#DejaVuSansMono-61"/>
      <use x="602.050781" xlink:href="#DejaVuSansMono-74"/>
      <use x="662.255859" xlink:href="#DejaVuSansMono-63"/>
      <use x="722.460938" xlink:href="#DejaVuSansMono-68"/>
      <use x="782.666016" xlink:href="#DejaVuSansMono-20"/>
      <use x="842.871094" xlink:href="#DejaVuSansMono-72"/>
      <use x="903.076172" xlink:href="#DejaVuSansMono-61"/>
      <use x="963.28125" xlink:href="#DejaVuSansMono-74"/>
      <use x="1023.486328" xlink:href="#DejaVuSansMono-65"/>
     </g>
    </g>
   </g>
   <g id="line2d_12">
    <path clip-path="url(#p157bf800d5)" d="M 437.753267 88.224503 
L 433.792642 86.20955 
L 429.832016 84.717785 
L 427.455641 84.050757 
L 417.158015 81.613651 
L 410.02889 80.400945 
L 402.899764 79.192023 
L 399.731264 78.793273 
L 394.978513 78.075112 
L 382.304512 76.300481 
L 375.967511 75.532049 
L 372.799011 75.134022 
L 370.422636 74.755892 
L 368.046261 74.478687 
L 366.462011 74.310957 
L 363.29351 73.842815 
L 357.748635 73.15506 
L 354.580134 72.796828 
L 348.243134 72.233364 
L 343.490383 71.622215 
L 337.945508 71.01876 
L 333.984883 70.60583 
L 330.816382 70.366008 
L 321.310881 69.474656 
L 320.518756 69.304848 
L 317.350256 69.099153 
L 315.766006 68.833357 
L 311.805381 68.499765 
L 310.22113 68.332742 
L 306.260505 68.07678 
L 302.29988 67.617238 
L 294.378629 67.054316 
L 291.210129 66.746478 
L 289.625879 66.627259 
L 286.457378 66.347285 
L 284.873128 66.238707 
L 282.496753 65.931089 
L 258.733001 63.898206 
L 257.148751 63.78288 
L 256.356625 63.558876 
L 253.188125 63.254683 
L 251.603875 63.087443 
L 247.64325 62.81499 
L 245.266874 62.589356 
L 242.890499 62.301491 
L 241.306249 62.238878 
L 238.137749 61.944648 
L 232.592873 61.597763 
L 219.918872 60.944671 
L 219.126747 60.920005 
L 217.542497 60.663147 
L 216.750372 60.655054 
L 215.958247 60.472043 
L 206.452746 59.888592 
L 205.660621 59.760278 
L 204.076371 59.681501 
L 197.73937 59.036118 
L 195.362995 58.849559 
L 193.778745 58.723025 
L 192.98662 58.539203 
L 192.194495 58.57783 
L 191.40237 58.476914 
L 189.025994 58.466853 
L 185.857494 58.341531 
L 182.688994 58.26355 
L 181.104744 57.978639 
L 177.936243 58.02483 
L 177.144118 57.743102 
L 173.183493 57.372865 
L 166.846492 57.121408 
L 164.470117 56.713654 
L 162.885867 56.898046 
L 157.340991 56.72572 
L 156.548866 56.539126 
L 155.756741 56.470314 
L 154.964616 56.534818 
L 152.588241 56.122691 
L 149.419741 55.971978 
L 148.627616 55.995933 
L 147.835491 55.873342 
L 147.043365 55.621855 
L 145.459115 55.425931 
L 143.874865 55.621012 
L 142.290615 55.735822 
L 140.706365 55.821257 
L 138.32999 55.788506 
L 137.537865 55.536224 
L 134.369364 55.269935 
L 131.992989 55.364065 
L 131.200864 55.538189 
L 130.408739 55.20575 
L 129.616614 55.098206 
L 128.824489 55.121808 
L 128.032364 55.004841 
L 118.526863 55.963972 
L 116.150488 56.043572 
L 115.358363 55.772109 
L 113.774112 55.928593 
L 112.189862 55.885428 
L 109.813487 56.254541 
L 109.021362 56.061447 
L 108.229237 56.309282 
L 107.437112 56.384162 
L 105.852862 56.337889 
L 105.060737 56.616329 
L 104.268612 56.640671 
L 103.476487 57.115839 
L 102.684361 57.325733 
L 101.892236 57.791221 
L 101.100111 57.797393 
L 100.307986 58.034446 
L 99.515861 58.017928 
L 97.931611 58.609509 
L 95.555236 58.846995 
L 94.763111 59.067754 
L 93.970986 59.557804 
L 93.178861 59.631495 
L 92.386735 59.473442 
L 91.59461 60.268554 
L 90.802485 60.329778 
L 88.42611 61.958047 
L 86.049735 62.460462 
L 85.25761 63.435891 
L 84.465485 63.925434 
L 83.67336 63.999029 
L 82.08911 64.664999 
L 80.504859 67.244198 
L 78.920609 67.537212 
L 78.128484 68.442165 
L 77.336359 69.038082 
L 76.544234 70.368565 
L 75.752109 71.239106 
L 74.167859 74.41525 
L 73.375734 75.961905 
L 72.583609 76.238693 
L 70.999359 81.449386 
L 70.207233 83.674517 
L 69.415108 87.667742 
L 68.622983 89.72941 
L 67.830858 99.608892 
L 67.038733 106.187294 
L 66.246608 125.263991 
L 65.454483 156.25224 
L 64.662358 437.186659 
L 64.662358 437.186659 
" style="fill:none;stroke:#000000;stroke-linecap:square;stroke-width:1.5;"/>
   </g>
   <g id="patch_3">
    <path d="M 46.007813 456.29575 
L 46.007813 35.89575 
" style="fill:none;stroke:#000000;stroke-linecap:square;stroke-linejoin:miter;stroke-width:0.8;"/>
   </g>
   <g id="patch_4">
    <path d="M 456.407812 456.29575 
L 456.407812 35.89575 
" style="fill:none;stroke:#000000;stroke-linecap:square;stroke-linejoin:miter;stroke-width:0.8;"/>
   </g>
   <g id="patch_5">
    <path d="M 46.007813 456.29575 
L 456.407812 456.29575 
" style="fill:none;stroke:#000000;stroke-linecap:square;stroke-linejoin:miter;stroke-width:0.8;"/>
   </g>
   <g id="patch_6">
    <path d="M 46.007813 35.89575 
L 456.407812 35.89575 
" style="fill:none;stroke:#000000;stroke-linecap:square;stroke-linejoin:miter;stroke-width:0.8;"/>
   </g>
   <g id="text_14">
    <!-- URNano - BonitoRev -->
    <g transform="translate(186.188437 16.381875)scale(0.12 -0.12)">
     <defs>
      <path d="M 459 1791 
L 459 4666 
L 1094 4666 
L 1094 1503 
Q 1094 1163 1112 1017 
Q 1131 872 1178 794 
Q 1278 609 1467 515 
Q 1656 422 1925 422 
Q 2197 422 2384 515 
Q 2572 609 2675 794 
Q 2722 872 2740 1015 
Q 2759 1159 2759 1497 
L 2759 4666 
L 3391 4666 
L 3391 1791 
Q 3391 1075 3302 773 
Q 3213 472 2994 275 
Q 2788 91 2522 0 
Q 2256 -91 1925 -91 
Q 1597 -91 1331 0 
Q 1066 91 856 275 
Q 641 469 550 776 
Q 459 1084 459 1791 
z
" id="DejaVuSansMono-55" transform="scale(0.015625)"/>
      <path d="M 2375 2203 
Q 2619 2141 2791 1967 
Q 2963 1794 3219 1275 
L 3853 0 
L 3175 0 
L 2619 1178 
Q 2378 1681 2186 1826 
Q 1994 1972 1684 1972 
L 1081 1972 
L 1081 0 
L 447 0 
L 447 4666 
L 1747 4666 
Q 2516 4666 2925 4319 
Q 3334 3972 3334 3316 
Q 3334 2853 3082 2561 
Q 2831 2269 2375 2203 
z
M 1081 4147 
L 1081 2491 
L 1772 2491 
Q 2225 2491 2447 2694 
Q 2669 2897 2669 3316 
Q 2669 3719 2433 3933 
Q 2197 4147 1747 4147 
L 1081 4147 
z
" id="DejaVuSansMono-52" transform="scale(0.015625)"/>
      <path d="M 434 4666 
L 1234 4666 
L 2809 825 
L 2809 4666 
L 3419 4666 
L 3419 0 
L 2619 0 
L 1044 3841 
L 1044 0 
L 434 0 
L 434 4666 
z
" id="DejaVuSansMono-4e" transform="scale(0.015625)"/>
      <path d="M 1113 2009 
L 2741 2009 
L 2741 1497 
L 1113 1497 
L 1113 2009 
z
" id="DejaVuSansMono-2d" transform="scale(0.015625)"/>
      <path d="M 1153 2228 
L 1153 519 
L 1900 519 
Q 2450 519 2684 711 
Q 2919 903 2919 1344 
Q 2919 1800 2672 2014 
Q 2425 2228 1900 2228 
L 1153 2228 
z
M 1153 4147 
L 1153 2741 
L 1888 2741 
Q 2344 2741 2548 2916 
Q 2753 3091 2753 3481 
Q 2753 3834 2551 3990 
Q 2350 4147 1888 4147 
L 1153 4147 
z
M 519 4666 
L 1900 4666 
Q 2616 4666 3003 4356 
Q 3391 4047 3391 3481 
Q 3391 3053 3186 2806 
Q 2981 2559 2572 2497 
Q 3031 2428 3292 2104 
Q 3553 1781 3553 1281 
Q 3553 647 3137 323 
Q 2722 0 1900 0 
L 519 0 
L 519 4666 
z
" id="DejaVuSansMono-42" transform="scale(0.015625)"/>
     </defs>
     <use xlink:href="#DejaVuSansMono-55"/>
     <use x="60.205078" xlink:href="#DejaVuSansMono-52"/>
     <use x="120.410156" xlink:href="#DejaVuSansMono-4e"/>
     <use x="180.615234" xlink:href="#DejaVuSansMono-61"/>
     <use x="240.820312" xlink:href="#DejaVuSansMono-6e"/>
     <use x="301.025391" xlink:href="#DejaVuSansMono-6f"/>
     <use x="361.230469" xlink:href="#DejaVuSansMono-20"/>
     <use x="421.435547" xlink:href="#DejaVuSansMono-2d"/>
     <use x="481.640625" xlink:href="#DejaVuSansMono-20"/>
     <use x="541.845703" xlink:href="#DejaVuSansMono-42"/>
     <use x="602.050781" xlink:href="#DejaVuSansMono-6f"/>
     <use x="662.255859" xlink:href="#DejaVuSansMono-6e"/>
     <use x="722.460938" xlink:href="#DejaVuSansMono-69"/>
     <use x="782.666016" xlink:href="#DejaVuSansMono-74"/>
     <use x="842.871094" xlink:href="#DejaVuSansMono-6f"/>
     <use x="903.076172" xlink:href="#DejaVuSansMono-52"/>
     <use x="963.28125" xlink:href="#DejaVuSansMono-65"/>
     <use x="1023.486328" xlink:href="#DejaVuSansMono-76"/>
    </g>
    <!-- AUC: 0.852 -->
    <g transform="translate(215.085938 29.89575)scale(0.12 -0.12)">
     <defs>
      <path d="M 3353 166 
Q 3113 38 2859 -26 
Q 2606 -91 2322 -91 
Q 1425 -91 929 543 
Q 434 1178 434 2328 
Q 434 3472 932 4111 
Q 1431 4750 2322 4750 
Q 2606 4750 2859 4686 
Q 3113 4622 3353 4494 
L 3353 3847 
Q 3122 4038 2856 4138 
Q 2591 4238 2322 4238 
Q 1706 4238 1400 3763 
Q 1094 3288 1094 2328 
Q 1094 1372 1400 897 
Q 1706 422 2322 422 
Q 2597 422 2861 522 
Q 3125 622 3353 813 
L 3353 166 
z
" id="DejaVuSansMono-43" transform="scale(0.015625)"/>
      <path d="M 1528 3322 
L 2316 3322 
L 2316 2375 
L 1528 2375 
L 1528 3322 
z
M 1528 953 
L 2316 953 
L 2316 0 
L 1528 0 
L 1528 953 
z
" id="DejaVuSansMono-3a" transform="scale(0.015625)"/>
     </defs>
     <use xlink:href="#DejaVuSansMono-41"/>
     <use x="60.205078" xlink:href="#DejaVuSansMono-55"/>
     <use x="120.410156" xlink:href="#DejaVuSansMono-43"/>
     <use x="180.615234" xlink:href="#DejaVuSansMono-3a"/>
     <use x="240.820312" xlink:href="#DejaVuSansMono-20"/>
     <use x="301.025391" xlink:href="#DejaVuSansMono-30"/>
     <use x="361.230469" xlink:href="#DejaVuSansMono-2e"/>
     <use x="421.435547" xlink:href="#DejaVuSansMono-38"/>
     <use x="481.640625" xlink:href="#DejaVuSansMono-35"/>
     <use x="541.845703" xlink:href="#DejaVuSansMono-32"/>
    </g>
   </g>
  </g>
  <g id="axes_2">
   <g id="matplotlib.axis_3">
    <g id="ytick_6">
     <g id="line2d_13">
      <defs>
       <path d="M 0 0 
L 3.5 0 
" id="mbfb860a66a" style="stroke:#000000;stroke-width:0.8;"/>
      </defs>
      <g>
       <use style="stroke:#000000;stroke-width:0.8;" x="456.407812" xlink:href="#mbfb860a66a" y="437.737163"/>
      </g>
     </g>
     <g id="text_15">
      <!-- 6 -->
      <g transform="translate(463.407812 441.562944)scale(0.1 -0.1)">
       <use xlink:href="#DejaVuSansMono-36"/>
      </g>
     </g>
    </g>
    <g id="ytick_7">
     <g id="line2d_14">
      <g>
       <use style="stroke:#000000;stroke-width:0.8;" x="456.407812" xlink:href="#mbfb860a66a" y="385.622806"/>
      </g>
     </g>
     <g id="text_16">
      <!-- 8 -->
      <g transform="translate(463.407812 389.448587)scale(0.1 -0.1)">
       <use xlink:href="#DejaVuSansMono-38"/>
      </g>
     </g>
    </g>
    <g id="ytick_8">
     <g id="line2d_15">
      <g>
       <use style="stroke:#000000;stroke-width:0.8;" x="456.407812" xlink:href="#mbfb860a66a" y="333.508449"/>
      </g>
     </g>
     <g id="text_17">
      <!-- 10 -->
      <g transform="translate(463.407812 337.33423)scale(0.1 -0.1)">
       <use xlink:href="#DejaVuSansMono-31"/>
       <use x="60.205078" xlink:href="#DejaVuSansMono-30"/>
      </g>
     </g>
    </g>
    <g id="ytick_9">
     <g id="line2d_16">
      <g>
       <use style="stroke:#000000;stroke-width:0.8;" x="456.407812" xlink:href="#mbfb860a66a" y="281.394091"/>
      </g>
     </g>
     <g id="text_18">
      <!-- 12 -->
      <g transform="translate(463.407812 285.219873)scale(0.1 -0.1)">
       <use xlink:href="#DejaVuSansMono-31"/>
       <use x="60.205078" xlink:href="#DejaVuSansMono-32"/>
      </g>
     </g>
    </g>
    <g id="ytick_10">
     <g id="line2d_17">
      <g>
       <use style="stroke:#000000;stroke-width:0.8;" x="456.407812" xlink:href="#mbfb860a66a" y="229.279734"/>
      </g>
     </g>
     <g id="text_19">
      <!-- 14 -->
      <g transform="translate(463.407812 233.105515)scale(0.1 -0.1)">
       <use xlink:href="#DejaVuSansMono-31"/>
       <use x="60.205078" xlink:href="#DejaVuSansMono-34"/>
      </g>
     </g>
    </g>
    <g id="ytick_11">
     <g id="line2d_18">
      <g>
       <use style="stroke:#000000;stroke-width:0.8;" x="456.407812" xlink:href="#mbfb860a66a" y="177.165377"/>
      </g>
     </g>
     <g id="text_20">
      <!-- 16 -->
      <g transform="translate(463.407812 180.991158)scale(0.1 -0.1)">
       <use xlink:href="#DejaVuSansMono-31"/>
       <use x="60.205078" xlink:href="#DejaVuSansMono-36"/>
      </g>
     </g>
    </g>
    <g id="ytick_12">
     <g id="line2d_19">
      <g>
       <use style="stroke:#000000;stroke-width:0.8;" x="456.407812" xlink:href="#mbfb860a66a" y="125.05102"/>
      </g>
     </g>
     <g id="text_21">
      <!-- 18 -->
      <g transform="translate(463.407812 128.876801)scale(0.1 -0.1)">
       <use xlink:href="#DejaVuSansMono-31"/>
       <use x="60.205078" xlink:href="#DejaVuSansMono-38"/>
      </g>
     </g>
    </g>
    <g id="ytick_13">
     <g id="line2d_20">
      <g>
       <use style="stroke:#000000;stroke-width:0.8;" x="456.407812" xlink:href="#mbfb860a66a" y="72.936663"/>
      </g>
     </g>
     <g id="text_22">
      <!-- 20 -->
      <g transform="translate(463.407812 76.762444)scale(0.1 -0.1)">
       <use xlink:href="#DejaVuSansMono-32"/>
       <use x="60.205078" xlink:href="#DejaVuSansMono-30"/>
      </g>
     </g>
    </g>
    <g id="text_23">
     <!-- Minimum read-mean PhredQ score -->
     <g transform="translate(487.1 336.400437)rotate(-90)scale(0.1 -0.1)">
      <defs>
       <path d="M 269 4666 
L 1113 4666 
L 1919 2291 
L 2731 4666 
L 3578 4666 
L 3578 0 
L 2994 0 
L 2994 4122 
L 2163 1663 
L 1684 1663 
L 850 4122 
L 850 0 
L 269 0 
L 269 4666 
z
" id="DejaVuSansMono-4d" transform="scale(0.015625)"/>
       <path d="M 609 1325 
L 609 3494 
L 1184 3494 
L 1184 1325 
Q 1184 853 1351 631 
Q 1519 409 1869 409 
Q 2275 409 2490 695 
Q 2706 981 2706 1516 
L 2706 3494 
L 3284 3494 
L 3284 0 
L 2706 0 
L 2706 525 
Q 2553 222 2289 65 
Q 2025 -91 1672 -91 
Q 1134 -91 871 261 
Q 609 613 609 1325 
z
" id="DejaVuSansMono-75" transform="scale(0.015625)"/>
       <path d="M 1247 4147 
L 1247 2394 
L 1978 2394 
Q 2416 2394 2661 2625 
Q 2906 2856 2906 3272 
Q 2906 3688 2662 3917 
Q 2419 4147 1978 4147 
L 1247 4147 
z
M 616 4666 
L 1978 4666 
Q 2759 4666 3162 4311 
Q 3566 3956 3566 3272 
Q 3566 2581 3164 2228 
Q 2763 1875 1978 1875 
L 1247 1875 
L 1247 0 
L 616 0 
L 616 4666 
z
" id="DejaVuSansMono-50" transform="scale(0.015625)"/>
       <path d="M 2047 -84 
Q 2025 -84 1984 -87 
Q 1944 -91 1919 -91 
Q 1138 -91 752 509 
Q 366 1109 366 2328 
Q 366 3550 752 4150 
Q 1138 4750 1925 4750 
Q 2716 4750 3102 4150 
Q 3488 3550 3488 2328 
Q 3488 1409 3273 848 
Q 3059 288 2625 63 
L 3250 -531 
L 2778 -844 
L 2047 -84 
z
M 2828 2328 
Q 2828 3356 2617 3797 
Q 2406 4238 1925 4238 
Q 1447 4238 1236 3797 
Q 1025 3356 1025 2328 
Q 1025 1303 1236 862 
Q 1447 422 1925 422 
Q 2406 422 2617 861 
Q 2828 1300 2828 2328 
z
" id="DejaVuSansMono-51" transform="scale(0.015625)"/>
      </defs>
      <use xlink:href="#DejaVuSansMono-4d"/>
      <use x="60.205078" xlink:href="#DejaVuSansMono-69"/>
      <use x="120.410156" xlink:href="#DejaVuSansMono-6e"/>
      <use x="180.615234" xlink:href="#DejaVuSansMono-69"/>
      <use x="240.820312" xlink:href="#DejaVuSansMono-6d"/>
      <use x="301.025391" xlink:href="#DejaVuSansMono-75"/>
      <use x="361.230469" xlink:href="#DejaVuSansMono-6d"/>
      <use x="421.435547" xlink:href="#DejaVuSansMono-20"/>
      <use x="481.640625" xlink:href="#DejaVuSansMono-72"/>
      <use x="541.845703" xlink:href="#DejaVuSansMono-65"/>
      <use x="602.050781" xlink:href="#DejaVuSansMono-61"/>
      <use x="662.255859" xlink:href="#DejaVuSansMono-64"/>
      <use x="722.460938" xlink:href="#DejaVuSansMono-2d"/>
      <use x="782.666016" xlink:href="#DejaVuSansMono-6d"/>
      <use x="842.871094" xlink:href="#DejaVuSansMono-65"/>
      <use x="903.076172" xlink:href="#DejaVuSansMono-61"/>
      <use x="963.28125" xlink:href="#DejaVuSansMono-6e"/>
      <use x="1023.486328" xlink:href="#DejaVuSansMono-20"/>
      <use x="1083.691406" xlink:href="#DejaVuSansMono-50"/>
      <use x="1143.896484" xlink:href="#DejaVuSansMono-68"/>
      <use x="1204.101562" xlink:href="#DejaVuSansMono-72"/>
      <use x="1264.306641" xlink:href="#DejaVuSansMono-65"/>
      <use x="1324.511719" xlink:href="#DejaVuSansMono-64"/>
      <use x="1384.716797" xlink:href="#DejaVuSansMono-51"/>
      <use x="1444.921875" xlink:href="#DejaVuSansMono-20"/>
      <use x="1505.126953" xlink:href="#DejaVuSansMono-73"/>
      <use x="1565.332031" xlink:href="#DejaVuSansMono-63"/>
      <use x="1625.537109" xlink:href="#DejaVuSansMono-6f"/>
      <use x="1685.742188" xlink:href="#DejaVuSansMono-72"/>
      <use x="1745.947266" xlink:href="#DejaVuSansMono-65"/>
     </g>
    </g>
   </g>
   <g id="line2d_21">
    <path clip-path="url(#p157bf800d5)" d="M 437.753267 437.186659 
L 436.961142 394.90054 
L 436.169017 378.900028 
L 434.584767 366.186866 
L 433.792642 362.624838 
L 433.000517 360.325404 
L 432.208392 357.305786 
L 431.416266 353.512686 
L 427.455641 342.733406 
L 426.663516 340.972489 
L 425.871391 339.486654 
L 421.910766 330.596249 
L 421.118641 329.205688 
L 419.53439 325.980819 
L 418.742265 324.925209 
L 415.573765 319.749284 
L 414.78164 318.450659 
L 413.989515 317.532282 
L 412.405265 315.310964 
L 410.821015 312.80266 
L 409.236764 310.478679 
L 408.444639 309.649345 
L 406.860389 307.663021 
L 399.731264 300.119713 
L 398.147013 298.179989 
L 397.354888 297.445704 
L 395.770638 295.732356 
L 394.978513 294.953257 
L 394.186388 294.010291 
L 392.602138 292.613833 
L 391.017888 291.134833 
L 390.225763 290.531287 
L 389.433638 289.65834 
L 387.849387 288.186775 
L 387.057262 287.365528 
L 384.680887 285.431155 
L 381.512387 282.566227 
L 378.343887 280.14181 
L 364.085635 269.041973 
L 361.70926 267.385187 
L 360.917135 266.949421 
L 360.12501 266.156546 
L 357.748635 264.560857 
L 356.164385 263.222638 
L 354.580134 262.213989 
L 352.995884 261.053539 
L 350.619509 259.464783 
L 346.658884 256.920248 
L 342.698258 254.254448 
L 341.906133 253.846181 
L 341.114008 253.271405 
L 336.361258 250.56469 
L 332.400632 248.091645 
L 327.647882 245.656215 
L 326.855757 245.189214 
L 325.271507 244.440962 
L 320.518756 242.140797 
L 318.934506 241.337267 
L 318.142381 240.967904 
L 317.350256 240.448327 
L 314.181756 238.882753 
L 313.389631 238.271926 
L 311.805381 237.491317 
L 309.429005 236.350726 
L 307.05263 234.94859 
L 297.547129 230.541155 
L 295.962879 229.791376 
L 292.002254 227.776566 
L 291.210129 227.238798 
L 288.833753 226.124998 
L 283.288878 223.469754 
L 275.367627 220.068981 
L 273.783377 219.287991 
L 267.446376 216.676146 
L 265.862126 216.029585 
L 264.277876 215.36345 
L 262.693626 214.578697 
L 257.940876 212.743014 
L 250.81175 209.624583 
L 249.2275 209.007143 
L 244.474749 206.835382 
L 241.306249 205.542832 
L 238.929874 204.3737 
L 235.761374 203.165774 
L 227.840123 199.624877 
L 224.671623 198.257342 
L 200.90787 188.443806 
L 198.531495 187.378934 
L 194.57087 185.644201 
L 189.818119 183.826745 
L 187.441744 182.696866 
L 182.688994 180.50275 
L 179.520493 179.419185 
L 176.351993 178.150069 
L 174.767743 177.49314 
L 173.183493 176.869861 
L 165.262242 173.720492 
L 163.677992 173.110482 
L 162.093742 172.500603 
L 138.32999 162.390688 
L 136.74574 161.631455 
L 135.161489 160.869465 
L 134.369364 160.443932 
L 133.577239 160.209428 
L 131.992989 159.543141 
L 128.824489 158.225669 
L 124.863863 156.497499 
L 123.279613 155.870067 
L 120.903238 154.768158 
L 119.318988 154.077386 
L 116.942613 152.983795 
L 114.566238 151.739459 
L 105.060737 147.193118 
L 103.476487 146.489897 
L 102.684361 146.109314 
L 101.892236 145.592473 
L 97.139486 143.23233 
L 89.218235 138.749499 
L 87.633985 137.513701 
L 86.049735 136.724636 
L 84.465485 135.662541 
L 82.08911 133.810105 
L 76.544234 129.445343 
L 75.752109 128.788087 
L 74.167859 127.284665 
L 73.375734 126.692417 
L 71.791484 124.860025 
L 69.415108 121.344508 
L 67.830858 118.094752 
L 66.246608 112.970776 
L 65.454483 106.810995 
L 64.662358 55.004841 
L 64.662358 55.004841 
" style="fill:none;stroke:#ff0000;stroke-linecap:square;stroke-width:1.5;"/>
   </g>
   <g id="patch_7">
    <path d="M 46.007813 456.29575 
L 46.007813 35.89575 
" style="fill:none;stroke:#000000;stroke-linecap:square;stroke-linejoin:miter;stroke-width:0.8;"/>
   </g>
   <g id="patch_8">
    <path d="M 456.407812 456.29575 
L 456.407812 35.89575 
" style="fill:none;stroke:#000000;stroke-linecap:square;stroke-linejoin:miter;stroke-width:0.8;"/>
   </g>
   <g id="patch_9">
    <path d="M 46.007813 456.29575 
L 456.407812 456.29575 
" style="fill:none;stroke:#000000;stroke-linecap:square;stroke-linejoin:miter;stroke-width:0.8;"/>
   </g>
   <g id="patch_10">
    <path d="M 46.007813 35.89575 
L 456.407812 35.89575 
" style="fill:none;stroke:#000000;stroke-linecap:square;stroke-linejoin:miter;stroke-width:0.8;"/>
   </g>
  </g>
 </g>
 <defs>
  <clipPath id="p157bf800d5">
   <rect height="420.4" width="410.4" x="46.007813" y="35.89575"/>
  </clipPath>
 </defs>
</svg>
