<?xml version="1.0" encoding="utf-8" standalone="no"?>
<!DOCTYPE svg PUBLIC "-//W3C//DTD SVG 1.1//EN"
  "http://www.w3.org/Graphics/SVG/1.1/DTD/svg11.dtd">
<svg height="360pt" version="1.1" viewBox="0 0 576 360" width="576pt" xmlns="http://www.w3.org/2000/svg" xmlns:xlink="http://www.w3.org/1999/xlink">
 <metadata>
  <rdf:RDF xmlns:cc="http://creativecommons.org/ns#" xmlns:dc="http://purl.org/dc/elements/1.1/" xmlns:rdf="http://www.w3.org/1999/02/22-rdf-syntax-ns#">
   <cc:Work>
    <dc:type rdf:resource="http://purl.org/dc/dcmitype/StillImage"/>
    <dc:date>2022-03-03T11:27:57.521622</dc:date>
    <dc:format>image/svg+xml</dc:format>
    <dc:creator>
     <cc:Agent>
      <dc:title>Matplotlib v3.4.2, https://matplotlib.org/</dc:title>
     </cc:Agent>
    </dc:creator>
   </cc:Work>
  </rdf:RDF>
 </metadata>
 <defs>
  <style type="text/css">*{stroke-linecap:butt;stroke-linejoin:round;}</style>
 </defs>
 <g id="figure_1">
  <g id="patch_1">
   <path d="M 0 360 
L 576 360 
L 576 0 
L 0 0 
z
" style="fill:none;"/>
  </g>
  <g id="axes_1">
   <g id="patch_2">
    <path d="M 60.425 318.2 
L 349.42 318.2 
L 349.42 10.8 
L 60.425 10.8 
z
" style="fill:none;"/>
   </g>
   <g id="matplotlib.axis_1">
    <g id="xtick_1">
     <g id="line2d_1">
      <defs>
       <path d="M 0 0 
L 0 3.5 
" id="m37d0757cdc" style="stroke:#000000;stroke-width:0.8;"/>
      </defs>
      <g>
       <use style="stroke:#000000;stroke-width:0.8;" x="73.448862" xlink:href="#m37d0757cdc" y="318.2"/>
      </g>
     </g>
     <g id="text_1">
      <!-- 0.0 -->
      <g transform="translate(65.497299 332.798437)scale(0.1 -0.1)">
       <defs>
        <path d="M 2034 4250 
Q 1547 4250 1301 3770 
Q 1056 3291 1056 2328 
Q 1056 1369 1301 889 
Q 1547 409 2034 409 
Q 2525 409 2770 889 
Q 3016 1369 3016 2328 
Q 3016 3291 2770 3770 
Q 2525 4250 2034 4250 
z
M 2034 4750 
Q 2819 4750 3233 4129 
Q 3647 3509 3647 2328 
Q 3647 1150 3233 529 
Q 2819 -91 2034 -91 
Q 1250 -91 836 529 
Q 422 1150 422 2328 
Q 422 3509 836 4129 
Q 1250 4750 2034 4750 
z
" id="DejaVuSans-30" transform="scale(0.015625)"/>
        <path d="M 684 794 
L 1344 794 
L 1344 0 
L 684 0 
L 684 794 
z
" id="DejaVuSans-2e" transform="scale(0.015625)"/>
       </defs>
       <use xlink:href="#DejaVuSans-30"/>
       <use x="63.623047" xlink:href="#DejaVuSans-2e"/>
       <use x="95.410156" xlink:href="#DejaVuSans-30"/>
      </g>
     </g>
    </g>
    <g id="xtick_2">
     <g id="line2d_2">
      <g>
       <use style="stroke:#000000;stroke-width:0.8;" x="126.015862" xlink:href="#m37d0757cdc" y="318.2"/>
      </g>
     </g>
     <g id="text_2">
      <!-- 0.2 -->
      <g transform="translate(118.0643 332.798437)scale(0.1 -0.1)">
       <defs>
        <path d="M 1228 531 
L 3431 531 
L 3431 0 
L 469 0 
L 469 531 
Q 828 903 1448 1529 
Q 2069 2156 2228 2338 
Q 2531 2678 2651 2914 
Q 2772 3150 2772 3378 
Q 2772 3750 2511 3984 
Q 2250 4219 1831 4219 
Q 1534 4219 1204 4116 
Q 875 4013 500 3803 
L 500 4441 
Q 881 4594 1212 4672 
Q 1544 4750 1819 4750 
Q 2544 4750 2975 4387 
Q 3406 4025 3406 3419 
Q 3406 3131 3298 2873 
Q 3191 2616 2906 2266 
Q 2828 2175 2409 1742 
Q 1991 1309 1228 531 
z
" id="DejaVuSans-32" transform="scale(0.015625)"/>
       </defs>
       <use xlink:href="#DejaVuSans-30"/>
       <use x="63.623047" xlink:href="#DejaVuSans-2e"/>
       <use x="95.410156" xlink:href="#DejaVuSans-32"/>
      </g>
     </g>
    </g>
    <g id="xtick_3">
     <g id="line2d_3">
      <g>
       <use style="stroke:#000000;stroke-width:0.8;" x="178.582862" xlink:href="#m37d0757cdc" y="318.2"/>
      </g>
     </g>
     <g id="text_3">
      <!-- 0.4 -->
      <g transform="translate(170.6313 332.798437)scale(0.1 -0.1)">
       <defs>
        <path d="M 2419 4116 
L 825 1625 
L 2419 1625 
L 2419 4116 
z
M 2253 4666 
L 3047 4666 
L 3047 1625 
L 3713 1625 
L 3713 1100 
L 3047 1100 
L 3047 0 
L 2419 0 
L 2419 1100 
L 313 1100 
L 313 1709 
L 2253 4666 
z
" id="DejaVuSans-34" transform="scale(0.015625)"/>
       </defs>
       <use xlink:href="#DejaVuSans-30"/>
       <use x="63.623047" xlink:href="#DejaVuSans-2e"/>
       <use x="95.410156" xlink:href="#DejaVuSans-34"/>
      </g>
     </g>
    </g>
    <g id="xtick_4">
     <g id="line2d_4">
      <g>
       <use style="stroke:#000000;stroke-width:0.8;" x="231.149863" xlink:href="#m37d0757cdc" y="318.2"/>
      </g>
     </g>
     <g id="text_4">
      <!-- 0.6 -->
      <g transform="translate(223.1983 332.798437)scale(0.1 -0.1)">
       <defs>
        <path d="M 2113 2584 
Q 1688 2584 1439 2293 
Q 1191 2003 1191 1497 
Q 1191 994 1439 701 
Q 1688 409 2113 409 
Q 2538 409 2786 701 
Q 3034 994 3034 1497 
Q 3034 2003 2786 2293 
Q 2538 2584 2113 2584 
z
M 3366 4563 
L 3366 3988 
Q 3128 4100 2886 4159 
Q 2644 4219 2406 4219 
Q 1781 4219 1451 3797 
Q 1122 3375 1075 2522 
Q 1259 2794 1537 2939 
Q 1816 3084 2150 3084 
Q 2853 3084 3261 2657 
Q 3669 2231 3669 1497 
Q 3669 778 3244 343 
Q 2819 -91 2113 -91 
Q 1303 -91 875 529 
Q 447 1150 447 2328 
Q 447 3434 972 4092 
Q 1497 4750 2381 4750 
Q 2619 4750 2861 4703 
Q 3103 4656 3366 4563 
z
" id="DejaVuSans-36" transform="scale(0.015625)"/>
       </defs>
       <use xlink:href="#DejaVuSans-30"/>
       <use x="63.623047" xlink:href="#DejaVuSans-2e"/>
       <use x="95.410156" xlink:href="#DejaVuSans-36"/>
      </g>
     </g>
    </g>
    <g id="xtick_5">
     <g id="line2d_5">
      <g>
       <use style="stroke:#000000;stroke-width:0.8;" x="283.716863" xlink:href="#m37d0757cdc" y="318.2"/>
      </g>
     </g>
     <g id="text_5">
      <!-- 0.8 -->
      <g transform="translate(275.765301 332.798437)scale(0.1 -0.1)">
       <defs>
        <path d="M 2034 2216 
Q 1584 2216 1326 1975 
Q 1069 1734 1069 1313 
Q 1069 891 1326 650 
Q 1584 409 2034 409 
Q 2484 409 2743 651 
Q 3003 894 3003 1313 
Q 3003 1734 2745 1975 
Q 2488 2216 2034 2216 
z
M 1403 2484 
Q 997 2584 770 2862 
Q 544 3141 544 3541 
Q 544 4100 942 4425 
Q 1341 4750 2034 4750 
Q 2731 4750 3128 4425 
Q 3525 4100 3525 3541 
Q 3525 3141 3298 2862 
Q 3072 2584 2669 2484 
Q 3125 2378 3379 2068 
Q 3634 1759 3634 1313 
Q 3634 634 3220 271 
Q 2806 -91 2034 -91 
Q 1263 -91 848 271 
Q 434 634 434 1313 
Q 434 1759 690 2068 
Q 947 2378 1403 2484 
z
M 1172 3481 
Q 1172 3119 1398 2916 
Q 1625 2713 2034 2713 
Q 2441 2713 2670 2916 
Q 2900 3119 2900 3481 
Q 2900 3844 2670 4047 
Q 2441 4250 2034 4250 
Q 1625 4250 1398 4047 
Q 1172 3844 1172 3481 
z
" id="DejaVuSans-38" transform="scale(0.015625)"/>
       </defs>
       <use xlink:href="#DejaVuSans-30"/>
       <use x="63.623047" xlink:href="#DejaVuSans-2e"/>
       <use x="95.410156" xlink:href="#DejaVuSans-38"/>
      </g>
     </g>
    </g>
    <g id="xtick_6">
     <g id="line2d_6">
      <g>
       <use style="stroke:#000000;stroke-width:0.8;" x="336.283864" xlink:href="#m37d0757cdc" y="318.2"/>
      </g>
     </g>
     <g id="text_6">
      <!-- 1.0 -->
      <g transform="translate(328.332301 332.798437)scale(0.1 -0.1)">
       <defs>
        <path d="M 794 531 
L 1825 531 
L 1825 4091 
L 703 3866 
L 703 4441 
L 1819 4666 
L 2450 4666 
L 2450 531 
L 3481 531 
L 3481 0 
L 794 0 
L 794 531 
z
" id="DejaVuSans-31" transform="scale(0.015625)"/>
       </defs>
       <use xlink:href="#DejaVuSans-31"/>
       <use x="63.623047" xlink:href="#DejaVuSans-2e"/>
       <use x="95.410156" xlink:href="#DejaVuSans-30"/>
      </g>
     </g>
    </g>
    <g id="text_7">
     <!-- Fraction of reads -->
     <g transform="translate(163.102969 346.476562)scale(0.1 -0.1)">
      <defs>
       <path d="M 628 4666 
L 3309 4666 
L 3309 4134 
L 1259 4134 
L 1259 2759 
L 3109 2759 
L 3109 2228 
L 1259 2228 
L 1259 0 
L 628 0 
L 628 4666 
z
" id="DejaVuSans-46" transform="scale(0.015625)"/>
       <path d="M 2631 2963 
Q 2534 3019 2420 3045 
Q 2306 3072 2169 3072 
Q 1681 3072 1420 2755 
Q 1159 2438 1159 1844 
L 1159 0 
L 581 0 
L 581 3500 
L 1159 3500 
L 1159 2956 
Q 1341 3275 1631 3429 
Q 1922 3584 2338 3584 
Q 2397 3584 2469 3576 
Q 2541 3569 2628 3553 
L 2631 2963 
z
" id="DejaVuSans-72" transform="scale(0.015625)"/>
       <path d="M 2194 1759 
Q 1497 1759 1228 1600 
Q 959 1441 959 1056 
Q 959 750 1161 570 
Q 1363 391 1709 391 
Q 2188 391 2477 730 
Q 2766 1069 2766 1631 
L 2766 1759 
L 2194 1759 
z
M 3341 1997 
L 3341 0 
L 2766 0 
L 2766 531 
Q 2569 213 2275 61 
Q 1981 -91 1556 -91 
Q 1019 -91 701 211 
Q 384 513 384 1019 
Q 384 1609 779 1909 
Q 1175 2209 1959 2209 
L 2766 2209 
L 2766 2266 
Q 2766 2663 2505 2880 
Q 2244 3097 1772 3097 
Q 1472 3097 1187 3025 
Q 903 2953 641 2809 
L 641 3341 
Q 956 3463 1253 3523 
Q 1550 3584 1831 3584 
Q 2591 3584 2966 3190 
Q 3341 2797 3341 1997 
z
" id="DejaVuSans-61" transform="scale(0.015625)"/>
       <path d="M 3122 3366 
L 3122 2828 
Q 2878 2963 2633 3030 
Q 2388 3097 2138 3097 
Q 1578 3097 1268 2742 
Q 959 2388 959 1747 
Q 959 1106 1268 751 
Q 1578 397 2138 397 
Q 2388 397 2633 464 
Q 2878 531 3122 666 
L 3122 134 
Q 2881 22 2623 -34 
Q 2366 -91 2075 -91 
Q 1284 -91 818 406 
Q 353 903 353 1747 
Q 353 2603 823 3093 
Q 1294 3584 2113 3584 
Q 2378 3584 2631 3529 
Q 2884 3475 3122 3366 
z
" id="DejaVuSans-63" transform="scale(0.015625)"/>
       <path d="M 1172 4494 
L 1172 3500 
L 2356 3500 
L 2356 3053 
L 1172 3053 
L 1172 1153 
Q 1172 725 1289 603 
Q 1406 481 1766 481 
L 2356 481 
L 2356 0 
L 1766 0 
Q 1100 0 847 248 
Q 594 497 594 1153 
L 594 3053 
L 172 3053 
L 172 3500 
L 594 3500 
L 594 4494 
L 1172 4494 
z
" id="DejaVuSans-74" transform="scale(0.015625)"/>
       <path d="M 603 3500 
L 1178 3500 
L 1178 0 
L 603 0 
L 603 3500 
z
M 603 4863 
L 1178 4863 
L 1178 4134 
L 603 4134 
L 603 4863 
z
" id="DejaVuSans-69" transform="scale(0.015625)"/>
       <path d="M 1959 3097 
Q 1497 3097 1228 2736 
Q 959 2375 959 1747 
Q 959 1119 1226 758 
Q 1494 397 1959 397 
Q 2419 397 2687 759 
Q 2956 1122 2956 1747 
Q 2956 2369 2687 2733 
Q 2419 3097 1959 3097 
z
M 1959 3584 
Q 2709 3584 3137 3096 
Q 3566 2609 3566 1747 
Q 3566 888 3137 398 
Q 2709 -91 1959 -91 
Q 1206 -91 779 398 
Q 353 888 353 1747 
Q 353 2609 779 3096 
Q 1206 3584 1959 3584 
z
" id="DejaVuSans-6f" transform="scale(0.015625)"/>
       <path d="M 3513 2113 
L 3513 0 
L 2938 0 
L 2938 2094 
Q 2938 2591 2744 2837 
Q 2550 3084 2163 3084 
Q 1697 3084 1428 2787 
Q 1159 2491 1159 1978 
L 1159 0 
L 581 0 
L 581 3500 
L 1159 3500 
L 1159 2956 
Q 1366 3272 1645 3428 
Q 1925 3584 2291 3584 
Q 2894 3584 3203 3211 
Q 3513 2838 3513 2113 
z
" id="DejaVuSans-6e" transform="scale(0.015625)"/>
       <path id="DejaVuSans-20" transform="scale(0.015625)"/>
       <path d="M 2375 4863 
L 2375 4384 
L 1825 4384 
Q 1516 4384 1395 4259 
Q 1275 4134 1275 3809 
L 1275 3500 
L 2222 3500 
L 2222 3053 
L 1275 3053 
L 1275 0 
L 697 0 
L 697 3053 
L 147 3053 
L 147 3500 
L 697 3500 
L 697 3744 
Q 697 4328 969 4595 
Q 1241 4863 1831 4863 
L 2375 4863 
z
" id="DejaVuSans-66" transform="scale(0.015625)"/>
       <path d="M 3597 1894 
L 3597 1613 
L 953 1613 
Q 991 1019 1311 708 
Q 1631 397 2203 397 
Q 2534 397 2845 478 
Q 3156 559 3463 722 
L 3463 178 
Q 3153 47 2828 -22 
Q 2503 -91 2169 -91 
Q 1331 -91 842 396 
Q 353 884 353 1716 
Q 353 2575 817 3079 
Q 1281 3584 2069 3584 
Q 2775 3584 3186 3129 
Q 3597 2675 3597 1894 
z
M 3022 2063 
Q 3016 2534 2758 2815 
Q 2500 3097 2075 3097 
Q 1594 3097 1305 2825 
Q 1016 2553 972 2059 
L 3022 2063 
z
" id="DejaVuSans-65" transform="scale(0.015625)"/>
       <path d="M 2906 2969 
L 2906 4863 
L 3481 4863 
L 3481 0 
L 2906 0 
L 2906 525 
Q 2725 213 2448 61 
Q 2172 -91 1784 -91 
Q 1150 -91 751 415 
Q 353 922 353 1747 
Q 353 2572 751 3078 
Q 1150 3584 1784 3584 
Q 2172 3584 2448 3432 
Q 2725 3281 2906 2969 
z
M 947 1747 
Q 947 1113 1208 752 
Q 1469 391 1925 391 
Q 2381 391 2643 752 
Q 2906 1113 2906 1747 
Q 2906 2381 2643 2742 
Q 2381 3103 1925 3103 
Q 1469 3103 1208 2742 
Q 947 2381 947 1747 
z
" id="DejaVuSans-64" transform="scale(0.015625)"/>
       <path d="M 2834 3397 
L 2834 2853 
Q 2591 2978 2328 3040 
Q 2066 3103 1784 3103 
Q 1356 3103 1142 2972 
Q 928 2841 928 2578 
Q 928 2378 1081 2264 
Q 1234 2150 1697 2047 
L 1894 2003 
Q 2506 1872 2764 1633 
Q 3022 1394 3022 966 
Q 3022 478 2636 193 
Q 2250 -91 1575 -91 
Q 1294 -91 989 -36 
Q 684 19 347 128 
L 347 722 
Q 666 556 975 473 
Q 1284 391 1588 391 
Q 1994 391 2212 530 
Q 2431 669 2431 922 
Q 2431 1156 2273 1281 
Q 2116 1406 1581 1522 
L 1381 1569 
Q 847 1681 609 1914 
Q 372 2147 372 2553 
Q 372 3047 722 3315 
Q 1072 3584 1716 3584 
Q 2034 3584 2315 3537 
Q 2597 3491 2834 3397 
z
" id="DejaVuSans-73" transform="scale(0.015625)"/>
      </defs>
      <use xlink:href="#DejaVuSans-46"/>
      <use x="50.269531" xlink:href="#DejaVuSans-72"/>
      <use x="91.382812" xlink:href="#DejaVuSans-61"/>
      <use x="152.662109" xlink:href="#DejaVuSans-63"/>
      <use x="207.642578" xlink:href="#DejaVuSans-74"/>
      <use x="246.851562" xlink:href="#DejaVuSans-69"/>
      <use x="274.634766" xlink:href="#DejaVuSans-6f"/>
      <use x="335.816406" xlink:href="#DejaVuSans-6e"/>
      <use x="399.195312" xlink:href="#DejaVuSans-20"/>
      <use x="430.982422" xlink:href="#DejaVuSans-6f"/>
      <use x="492.164062" xlink:href="#DejaVuSans-66"/>
      <use x="527.369141" xlink:href="#DejaVuSans-20"/>
      <use x="559.15625" xlink:href="#DejaVuSans-72"/>
      <use x="598.019531" xlink:href="#DejaVuSans-65"/>
      <use x="659.542969" xlink:href="#DejaVuSans-61"/>
      <use x="720.822266" xlink:href="#DejaVuSans-64"/>
      <use x="784.298828" xlink:href="#DejaVuSans-73"/>
     </g>
    </g>
   </g>
   <g id="matplotlib.axis_2">
    <g id="ytick_1">
     <g id="line2d_7">
      <defs>
       <path d="M 0 0 
L -3.5 0 
" id="md8f782e4ec" style="stroke:#000000;stroke-width:0.8;"/>
      </defs>
      <g>
       <use style="stroke:#000000;stroke-width:0.8;" x="60.425" xlink:href="#md8f782e4ec" y="293.304969"/>
      </g>
     </g>
     <g id="text_8">
      <!-- 0.775 -->
      <g transform="translate(24.796875 297.104188)scale(0.1 -0.1)">
       <defs>
        <path d="M 525 4666 
L 3525 4666 
L 3525 4397 
L 1831 0 
L 1172 0 
L 2766 4134 
L 525 4134 
L 525 4666 
z
" id="DejaVuSans-37" transform="scale(0.015625)"/>
        <path d="M 691 4666 
L 3169 4666 
L 3169 4134 
L 1269 4134 
L 1269 2991 
Q 1406 3038 1543 3061 
Q 1681 3084 1819 3084 
Q 2600 3084 3056 2656 
Q 3513 2228 3513 1497 
Q 3513 744 3044 326 
Q 2575 -91 1722 -91 
Q 1428 -91 1123 -41 
Q 819 9 494 109 
L 494 744 
Q 775 591 1075 516 
Q 1375 441 1709 441 
Q 2250 441 2565 725 
Q 2881 1009 2881 1497 
Q 2881 1984 2565 2268 
Q 2250 2553 1709 2553 
Q 1456 2553 1204 2497 
Q 953 2441 691 2322 
L 691 4666 
z
" id="DejaVuSans-35" transform="scale(0.015625)"/>
       </defs>
       <use xlink:href="#DejaVuSans-30"/>
       <use x="63.623047" xlink:href="#DejaVuSans-2e"/>
       <use x="95.410156" xlink:href="#DejaVuSans-37"/>
       <use x="159.033203" xlink:href="#DejaVuSans-37"/>
       <use x="222.65625" xlink:href="#DejaVuSans-35"/>
      </g>
     </g>
    </g>
    <g id="ytick_2">
     <g id="line2d_8">
      <g>
       <use style="stroke:#000000;stroke-width:0.8;" x="60.425" xlink:href="#md8f782e4ec" y="252.638603"/>
      </g>
     </g>
     <g id="text_9">
      <!-- 0.800 -->
      <g transform="translate(24.796875 256.437822)scale(0.1 -0.1)">
       <use xlink:href="#DejaVuSans-30"/>
       <use x="63.623047" xlink:href="#DejaVuSans-2e"/>
       <use x="95.410156" xlink:href="#DejaVuSans-38"/>
       <use x="159.033203" xlink:href="#DejaVuSans-30"/>
       <use x="222.65625" xlink:href="#DejaVuSans-30"/>
      </g>
     </g>
    </g>
    <g id="ytick_3">
     <g id="line2d_9">
      <g>
       <use style="stroke:#000000;stroke-width:0.8;" x="60.425" xlink:href="#md8f782e4ec" y="211.972238"/>
      </g>
     </g>
     <g id="text_10">
      <!-- 0.825 -->
      <g transform="translate(24.796875 215.771456)scale(0.1 -0.1)">
       <use xlink:href="#DejaVuSans-30"/>
       <use x="63.623047" xlink:href="#DejaVuSans-2e"/>
       <use x="95.410156" xlink:href="#DejaVuSans-38"/>
       <use x="159.033203" xlink:href="#DejaVuSans-32"/>
       <use x="222.65625" xlink:href="#DejaVuSans-35"/>
      </g>
     </g>
    </g>
    <g id="ytick_4">
     <g id="line2d_10">
      <g>
       <use style="stroke:#000000;stroke-width:0.8;" x="60.425" xlink:href="#md8f782e4ec" y="171.305872"/>
      </g>
     </g>
     <g id="text_11">
      <!-- 0.850 -->
      <g transform="translate(24.796875 175.105091)scale(0.1 -0.1)">
       <use xlink:href="#DejaVuSans-30"/>
       <use x="63.623047" xlink:href="#DejaVuSans-2e"/>
       <use x="95.410156" xlink:href="#DejaVuSans-38"/>
       <use x="159.033203" xlink:href="#DejaVuSans-35"/>
       <use x="222.65625" xlink:href="#DejaVuSans-30"/>
      </g>
     </g>
    </g>
    <g id="ytick_5">
     <g id="line2d_11">
      <g>
       <use style="stroke:#000000;stroke-width:0.8;" x="60.425" xlink:href="#md8f782e4ec" y="130.639506"/>
      </g>
     </g>
     <g id="text_12">
      <!-- 0.875 -->
      <g transform="translate(24.796875 134.438725)scale(0.1 -0.1)">
       <use xlink:href="#DejaVuSans-30"/>
       <use x="63.623047" xlink:href="#DejaVuSans-2e"/>
       <use x="95.410156" xlink:href="#DejaVuSans-38"/>
       <use x="159.033203" xlink:href="#DejaVuSans-37"/>
       <use x="222.65625" xlink:href="#DejaVuSans-35"/>
      </g>
     </g>
    </g>
    <g id="ytick_6">
     <g id="line2d_12">
      <g>
       <use style="stroke:#000000;stroke-width:0.8;" x="60.425" xlink:href="#md8f782e4ec" y="89.973141"/>
      </g>
     </g>
     <g id="text_13">
      <!-- 0.900 -->
      <g transform="translate(24.796875 93.772359)scale(0.1 -0.1)">
       <defs>
        <path d="M 703 97 
L 703 672 
Q 941 559 1184 500 
Q 1428 441 1663 441 
Q 2288 441 2617 861 
Q 2947 1281 2994 2138 
Q 2813 1869 2534 1725 
Q 2256 1581 1919 1581 
Q 1219 1581 811 2004 
Q 403 2428 403 3163 
Q 403 3881 828 4315 
Q 1253 4750 1959 4750 
Q 2769 4750 3195 4129 
Q 3622 3509 3622 2328 
Q 3622 1225 3098 567 
Q 2575 -91 1691 -91 
Q 1453 -91 1209 -44 
Q 966 3 703 97 
z
M 1959 2075 
Q 2384 2075 2632 2365 
Q 2881 2656 2881 3163 
Q 2881 3666 2632 3958 
Q 2384 4250 1959 4250 
Q 1534 4250 1286 3958 
Q 1038 3666 1038 3163 
Q 1038 2656 1286 2365 
Q 1534 2075 1959 2075 
z
" id="DejaVuSans-39" transform="scale(0.015625)"/>
       </defs>
       <use xlink:href="#DejaVuSans-30"/>
       <use x="63.623047" xlink:href="#DejaVuSans-2e"/>
       <use x="95.410156" xlink:href="#DejaVuSans-39"/>
       <use x="159.033203" xlink:href="#DejaVuSans-30"/>
       <use x="222.65625" xlink:href="#DejaVuSans-30"/>
      </g>
     </g>
    </g>
    <g id="ytick_7">
     <g id="line2d_13">
      <g>
       <use style="stroke:#000000;stroke-width:0.8;" x="60.425" xlink:href="#md8f782e4ec" y="49.306775"/>
      </g>
     </g>
     <g id="text_14">
      <!-- 0.925 -->
      <g transform="translate(24.796875 53.105994)scale(0.1 -0.1)">
       <use xlink:href="#DejaVuSans-30"/>
       <use x="63.623047" xlink:href="#DejaVuSans-2e"/>
       <use x="95.410156" xlink:href="#DejaVuSans-39"/>
       <use x="159.033203" xlink:href="#DejaVuSans-32"/>
       <use x="222.65625" xlink:href="#DejaVuSans-35"/>
      </g>
     </g>
    </g>
    <g id="text_15">
     <!-- Average match rate -->
     <g transform="translate(18.717188 214.179688)rotate(-90)scale(0.1 -0.1)">
      <defs>
       <path d="M 2188 4044 
L 1331 1722 
L 3047 1722 
L 2188 4044 
z
M 1831 4666 
L 2547 4666 
L 4325 0 
L 3669 0 
L 3244 1197 
L 1141 1197 
L 716 0 
L 50 0 
L 1831 4666 
z
" id="DejaVuSans-41" transform="scale(0.015625)"/>
       <path d="M 191 3500 
L 800 3500 
L 1894 563 
L 2988 3500 
L 3597 3500 
L 2284 0 
L 1503 0 
L 191 3500 
z
" id="DejaVuSans-76" transform="scale(0.015625)"/>
       <path d="M 2906 1791 
Q 2906 2416 2648 2759 
Q 2391 3103 1925 3103 
Q 1463 3103 1205 2759 
Q 947 2416 947 1791 
Q 947 1169 1205 825 
Q 1463 481 1925 481 
Q 2391 481 2648 825 
Q 2906 1169 2906 1791 
z
M 3481 434 
Q 3481 -459 3084 -895 
Q 2688 -1331 1869 -1331 
Q 1566 -1331 1297 -1286 
Q 1028 -1241 775 -1147 
L 775 -588 
Q 1028 -725 1275 -790 
Q 1522 -856 1778 -856 
Q 2344 -856 2625 -561 
Q 2906 -266 2906 331 
L 2906 616 
Q 2728 306 2450 153 
Q 2172 0 1784 0 
Q 1141 0 747 490 
Q 353 981 353 1791 
Q 353 2603 747 3093 
Q 1141 3584 1784 3584 
Q 2172 3584 2450 3431 
Q 2728 3278 2906 2969 
L 2906 3500 
L 3481 3500 
L 3481 434 
z
" id="DejaVuSans-67" transform="scale(0.015625)"/>
       <path d="M 3328 2828 
Q 3544 3216 3844 3400 
Q 4144 3584 4550 3584 
Q 5097 3584 5394 3201 
Q 5691 2819 5691 2113 
L 5691 0 
L 5113 0 
L 5113 2094 
Q 5113 2597 4934 2840 
Q 4756 3084 4391 3084 
Q 3944 3084 3684 2787 
Q 3425 2491 3425 1978 
L 3425 0 
L 2847 0 
L 2847 2094 
Q 2847 2600 2669 2842 
Q 2491 3084 2119 3084 
Q 1678 3084 1418 2786 
Q 1159 2488 1159 1978 
L 1159 0 
L 581 0 
L 581 3500 
L 1159 3500 
L 1159 2956 
Q 1356 3278 1631 3431 
Q 1906 3584 2284 3584 
Q 2666 3584 2933 3390 
Q 3200 3197 3328 2828 
z
" id="DejaVuSans-6d" transform="scale(0.015625)"/>
       <path d="M 3513 2113 
L 3513 0 
L 2938 0 
L 2938 2094 
Q 2938 2591 2744 2837 
Q 2550 3084 2163 3084 
Q 1697 3084 1428 2787 
Q 1159 2491 1159 1978 
L 1159 0 
L 581 0 
L 581 4863 
L 1159 4863 
L 1159 2956 
Q 1366 3272 1645 3428 
Q 1925 3584 2291 3584 
Q 2894 3584 3203 3211 
Q 3513 2838 3513 2113 
z
" id="DejaVuSans-68" transform="scale(0.015625)"/>
      </defs>
      <use xlink:href="#DejaVuSans-41"/>
      <use x="62.533203" xlink:href="#DejaVuSans-76"/>
      <use x="121.712891" xlink:href="#DejaVuSans-65"/>
      <use x="183.236328" xlink:href="#DejaVuSans-72"/>
      <use x="224.349609" xlink:href="#DejaVuSans-61"/>
      <use x="285.628906" xlink:href="#DejaVuSans-67"/>
      <use x="349.105469" xlink:href="#DejaVuSans-65"/>
      <use x="410.628906" xlink:href="#DejaVuSans-20"/>
      <use x="442.416016" xlink:href="#DejaVuSans-6d"/>
      <use x="539.828125" xlink:href="#DejaVuSans-61"/>
      <use x="601.107422" xlink:href="#DejaVuSans-74"/>
      <use x="640.316406" xlink:href="#DejaVuSans-63"/>
      <use x="695.296875" xlink:href="#DejaVuSans-68"/>
      <use x="758.675781" xlink:href="#DejaVuSans-20"/>
      <use x="790.462891" xlink:href="#DejaVuSans-72"/>
      <use x="831.576172" xlink:href="#DejaVuSans-61"/>
      <use x="892.855469" xlink:href="#DejaVuSans-74"/>
      <use x="932.064453" xlink:href="#DejaVuSans-65"/>
     </g>
    </g>
   </g>
   <g id="line2d_14">
    <path clip-path="url(#pcb96e61ed0)" d="M 336.283864 111.524899 
L 335.734436 111.37372 
L 334.635582 110.378502 
L 332.9873 108.691258 
L 331.339018 107.392148 
L 329.690737 106.313208 
L 325.295319 103.797571 
L 320.350474 101.260062 
L 313.757347 98.16917 
L 312.658492 97.612096 
L 310.460783 96.654157 
L 296.725103 90.937839 
L 292.329685 89.446494 
L 290.131976 88.586751 
L 273.649159 83.419839 
L 269.253741 82.218938 
L 268.154886 81.900139 
L 265.957177 81.338661 
L 259.913478 79.769009 
L 256.067487 78.804812 
L 247.826078 76.690759 
L 246.177797 76.282913 
L 245.078942 76.062264 
L 243.43066 75.660781 
L 241.232952 75.154112 
L 237.936388 74.453029 
L 236.837534 74.250362 
L 235.738679 73.96833 
L 232.991543 73.336802 
L 231.343261 73.024461 
L 229.69498 72.677713 
L 218.706435 70.331333 
L 217.60758 70.148186 
L 214.860444 69.642243 
L 212.662735 69.254618 
L 211.563881 68.987879 
L 210.465026 68.86269 
L 195.630491 65.837745 
L 193.432782 65.537515 
L 191.235073 65.132857 
L 189.586791 64.861286 
L 179.147674 63.040732 
L 178.048819 62.94572 
L 176.400537 62.692351 
L 171.455692 61.723187 
L 170.906265 61.481309 
L 169.807411 61.300617 
L 168.159129 60.858698 
L 165.96142 60.565199 
L 163.763711 60.006086 
L 162.664857 59.806443 
L 161.566002 59.51552 
L 156.07173 58.247924 
L 154.972875 58.113358 
L 154.423448 57.98584 
L 153.874021 57.68732 
L 152.225739 57.351274 
L 151.676312 57.348683 
L 150.577457 57.170406 
L 149.478603 57.040394 
L 148.929176 56.733077 
L 147.830321 56.381372 
L 146.731467 55.850382 
L 140.13834 54.787579 
L 137.940631 54.150705 
L 137.391204 54.094309 
L 136.841776 53.871214 
L 135.742922 53.655877 
L 134.644067 53.304578 
L 133.545213 53.18773 
L 132.995786 52.831851 
L 128.600368 51.444663 
L 126.402659 51.185366 
L 124.754377 51.205427 
L 123.655523 51.031116 
L 122.556668 51.066971 
L 122.007241 50.633058 
L 119.260105 50.418179 
L 118.16125 50.579451 
L 117.611823 50.535709 
L 117.062396 50.608274 
L 116.512969 50.552037 
L 115.414114 50.697229 
L 114.31526 50.572768 
L 112.666978 50.598305 
L 112.117551 50.771667 
L 111.568123 50.727421 
L 109.919842 50.989428 
L 109.370414 50.783008 
L 108.820987 50.945049 
L 107.722133 50.566582 
L 107.172706 50.94654 
L 106.623278 50.824108 
L 106.073851 51.063366 
L 105.524424 50.892589 
L 104.974997 51.151445 
L 103.876142 51.267386 
L 102.777288 51.061027 
L 102.22786 51.127938 
L 101.678433 50.908841 
L 101.129006 50.978369 
L 100.579579 51.22979 
L 99.480724 51.397519 
L 98.931297 50.821451 
L 98.38187 50.628463 
L 97.283015 51.246544 
L 96.733588 51.315973 
L 96.184161 50.936624 
L 95.634734 50.904704 
L 95.085306 51.077619 
L 94.535879 51.424454 
L 93.437025 51.610572 
L 92.887597 51.964973 
L 92.33817 52.49557 
L 91.788743 52.479078 
L 90.689888 53.044463 
L 90.140461 53.581667 
L 89.591034 53.588623 
L 89.041607 53.724775 
L 88.492179 54.302385 
L 87.942752 53.807193 
L 87.393325 54.003132 
L 86.843898 54.493914 
L 86.294471 53.880813 
L 84.646189 55.751203 
L 84.096762 56.750463 
L 83.547334 57.145546 
L 82.997907 57.857764 
L 82.44848 58.132651 
L 81.899053 59.857584 
L 81.349625 61.114148 
L 80.250771 65.406127 
L 79.701344 67.847245 
L 79.151916 69.753334 
L 78.602489 73.963563 
L 77.503635 78.038749 
L 76.954207 82.342756 
L 76.40478 80.820204 
L 75.855353 81.067355 
L 75.305926 81.862928 
L 74.756499 79.840351 
L 74.207071 77.110023 
L 73.657644 72.551411 
L 73.657644 72.551411 
" style="fill:none;stroke:#1f77b4;stroke-linecap:square;stroke-width:1.5;"/>
   </g>
   <g id="line2d_15">
    <path clip-path="url(#pcb96e61ed0)" d="M 336.283864 163.870401 
L 334.061157 161.75197 
L 332.949804 160.77498 
L 330.171422 158.694616 
L 326.281686 155.964078 
L 323.503303 154.221826 
L 319.613568 152.000515 
L 313.501126 148.697933 
L 308.500037 146.20178 
L 297.942183 141.329639 
L 293.49677 139.457031 
L 282.938916 135.194475 
L 270.158356 130.366462 
L 267.93565 129.60262 
L 264.60159 128.38141 
L 257.933472 126.07028 
L 256.822119 125.649974 
L 254.599413 124.934043 
L 249.598324 123.211029 
L 243.485882 121.297817 
L 234.595057 118.438683 
L 228.482615 116.544043 
L 226.815586 116.04168 
L 225.148556 115.534074 
L 217.924761 113.13059 
L 216.813408 112.774423 
L 215.146379 112.169417 
L 210.700966 110.6632 
L 207.922584 109.814661 
L 205.144201 108.925585 
L 201.810142 107.889966 
L 197.920406 106.548864 
L 193.474994 105.012798 
L 192.363641 104.570216 
L 177.916051 100.065586 
L 176.804698 99.704427 
L 171.803609 98.121987 
L 167.358196 96.811047 
L 162.357108 94.944691 
L 161.801431 94.641438 
L 159.578725 94.049726 
L 158.467372 93.72816 
L 156.800342 93.132668 
L 155.688989 92.712804 
L 154.577636 92.364187 
L 151.243577 91.338834 
L 149.020871 90.672113 
L 147.353841 90.211345 
L 145.131135 89.447587 
L 139.57437 87.971656 
L 139.018693 87.730675 
L 138.463017 87.36143 
L 137.351663 87.000639 
L 135.684634 86.527137 
L 134.573281 86.049371 
L 131.794898 85.088849 
L 130.683545 84.783132 
L 130.127868 84.4823 
L 129.016515 84.266399 
L 128.460839 83.978103 
L 127.905162 83.849499 
L 126.793809 83.423545 
L 126.238133 83.405013 
L 125.682456 83.017563 
L 124.571103 82.611294 
L 122.348397 81.802647 
L 121.79272 81.438158 
L 121.237044 81.372817 
L 120.681367 81.157835 
L 120.125691 80.823633 
L 117.347308 79.880108 
L 116.791632 79.900982 
L 112.901896 78.91338 
L 110.123513 78.554102 
L 109.567837 78.308551 
L 108.456484 77.987923 
L 105.678101 77.268115 
L 105.122424 77.202571 
L 103.455395 76.458301 
L 101.788365 76.08303 
L 101.232689 75.681765 
L 100.677012 75.489893 
L 100.121335 75.138975 
L 98.454306 74.716638 
L 97.898629 74.666013 
L 96.2316 73.684587 
L 95.675923 73.620034 
L 95.120247 73.119629 
L 94.56457 73.323816 
L 94.008894 73.227456 
L 92.341864 73.410359 
L 91.230511 73.827484 
L 90.674834 73.577642 
L 90.119158 73.050852 
L 89.007805 73.148235 
L 85.673746 71.661749 
L 84.562392 70.9983 
L 84.006716 71.010925 
L 83.451039 71.259341 
L 82.895363 71.316192 
L 82.339686 72.095293 
L 81.78401 72.260227 
L 81.228333 71.719194 
L 80.672657 72.49638 
L 80.11698 72.952514 
L 79.005627 74.427644 
L 78.449951 74.041428 
L 77.894274 74.125487 
L 77.338597 74.713774 
L 76.782921 75.801371 
L 76.227244 81.11291 
L 75.671568 82.655655 
L 75.115891 85.936637 
L 74.560215 82.609928 
L 74.004538 92.985059 
L 74.004538 92.985059 
" style="fill:none;stroke:#ff7f0e;stroke-linecap:square;stroke-width:1.5;"/>
   </g>
   <g id="line2d_16">
    <path clip-path="url(#pcb96e61ed0)" d="M 336.283864 304.227273 
L 332.738172 302.437558 
L 327.774205 300.081713 
L 319.973684 296.532445 
L 310.754887 292.614826 
L 302.954366 289.366049 
L 295.153845 286.235017 
L 291.608154 284.798901 
L 276.71625 279.124183 
L 271.043144 277.101039 
L 253.314688 270.300458 
L 250.478135 269.270464 
L 228.494849 261.046847 
L 222.112605 258.776011 
L 210.766393 254.604941 
L 209.348116 254.015577 
L 205.093287 252.459927 
L 201.547596 251.147929 
L 195.87449 248.989887 
L 190.910522 247.018119 
L 188.073969 246.017434 
L 186.655692 245.45723 
L 182.400863 243.889943 
L 176.018619 241.382659 
L 174.600342 240.721989 
L 167.50896 238.020989 
L 166.799821 237.665963 
L 165.381545 237.266635 
L 160.417577 235.191149 
L 156.871886 233.80984 
L 149.780503 231.128229 
L 147.653088 230.218903 
L 144.107397 228.899186 
L 139.852568 226.906718 
L 137.725153 226.172549 
L 129.924632 222.992526 
L 128.506356 222.407212 
L 127.797217 221.888967 
L 112.905314 215.141576 
L 111.487038 214.293946 
L 110.068761 213.684205 
L 107.232208 212.087444 
L 105.104793 211.207039 
L 104.395655 210.727246 
L 102.26824 209.722991 
L 101.559102 209.281101 
L 100.849964 208.684165 
L 100.140826 208.27092 
L 99.431687 207.58852 
L 98.013411 207.003765 
L 96.595134 206.009512 
L 95.176858 205.473287 
L 94.46772 205.123648 
L 93.758581 204.494913 
L 93.049443 204.174998 
L 91.631166 204.042252 
L 90.21289 203.720315 
L 88.794613 203.083995 
L 88.085475 202.614251 
L 86.667199 201.906495 
L 85.248922 200.868009 
L 84.539784 200.625162 
L 83.830646 199.514722 
L 83.121507 199.186797 
L 82.412369 199.269571 
L 81.703231 197.70708 
L 80.994093 197.72999 
L 80.284954 197.19157 
L 78.866678 196.945641 
L 78.15754 197.656963 
L 77.448401 197.643957 
L 76.030125 198.810306 
L 75.320987 194.321794 
L 74.611848 187.646553 
L 73.90271 168.574099 
L 73.90271 168.574099 
" style="fill:none;stroke:#2ca02c;stroke-linecap:square;stroke-width:1.5;"/>
   </g>
   <g id="line2d_17">
    <path clip-path="url(#pcb96e61ed0)" d="M 336.283864 194.227678 
L 334.474951 193.398344 
L 332.666038 192.329823 
L 325.430388 187.211306 
L 323.621475 186.421337 
L 321.812563 185.382691 
L 320.00365 184.536831 
L 318.194738 183.38756 
L 310.959087 179.421632 
L 309.150175 178.681413 
L 305.532349 176.781593 
L 300.105611 173.776618 
L 294.678874 171.440458 
L 287.443223 168.167626 
L 282.016485 165.8509 
L 280.207573 164.698558 
L 276.589748 163.573092 
L 274.780835 162.645204 
L 272.971922 162.086552 
L 271.16301 161.347805 
L 269.354097 160.455503 
L 265.736272 159.042034 
L 263.927359 158.105791 
L 262.118447 157.696442 
L 258.500621 156.165594 
L 256.691709 155.644532 
L 254.882796 154.885608 
L 253.073884 154.396596 
L 245.838233 151.803428 
L 236.79367 149.261115 
L 234.984758 148.394333 
L 233.175845 147.81257 
L 231.366932 146.938483 
L 229.55802 146.408535 
L 225.940195 144.700809 
L 224.131282 144.023312 
L 222.322369 143.600333 
L 220.513457 142.925658 
L 218.704544 142.651117 
L 216.895632 141.780169 
L 213.277806 140.821651 
L 209.659981 139.258184 
L 207.851068 138.773175 
L 206.042156 138.155182 
L 204.233243 137.281494 
L 200.615418 135.99298 
L 198.806505 135.616812 
L 196.997593 135.065992 
L 195.18868 134.681877 
L 187.95303 132.226778 
L 186.144117 131.823041 
L 184.335205 131.196999 
L 180.717379 130.337306 
L 178.908467 129.87996 
L 177.099554 129.196735 
L 175.290642 128.89239 
L 173.481729 128.351201 
L 171.672816 127.39011 
L 168.054991 126.508744 
L 166.246078 126.037359 
L 164.437166 125.905609 
L 162.628253 125.497161 
L 160.819341 124.790375 
L 157.201515 124.135236 
L 155.392603 124.099923 
L 153.58369 123.510498 
L 149.965865 123.060228 
L 148.156952 122.198347 
L 146.34804 122.384053 
L 142.730215 120.739379 
L 140.921302 120.660614 
L 139.112389 121.193211 
L 137.303477 121.174326 
L 135.494564 120.59846 
L 133.685652 120.466056 
L 131.876739 120.568855 
L 130.067826 119.877354 
L 126.450001 119.000084 
L 124.641089 118.522032 
L 119.214351 115.82197 
L 115.596525 115.178218 
L 113.787613 114.393816 
L 111.9787 113.409975 
L 110.169788 113.32709 
L 108.360875 113.542085 
L 104.74305 112.906623 
L 99.316312 113.846072 
L 97.507399 112.386554 
L 95.698487 112.240612 
L 93.889574 112.878967 
L 92.080662 111.488836 
L 90.271749 112.573076 
L 88.462836 112.700958 
L 86.653924 108.404192 
L 84.845011 107.708026 
L 81.227186 104.988438 
L 79.418273 98.096409 
L 77.609361 90.42719 
L 75.800448 73.170754 
L 73.991535 24.772727 
L 73.991535 24.772727 
" style="fill:none;stroke:#d62728;stroke-linecap:square;stroke-width:1.5;"/>
   </g>
   <g id="line2d_18">
    <path clip-path="url(#pcb96e61ed0)" d="M 336.283864 209.510945 
L 333.962512 207.48417 
L 331.060823 205.152341 
L 325.837783 201.279894 
L 320.034404 197.35835 
L 314.231026 193.758751 
L 309.588324 191.07125 
L 306.106297 189.13643 
L 300.883256 186.395964 
L 294.49954 183.281096 
L 277.669743 175.47875 
L 258.518595 167.549218 
L 250.974203 164.663728 
L 235.305082 158.730329 
L 232.403393 157.723839 
L 230.082041 156.813273 
L 216.153933 151.783706 
L 212.091569 150.324484 
L 208.029204 148.776847 
L 206.868528 148.368623 
L 202.225826 146.603655 
L 200.484812 145.972287 
L 198.163461 145.137471 
L 195.261772 144.048511 
L 192.94042 143.189196 
L 191.199407 142.596419 
L 190.038731 142.092323 
L 188.878056 141.66877 
L 187.71738 141.17924 
L 185.396029 140.262744 
L 184.235353 139.907361 
L 179.012312 137.851796 
L 178.431975 137.550709 
L 175.530285 136.6038 
L 170.307245 134.586739 
L 169.146569 134.006914 
L 166.825218 132.93784 
L 165.664542 132.478081 
L 163.343191 131.446346 
L 161.02184 130.553626 
L 156.379137 129.010153 
L 155.218462 128.560693 
L 153.477448 128.045406 
L 152.316772 127.498156 
L 151.156097 127.047219 
L 149.995421 126.650951 
L 148.834745 126.268019 
L 145.933056 125.2328 
L 144.772381 124.899673 
L 143.611705 124.282399 
L 141.290354 123.418871 
L 128.522921 118.688442 
L 127.362246 118.218974 
L 125.040895 117.513579 
L 122.719543 116.341944 
L 121.558868 115.872843 
L 120.97853 115.36914 
L 119.817854 114.883389 
L 119.237516 114.734116 
L 118.657178 114.453714 
L 118.076841 114.302264 
L 117.496503 113.995918 
L 116.916165 113.890667 
L 114.014476 112.659741 
L 113.434138 112.258454 
L 112.8538 112.133284 
L 111.693125 111.532534 
L 110.532449 111.082417 
L 109.952111 110.771959 
L 107.050422 109.940445 
L 105.889746 109.335452 
L 105.309408 109.139862 
L 104.729071 108.613247 
L 104.148733 108.289179 
L 103.568395 108.213293 
L 102.988057 107.891161 
L 101.247044 107.402874 
L 100.086368 106.540661 
L 99.50603 106.494565 
L 98.925692 106.201966 
L 96.024003 105.503946 
L 94.863328 104.713713 
L 94.28299 104.642012 
L 93.122314 103.910317 
L 92.541976 103.849376 
L 91.961638 103.498525 
L 91.381301 103.400451 
L 89.059949 102.112481 
L 88.479611 102.047762 
L 87.899274 102.119102 
L 87.318936 101.84523 
L 86.15826 101.686441 
L 84.997584 101.136369 
L 83.836909 101.14159 
L 83.256571 100.499258 
L 82.676233 100.133492 
L 82.095895 100.324305 
L 81.515557 99.979191 
L 80.93522 99.782936 
L 80.354882 100.005698 
L 79.774544 99.876661 
L 79.194206 100.77723 
L 78.613868 100.124175 
L 78.033531 99.720079 
L 77.453193 98.438082 
L 76.872855 98.948695 
L 76.292517 95.230611 
L 75.131841 100.9201 
L 74.551504 106.943132 
L 73.971166 116.129579 
L 73.971166 116.129579 
" style="fill:none;stroke:#9467bd;stroke-linecap:square;stroke-width:1.5;"/>
   </g>
   <g id="line2d_19">
    <path clip-path="url(#pcb96e61ed0)" d="M 336.283864 164.222487 
L 335.172182 163.15828 
L 332.948817 161.305545 
L 331.281294 160.100526 
L 326.834566 157.102128 
L 325.167043 156.006285 
L 318.49695 151.935461 
L 305.156764 145.064031 
L 296.263308 140.938465 
L 283.478963 135.557732 
L 280.143917 134.201416 
L 271.806301 130.983127 
L 269.027096 129.914221 
L 266.247891 128.852987 
L 261.801162 127.221756 
L 251.240182 123.476661 
L 247.349295 122.208586 
L 240.123361 119.798055 
L 235.676632 118.291096 
L 229.562381 116.311683 
L 228.450699 115.894465 
L 226.783176 115.430596 
L 225.671493 115.022115 
L 221.224765 113.678175 
L 219.001401 112.964683 
L 217.889719 112.619324 
L 211.775467 110.576361 
L 208.996262 109.720443 
L 205.661215 108.526336 
L 203.993692 107.999256 
L 201.214487 107.009875 
L 197.879441 106.001538 
L 193.988553 104.723871 
L 190.653507 103.53012 
L 188.430143 102.850694 
L 185.095096 101.76627 
L 180.092527 100.260006 
L 178.980845 99.82452 
L 175.089957 98.72673 
L 172.310752 97.81039 
L 169.531547 96.954326 
L 166.752341 95.904291 
L 165.084818 95.389122 
L 163.973136 94.914595 
L 162.305613 94.285874 
L 161.193931 93.964914 
L 160.082249 93.561345 
L 159.526408 93.418688 
L 158.414726 92.972519 
L 156.191361 92.304542 
L 152.856315 91.351456 
L 150.632951 90.642443 
L 150.07711 90.388874 
L 148.965428 90.077826 
L 146.742063 89.411318 
L 140.071971 87.658727 
L 137.848606 87.068045 
L 137.292765 86.830955 
L 136.181083 86.546352 
L 134.51356 86.152915 
L 131.178514 85.076901 
L 130.066832 84.671543 
L 129.510991 84.614108 
L 128.95515 84.430012 
L 128.399309 84.092675 
L 127.287626 83.756836 
L 126.731785 83.508237 
L 126.175944 83.432666 
L 125.620103 83.203786 
L 124.508421 83.041896 
L 118.950011 81.431431 
L 118.39417 81.400873 
L 117.838328 81.128109 
L 116.170805 80.819931 
L 114.503282 80.259664 
L 113.3916 79.984086 
L 112.835759 79.542344 
L 112.279918 79.411269 
L 111.724077 79.152662 
L 110.612395 78.862091 
L 109.500713 78.491602 
L 108.944872 78.167679 
L 107.833189 77.893466 
L 106.721507 77.479097 
L 106.165666 76.986145 
L 105.053984 76.678012 
L 103.386461 76.408021 
L 101.718938 75.560004 
L 101.163097 75.066311 
L 100.607256 74.921832 
L 100.051415 74.358736 
L 97.82805 73.545073 
L 97.272209 73.618199 
L 96.716368 73.540449 
L 96.160527 73.289974 
L 94.493004 73.228692 
L 93.937163 73.182577 
L 93.381322 73.317276 
L 92.825481 72.971872 
L 92.26964 72.869384 
L 91.713799 72.377035 
L 91.157958 72.476147 
L 90.602117 71.962086 
L 90.046276 71.701988 
L 88.934594 71.837371 
L 88.378752 71.968202 
L 87.822911 71.869938 
L 87.26707 72.126102 
L 86.155388 72.312769 
L 85.043706 71.573045 
L 84.487865 70.913911 
L 83.932024 70.931757 
L 82.820342 70.010235 
L 82.264501 69.903274 
L 81.70866 70.058229 
L 81.152819 69.600717 
L 80.596978 69.657875 
L 80.041137 70.271117 
L 78.929455 70.276112 
L 78.373613 69.513927 
L 77.817772 72.355638 
L 77.261931 73.612393 
L 76.70609 76.409516 
L 76.150249 74.538172 
L 75.594408 72.089806 
L 75.038567 77.74156 
L 74.482726 75.695031 
L 73.926885 72.932249 
L 73.926885 72.932249 
" style="fill:none;stroke:#8c564b;stroke-linecap:square;stroke-width:1.5;"/>
   </g>
   <g id="line2d_20">
    <path clip-path="url(#pcb96e61ed0)" d="M 336.283864 182.647383 
L 334.599744 180.923601 
L 331.792877 178.457127 
L 327.863263 175.368065 
L 322.810903 171.735142 
L 314.390303 166.459028 
L 307.653823 162.741528 
L 296.426356 157.146597 
L 285.198889 151.940635 
L 275.094169 147.64309 
L 271.725929 146.240708 
L 268.919062 145.124596 
L 264.989448 143.543208 
L 261.621208 142.318016 
L 259.375715 141.398192 
L 234.675287 132.221693 
L 230.745674 130.833925 
L 226.254687 129.171716 
L 224.570567 128.583477 
L 222.886447 128.039461 
L 220.07958 127.09692 
L 218.956834 126.689024 
L 212.220354 124.381333 
L 210.536233 123.79329 
L 208.29074 122.915447 
L 206.60662 122.369924 
L 199.308767 119.86052 
L 195.379153 118.390661 
L 191.44954 116.811595 
L 190.326793 116.359961 
L 186.958553 115.302854 
L 184.713059 114.453429 
L 180.783446 113.097747 
L 180.222073 112.792968 
L 175.169713 111.163917 
L 174.046966 110.655734 
L 171.801472 109.835171 
L 166.749112 107.95071 
L 165.626366 107.543603 
L 160.012632 105.538718 
L 159.451259 105.146232 
L 156.644392 104.169473 
L 155.521645 103.68177 
L 153.837525 103.079333 
L 149.907912 101.813568 
L 146.539672 100.74022 
L 144.855552 100.005853 
L 143.732805 99.631037 
L 142.610058 99.306981 
L 141.487312 98.968128 
L 140.925938 98.677913 
L 139.241818 98.120821 
L 138.119071 97.719367 
L 137.557698 97.398279 
L 135.312205 96.836049 
L 134.750831 96.55927 
L 132.505338 95.904244 
L 130.821218 95.363939 
L 130.259845 95.00066 
L 127.452978 94.109732 
L 126.891605 94.060201 
L 120.155124 91.690633 
L 119.593751 91.367047 
L 119.032378 90.830549 
L 116.786884 90.23692 
L 115.664138 89.89332 
L 115.102764 89.496376 
L 112.857271 88.979585 
L 110.050404 87.850884 
L 109.489031 87.300675 
L 108.366284 86.741913 
L 107.243537 86.572591 
L 106.120791 85.701833 
L 104.998044 85.442907 
L 104.436671 85.112531 
L 101.629804 84.487711 
L 101.06843 84.534093 
L 98.822937 83.891359 
L 98.261564 83.781625 
L 97.70019 83.163607 
L 97.138817 82.955895 
L 96.577444 82.867104 
L 96.01607 82.442852 
L 95.454697 82.257206 
L 94.893324 81.857865 
L 94.33195 81.643293 
L 93.770577 81.662813 
L 93.209204 81.213952 
L 92.086457 80.943875 
L 91.525084 81.128318 
L 90.96371 80.895284 
L 89.27959 81.165482 
L 87.034097 79.975107 
L 85.91135 79.972247 
L 84.788603 79.745015 
L 84.22723 80.047181 
L 83.665857 79.509908 
L 83.104483 78.622066 
L 82.54311 79.060342 
L 81.420363 79.062228 
L 79.736243 80.646445 
L 79.17487 80.595372 
L 78.613497 81.191158 
L 78.052123 81.999415 
L 77.49075 83.145479 
L 76.368003 84.059371 
L 75.80663 87.030696 
L 75.245256 89.256257 
L 74.683883 90.159099 
L 74.12251 86.951524 
L 73.561136 67.253837 
L 73.561136 67.253837 
" style="fill:none;stroke:#e377c2;stroke-linecap:square;stroke-width:1.5;"/>
   </g>
   <g id="patch_3">
    <path d="M 60.425 318.2 
L 60.425 10.8 
" style="fill:none;stroke:#000000;stroke-linecap:square;stroke-linejoin:miter;stroke-width:0.8;"/>
   </g>
   <g id="patch_4">
    <path d="M 349.42 318.2 
L 349.42 10.8 
" style="fill:none;stroke:#000000;stroke-linecap:square;stroke-linejoin:miter;stroke-width:0.8;"/>
   </g>
   <g id="patch_5">
    <path d="M 60.425 318.2 
L 349.42 318.2 
" style="fill:none;stroke:#000000;stroke-linecap:square;stroke-linejoin:miter;stroke-width:0.8;"/>
   </g>
   <g id="patch_6">
    <path d="M 60.425 10.8 
L 349.42 10.8 
" style="fill:none;stroke:#000000;stroke-linecap:square;stroke-linejoin:miter;stroke-width:0.8;"/>
   </g>
  </g>
  <g id="axes_2">
   <g id="matplotlib.axis_3">
    <g id="ytick_8">
     <g id="line2d_21">
      <defs>
       <path d="M 0 0 
L 3.5 0 
" id="m2e058ab661" style="stroke:#000000;stroke-width:0.8;"/>
      </defs>
      <g>
       <use style="stroke:#000000;stroke-width:0.8;" x="349.42" xlink:href="#m2e058ab661" y="286.76421"/>
      </g>
     </g>
     <g id="text_16">
      <!-- 5 -->
      <g transform="translate(356.42 290.563429)scale(0.1 -0.1)">
       <use xlink:href="#DejaVuSans-35"/>
      </g>
     </g>
    </g>
    <g id="ytick_9">
     <g id="line2d_22">
      <g>
       <use style="stroke:#000000;stroke-width:0.8;" x="349.42" xlink:href="#m2e058ab661" y="220.149791"/>
      </g>
     </g>
     <g id="text_17">
      <!-- 10 -->
      <g transform="translate(356.42 223.949009)scale(0.1 -0.1)">
       <use xlink:href="#DejaVuSans-31"/>
       <use x="63.623047" xlink:href="#DejaVuSans-30"/>
      </g>
     </g>
    </g>
    <g id="ytick_10">
     <g id="line2d_23">
      <g>
       <use style="stroke:#000000;stroke-width:0.8;" x="349.42" xlink:href="#m2e058ab661" y="153.535372"/>
      </g>
     </g>
     <g id="text_18">
      <!-- 15 -->
      <g transform="translate(356.42 157.33459)scale(0.1 -0.1)">
       <use xlink:href="#DejaVuSans-31"/>
       <use x="63.623047" xlink:href="#DejaVuSans-35"/>
      </g>
     </g>
    </g>
    <g id="ytick_11">
     <g id="line2d_24">
      <g>
       <use style="stroke:#000000;stroke-width:0.8;" x="349.42" xlink:href="#m2e058ab661" y="86.920952"/>
      </g>
     </g>
     <g id="text_19">
      <!-- 20 -->
      <g transform="translate(356.42 90.720171)scale(0.1 -0.1)">
       <use xlink:href="#DejaVuSans-32"/>
       <use x="63.623047" xlink:href="#DejaVuSans-30"/>
      </g>
     </g>
    </g>
    <g id="ytick_12">
     <g id="line2d_25">
      <g>
       <use style="stroke:#000000;stroke-width:0.8;" x="349.42" xlink:href="#m2e058ab661" y="20.306533"/>
      </g>
     </g>
     <g id="text_20">
      <!-- 25 -->
      <g transform="translate(356.42 24.105752)scale(0.1 -0.1)">
       <use xlink:href="#DejaVuSans-32"/>
       <use x="63.623047" xlink:href="#DejaVuSans-35"/>
      </g>
     </g>
    </g>
    <g id="text_21">
     <!-- Minimum read-mean PhredQ score -->
     <g transform="translate(380.743438 251.425)rotate(-90)scale(0.1 -0.1)">
      <defs>
       <path d="M 628 4666 
L 1569 4666 
L 2759 1491 
L 3956 4666 
L 4897 4666 
L 4897 0 
L 4281 0 
L 4281 4097 
L 3078 897 
L 2444 897 
L 1241 4097 
L 1241 0 
L 628 0 
L 628 4666 
z
" id="DejaVuSans-4d" transform="scale(0.015625)"/>
       <path d="M 544 1381 
L 544 3500 
L 1119 3500 
L 1119 1403 
Q 1119 906 1312 657 
Q 1506 409 1894 409 
Q 2359 409 2629 706 
Q 2900 1003 2900 1516 
L 2900 3500 
L 3475 3500 
L 3475 0 
L 2900 0 
L 2900 538 
Q 2691 219 2414 64 
Q 2138 -91 1772 -91 
Q 1169 -91 856 284 
Q 544 659 544 1381 
z
M 1991 3584 
L 1991 3584 
z
" id="DejaVuSans-75" transform="scale(0.015625)"/>
       <path d="M 313 2009 
L 1997 2009 
L 1997 1497 
L 313 1497 
L 313 2009 
z
" id="DejaVuSans-2d" transform="scale(0.015625)"/>
       <path d="M 1259 4147 
L 1259 2394 
L 2053 2394 
Q 2494 2394 2734 2622 
Q 2975 2850 2975 3272 
Q 2975 3691 2734 3919 
Q 2494 4147 2053 4147 
L 1259 4147 
z
M 628 4666 
L 2053 4666 
Q 2838 4666 3239 4311 
Q 3641 3956 3641 3272 
Q 3641 2581 3239 2228 
Q 2838 1875 2053 1875 
L 1259 1875 
L 1259 0 
L 628 0 
L 628 4666 
z
" id="DejaVuSans-50" transform="scale(0.015625)"/>
       <path d="M 2522 4238 
Q 1834 4238 1429 3725 
Q 1025 3213 1025 2328 
Q 1025 1447 1429 934 
Q 1834 422 2522 422 
Q 3209 422 3611 934 
Q 4013 1447 4013 2328 
Q 4013 3213 3611 3725 
Q 3209 4238 2522 4238 
z
M 3406 84 
L 4238 -825 
L 3475 -825 
L 2784 -78 
Q 2681 -84 2626 -87 
Q 2572 -91 2522 -91 
Q 1538 -91 948 567 
Q 359 1225 359 2328 
Q 359 3434 948 4092 
Q 1538 4750 2522 4750 
Q 3503 4750 4090 4092 
Q 4678 3434 4678 2328 
Q 4678 1516 4351 937 
Q 4025 359 3406 84 
z
" id="DejaVuSans-51" transform="scale(0.015625)"/>
      </defs>
      <use xlink:href="#DejaVuSans-4d"/>
      <use x="86.279297" xlink:href="#DejaVuSans-69"/>
      <use x="114.0625" xlink:href="#DejaVuSans-6e"/>
      <use x="177.441406" xlink:href="#DejaVuSans-69"/>
      <use x="205.224609" xlink:href="#DejaVuSans-6d"/>
      <use x="302.636719" xlink:href="#DejaVuSans-75"/>
      <use x="366.015625" xlink:href="#DejaVuSans-6d"/>
      <use x="463.427734" xlink:href="#DejaVuSans-20"/>
      <use x="495.214844" xlink:href="#DejaVuSans-72"/>
      <use x="534.078125" xlink:href="#DejaVuSans-65"/>
      <use x="595.601562" xlink:href="#DejaVuSans-61"/>
      <use x="656.880859" xlink:href="#DejaVuSans-64"/>
      <use x="720.357422" xlink:href="#DejaVuSans-2d"/>
      <use x="756.441406" xlink:href="#DejaVuSans-6d"/>
      <use x="853.853516" xlink:href="#DejaVuSans-65"/>
      <use x="915.376953" xlink:href="#DejaVuSans-61"/>
      <use x="976.65625" xlink:href="#DejaVuSans-6e"/>
      <use x="1040.035156" xlink:href="#DejaVuSans-20"/>
      <use x="1071.822266" xlink:href="#DejaVuSans-50"/>
      <use x="1132.125" xlink:href="#DejaVuSans-68"/>
      <use x="1195.503906" xlink:href="#DejaVuSans-72"/>
      <use x="1234.367188" xlink:href="#DejaVuSans-65"/>
      <use x="1295.890625" xlink:href="#DejaVuSans-64"/>
      <use x="1359.367188" xlink:href="#DejaVuSans-51"/>
      <use x="1438.078125" xlink:href="#DejaVuSans-20"/>
      <use x="1469.865234" xlink:href="#DejaVuSans-73"/>
      <use x="1521.964844" xlink:href="#DejaVuSans-63"/>
      <use x="1576.945312" xlink:href="#DejaVuSans-6f"/>
      <use x="1638.126953" xlink:href="#DejaVuSans-72"/>
      <use x="1676.990234" xlink:href="#DejaVuSans-65"/>
     </g>
    </g>
   </g>
   <g id="line2d_26">
    <path clip-path="url(#pcb96e61ed0)" d="M 336.283864 303.322651 
L 335.734436 295.741296 
L 335.185009 284.370877 
L 334.635582 280.965558 
L 333.536727 277.176097 
L 332.437873 275.024925 
L 331.339018 273.54943 
L 328.591882 271.231326 
L 323.09761 267.724933 
L 318.702192 265.806865 
L 315.405629 264.717052 
L 311.010211 263.369008 
L 302.768802 261.373278 
L 289.033121 258.843834 
L 285.736558 258.34672 
L 282.439994 257.83218 
L 275.29744 256.921574 
L 265.40775 255.759434 
L 234.090397 252.683508 
L 214.860444 250.954771 
L 209.915599 250.449261 
L 192.333927 248.747124 
L 184.641946 247.949367 
L 177.499392 247.20305 
L 171.455692 246.488933 
L 139.588913 242.153783 
L 135.742922 241.585405 
L 131.347504 240.963024 
L 113.216405 238.552998 
L 107.722133 237.756763 
L 102.777288 237.050265 
L 96.184161 236.037667 
L 93.986452 235.660655 
L 90.689888 235.068283 
L 87.942752 234.513922 
L 84.096762 233.683036 
L 80.800198 232.769451 
L 79.151916 232.175757 
L 76.954207 230.899482 
L 75.855353 229.870656 
L 75.305926 229.265836 
L 74.756499 228.385334 
L 74.207071 226.888851 
L 73.657644 223.787963 
L 73.657644 223.787963 
" style="fill:none;stroke:#1f77b4;stroke-dasharray:5.55,2.4;stroke-dashoffset:0;stroke-width:1.5;"/>
   </g>
   <g id="line2d_27">
    <path clip-path="url(#pcb96e61ed0)" d="M 336.283864 304.227273 
L 335.728187 263.837615 
L 335.172511 254.85104 
L 334.616834 249.570598 
L 334.061157 246.097693 
L 331.838451 237.856412 
L 330.727098 234.9855 
L 330.171422 234.033219 
L 329.615745 232.534921 
L 327.948716 229.368498 
L 327.393039 228.363244 
L 326.837363 227.647048 
L 325.726009 225.818306 
L 325.170333 225.221253 
L 324.05898 223.335297 
L 321.836274 220.778188 
L 320.724921 219.585859 
L 313.501126 212.498733 
L 309.61139 209.493003 
L 307.94436 208.386259 
L 306.277331 207.299162 
L 305.165978 206.655965 
L 304.054624 205.938117 
L 302.943271 205.21314 
L 302.387595 204.743212 
L 300.164889 203.613295 
L 296.275153 201.323609 
L 291.829741 199.025334 
L 290.162711 198.137743 
L 288.495681 197.439873 
L 275.715121 191.728343 
L 273.492415 190.953741 
L 258.489148 185.600032 
L 256.822119 185.136317 
L 254.599413 184.381024 
L 249.598324 182.901204 
L 247.375618 182.237819 
L 245.708588 181.857345 
L 244.597235 181.557944 
L 237.37344 179.500295 
L 229.593969 177.491956 
L 222.370174 175.662109 
L 220.147467 175.025366 
L 171.803609 163.286046 
L 166.80252 161.964864 
L 164.024137 161.249812 
L 156.800342 159.328787 
L 154.02196 158.642959 
L 150.132224 157.530647 
L 147.909518 156.86646 
L 143.464105 155.65592 
L 141.797076 155.165457 
L 140.130046 154.751568 
L 139.018693 154.389292 
L 134.573281 153.082652 
L 131.794898 152.197897 
L 125.12678 150.320557 
L 122.904073 149.593336 
L 120.125691 148.782968 
L 108.456484 145.200629 
L 107.34513 144.794421 
L 105.122424 144.03757 
L 102.899718 143.244869 
L 98.454306 141.595612 
L 94.008894 139.815188 
L 90.674834 138.568755 
L 89.563481 138.06804 
L 87.896452 137.393311 
L 84.006716 135.172762 
L 80.11698 132.431989 
L 79.005627 131.55586 
L 76.782921 129.126636 
L 76.227244 128.347688 
L 75.115891 125.97301 
L 74.560215 124.072233 
L 74.004538 120.372976 
L 74.004538 120.372976 
" style="fill:none;stroke:#ff7f0e;stroke-dasharray:5.55,2.4;stroke-dashoffset:0;stroke-width:1.5;"/>
   </g>
   <g id="line2d_28">
    <path clip-path="url(#pcb96e61ed0)" d="M 336.283864 257.811449 
L 335.574725 239.814788 
L 334.865587 238.028605 
L 334.156449 237.041519 
L 332.738172 235.709262 
L 330.610758 234.395936 
L 329.192481 233.622933 
L 324.228513 231.63086 
L 322.101099 230.915996 
L 319.973684 230.190481 
L 317.137131 229.370043 
L 313.59144 228.354214 
L 309.33661 227.248846 
L 306.500057 226.420646 
L 304.372642 225.90954 
L 302.245228 225.401345 
L 283.807633 221.395298 
L 281.680218 220.9866 
L 278.843665 220.449729 
L 271.043144 219.047907 
L 267.497453 218.470828 
L 263.242624 217.710146 
L 247.641582 214.948463 
L 236.29537 213.075654 
L 231.331402 212.349967 
L 223.530881 211.070229 
L 200.129319 207.641963 
L 191.61966 206.407694 
L 185.237416 205.433562 
L 173.891204 203.792803 
L 170.345513 203.336284 
L 166.799821 202.81594 
L 162.544992 202.142168 
L 154.035333 200.846012 
L 149.071365 200.127149 
L 139.852568 198.715126 
L 136.306876 198.07531 
L 132.761185 197.506689 
L 129.924632 196.988345 
L 112.196176 193.956064 
L 109.359623 193.504023 
L 101.559102 192.1368 
L 87.376337 188.957488 
L 84.539784 188.093647 
L 81.703231 187.123641 
L 80.284954 186.547077 
L 76.030125 183.831965 
L 74.611848 181.434075 
L 73.90271 178.468197 
L 73.90271 178.468197 
" style="fill:none;stroke:#2ca02c;stroke-dasharray:5.55,2.4;stroke-dashoffset:0;stroke-width:1.5;"/>
   </g>
   <g id="line2d_29">
    <path clip-path="url(#pcb96e61ed0)" d="M 336.283864 273.989751 
L 334.474951 229.258115 
L 332.666038 220.149791 
L 330.857126 216.146671 
L 329.048213 212.571582 
L 323.621475 203.86017 
L 320.00365 199.809697 
L 318.194738 197.861895 
L 316.385825 196.153844 
L 307.341262 189.014193 
L 303.723437 186.530385 
L 301.914524 185.169285 
L 300.105611 184.238314 
L 296.487786 182.029712 
L 294.678874 180.892004 
L 292.869961 179.886711 
L 291.061048 178.677779 
L 289.252136 177.781999 
L 287.443223 176.73992 
L 285.634311 175.966991 
L 283.825398 174.706885 
L 276.589748 170.761359 
L 274.780835 169.660521 
L 272.971922 168.698496 
L 269.354097 167.253426 
L 265.736272 165.594343 
L 263.927359 164.89686 
L 262.118447 164.037732 
L 260.309534 163.457184 
L 258.500621 162.486684 
L 256.691709 161.763775 
L 254.882796 161.201079 
L 253.073884 160.353817 
L 249.456058 159.041426 
L 247.647146 158.328069 
L 245.838233 157.80132 
L 242.220408 156.514537 
L 238.602583 155.26465 
L 227.749107 151.458698 
L 204.233243 143.067391 
L 198.806505 141.451289 
L 191.570855 139.15721 
L 180.717379 135.501634 
L 177.099554 134.429675 
L 173.481729 133.078091 
L 171.672816 132.532597 
L 164.437166 129.83102 
L 162.628253 129.195707 
L 160.819341 128.430346 
L 157.201515 127.289735 
L 149.965865 124.934277 
L 148.156952 124.244953 
L 146.34804 123.716921 
L 142.730215 122.289851 
L 135.494564 119.771544 
L 131.876739 118.344922 
L 130.067826 117.429791 
L 128.258914 116.844419 
L 121.023263 113.756887 
L 119.214351 112.913282 
L 113.787613 110.753289 
L 102.934137 105.306367 
L 95.698487 100.613127 
L 93.889574 99.604607 
L 92.080662 98.210799 
L 90.271749 96.62043 
L 86.653924 92.581452 
L 83.036099 87.712824 
L 81.227186 83.91002 
L 79.418273 79.297028 
L 77.609361 71.214437 
L 75.800448 60.186366 
L 73.991535 24.772727 
L 73.991535 24.772727 
" style="fill:none;stroke:#d62728;stroke-dasharray:5.55,2.4;stroke-dashoffset:0;stroke-width:1.5;"/>
   </g>
   <g id="line2d_30">
    <path clip-path="url(#pcb96e61ed0)" d="M 336.283864 275.338365 
L 335.703526 259.102124 
L 335.123188 257.20323 
L 333.382175 253.716122 
L 332.801837 252.91076 
L 329.900148 249.978079 
L 328.159134 248.457541 
L 327.578796 248.081729 
L 325.257445 246.085087 
L 322.355756 244.226572 
L 321.775418 243.953404 
L 320.614742 243.08371 
L 318.873729 242.21046 
L 315.391702 240.405754 
L 313.650688 239.44774 
L 311.329337 238.37077 
L 309.007986 237.35902 
L 301.463594 233.952633 
L 293.919202 231.152124 
L 288.115824 229.114632 
L 286.37481 228.463178 
L 284.053459 227.684622 
L 281.15177 226.72581 
L 275.348392 224.692103 
L 271.286027 223.414195 
L 268.384338 222.482647 
L 262.58096 220.739014 
L 253.875892 218.452197 
L 252.134879 217.965622 
L 250.393865 217.530534 
L 246.3315 216.47884 
L 239.947784 214.920612 
L 238.206771 214.448683 
L 228.341028 212.049015 
L 224.859001 211.219597 
L 221.957312 210.594995 
L 212.091569 208.281776 
L 210.350555 207.862791 
L 201.06515 205.837772 
L 198.163461 205.193508 
L 188.878056 203.096499 
L 184.815691 202.149855 
L 173.208934 199.608326 
L 169.726907 198.886736 
L 154.638124 195.549061 
L 152.89711 195.135612 
L 149.415083 194.374353 
L 127.942584 189.170073 
L 123.880219 188.097123 
L 112.273462 185.099626 
L 109.371773 184.259379 
L 96.024003 180.25532 
L 89.640287 178.053929 
L 88.479611 177.578792 
L 86.738598 176.973778 
L 85.577922 176.535696 
L 81.515557 174.611737 
L 80.354882 173.953282 
L 77.453193 171.716866 
L 76.292517 170.464917 
L 75.712179 169.736135 
L 75.131841 168.796268 
L 74.551504 166.873738 
L 73.971166 164.320846 
L 73.971166 164.320846 
" style="fill:none;stroke:#9467bd;stroke-dasharray:5.55,2.4;stroke-dashoffset:0;stroke-width:1.5;"/>
   </g>
   <g id="line2d_31">
    <path clip-path="url(#pcb96e61ed0)" d="M 336.283864 277.373985 
L 335.728023 253.838901 
L 335.172182 248.055552 
L 334.060499 241.061017 
L 333.504658 238.513489 
L 332.948817 236.989256 
L 331.837135 233.488988 
L 330.725453 230.613041 
L 327.946248 225.577632 
L 326.834566 223.686225 
L 325.722884 221.875184 
L 325.167043 221.201511 
L 324.611201 220.244617 
L 323.499519 219.138449 
L 321.831996 217.073005 
L 317.941109 212.738648 
L 315.717745 210.788201 
L 315.161903 210.167056 
L 312.938539 208.611509 
L 309.603493 206.243885 
L 300.710036 200.619242 
L 299.598354 200.060623 
L 298.486672 199.375463 
L 289.593215 194.961569 
L 284.590645 192.801781 
L 283.478963 192.278569 
L 273.473824 188.396918 
L 271.25046 187.685149 
L 257.910275 183.325829 
L 256.798593 183.004083 
L 252.907705 181.838904 
L 250.684341 181.284479 
L 249.016818 180.908231 
L 238.455838 178.121864 
L 236.788315 177.693503 
L 234.009109 177.044122 
L 224.00397 174.810086 
L 221.780606 174.245869 
L 216.778037 173.119175 
L 206.217056 170.811744 
L 171.19907 163.443319 
L 168.419865 162.832421 
L 146.742063 157.962279 
L 145.07454 157.620899 
L 137.848606 155.938956 
L 132.846037 154.785311 
L 123.95258 152.6354 
L 121.173375 152.012873 
L 118.950011 151.468837 
L 113.3916 150.074627 
L 112.279918 149.763926 
L 100.051415 146.588801 
L 96.716368 145.528585 
L 95.048845 145.08698 
L 88.934594 143.002863 
L 83.932024 140.897435 
L 82.820342 140.349344 
L 81.70866 139.809952 
L 79.485296 138.35175 
L 77.261931 136.692842 
L 76.150249 135.295494 
L 75.594408 134.498384 
L 75.038567 133.465018 
L 74.482726 131.878349 
L 73.926885 129.617123 
L 73.926885 129.617123 
" style="fill:none;stroke:#8c564b;stroke-dasharray:5.55,2.4;stroke-dashoffset:0;stroke-width:1.5;"/>
   </g>
   <g id="line2d_32">
    <path clip-path="url(#pcb96e61ed0)" d="M 336.283864 281.839163 
L 335.72249 252.540688 
L 335.161117 245.931924 
L 334.03837 240.68708 
L 333.476997 238.745914 
L 332.915624 237.474694 
L 331.792877 234.440277 
L 331.231503 233.155892 
L 328.98601 229.286275 
L 323.372277 221.075216 
L 322.810903 220.545129 
L 321.688157 219.16481 
L 320.004037 217.612578 
L 317.758543 215.274277 
L 313.82893 211.625855 
L 312.706183 210.667932 
L 309.337943 208.119454 
L 300.917343 202.177686 
L 300.355969 201.879671 
L 299.794596 201.355599 
L 293.058116 197.500117 
L 282.953395 192.027194 
L 271.725929 186.409317 
L 268.919062 185.203599 
L 267.234942 184.42873 
L 259.375715 181.317622 
L 251.516488 178.568616 
L 249.832368 177.975738 
L 248.148248 177.311595 
L 246.464128 176.679043 
L 242.534514 175.3521 
L 238.604901 174.020847 
L 227.938807 170.470025 
L 225.693314 169.801683 
L 223.447821 169.057855 
L 213.904474 166.255214 
L 212.220354 165.851505 
L 210.536233 165.307444 
L 205.483873 163.869453 
L 189.204046 159.14591 
L 186.397179 158.342129 
L 171.801472 154.232393 
L 170.117352 153.733103 
L 154.960272 149.473136 
L 152.714779 148.928758 
L 142.048685 145.938459 
L 139.241818 145.147115 
L 129.137098 142.195429 
L 124.084738 140.735963 
L 121.277871 139.818237 
L 105.559417 135.075585 
L 102.191177 133.881734 
L 98.822937 132.846347 
L 90.402337 129.621366 
L 88.156843 128.557505 
L 81.420363 125.047327 
L 80.85899 124.664175 
L 78.613497 122.712447 
L 78.052123 122.254965 
L 76.368003 120.0861 
L 75.245256 118.004681 
L 74.12251 113.782301 
L 73.561136 104.82578 
L 73.561136 104.82578 
" style="fill:none;stroke:#e377c2;stroke-dasharray:5.55,2.4;stroke-dashoffset:0;stroke-width:1.5;"/>
   </g>
   <g id="patch_7">
    <path d="M 60.425 318.2 
L 60.425 10.8 
" style="fill:none;stroke:#000000;stroke-linecap:square;stroke-linejoin:miter;stroke-width:0.8;"/>
   </g>
   <g id="patch_8">
    <path d="M 349.42 318.2 
L 349.42 10.8 
" style="fill:none;stroke:#000000;stroke-linecap:square;stroke-linejoin:miter;stroke-width:0.8;"/>
   </g>
   <g id="patch_9">
    <path d="M 60.425 318.2 
L 349.42 318.2 
" style="fill:none;stroke:#000000;stroke-linecap:square;stroke-linejoin:miter;stroke-width:0.8;"/>
   </g>
   <g id="patch_10">
    <path d="M 60.425 10.8 
L 349.42 10.8 
" style="fill:none;stroke:#000000;stroke-linecap:square;stroke-linejoin:miter;stroke-width:0.8;"/>
   </g>
   <g id="legend_1">
    <g id="patch_11">
     <path d="M 409.219 217.373438 
L 531.57525 217.373438 
Q 533.57525 217.373438 533.57525 215.373438 
L 533.57525 113.626563 
Q 533.57525 111.626563 531.57525 111.626563 
L 409.219 111.626563 
Q 407.219 111.626563 407.219 113.626563 
L 407.219 215.373438 
Q 407.219 217.373438 409.219 217.373438 
z
" style="fill:#ffffff;opacity:0.8;stroke:#000000;stroke-linejoin:miter;"/>
    </g>
    <g id="line2d_33">
     <path d="M 411.219 119.725 
L 431.219 119.725 
" style="fill:none;stroke:#1f77b4;stroke-linecap:square;stroke-width:1.5;"/>
    </g>
    <g id="line2d_34"/>
    <g id="text_22">
     <!-- Bonito (0.911) -->
     <g transform="translate(439.219 123.225)scale(0.1 -0.1)">
      <defs>
       <path d="M 1259 2228 
L 1259 519 
L 2272 519 
Q 2781 519 3026 730 
Q 3272 941 3272 1375 
Q 3272 1813 3026 2020 
Q 2781 2228 2272 2228 
L 1259 2228 
z
M 1259 4147 
L 1259 2741 
L 2194 2741 
Q 2656 2741 2882 2914 
Q 3109 3088 3109 3444 
Q 3109 3797 2882 3972 
Q 2656 4147 2194 4147 
L 1259 4147 
z
M 628 4666 
L 2241 4666 
Q 2963 4666 3353 4366 
Q 3744 4066 3744 3513 
Q 3744 3084 3544 2831 
Q 3344 2578 2956 2516 
Q 3422 2416 3680 2098 
Q 3938 1781 3938 1306 
Q 3938 681 3513 340 
Q 3088 0 2303 0 
L 628 0 
L 628 4666 
z
" id="DejaVuSans-42" transform="scale(0.015625)"/>
       <path d="M 1984 4856 
Q 1566 4138 1362 3434 
Q 1159 2731 1159 2009 
Q 1159 1288 1364 580 
Q 1569 -128 1984 -844 
L 1484 -844 
Q 1016 -109 783 600 
Q 550 1309 550 2009 
Q 550 2706 781 3412 
Q 1013 4119 1484 4856 
L 1984 4856 
z
" id="DejaVuSans-28" transform="scale(0.015625)"/>
       <path d="M 513 4856 
L 1013 4856 
Q 1481 4119 1714 3412 
Q 1947 2706 1947 2009 
Q 1947 1309 1714 600 
Q 1481 -109 1013 -844 
L 513 -844 
Q 928 -128 1133 580 
Q 1338 1288 1338 2009 
Q 1338 2731 1133 3434 
Q 928 4138 513 4856 
z
" id="DejaVuSans-29" transform="scale(0.015625)"/>
      </defs>
      <use xlink:href="#DejaVuSans-42"/>
      <use x="68.603516" xlink:href="#DejaVuSans-6f"/>
      <use x="129.785156" xlink:href="#DejaVuSans-6e"/>
      <use x="193.164062" xlink:href="#DejaVuSans-69"/>
      <use x="220.947266" xlink:href="#DejaVuSans-74"/>
      <use x="260.15625" xlink:href="#DejaVuSans-6f"/>
      <use x="321.337891" xlink:href="#DejaVuSans-20"/>
      <use x="353.125" xlink:href="#DejaVuSans-28"/>
      <use x="392.138672" xlink:href="#DejaVuSans-30"/>
      <use x="455.761719" xlink:href="#DejaVuSans-2e"/>
      <use x="487.548828" xlink:href="#DejaVuSans-39"/>
      <use x="551.171875" xlink:href="#DejaVuSans-31"/>
      <use x="614.794922" xlink:href="#DejaVuSans-31"/>
      <use x="678.417969" xlink:href="#DejaVuSans-29"/>
     </g>
    </g>
    <g id="line2d_35">
     <path d="M 411.219 134.403125 
L 431.219 134.403125 
" style="fill:none;stroke:#ff7f0e;stroke-linecap:square;stroke-width:1.5;"/>
    </g>
    <g id="line2d_36"/>
    <g id="text_23">
     <!-- CATCaller (0.886) -->
     <g transform="translate(439.219 137.903125)scale(0.1 -0.1)">
      <defs>
       <path d="M 4122 4306 
L 4122 3641 
Q 3803 3938 3442 4084 
Q 3081 4231 2675 4231 
Q 1875 4231 1450 3742 
Q 1025 3253 1025 2328 
Q 1025 1406 1450 917 
Q 1875 428 2675 428 
Q 3081 428 3442 575 
Q 3803 722 4122 1019 
L 4122 359 
Q 3791 134 3420 21 
Q 3050 -91 2638 -91 
Q 1578 -91 968 557 
Q 359 1206 359 2328 
Q 359 3453 968 4101 
Q 1578 4750 2638 4750 
Q 3056 4750 3426 4639 
Q 3797 4528 4122 4306 
z
" id="DejaVuSans-43" transform="scale(0.015625)"/>
       <path d="M -19 4666 
L 3928 4666 
L 3928 4134 
L 2272 4134 
L 2272 0 
L 1638 0 
L 1638 4134 
L -19 4134 
L -19 4666 
z
" id="DejaVuSans-54" transform="scale(0.015625)"/>
       <path d="M 603 4863 
L 1178 4863 
L 1178 0 
L 603 0 
L 603 4863 
z
" id="DejaVuSans-6c" transform="scale(0.015625)"/>
      </defs>
      <use xlink:href="#DejaVuSans-43"/>
      <use x="69.824219" xlink:href="#DejaVuSans-41"/>
      <use x="130.482422" xlink:href="#DejaVuSans-54"/>
      <use x="185.691406" xlink:href="#DejaVuSans-43"/>
      <use x="255.515625" xlink:href="#DejaVuSans-61"/>
      <use x="316.794922" xlink:href="#DejaVuSans-6c"/>
      <use x="344.578125" xlink:href="#DejaVuSans-6c"/>
      <use x="372.361328" xlink:href="#DejaVuSans-65"/>
      <use x="433.884766" xlink:href="#DejaVuSans-72"/>
      <use x="474.998047" xlink:href="#DejaVuSans-20"/>
      <use x="506.785156" xlink:href="#DejaVuSans-28"/>
      <use x="545.798828" xlink:href="#DejaVuSans-30"/>
      <use x="609.421875" xlink:href="#DejaVuSans-2e"/>
      <use x="641.208984" xlink:href="#DejaVuSans-38"/>
      <use x="704.832031" xlink:href="#DejaVuSans-38"/>
      <use x="768.455078" xlink:href="#DejaVuSans-36"/>
      <use x="832.078125" xlink:href="#DejaVuSans-29"/>
     </g>
    </g>
    <g id="line2d_37">
     <path d="M 411.219 149.08125 
L 431.219 149.08125 
" style="fill:none;stroke:#2ca02c;stroke-linecap:square;stroke-width:1.5;"/>
    </g>
    <g id="line2d_38"/>
    <g id="text_24">
     <!-- Causalcall (0.799) -->
     <g transform="translate(439.219 152.58125)scale(0.1 -0.1)">
      <use xlink:href="#DejaVuSans-43"/>
      <use x="69.824219" xlink:href="#DejaVuSans-61"/>
      <use x="131.103516" xlink:href="#DejaVuSans-75"/>
      <use x="194.482422" xlink:href="#DejaVuSans-73"/>
      <use x="246.582031" xlink:href="#DejaVuSans-61"/>
      <use x="307.861328" xlink:href="#DejaVuSans-6c"/>
      <use x="335.644531" xlink:href="#DejaVuSans-63"/>
      <use x="390.625" xlink:href="#DejaVuSans-61"/>
      <use x="451.904297" xlink:href="#DejaVuSans-6c"/>
      <use x="479.6875" xlink:href="#DejaVuSans-6c"/>
      <use x="507.470703" xlink:href="#DejaVuSans-20"/>
      <use x="539.257812" xlink:href="#DejaVuSans-28"/>
      <use x="578.271484" xlink:href="#DejaVuSans-30"/>
      <use x="641.894531" xlink:href="#DejaVuSans-2e"/>
      <use x="673.681641" xlink:href="#DejaVuSans-37"/>
      <use x="737.304688" xlink:href="#DejaVuSans-39"/>
      <use x="800.927734" xlink:href="#DejaVuSans-39"/>
      <use x="864.550781" xlink:href="#DejaVuSans-29"/>
     </g>
    </g>
    <g id="line2d_39">
     <path d="M 411.219 163.759375 
L 431.219 163.759375 
" style="fill:none;stroke:#d62728;stroke-linecap:square;stroke-width:1.5;"/>
    </g>
    <g id="line2d_40"/>
    <g id="text_25">
     <!-- Halcyon (0.867) -->
     <g transform="translate(439.219 167.259375)scale(0.1 -0.1)">
      <defs>
       <path d="M 628 4666 
L 1259 4666 
L 1259 2753 
L 3553 2753 
L 3553 4666 
L 4184 4666 
L 4184 0 
L 3553 0 
L 3553 2222 
L 1259 2222 
L 1259 0 
L 628 0 
L 628 4666 
z
" id="DejaVuSans-48" transform="scale(0.015625)"/>
       <path d="M 2059 -325 
Q 1816 -950 1584 -1140 
Q 1353 -1331 966 -1331 
L 506 -1331 
L 506 -850 
L 844 -850 
Q 1081 -850 1212 -737 
Q 1344 -625 1503 -206 
L 1606 56 
L 191 3500 
L 800 3500 
L 1894 763 
L 2988 3500 
L 3597 3500 
L 2059 -325 
z
" id="DejaVuSans-79" transform="scale(0.015625)"/>
      </defs>
      <use xlink:href="#DejaVuSans-48"/>
      <use x="75.195312" xlink:href="#DejaVuSans-61"/>
      <use x="136.474609" xlink:href="#DejaVuSans-6c"/>
      <use x="164.257812" xlink:href="#DejaVuSans-63"/>
      <use x="219.238281" xlink:href="#DejaVuSans-79"/>
      <use x="278.417969" xlink:href="#DejaVuSans-6f"/>
      <use x="339.599609" xlink:href="#DejaVuSans-6e"/>
      <use x="402.978516" xlink:href="#DejaVuSans-20"/>
      <use x="434.765625" xlink:href="#DejaVuSans-28"/>
      <use x="473.779297" xlink:href="#DejaVuSans-30"/>
      <use x="537.402344" xlink:href="#DejaVuSans-2e"/>
      <use x="569.189453" xlink:href="#DejaVuSans-38"/>
      <use x="632.8125" xlink:href="#DejaVuSans-36"/>
      <use x="696.435547" xlink:href="#DejaVuSans-37"/>
      <use x="760.058594" xlink:href="#DejaVuSans-29"/>
     </g>
    </g>
    <g id="line2d_41">
     <path d="M 411.219 178.4375 
L 431.219 178.4375 
" style="fill:none;stroke:#9467bd;stroke-linecap:square;stroke-width:1.5;"/>
    </g>
    <g id="line2d_42"/>
    <g id="text_26">
     <!-- MinCall (0.862) -->
     <g transform="translate(439.219 181.9375)scale(0.1 -0.1)">
      <use xlink:href="#DejaVuSans-4d"/>
      <use x="86.279297" xlink:href="#DejaVuSans-69"/>
      <use x="114.0625" xlink:href="#DejaVuSans-6e"/>
      <use x="177.441406" xlink:href="#DejaVuSans-43"/>
      <use x="247.265625" xlink:href="#DejaVuSans-61"/>
      <use x="308.544922" xlink:href="#DejaVuSans-6c"/>
      <use x="336.328125" xlink:href="#DejaVuSans-6c"/>
      <use x="364.111328" xlink:href="#DejaVuSans-20"/>
      <use x="395.898438" xlink:href="#DejaVuSans-28"/>
      <use x="434.912109" xlink:href="#DejaVuSans-30"/>
      <use x="498.535156" xlink:href="#DejaVuSans-2e"/>
      <use x="530.322266" xlink:href="#DejaVuSans-38"/>
      <use x="593.945312" xlink:href="#DejaVuSans-36"/>
      <use x="657.568359" xlink:href="#DejaVuSans-32"/>
      <use x="721.191406" xlink:href="#DejaVuSans-29"/>
     </g>
    </g>
    <g id="line2d_43">
     <path d="M 411.219 193.115625 
L 431.219 193.115625 
" style="fill:none;stroke:#8c564b;stroke-linecap:square;stroke-width:1.5;"/>
    </g>
    <g id="line2d_44"/>
    <g id="text_27">
     <!-- SACall (0.886) -->
     <g transform="translate(439.219 196.615625)scale(0.1 -0.1)">
      <defs>
       <path d="M 3425 4513 
L 3425 3897 
Q 3066 4069 2747 4153 
Q 2428 4238 2131 4238 
Q 1616 4238 1336 4038 
Q 1056 3838 1056 3469 
Q 1056 3159 1242 3001 
Q 1428 2844 1947 2747 
L 2328 2669 
Q 3034 2534 3370 2195 
Q 3706 1856 3706 1288 
Q 3706 609 3251 259 
Q 2797 -91 1919 -91 
Q 1588 -91 1214 -16 
Q 841 59 441 206 
L 441 856 
Q 825 641 1194 531 
Q 1563 422 1919 422 
Q 2459 422 2753 634 
Q 3047 847 3047 1241 
Q 3047 1584 2836 1778 
Q 2625 1972 2144 2069 
L 1759 2144 
Q 1053 2284 737 2584 
Q 422 2884 422 3419 
Q 422 4038 858 4394 
Q 1294 4750 2059 4750 
Q 2388 4750 2728 4690 
Q 3069 4631 3425 4513 
z
" id="DejaVuSans-53" transform="scale(0.015625)"/>
      </defs>
      <use xlink:href="#DejaVuSans-53"/>
      <use x="65.351562" xlink:href="#DejaVuSans-41"/>
      <use x="132.009766" xlink:href="#DejaVuSans-43"/>
      <use x="201.833984" xlink:href="#DejaVuSans-61"/>
      <use x="263.113281" xlink:href="#DejaVuSans-6c"/>
      <use x="290.896484" xlink:href="#DejaVuSans-6c"/>
      <use x="318.679688" xlink:href="#DejaVuSans-20"/>
      <use x="350.466797" xlink:href="#DejaVuSans-28"/>
      <use x="389.480469" xlink:href="#DejaVuSans-30"/>
      <use x="453.103516" xlink:href="#DejaVuSans-2e"/>
      <use x="484.890625" xlink:href="#DejaVuSans-38"/>
      <use x="548.513672" xlink:href="#DejaVuSans-38"/>
      <use x="612.136719" xlink:href="#DejaVuSans-36"/>
      <use x="675.759766" xlink:href="#DejaVuSans-29"/>
     </g>
    </g>
    <g id="line2d_45">
     <path d="M 411.219 207.79375 
L 431.219 207.79375 
" style="fill:none;stroke:#e377c2;stroke-linecap:square;stroke-width:1.5;"/>
    </g>
    <g id="line2d_46"/>
    <g id="text_28">
     <!-- URNano (0.879) -->
     <g transform="translate(439.219 211.29375)scale(0.1 -0.1)">
      <defs>
       <path d="M 556 4666 
L 1191 4666 
L 1191 1831 
Q 1191 1081 1462 751 
Q 1734 422 2344 422 
Q 2950 422 3222 751 
Q 3494 1081 3494 1831 
L 3494 4666 
L 4128 4666 
L 4128 1753 
Q 4128 841 3676 375 
Q 3225 -91 2344 -91 
Q 1459 -91 1007 375 
Q 556 841 556 1753 
L 556 4666 
z
" id="DejaVuSans-55" transform="scale(0.015625)"/>
       <path d="M 2841 2188 
Q 3044 2119 3236 1894 
Q 3428 1669 3622 1275 
L 4263 0 
L 3584 0 
L 2988 1197 
Q 2756 1666 2539 1819 
Q 2322 1972 1947 1972 
L 1259 1972 
L 1259 0 
L 628 0 
L 628 4666 
L 2053 4666 
Q 2853 4666 3247 4331 
Q 3641 3997 3641 3322 
Q 3641 2881 3436 2590 
Q 3231 2300 2841 2188 
z
M 1259 4147 
L 1259 2491 
L 2053 2491 
Q 2509 2491 2742 2702 
Q 2975 2913 2975 3322 
Q 2975 3731 2742 3939 
Q 2509 4147 2053 4147 
L 1259 4147 
z
" id="DejaVuSans-52" transform="scale(0.015625)"/>
       <path d="M 628 4666 
L 1478 4666 
L 3547 763 
L 3547 4666 
L 4159 4666 
L 4159 0 
L 3309 0 
L 1241 3903 
L 1241 0 
L 628 0 
L 628 4666 
z
" id="DejaVuSans-4e" transform="scale(0.015625)"/>
      </defs>
      <use xlink:href="#DejaVuSans-55"/>
      <use x="73.193359" xlink:href="#DejaVuSans-52"/>
      <use x="142.675781" xlink:href="#DejaVuSans-4e"/>
      <use x="217.480469" xlink:href="#DejaVuSans-61"/>
      <use x="278.759766" xlink:href="#DejaVuSans-6e"/>
      <use x="342.138672" xlink:href="#DejaVuSans-6f"/>
      <use x="403.320312" xlink:href="#DejaVuSans-20"/>
      <use x="435.107422" xlink:href="#DejaVuSans-28"/>
      <use x="474.121094" xlink:href="#DejaVuSans-30"/>
      <use x="537.744141" xlink:href="#DejaVuSans-2e"/>
      <use x="569.53125" xlink:href="#DejaVuSans-38"/>
      <use x="633.154297" xlink:href="#DejaVuSans-37"/>
      <use x="696.777344" xlink:href="#DejaVuSans-39"/>
      <use x="760.400391" xlink:href="#DejaVuSans-29"/>
     </g>
    </g>
   </g>
  </g>
 </g>
 <defs>
  <clipPath id="pcb96e61ed0">
   <rect height="307.4" width="288.995" x="60.425" y="10.8"/>
  </clipPath>
 </defs>
</svg>
