<?xml version="1.0" encoding="utf-8" standalone="no"?>
<!DOCTYPE svg PUBLIC "-//W3C//DTD SVG 1.1//EN"
  "http://www.w3.org/Graphics/SVG/1.1/DTD/svg11.dtd">
<svg height="360pt" version="1.1" viewBox="0 0 576 360" width="576pt" xmlns="http://www.w3.org/2000/svg" xmlns:xlink="http://www.w3.org/1999/xlink">
 <metadata>
  <rdf:RDF xmlns:cc="http://creativecommons.org/ns#" xmlns:dc="http://purl.org/dc/elements/1.1/" xmlns:rdf="http://www.w3.org/1999/02/22-rdf-syntax-ns#">
   <cc:Work>
    <dc:type rdf:resource="http://purl.org/dc/dcmitype/StillImage"/>
    <dc:date>2022-02-02T12:50:05.846426</dc:date>
    <dc:format>image/svg+xml</dc:format>
    <dc:creator>
     <cc:Agent>
      <dc:title>Matplotlib v3.4.2, https://matplotlib.org/</dc:title>
     </cc:Agent>
    </dc:creator>
   </cc:Work>
  </rdf:RDF>
 </metadata>
 <defs>
  <style type="text/css">*{stroke-linecap:butt;stroke-linejoin:round;}</style>
 </defs>
 <g id="figure_1">
  <g id="patch_1">
   <path d="M 0 360 
L 576 360 
L 576 0 
L 0 0 
z
" style="fill:none;"/>
  </g>
  <g id="axes_1">
   <g id="patch_2">
    <path d="M 54.05 318.2 
L 349.42 318.2 
L 349.42 13.118124 
L 54.05 13.118124 
z
" style="fill:none;"/>
   </g>
   <g id="matplotlib.axis_1">
    <g id="xtick_1">
     <g id="line2d_1">
      <defs>
       <path d="M 0 0 
L 0 3.5 
" id="m7999440fde" style="stroke:#000000;stroke-width:0.8;"/>
      </defs>
      <g>
       <use style="stroke:#000000;stroke-width:0.8;" x="67.418533" xlink:href="#m7999440fde" y="318.2"/>
      </g>
     </g>
     <g id="text_1">
      <!-- 0.0 -->
      <g transform="translate(59.466971 332.798438)scale(0.1 -0.1)">
       <defs>
        <path d="M 2034 4250 
Q 1547 4250 1301 3770 
Q 1056 3291 1056 2328 
Q 1056 1369 1301 889 
Q 1547 409 2034 409 
Q 2525 409 2770 889 
Q 3016 1369 3016 2328 
Q 3016 3291 2770 3770 
Q 2525 4250 2034 4250 
z
M 2034 4750 
Q 2819 4750 3233 4129 
Q 3647 3509 3647 2328 
Q 3647 1150 3233 529 
Q 2819 -91 2034 -91 
Q 1250 -91 836 529 
Q 422 1150 422 2328 
Q 422 3509 836 4129 
Q 1250 4750 2034 4750 
z
" id="DejaVuSans-30" transform="scale(0.015625)"/>
        <path d="M 684 794 
L 1344 794 
L 1344 0 
L 684 0 
L 684 794 
z
" id="DejaVuSans-2e" transform="scale(0.015625)"/>
       </defs>
       <use xlink:href="#DejaVuSans-30"/>
       <use x="63.623047" xlink:href="#DejaVuSans-2e"/>
       <use x="95.410156" xlink:href="#DejaVuSans-30"/>
      </g>
     </g>
    </g>
    <g id="xtick_2">
     <g id="line2d_2">
      <g>
       <use style="stroke:#000000;stroke-width:0.8;" x="121.133645" xlink:href="#m7999440fde" y="318.2"/>
      </g>
     </g>
     <g id="text_2">
      <!-- 0.2 -->
      <g transform="translate(113.182082 332.798438)scale(0.1 -0.1)">
       <defs>
        <path d="M 1228 531 
L 3431 531 
L 3431 0 
L 469 0 
L 469 531 
Q 828 903 1448 1529 
Q 2069 2156 2228 2338 
Q 2531 2678 2651 2914 
Q 2772 3150 2772 3378 
Q 2772 3750 2511 3984 
Q 2250 4219 1831 4219 
Q 1534 4219 1204 4116 
Q 875 4013 500 3803 
L 500 4441 
Q 881 4594 1212 4672 
Q 1544 4750 1819 4750 
Q 2544 4750 2975 4387 
Q 3406 4025 3406 3419 
Q 3406 3131 3298 2873 
Q 3191 2616 2906 2266 
Q 2828 2175 2409 1742 
Q 1991 1309 1228 531 
z
" id="DejaVuSans-32" transform="scale(0.015625)"/>
       </defs>
       <use xlink:href="#DejaVuSans-30"/>
       <use x="63.623047" xlink:href="#DejaVuSans-2e"/>
       <use x="95.410156" xlink:href="#DejaVuSans-32"/>
      </g>
     </g>
    </g>
    <g id="xtick_3">
     <g id="line2d_3">
      <g>
       <use style="stroke:#000000;stroke-width:0.8;" x="174.848756" xlink:href="#m7999440fde" y="318.2"/>
      </g>
     </g>
     <g id="text_3">
      <!-- 0.4 -->
      <g transform="translate(166.897194 332.798438)scale(0.1 -0.1)">
       <defs>
        <path d="M 2419 4116 
L 825 1625 
L 2419 1625 
L 2419 4116 
z
M 2253 4666 
L 3047 4666 
L 3047 1625 
L 3713 1625 
L 3713 1100 
L 3047 1100 
L 3047 0 
L 2419 0 
L 2419 1100 
L 313 1100 
L 313 1709 
L 2253 4666 
z
" id="DejaVuSans-34" transform="scale(0.015625)"/>
       </defs>
       <use xlink:href="#DejaVuSans-30"/>
       <use x="63.623047" xlink:href="#DejaVuSans-2e"/>
       <use x="95.410156" xlink:href="#DejaVuSans-34"/>
      </g>
     </g>
    </g>
    <g id="xtick_4">
     <g id="line2d_4">
      <g>
       <use style="stroke:#000000;stroke-width:0.8;" x="228.563868" xlink:href="#m7999440fde" y="318.2"/>
      </g>
     </g>
     <g id="text_4">
      <!-- 0.6 -->
      <g transform="translate(220.612305 332.798438)scale(0.1 -0.1)">
       <defs>
        <path d="M 2113 2584 
Q 1688 2584 1439 2293 
Q 1191 2003 1191 1497 
Q 1191 994 1439 701 
Q 1688 409 2113 409 
Q 2538 409 2786 701 
Q 3034 994 3034 1497 
Q 3034 2003 2786 2293 
Q 2538 2584 2113 2584 
z
M 3366 4563 
L 3366 3988 
Q 3128 4100 2886 4159 
Q 2644 4219 2406 4219 
Q 1781 4219 1451 3797 
Q 1122 3375 1075 2522 
Q 1259 2794 1537 2939 
Q 1816 3084 2150 3084 
Q 2853 3084 3261 2657 
Q 3669 2231 3669 1497 
Q 3669 778 3244 343 
Q 2819 -91 2113 -91 
Q 1303 -91 875 529 
Q 447 1150 447 2328 
Q 447 3434 972 4092 
Q 1497 4750 2381 4750 
Q 2619 4750 2861 4703 
Q 3103 4656 3366 4563 
z
" id="DejaVuSans-36" transform="scale(0.015625)"/>
       </defs>
       <use xlink:href="#DejaVuSans-30"/>
       <use x="63.623047" xlink:href="#DejaVuSans-2e"/>
       <use x="95.410156" xlink:href="#DejaVuSans-36"/>
      </g>
     </g>
    </g>
    <g id="xtick_5">
     <g id="line2d_5">
      <g>
       <use style="stroke:#000000;stroke-width:0.8;" x="282.278979" xlink:href="#m7999440fde" y="318.2"/>
      </g>
     </g>
     <g id="text_5">
      <!-- 0.8 -->
      <g transform="translate(274.327417 332.798438)scale(0.1 -0.1)">
       <defs>
        <path d="M 2034 2216 
Q 1584 2216 1326 1975 
Q 1069 1734 1069 1313 
Q 1069 891 1326 650 
Q 1584 409 2034 409 
Q 2484 409 2743 651 
Q 3003 894 3003 1313 
Q 3003 1734 2745 1975 
Q 2488 2216 2034 2216 
z
M 1403 2484 
Q 997 2584 770 2862 
Q 544 3141 544 3541 
Q 544 4100 942 4425 
Q 1341 4750 2034 4750 
Q 2731 4750 3128 4425 
Q 3525 4100 3525 3541 
Q 3525 3141 3298 2862 
Q 3072 2584 2669 2484 
Q 3125 2378 3379 2068 
Q 3634 1759 3634 1313 
Q 3634 634 3220 271 
Q 2806 -91 2034 -91 
Q 1263 -91 848 271 
Q 434 634 434 1313 
Q 434 1759 690 2068 
Q 947 2378 1403 2484 
z
M 1172 3481 
Q 1172 3119 1398 2916 
Q 1625 2713 2034 2713 
Q 2441 2713 2670 2916 
Q 2900 3119 2900 3481 
Q 2900 3844 2670 4047 
Q 2441 4250 2034 4250 
Q 1625 4250 1398 4047 
Q 1172 3844 1172 3481 
z
" id="DejaVuSans-38" transform="scale(0.015625)"/>
       </defs>
       <use xlink:href="#DejaVuSans-30"/>
       <use x="63.623047" xlink:href="#DejaVuSans-2e"/>
       <use x="95.410156" xlink:href="#DejaVuSans-38"/>
      </g>
     </g>
    </g>
    <g id="xtick_6">
     <g id="line2d_6">
      <g>
       <use style="stroke:#000000;stroke-width:0.8;" x="335.994091" xlink:href="#m7999440fde" y="318.2"/>
      </g>
     </g>
     <g id="text_6">
      <!-- 1.0 -->
      <g transform="translate(328.042528 332.798438)scale(0.1 -0.1)">
       <defs>
        <path d="M 794 531 
L 1825 531 
L 1825 4091 
L 703 3866 
L 703 4441 
L 1819 4666 
L 2450 4666 
L 2450 531 
L 3481 531 
L 3481 0 
L 794 0 
L 794 531 
z
" id="DejaVuSans-31" transform="scale(0.015625)"/>
       </defs>
       <use xlink:href="#DejaVuSans-31"/>
       <use x="63.623047" xlink:href="#DejaVuSans-2e"/>
       <use x="95.410156" xlink:href="#DejaVuSans-30"/>
      </g>
     </g>
    </g>
    <g id="text_7">
     <!-- Fraction of reads -->
     <g transform="translate(159.915469 346.476562)scale(0.1 -0.1)">
      <defs>
       <path d="M 628 4666 
L 3309 4666 
L 3309 4134 
L 1259 4134 
L 1259 2759 
L 3109 2759 
L 3109 2228 
L 1259 2228 
L 1259 0 
L 628 0 
L 628 4666 
z
" id="DejaVuSans-46" transform="scale(0.015625)"/>
       <path d="M 2631 2963 
Q 2534 3019 2420 3045 
Q 2306 3072 2169 3072 
Q 1681 3072 1420 2755 
Q 1159 2438 1159 1844 
L 1159 0 
L 581 0 
L 581 3500 
L 1159 3500 
L 1159 2956 
Q 1341 3275 1631 3429 
Q 1922 3584 2338 3584 
Q 2397 3584 2469 3576 
Q 2541 3569 2628 3553 
L 2631 2963 
z
" id="DejaVuSans-72" transform="scale(0.015625)"/>
       <path d="M 2194 1759 
Q 1497 1759 1228 1600 
Q 959 1441 959 1056 
Q 959 750 1161 570 
Q 1363 391 1709 391 
Q 2188 391 2477 730 
Q 2766 1069 2766 1631 
L 2766 1759 
L 2194 1759 
z
M 3341 1997 
L 3341 0 
L 2766 0 
L 2766 531 
Q 2569 213 2275 61 
Q 1981 -91 1556 -91 
Q 1019 -91 701 211 
Q 384 513 384 1019 
Q 384 1609 779 1909 
Q 1175 2209 1959 2209 
L 2766 2209 
L 2766 2266 
Q 2766 2663 2505 2880 
Q 2244 3097 1772 3097 
Q 1472 3097 1187 3025 
Q 903 2953 641 2809 
L 641 3341 
Q 956 3463 1253 3523 
Q 1550 3584 1831 3584 
Q 2591 3584 2966 3190 
Q 3341 2797 3341 1997 
z
" id="DejaVuSans-61" transform="scale(0.015625)"/>
       <path d="M 3122 3366 
L 3122 2828 
Q 2878 2963 2633 3030 
Q 2388 3097 2138 3097 
Q 1578 3097 1268 2742 
Q 959 2388 959 1747 
Q 959 1106 1268 751 
Q 1578 397 2138 397 
Q 2388 397 2633 464 
Q 2878 531 3122 666 
L 3122 134 
Q 2881 22 2623 -34 
Q 2366 -91 2075 -91 
Q 1284 -91 818 406 
Q 353 903 353 1747 
Q 353 2603 823 3093 
Q 1294 3584 2113 3584 
Q 2378 3584 2631 3529 
Q 2884 3475 3122 3366 
z
" id="DejaVuSans-63" transform="scale(0.015625)"/>
       <path d="M 1172 4494 
L 1172 3500 
L 2356 3500 
L 2356 3053 
L 1172 3053 
L 1172 1153 
Q 1172 725 1289 603 
Q 1406 481 1766 481 
L 2356 481 
L 2356 0 
L 1766 0 
Q 1100 0 847 248 
Q 594 497 594 1153 
L 594 3053 
L 172 3053 
L 172 3500 
L 594 3500 
L 594 4494 
L 1172 4494 
z
" id="DejaVuSans-74" transform="scale(0.015625)"/>
       <path d="M 603 3500 
L 1178 3500 
L 1178 0 
L 603 0 
L 603 3500 
z
M 603 4863 
L 1178 4863 
L 1178 4134 
L 603 4134 
L 603 4863 
z
" id="DejaVuSans-69" transform="scale(0.015625)"/>
       <path d="M 1959 3097 
Q 1497 3097 1228 2736 
Q 959 2375 959 1747 
Q 959 1119 1226 758 
Q 1494 397 1959 397 
Q 2419 397 2687 759 
Q 2956 1122 2956 1747 
Q 2956 2369 2687 2733 
Q 2419 3097 1959 3097 
z
M 1959 3584 
Q 2709 3584 3137 3096 
Q 3566 2609 3566 1747 
Q 3566 888 3137 398 
Q 2709 -91 1959 -91 
Q 1206 -91 779 398 
Q 353 888 353 1747 
Q 353 2609 779 3096 
Q 1206 3584 1959 3584 
z
" id="DejaVuSans-6f" transform="scale(0.015625)"/>
       <path d="M 3513 2113 
L 3513 0 
L 2938 0 
L 2938 2094 
Q 2938 2591 2744 2837 
Q 2550 3084 2163 3084 
Q 1697 3084 1428 2787 
Q 1159 2491 1159 1978 
L 1159 0 
L 581 0 
L 581 3500 
L 1159 3500 
L 1159 2956 
Q 1366 3272 1645 3428 
Q 1925 3584 2291 3584 
Q 2894 3584 3203 3211 
Q 3513 2838 3513 2113 
z
" id="DejaVuSans-6e" transform="scale(0.015625)"/>
       <path id="DejaVuSans-20" transform="scale(0.015625)"/>
       <path d="M 2375 4863 
L 2375 4384 
L 1825 4384 
Q 1516 4384 1395 4259 
Q 1275 4134 1275 3809 
L 1275 3500 
L 2222 3500 
L 2222 3053 
L 1275 3053 
L 1275 0 
L 697 0 
L 697 3053 
L 147 3053 
L 147 3500 
L 697 3500 
L 697 3744 
Q 697 4328 969 4595 
Q 1241 4863 1831 4863 
L 2375 4863 
z
" id="DejaVuSans-66" transform="scale(0.015625)"/>
       <path d="M 3597 1894 
L 3597 1613 
L 953 1613 
Q 991 1019 1311 708 
Q 1631 397 2203 397 
Q 2534 397 2845 478 
Q 3156 559 3463 722 
L 3463 178 
Q 3153 47 2828 -22 
Q 2503 -91 2169 -91 
Q 1331 -91 842 396 
Q 353 884 353 1716 
Q 353 2575 817 3079 
Q 1281 3584 2069 3584 
Q 2775 3584 3186 3129 
Q 3597 2675 3597 1894 
z
M 3022 2063 
Q 3016 2534 2758 2815 
Q 2500 3097 2075 3097 
Q 1594 3097 1305 2825 
Q 1016 2553 972 2059 
L 3022 2063 
z
" id="DejaVuSans-65" transform="scale(0.015625)"/>
       <path d="M 2906 2969 
L 2906 4863 
L 3481 4863 
L 3481 0 
L 2906 0 
L 2906 525 
Q 2725 213 2448 61 
Q 2172 -91 1784 -91 
Q 1150 -91 751 415 
Q 353 922 353 1747 
Q 353 2572 751 3078 
Q 1150 3584 1784 3584 
Q 2172 3584 2448 3432 
Q 2725 3281 2906 2969 
z
M 947 1747 
Q 947 1113 1208 752 
Q 1469 391 1925 391 
Q 2381 391 2643 752 
Q 2906 1113 2906 1747 
Q 2906 2381 2643 2742 
Q 2381 3103 1925 3103 
Q 1469 3103 1208 2742 
Q 947 2381 947 1747 
z
" id="DejaVuSans-64" transform="scale(0.015625)"/>
       <path d="M 2834 3397 
L 2834 2853 
Q 2591 2978 2328 3040 
Q 2066 3103 1784 3103 
Q 1356 3103 1142 2972 
Q 928 2841 928 2578 
Q 928 2378 1081 2264 
Q 1234 2150 1697 2047 
L 1894 2003 
Q 2506 1872 2764 1633 
Q 3022 1394 3022 966 
Q 3022 478 2636 193 
Q 2250 -91 1575 -91 
Q 1294 -91 989 -36 
Q 684 19 347 128 
L 347 722 
Q 666 556 975 473 
Q 1284 391 1588 391 
Q 1994 391 2212 530 
Q 2431 669 2431 922 
Q 2431 1156 2273 1281 
Q 2116 1406 1581 1522 
L 1381 1569 
Q 847 1681 609 1914 
Q 372 2147 372 2553 
Q 372 3047 722 3315 
Q 1072 3584 1716 3584 
Q 2034 3584 2315 3537 
Q 2597 3491 2834 3397 
z
" id="DejaVuSans-73" transform="scale(0.015625)"/>
      </defs>
      <use xlink:href="#DejaVuSans-46"/>
      <use x="50.269531" xlink:href="#DejaVuSans-72"/>
      <use x="91.382812" xlink:href="#DejaVuSans-61"/>
      <use x="152.662109" xlink:href="#DejaVuSans-63"/>
      <use x="207.642578" xlink:href="#DejaVuSans-74"/>
      <use x="246.851562" xlink:href="#DejaVuSans-69"/>
      <use x="274.634766" xlink:href="#DejaVuSans-6f"/>
      <use x="335.816406" xlink:href="#DejaVuSans-6e"/>
      <use x="399.195312" xlink:href="#DejaVuSans-20"/>
      <use x="430.982422" xlink:href="#DejaVuSans-6f"/>
      <use x="492.164062" xlink:href="#DejaVuSans-66"/>
      <use x="527.369141" xlink:href="#DejaVuSans-20"/>
      <use x="559.15625" xlink:href="#DejaVuSans-72"/>
      <use x="598.019531" xlink:href="#DejaVuSans-65"/>
      <use x="659.542969" xlink:href="#DejaVuSans-61"/>
      <use x="720.822266" xlink:href="#DejaVuSans-64"/>
      <use x="784.298828" xlink:href="#DejaVuSans-73"/>
     </g>
    </g>
   </g>
   <g id="matplotlib.axis_2">
    <g id="ytick_1">
     <g id="line2d_7">
      <defs>
       <path d="M 0 0 
L -3.5 0 
" id="m90a37541ab" style="stroke:#000000;stroke-width:0.8;"/>
      </defs>
      <g>
       <use style="stroke:#000000;stroke-width:0.8;" x="54.05" xlink:href="#m90a37541ab" y="310.286047"/>
      </g>
     </g>
     <g id="text_8">
      <!-- 0.55 -->
      <g transform="translate(24.784375 314.085266)scale(0.1 -0.1)">
       <defs>
        <path d="M 691 4666 
L 3169 4666 
L 3169 4134 
L 1269 4134 
L 1269 2991 
Q 1406 3038 1543 3061 
Q 1681 3084 1819 3084 
Q 2600 3084 3056 2656 
Q 3513 2228 3513 1497 
Q 3513 744 3044 326 
Q 2575 -91 1722 -91 
Q 1428 -91 1123 -41 
Q 819 9 494 109 
L 494 744 
Q 775 591 1075 516 
Q 1375 441 1709 441 
Q 2250 441 2565 725 
Q 2881 1009 2881 1497 
Q 2881 1984 2565 2268 
Q 2250 2553 1709 2553 
Q 1456 2553 1204 2497 
Q 953 2441 691 2322 
L 691 4666 
z
" id="DejaVuSans-35" transform="scale(0.015625)"/>
       </defs>
       <use xlink:href="#DejaVuSans-30"/>
       <use x="63.623047" xlink:href="#DejaVuSans-2e"/>
       <use x="95.410156" xlink:href="#DejaVuSans-35"/>
       <use x="159.033203" xlink:href="#DejaVuSans-35"/>
      </g>
     </g>
    </g>
    <g id="ytick_2">
     <g id="line2d_8">
      <g>
       <use style="stroke:#000000;stroke-width:0.8;" x="54.05" xlink:href="#m90a37541ab" y="268.103175"/>
      </g>
     </g>
     <g id="text_9">
      <!-- 0.60 -->
      <g transform="translate(24.784375 271.902394)scale(0.1 -0.1)">
       <use xlink:href="#DejaVuSans-30"/>
       <use x="63.623047" xlink:href="#DejaVuSans-2e"/>
       <use x="95.410156" xlink:href="#DejaVuSans-36"/>
       <use x="159.033203" xlink:href="#DejaVuSans-30"/>
      </g>
     </g>
    </g>
    <g id="ytick_3">
     <g id="line2d_9">
      <g>
       <use style="stroke:#000000;stroke-width:0.8;" x="54.05" xlink:href="#m90a37541ab" y="225.920304"/>
      </g>
     </g>
     <g id="text_10">
      <!-- 0.65 -->
      <g transform="translate(24.784375 229.719523)scale(0.1 -0.1)">
       <use xlink:href="#DejaVuSans-30"/>
       <use x="63.623047" xlink:href="#DejaVuSans-2e"/>
       <use x="95.410156" xlink:href="#DejaVuSans-36"/>
       <use x="159.033203" xlink:href="#DejaVuSans-35"/>
      </g>
     </g>
    </g>
    <g id="ytick_4">
     <g id="line2d_10">
      <g>
       <use style="stroke:#000000;stroke-width:0.8;" x="54.05" xlink:href="#m90a37541ab" y="183.737432"/>
      </g>
     </g>
     <g id="text_11">
      <!-- 0.70 -->
      <g transform="translate(24.784375 187.536651)scale(0.1 -0.1)">
       <defs>
        <path d="M 525 4666 
L 3525 4666 
L 3525 4397 
L 1831 0 
L 1172 0 
L 2766 4134 
L 525 4134 
L 525 4666 
z
" id="DejaVuSans-37" transform="scale(0.015625)"/>
       </defs>
       <use xlink:href="#DejaVuSans-30"/>
       <use x="63.623047" xlink:href="#DejaVuSans-2e"/>
       <use x="95.410156" xlink:href="#DejaVuSans-37"/>
       <use x="159.033203" xlink:href="#DejaVuSans-30"/>
      </g>
     </g>
    </g>
    <g id="ytick_5">
     <g id="line2d_11">
      <g>
       <use style="stroke:#000000;stroke-width:0.8;" x="54.05" xlink:href="#m90a37541ab" y="141.55456"/>
      </g>
     </g>
     <g id="text_12">
      <!-- 0.75 -->
      <g transform="translate(24.784375 145.353779)scale(0.1 -0.1)">
       <use xlink:href="#DejaVuSans-30"/>
       <use x="63.623047" xlink:href="#DejaVuSans-2e"/>
       <use x="95.410156" xlink:href="#DejaVuSans-37"/>
       <use x="159.033203" xlink:href="#DejaVuSans-35"/>
      </g>
     </g>
    </g>
    <g id="ytick_6">
     <g id="line2d_12">
      <g>
       <use style="stroke:#000000;stroke-width:0.8;" x="54.05" xlink:href="#m90a37541ab" y="99.371689"/>
      </g>
     </g>
     <g id="text_13">
      <!-- 0.80 -->
      <g transform="translate(24.784375 103.170908)scale(0.1 -0.1)">
       <use xlink:href="#DejaVuSans-30"/>
       <use x="63.623047" xlink:href="#DejaVuSans-2e"/>
       <use x="95.410156" xlink:href="#DejaVuSans-38"/>
       <use x="159.033203" xlink:href="#DejaVuSans-30"/>
      </g>
     </g>
    </g>
    <g id="ytick_7">
     <g id="line2d_13">
      <g>
       <use style="stroke:#000000;stroke-width:0.8;" x="54.05" xlink:href="#m90a37541ab" y="57.188817"/>
      </g>
     </g>
     <g id="text_14">
      <!-- 0.85 -->
      <g transform="translate(24.784375 60.988036)scale(0.1 -0.1)">
       <use xlink:href="#DejaVuSans-30"/>
       <use x="63.623047" xlink:href="#DejaVuSans-2e"/>
       <use x="95.410156" xlink:href="#DejaVuSans-38"/>
       <use x="159.033203" xlink:href="#DejaVuSans-35"/>
      </g>
     </g>
    </g>
    <g id="ytick_8">
     <g id="line2d_14">
      <g>
       <use style="stroke:#000000;stroke-width:0.8;" x="54.05" xlink:href="#m90a37541ab" y="15.005945"/>
      </g>
     </g>
     <g id="text_15">
      <!-- 0.90 -->
      <g transform="translate(24.784375 18.805164)scale(0.1 -0.1)">
       <defs>
        <path d="M 703 97 
L 703 672 
Q 941 559 1184 500 
Q 1428 441 1663 441 
Q 2288 441 2617 861 
Q 2947 1281 2994 2138 
Q 2813 1869 2534 1725 
Q 2256 1581 1919 1581 
Q 1219 1581 811 2004 
Q 403 2428 403 3163 
Q 403 3881 828 4315 
Q 1253 4750 1959 4750 
Q 2769 4750 3195 4129 
Q 3622 3509 3622 2328 
Q 3622 1225 3098 567 
Q 2575 -91 1691 -91 
Q 1453 -91 1209 -44 
Q 966 3 703 97 
z
M 1959 2075 
Q 2384 2075 2632 2365 
Q 2881 2656 2881 3163 
Q 2881 3666 2632 3958 
Q 2384 4250 1959 4250 
Q 1534 4250 1286 3958 
Q 1038 3666 1038 3163 
Q 1038 2656 1286 2365 
Q 1534 2075 1959 2075 
z
" id="DejaVuSans-39" transform="scale(0.015625)"/>
       </defs>
       <use xlink:href="#DejaVuSans-30"/>
       <use x="63.623047" xlink:href="#DejaVuSans-2e"/>
       <use x="95.410156" xlink:href="#DejaVuSans-39"/>
       <use x="159.033203" xlink:href="#DejaVuSans-30"/>
      </g>
     </g>
    </g>
    <g id="text_16">
     <!-- Average match rate -->
     <g transform="translate(18.704688 215.33875)rotate(-90)scale(0.1 -0.1)">
      <defs>
       <path d="M 2188 4044 
L 1331 1722 
L 3047 1722 
L 2188 4044 
z
M 1831 4666 
L 2547 4666 
L 4325 0 
L 3669 0 
L 3244 1197 
L 1141 1197 
L 716 0 
L 50 0 
L 1831 4666 
z
" id="DejaVuSans-41" transform="scale(0.015625)"/>
       <path d="M 191 3500 
L 800 3500 
L 1894 563 
L 2988 3500 
L 3597 3500 
L 2284 0 
L 1503 0 
L 191 3500 
z
" id="DejaVuSans-76" transform="scale(0.015625)"/>
       <path d="M 2906 1791 
Q 2906 2416 2648 2759 
Q 2391 3103 1925 3103 
Q 1463 3103 1205 2759 
Q 947 2416 947 1791 
Q 947 1169 1205 825 
Q 1463 481 1925 481 
Q 2391 481 2648 825 
Q 2906 1169 2906 1791 
z
M 3481 434 
Q 3481 -459 3084 -895 
Q 2688 -1331 1869 -1331 
Q 1566 -1331 1297 -1286 
Q 1028 -1241 775 -1147 
L 775 -588 
Q 1028 -725 1275 -790 
Q 1522 -856 1778 -856 
Q 2344 -856 2625 -561 
Q 2906 -266 2906 331 
L 2906 616 
Q 2728 306 2450 153 
Q 2172 0 1784 0 
Q 1141 0 747 490 
Q 353 981 353 1791 
Q 353 2603 747 3093 
Q 1141 3584 1784 3584 
Q 2172 3584 2450 3431 
Q 2728 3278 2906 2969 
L 2906 3500 
L 3481 3500 
L 3481 434 
z
" id="DejaVuSans-67" transform="scale(0.015625)"/>
       <path d="M 3328 2828 
Q 3544 3216 3844 3400 
Q 4144 3584 4550 3584 
Q 5097 3584 5394 3201 
Q 5691 2819 5691 2113 
L 5691 0 
L 5113 0 
L 5113 2094 
Q 5113 2597 4934 2840 
Q 4756 3084 4391 3084 
Q 3944 3084 3684 2787 
Q 3425 2491 3425 1978 
L 3425 0 
L 2847 0 
L 2847 2094 
Q 2847 2600 2669 2842 
Q 2491 3084 2119 3084 
Q 1678 3084 1418 2786 
Q 1159 2488 1159 1978 
L 1159 0 
L 581 0 
L 581 3500 
L 1159 3500 
L 1159 2956 
Q 1356 3278 1631 3431 
Q 1906 3584 2284 3584 
Q 2666 3584 2933 3390 
Q 3200 3197 3328 2828 
z
" id="DejaVuSans-6d" transform="scale(0.015625)"/>
       <path d="M 3513 2113 
L 3513 0 
L 2938 0 
L 2938 2094 
Q 2938 2591 2744 2837 
Q 2550 3084 2163 3084 
Q 1697 3084 1428 2787 
Q 1159 2491 1159 1978 
L 1159 0 
L 581 0 
L 581 4863 
L 1159 4863 
L 1159 2956 
Q 1366 3272 1645 3428 
Q 1925 3584 2291 3584 
Q 2894 3584 3203 3211 
Q 3513 2838 3513 2113 
z
" id="DejaVuSans-68" transform="scale(0.015625)"/>
      </defs>
      <use xlink:href="#DejaVuSans-41"/>
      <use x="62.533203" xlink:href="#DejaVuSans-76"/>
      <use x="121.712891" xlink:href="#DejaVuSans-65"/>
      <use x="183.236328" xlink:href="#DejaVuSans-72"/>
      <use x="224.349609" xlink:href="#DejaVuSans-61"/>
      <use x="285.628906" xlink:href="#DejaVuSans-67"/>
      <use x="349.105469" xlink:href="#DejaVuSans-65"/>
      <use x="410.628906" xlink:href="#DejaVuSans-20"/>
      <use x="442.416016" xlink:href="#DejaVuSans-6d"/>
      <use x="539.828125" xlink:href="#DejaVuSans-61"/>
      <use x="601.107422" xlink:href="#DejaVuSans-74"/>
      <use x="640.316406" xlink:href="#DejaVuSans-63"/>
      <use x="695.296875" xlink:href="#DejaVuSans-68"/>
      <use x="758.675781" xlink:href="#DejaVuSans-20"/>
      <use x="790.462891" xlink:href="#DejaVuSans-72"/>
      <use x="831.576172" xlink:href="#DejaVuSans-61"/>
      <use x="892.855469" xlink:href="#DejaVuSans-74"/>
      <use x="932.064453" xlink:href="#DejaVuSans-65"/>
     </g>
    </g>
   </g>
   <g id="line2d_15">
    <path clip-path="url(#pd591c4cac5)" d="M 335.994091 39.216205 
L 334.327507 38.764584 
L 333.216451 38.405425 
L 332.105395 38.007086 
L 328.772227 36.34043 
L 327.105643 35.769198 
L 323.772475 34.971268 
L 309.328748 32.403513 
L 297.66266 30.932304 
L 295.440548 30.656114 
L 293.773964 30.378445 
L 292.10738 30.185226 
L 290.440797 29.972003 
L 282.107877 29.267275 
L 279.330237 29.024994 
L 262.664397 27.869974 
L 258.775702 27.814791 
L 241.554334 27.040374 
L 233.776942 27.003867 
L 232.665887 27.098697 
L 207.111599 27.287161 
L 206.000543 27.409574 
L 204.33396 27.50996 
L 202.111848 27.58326 
L 201.000792 27.608256 
L 198.223152 27.662995 
L 195.445512 27.862348 
L 191.556816 27.905965 
L 188.223648 28.171016 
L 187.66812 28.039466 
L 185.446008 28.153854 
L 184.334952 28.157904 
L 178.779672 28.560911 
L 178.224144 28.656867 
L 177.668616 28.604633 
L 173.779921 29.01407 
L 169.335697 29.335163 
L 167.113585 29.351894 
L 164.335945 29.498444 
L 163.780417 29.301284 
L 162.669361 29.366069 
L 161.558305 29.469027 
L 160.447249 29.347103 
L 159.891721 29.449068 
L 158.780665 29.383552 
L 158.225137 29.542696 
L 157.669609 29.493575 
L 156.558553 29.648036 
L 154.336441 29.495758 
L 153.780913 29.44311 
L 153.225385 29.573853 
L 152.114329 29.547622 
L 150.447745 29.817862 
L 149.336689 30.005456 
L 148.781161 29.85938 
L 144.336938 30.551246 
L 143.78141 30.394446 
L 142.670354 30.355899 
L 141.559298 30.163345 
L 140.448242 30.27291 
L 139.337186 30.355446 
L 138.781658 30.532441 
L 136.559546 30.67531 
L 135.44849 30.99392 
L 134.337434 31.151653 
L 133.226378 31.336119 
L 132.115322 30.995223 
L 131.004266 31.023468 
L 130.448738 31.172353 
L 129.337682 31.265193 
L 127.671098 31.512098 
L 126.560042 31.404904 
L 124.893458 31.586645 
L 123.782402 31.548375 
L 122.671346 31.769959 
L 122.115818 31.785884 
L 121.004762 31.97372 
L 119.893706 31.998128 
L 118.78265 32.59603 
L 117.671595 32.435708 
L 117.116067 32.507576 
L 116.560539 32.34479 
L 116.005011 32.421596 
L 115.449483 32.290596 
L 114.338427 32.528257 
L 113.782899 32.585331 
L 112.671843 33.079721 
L 112.116315 33.189185 
L 111.560787 33.495161 
L 111.005259 33.443194 
L 110.449731 33.542149 
L 109.894203 33.918886 
L 109.338675 34.133077 
L 108.783147 34.067387 
L 108.227619 34.438642 
L 107.672091 34.399366 
L 106.561035 34.904141 
L 106.005507 34.99929 
L 105.449979 34.981136 
L 104.894451 35.180951 
L 104.338923 35.123018 
L 103.227867 35.381898 
L 102.116811 35.446422 
L 101.561283 36.029501 
L 101.005755 36.034696 
L 99.894699 36.498076 
L 98.783643 37.457795 
L 98.228115 37.812435 
L 97.117059 38.241083 
L 96.561531 38.207834 
L 96.006003 38.519778 
L 94.894947 39.881601 
L 93.783891 40.716675 
L 93.228363 40.559389 
L 92.672835 40.732447 
L 92.117307 40.722846 
L 91.006251 41.28215 
L 90.450723 41.213285 
L 89.339668 42.389959 
L 88.78414 42.720132 
L 88.228612 43.995315 
L 86.562028 45.718351 
L 86.0065 46.622869 
L 84.895444 47.720743 
L 84.339916 49.163974 
L 83.22886 51.245591 
L 82.673332 51.992778 
L 82.117804 52.939914 
L 81.006748 56.355205 
L 80.45122 56.558385 
L 79.340164 59.481551 
L 77.67358 65.998259 
L 77.118052 67.221372 
L 76.006996 73.026067 
L 75.451468 76.487322 
L 74.89594 78.75357 
L 74.340412 82.700425 
L 73.229356 92.488335 
L 72.673828 99.963398 
L 72.1183 102.134959 
L 71.007244 116.454767 
L 70.451716 122.329746 
L 69.896188 130.725151 
L 69.34066 136.894605 
L 68.229604 174.289913 
L 67.674076 209.829508 
L 67.674076 209.829508 
" style="fill:none;stroke:#1f77b4;stroke-linecap:square;stroke-width:1.5;"/>
   </g>
   <g id="line2d_16">
    <path clip-path="url(#pd591c4cac5)" d="M 335.994091 59.993816 
L 334.2913 58.848724 
L 330.885718 57.37836 
L 328.047733 56.545468 
L 326.344942 55.995359 
L 324.074554 55.326041 
L 318.398583 53.985467 
L 316.128195 53.428272 
L 311.019822 52.381386 
L 309.317031 52.096089 
L 307.046643 51.741377 
L 301.370673 50.717489 
L 298.532688 50.256008 
L 296.829897 49.956317 
L 282.072374 47.620558 
L 280.369583 47.474295 
L 278.099195 47.131619 
L 250.286941 43.685309 
L 248.016553 43.493863 
L 246.881359 43.378174 
L 244.610971 43.264446 
L 243.475777 43.095434 
L 240.637792 42.827439 
L 237.23221 42.405567 
L 234.961822 42.002339 
L 233.25903 41.704971 
L 230.421045 41.496826 
L 223.609881 40.836233 
L 222.474687 40.75761 
L 219.069105 40.472987 
L 218.501508 40.469988 
L 217.366314 40.281303 
L 211.690344 39.695779 
L 209.987553 39.558845 
L 208.852359 39.404709 
L 207.149568 39.067603 
L 206.014374 38.979939 
L 203.743985 38.689897 
L 201.473597 38.641402 
L 198.068015 38.152122 
L 196.932821 38.031568 
L 193.527239 37.742064 
L 186.716075 36.860792 
L 183.87809 36.895706 
L 183.310493 36.742799 
L 182.742896 36.750233 
L 181.607702 36.538643 
L 179.337314 36.47002 
L 178.20212 36.317711 
L 177.066926 36.240769 
L 173.661343 36.337926 
L 171.390955 36.197411 
L 166.850179 35.890052 
L 165.147388 35.881325 
L 163.444597 35.611548 
L 162.309403 35.683392 
L 161.741806 35.502468 
L 155.498239 34.967364 
L 154.930642 35.081072 
L 152.660254 34.979554 
L 146.416687 34.58141 
L 145.84909 34.481996 
L 142.443507 34.717019 
L 141.308313 34.784928 
L 140.740716 34.770569 
L 139.605522 34.936594 
L 137.335134 35.115386 
L 131.091567 34.786269 
L 130.52397 34.614413 
L 128.821179 34.656395 
L 127.685985 34.519942 
L 125.983194 34.675212 
L 125.415597 34.612877 
L 124.848 34.752847 
L 123.145209 34.626912 
L 122.010015 34.863574 
L 121.442418 34.654713 
L 120.307224 34.589614 
L 119.739627 34.642271 
L 119.17203 34.535201 
L 118.604433 34.742601 
L 116.901642 34.786121 
L 116.334045 34.514239 
L 114.631253 34.735685 
L 114.063656 34.633289 
L 112.360865 34.770137 
L 111.793268 34.652501 
L 111.225671 34.785828 
L 109.52288 34.93479 
L 107.820089 35.388642 
L 107.252492 35.390709 
L 106.684895 35.684362 
L 106.117298 35.462488 
L 105.549701 35.652572 
L 104.982104 35.659421 
L 104.414507 35.908364 
L 103.84691 35.92432 
L 103.279313 36.098884 
L 102.711716 36.071697 
L 100.441328 36.493527 
L 99.873731 36.77443 
L 98.738537 36.962399 
L 98.17094 37.433895 
L 97.603343 37.311312 
L 97.035746 37.573805 
L 96.468149 37.349923 
L 95.900552 37.317188 
L 95.332955 37.488358 
L 94.765358 37.365581 
L 93.630164 37.956985 
L 93.062567 37.938095 
L 92.49497 38.441003 
L 91.359776 38.476137 
L 90.792179 38.865861 
L 90.224582 39.568048 
L 89.089388 39.235212 
L 87.954194 40.573746 
L 86.819 41.561887 
L 85.683805 43.411093 
L 85.116208 43.750181 
L 84.548611 44.52736 
L 83.981014 44.617744 
L 83.413417 45.45653 
L 82.84582 45.804954 
L 81.710626 47.422005 
L 80.575432 48.293395 
L 79.440238 49.712595 
L 78.872641 51.35225 
L 78.305044 52.290367 
L 77.737447 53.651065 
L 77.16985 54.366833 
L 76.602253 56.043809 
L 76.034656 58.348616 
L 75.467059 59.801352 
L 74.899462 62.792622 
L 74.331865 63.736367 
L 72.629074 73.834447 
L 72.061477 75.732514 
L 71.49388 79.500265 
L 70.926283 82.132643 
L 70.358686 93.300566 
L 69.791089 99.436904 
L 68.655895 119.718529 
L 68.088298 161.354085 
L 67.520701 268.565109 
L 67.520701 268.565109 
" style="fill:none;stroke:#ff7f0e;stroke-linecap:square;stroke-width:1.5;"/>
   </g>
   <g id="line2d_17">
    <path clip-path="url(#pd591c4cac5)" d="M 335.994091 183.400708 
L 334.54429 181.003678 
L 333.09449 178.94566 
L 328.745088 173.662136 
L 325.845487 170.883986 
L 324.395686 169.35627 
L 320.046285 165.372849 
L 317.871584 163.699128 
L 316.421783 162.541241 
L 313.522182 160.434861 
L 312.072381 159.60596 
L 308.44788 157.55058 
L 306.273179 155.986026 
L 304.823378 155.178779 
L 304.098478 154.886533 
L 302.648678 153.936204 
L 300.473977 152.776307 
L 299.749076 152.574263 
L 298.299276 151.830612 
L 296.124575 150.540433 
L 294.674774 149.668342 
L 292.500074 148.762803 
L 290.325373 147.854982 
L 285.251071 145.860205 
L 283.07637 145.259548 
L 280.901669 144.434392 
L 274.377566 142.350986 
L 272.202865 141.957329 
L 270.753065 141.559341 
L 269.303264 141.271352 
L 267.853464 140.973286 
L 267.128563 140.841667 
L 265.678763 140.389342 
L 262.054261 139.685062 
L 260.604461 139.401318 
L 258.42976 138.842898 
L 256.979959 138.327717 
L 254.805258 137.998264 
L 253.355458 137.477852 
L 251.905657 137.190232 
L 250.455857 136.885276 
L 235.957851 134.297202 
L 229.433748 132.888729 
L 220.734945 131.522547 
L 214.935742 130.299631 
L 212.761042 129.936481 
L 201.162637 128.095193 
L 194.638534 126.775475 
L 190.289133 126.063647 
L 188.839332 125.860557 
L 185.939731 125.355562 
L 185.214831 125.189624 
L 183.76503 125.107709 
L 174.341326 123.806137 
L 173.616426 123.554217 
L 169.991924 123.154682 
L 169.267024 122.873492 
L 167.092323 122.541344 
L 159.11842 121.344604 
L 157.66862 121.091543 
L 156.943719 120.781049 
L 153.319218 120.239157 
L 150.419617 119.759642 
L 146.795115 119.509456 
L 145.345315 119.120525 
L 143.170614 118.716544 
L 142.445713 118.65768 
L 140.995913 118.33788 
L 134.47181 117.258993 
L 133.74691 117.366609 
L 133.02201 117.160271 
L 132.297109 117.142135 
L 131.572209 116.81052 
L 128.672608 116.474641 
L 127.947708 116.190726 
L 126.497907 116.094292 
L 122.873406 115.440954 
L 122.148505 115.388667 
L 121.423605 115.075032 
L 119.973804 114.896167 
L 119.248904 114.713878 
L 118.524004 114.686361 
L 117.799104 114.81357 
L 117.074203 114.749053 
L 116.349303 114.872621 
L 115.624403 114.732305 
L 114.899502 114.856916 
L 114.174602 114.665449 
L 113.449702 114.247461 
L 111.275001 113.784811 
L 109.8252 113.604886 
L 109.1003 113.22087 
L 108.3754 113.317395 
L 107.6505 113.065033 
L 104.750898 112.704111 
L 104.025998 112.280956 
L 103.301098 112.480031 
L 102.576197 112.413587 
L 101.851297 112.719322 
L 101.126397 112.170215 
L 99.676596 112.159736 
L 98.951696 111.941922 
L 98.226796 111.86598 
L 97.501895 112.187106 
L 96.776995 112.38366 
L 95.327195 112.479004 
L 94.602294 112.973133 
L 93.152494 112.921253 
L 91.702693 112.906273 
L 90.977793 113.154618 
L 90.252893 113.21151 
L 89.527992 113.624039 
L 88.803092 113.824688 
L 88.078192 114.621589 
L 87.353291 115.082405 
L 85.178591 115.845183 
L 84.45369 115.390966 
L 83.00389 116.592927 
L 82.278989 116.74359 
L 81.554089 117.233495 
L 80.829189 118.100174 
L 80.104288 117.98506 
L 79.379388 118.925495 
L 78.654488 120.08459 
L 77.929588 121.010048 
L 77.204687 122.781333 
L 76.479787 123.201242 
L 75.754887 124.573197 
L 75.029986 127.731318 
L 74.305086 129.475692 
L 72.855286 137.784797 
L 72.130385 139.7175 
L 71.405485 143.450453 
L 70.680585 149.443892 
L 69.955684 161.941962 
L 69.230784 180.933049 
L 68.505884 208.445722 
L 67.780984 264.910627 
L 67.780984 264.910627 
" style="fill:none;stroke:#2ca02c;stroke-linecap:square;stroke-width:1.5;"/>
   </g>
   <g id="line2d_18">
    <path clip-path="url(#pd591c4cac5)" d="M 335.994091 89.679844 
L 334.807593 88.291438 
L 331.84135 85.98572 
L 329.468355 84.665701 
L 325.315614 82.731478 
L 321.162873 81.005576 
L 316.416883 79.481751 
L 306.924904 76.754187 
L 300.399168 75.128646 
L 297.432925 74.527071 
L 293.873432 73.708925 
L 292.093686 73.310553 
L 290.907189 73.040463 
L 287.347696 72.223706 
L 285.56795 71.918379 
L 263.617748 67.900163 
L 262.43125 67.71789 
L 260.651504 67.420614 
L 257.685261 66.981515 
L 255.312266 66.594958 
L 250.566276 65.88062 
L 247.006784 65.199949 
L 245.820286 65.114852 
L 243.447292 64.826462 
L 237.514804 64.047883 
L 230.39582 63.1437 
L 228.616074 62.92574 
L 226.836328 62.721447 
L 225.64983 62.550822 
L 222.090338 61.749989 
L 212.598359 60.628708 
L 211.411861 60.429987 
L 209.038866 60.078715 
L 207.852369 59.843057 
L 206.072623 59.570889 
L 205.479374 59.415616 
L 201.326633 59.130129 
L 199.546887 58.883001 
L 198.360389 58.782403 
L 197.173892 58.586737 
L 195.987395 58.532587 
L 194.207648 58.37151 
L 193.6144 58.127689 
L 187.681913 57.224075 
L 185.902166 57.065889 
L 184.715669 56.883252 
L 182.342674 56.725368 
L 181.156177 56.480563 
L 179.969679 56.397998 
L 178.783182 56.231976 
L 178.189933 56.23001 
L 177.003436 55.999223 
L 174.630441 55.833304 
L 172.257446 55.469145 
L 171.664197 55.270775 
L 170.4777 55.083797 
L 158.612726 53.275514 
L 157.426228 53.031396 
L 156.239731 53.044231 
L 155.646482 52.76861 
L 153.273487 52.720679 
L 150.900492 52.296774 
L 149.120746 52.511812 
L 147.934249 52.155965 
L 146.747751 52.017508 
L 146.154503 51.849967 
L 144.968005 51.882322 
L 144.374757 51.714426 
L 143.781508 51.71936 
L 140.815264 51.276355 
L 138.442269 50.967449 
L 137.849021 51.073497 
L 137.255772 50.826118 
L 134.882777 50.600704 
L 133.69628 50.29342 
L 133.103031 50.291337 
L 131.916534 50.107343 
L 131.323285 50.043971 
L 130.730036 49.759782 
L 130.136787 49.747124 
L 128.95029 49.89307 
L 128.357041 49.742345 
L 127.170544 49.802213 
L 126.577295 49.864424 
L 125.984046 49.734569 
L 125.390798 49.731244 
L 124.2043 49.426274 
L 123.017803 49.564587 
L 121.831305 49.63491 
L 121.238057 49.408946 
L 120.644808 49.41107 
L 120.051559 49.524565 
L 117.085316 48.999031 
L 116.492067 48.965463 
L 115.898818 48.77342 
L 114.119072 48.719294 
L 111.746077 48.81168 
L 111.152829 48.902891 
L 109.966331 48.542428 
L 109.373082 48.480621 
L 108.779834 48.620926 
L 108.186585 48.548264 
L 107.593336 48.776399 
L 106.406839 48.226954 
L 105.81359 48.278502 
L 104.627093 48.178543 
L 103.440595 48.512998 
L 102.254098 49.011678 
L 98.694606 49.026944 
L 97.508108 48.798318 
L 96.914859 48.732236 
L 96.321611 48.80841 
L 95.728362 49.208132 
L 94.541865 49.082056 
L 93.355367 49.451591 
L 92.762118 49.732463 
L 91.575621 50.111912 
L 90.982372 49.537044 
L 90.389124 50.169539 
L 89.795875 49.916243 
L 89.202626 50.174833 
L 88.609377 50.675821 
L 88.016129 50.606392 
L 87.42288 50.832208 
L 86.236383 51.813374 
L 85.643134 51.193594 
L 85.049885 51.42143 
L 84.456636 51.171368 
L 83.863388 51.208072 
L 83.270139 51.023542 
L 82.67689 51.144388 
L 81.490393 51.847682 
L 80.897144 52.325573 
L 80.303895 53.101919 
L 79.710647 53.04324 
L 79.117398 53.485656 
L 77.930901 55.754195 
L 77.337652 54.871493 
L 76.744403 55.820468 
L 75.557906 58.797926 
L 74.964657 61.121383 
L 74.371408 61.634508 
L 73.77816 64.588224 
L 73.184911 66.119607 
L 71.998413 71.366145 
L 71.405165 73.343572 
L 70.218667 85.18111 
L 69.03217 105.51387 
L 68.438921 129.529302 
L 67.845672 172.977494 
L 67.845672 172.977494 
" style="fill:none;stroke:#d62728;stroke-linecap:square;stroke-width:1.5;"/>
   </g>
   <g id="line2d_19">
    <path clip-path="url(#pd591c4cac5)" d="M 335.994091 64.648946 
L 334.290148 63.496982 
L 333.154185 62.964236 
L 326.906393 60.948429 
L 320.090619 59.138025 
L 315.54677 58.076427 
L 312.138883 57.365725 
L 306.459072 56.254796 
L 303.051185 55.606123 
L 299.075317 54.907394 
L 296.803393 54.587464 
L 270.676261 50.248799 
L 267.268374 49.825944 
L 264.428468 49.331113 
L 261.588563 48.879845 
L 258.748657 48.516986 
L 257.612695 48.335182 
L 253.068846 47.782175 
L 246.253072 47.144091 
L 232.053544 45.459784 
L 231.485563 45.413338 
L 230.917582 45.250321 
L 228.077676 44.986671 
L 224.669789 44.592245 
L 221.829884 44.209517 
L 217.286035 43.959077 
L 216.718053 43.80492 
L 213.310167 43.567298 
L 203.086506 42.550856 
L 201.950544 42.408797 
L 200.814582 42.296604 
L 196.838714 41.722034 
L 195.702752 41.646908 
L 189.454959 41.015472 
L 188.886978 40.849359 
L 186.615054 40.648072 
L 186.047072 40.452891 
L 182.639186 40.203918 
L 180.935242 40.184 
L 179.79928 40.04557 
L 178.095337 39.950204 
L 172.415525 39.537548 
L 170.143601 39.259266 
L 168.439657 39.236886 
L 167.303695 39.263398 
L 166.167733 39.241242 
L 165.599752 39.288711 
L 163.895808 39.054336 
L 150.832242 38.485454 
L 148.560318 38.566305 
L 147.424355 38.709159 
L 146.856374 38.573906 
L 146.288393 38.626932 
L 145.152431 38.422881 
L 144.58445 38.241348 
L 143.448488 38.39461 
L 140.608582 38.185 
L 139.47262 38.293365 
L 137.200695 38.138848 
L 133.224827 38.39145 
L 130.952903 38.3545 
L 129.81694 38.411035 
L 127.545016 38.445277 
L 126.977035 38.337162 
L 124.137129 38.866181 
L 123.569148 38.768018 
L 123.001167 38.890522 
L 122.433186 38.867724 
L 121.865205 38.690513 
L 121.297223 38.941131 
L 117.321356 39.318717 
L 116.753374 39.038468 
L 116.185393 39.035386 
L 115.617412 39.292321 
L 115.049431 39.263919 
L 114.48145 39.379882 
L 113.345488 39.42786 
L 112.777507 39.399645 
L 111.073563 39.569991 
L 110.505582 39.320485 
L 109.36962 39.276092 
L 108.801639 39.463359 
L 107.665676 39.508056 
L 107.097695 39.704531 
L 106.529714 39.616453 
L 105.961733 39.761049 
L 105.393752 40.123128 
L 104.825771 39.905905 
L 104.25779 39.928804 
L 103.689808 40.240191 
L 100.849903 40.969661 
L 100.281922 40.798843 
L 99.713941 41.089994 
L 99.145959 41.004248 
L 98.009997 41.08251 
L 97.442016 41.564857 
L 96.306054 41.371811 
L 95.738073 40.98385 
L 95.170091 41.162832 
L 94.60211 40.995904 
L 92.330186 41.240012 
L 91.762205 41.72371 
L 91.194224 42.466034 
L 90.626242 42.780283 
L 90.058261 43.446925 
L 88.354318 44.9395 
L 87.786337 45.666467 
L 86.650374 46.469524 
L 83.242488 50.514686 
L 82.674507 51.589183 
L 80.970563 55.559273 
L 79.26662 59.116312 
L 78.130658 59.57253 
L 77.562676 60.447745 
L 76.994695 60.787282 
L 76.426714 62.172114 
L 75.858733 64.485878 
L 75.290752 66.015048 
L 74.15479 70.531241 
L 73.586808 73.812367 
L 73.018827 75.148992 
L 72.450846 79.073355 
L 71.882865 84.82064 
L 71.314884 89.21398 
L 70.746903 98.173555 
L 70.178922 103.902867 
L 69.042959 130.755829 
L 68.474978 149.852434 
L 67.906997 184.849951 
L 67.906997 184.849951 
" style="fill:none;stroke:#9467bd;stroke-linecap:square;stroke-width:1.5;"/>
   </g>
   <g id="line2d_20">
    <path clip-path="url(#pd591c4cac5)" d="M 335.994091 86.754411 
L 334.272821 84.883092 
L 330.83028 82.561496 
L 327.961496 81.275503 
L 319.928901 78.291825 
L 317.060117 77.466892 
L 298.126142 72.937827 
L 289.51979 71.193756 
L 285.503493 70.561551 
L 279.192168 69.350698 
L 277.470897 69.051916 
L 275.17587 68.608195 
L 267.143275 67.23374 
L 263.126977 66.607328 
L 261.979464 66.459809 
L 256.815653 65.652347 
L 253.946869 65.178583 
L 250.504328 64.560153 
L 244.193003 63.682931 
L 242.471733 63.400236 
L 241.324219 63.309994 
L 228.127813 61.300196 
L 226.980299 61.073697 
L 224.685272 60.727794 
L 220.095218 60.243402 
L 218.373947 60.074736 
L 216.652677 59.827494 
L 216.07892 59.660175 
L 213.783893 59.386845 
L 211.488866 59.016518 
L 208.620082 58.828983 
L 208.046325 58.837471 
L 206.898811 58.535762 
L 205.751298 58.352028 
L 196.571189 56.921021 
L 195.423675 56.824969 
L 193.128648 56.574312 
L 191.981134 56.455372 
L 189.686107 56.229697 
L 187.964837 55.939677 
L 186.243566 55.748589 
L 184.522296 55.639441 
L 182.227269 55.23588 
L 181.653512 55.259868 
L 178.784728 54.785776 
L 174.194674 54.235711 
L 168.457106 53.749805 
L 167.883349 53.616086 
L 166.162078 53.51654 
L 165.588322 53.427708 
L 164.440808 53.072622 
L 162.145781 52.884514 
L 159.850754 52.597929 
L 159.276997 52.459773 
L 158.129483 52.450917 
L 156.98197 51.989973 
L 152.391915 51.485022 
L 151.818159 51.269223 
L 150.670645 51.158534 
L 150.096888 51.029794 
L 148.949375 51.181529 
L 147.801861 50.92293 
L 146.080591 51.023718 
L 143.211807 50.736138 
L 142.63805 50.475031 
L 142.064293 50.521042 
L 140.916779 50.374978 
L 137.474239 50.325241 
L 134.031698 50.217667 
L 133.457941 50.003949 
L 132.310427 49.97297 
L 130.589157 50.091249 
L 128.29413 49.799361 
L 124.851589 50.09432 
L 124.277832 49.891558 
L 123.704075 50.001843 
L 120.835291 49.41057 
L 119.687778 49.481394 
L 118.540264 49.479242 
L 117.966507 49.19966 
L 117.392751 49.114987 
L 116.818994 49.267667 
L 116.245237 49.221358 
L 115.67148 49.336178 
L 115.097723 49.124826 
L 114.523967 49.14573 
L 113.95021 48.889861 
L 112.228939 48.959942 
L 111.081426 49.052344 
L 110.507669 49.196504 
L 109.360155 49.250045 
L 108.786399 49.494401 
L 108.212642 49.236303 
L 107.638885 49.331974 
L 107.065128 49.310055 
L 106.491371 49.460702 
L 104.196344 49.178789 
L 103.048831 48.93414 
L 102.475074 49.031706 
L 101.901317 49.35685 
L 101.32756 49.246436 
L 100.753803 49.300422 
L 100.180047 49.025041 
L 99.60629 49.141883 
L 99.032533 49.116882 
L 97.311263 49.779616 
L 96.737506 50.203361 
L 96.163749 50.290431 
L 95.589992 50.704593 
L 95.016235 50.524943 
L 93.868722 50.934779 
L 93.294965 50.763622 
L 92.721208 50.989919 
L 92.147451 50.886511 
L 91.573695 50.935232 
L 90.999938 50.768146 
L 89.852424 51.328627 
L 89.278667 51.082262 
L 88.704911 51.42003 
L 88.131154 51.504099 
L 87.557397 51.867413 
L 86.98364 52.548778 
L 85.26237 53.754492 
L 84.688613 53.823223 
L 84.114856 54.260946 
L 83.541099 54.839612 
L 82.967343 55.216569 
L 82.393586 56.09289 
L 81.819829 56.760602 
L 81.246072 57.813599 
L 80.098559 59.575424 
L 78.377288 63.462261 
L 77.803531 64.32884 
L 77.229775 65.798038 
L 76.656018 65.113007 
L 75.508504 66.83191 
L 74.934747 70.071826 
L 73.787234 72.900303 
L 73.213477 76.592261 
L 72.63972 78.356358 
L 72.065963 82.214834 
L 70.91845 92.073519 
L 70.344693 94.670975 
L 68.623423 130.188433 
L 68.049666 158.625004 
L 67.475909 304.332642 
L 67.475909 304.332642 
" style="fill:none;stroke:#8c564b;stroke-linecap:square;stroke-width:1.5;"/>
   </g>
   <g id="patch_3">
    <path d="M 54.05 318.2 
L 54.05 13.118124 
" style="fill:none;stroke:#000000;stroke-linecap:square;stroke-linejoin:miter;stroke-width:0.8;"/>
   </g>
   <g id="patch_4">
    <path d="M 349.42 318.2 
L 349.42 13.118124 
" style="fill:none;stroke:#000000;stroke-linecap:square;stroke-linejoin:miter;stroke-width:0.8;"/>
   </g>
   <g id="patch_5">
    <path d="M 54.05 318.2 
L 349.42 318.2 
" style="fill:none;stroke:#000000;stroke-linecap:square;stroke-linejoin:miter;stroke-width:0.8;"/>
   </g>
   <g id="patch_6">
    <path d="M 54.05 13.118124 
L 349.42 13.118124 
" style="fill:none;stroke:#000000;stroke-linecap:square;stroke-linejoin:miter;stroke-width:0.8;"/>
   </g>
  </g>
  <g id="axes_2">
   <g id="matplotlib.axis_3">
    <g id="ytick_9">
     <g id="line2d_21">
      <defs>
       <path d="M 0 0 
L 3.5 0 
" id="m138440231b" style="stroke:#000000;stroke-width:0.8;"/>
      </defs>
      <g>
       <use style="stroke:#000000;stroke-width:0.8;" x="349.42" xlink:href="#m138440231b" y="298.706938"/>
      </g>
     </g>
     <g id="text_17">
      <!-- 4 -->
      <g transform="translate(356.42 302.506157)scale(0.1 -0.1)">
       <use xlink:href="#DejaVuSans-34"/>
      </g>
     </g>
    </g>
    <g id="ytick_10">
     <g id="line2d_22">
      <g>
       <use style="stroke:#000000;stroke-width:0.8;" x="349.42" xlink:href="#m138440231b" y="262.500487"/>
      </g>
     </g>
     <g id="text_18">
      <!-- 6 -->
      <g transform="translate(356.42 266.299706)scale(0.1 -0.1)">
       <use xlink:href="#DejaVuSans-36"/>
      </g>
     </g>
    </g>
    <g id="ytick_11">
     <g id="line2d_23">
      <g>
       <use style="stroke:#000000;stroke-width:0.8;" x="349.42" xlink:href="#m138440231b" y="226.294036"/>
      </g>
     </g>
     <g id="text_19">
      <!-- 8 -->
      <g transform="translate(356.42 230.093255)scale(0.1 -0.1)">
       <use xlink:href="#DejaVuSans-38"/>
      </g>
     </g>
    </g>
    <g id="ytick_12">
     <g id="line2d_24">
      <g>
       <use style="stroke:#000000;stroke-width:0.8;" x="349.42" xlink:href="#m138440231b" y="190.087584"/>
      </g>
     </g>
     <g id="text_20">
      <!-- 10 -->
      <g transform="translate(356.42 193.886803)scale(0.1 -0.1)">
       <use xlink:href="#DejaVuSans-31"/>
       <use x="63.623047" xlink:href="#DejaVuSans-30"/>
      </g>
     </g>
    </g>
    <g id="ytick_13">
     <g id="line2d_25">
      <g>
       <use style="stroke:#000000;stroke-width:0.8;" x="349.42" xlink:href="#m138440231b" y="153.881133"/>
      </g>
     </g>
     <g id="text_21">
      <!-- 12 -->
      <g transform="translate(356.42 157.680352)scale(0.1 -0.1)">
       <use xlink:href="#DejaVuSans-31"/>
       <use x="63.623047" xlink:href="#DejaVuSans-32"/>
      </g>
     </g>
    </g>
    <g id="ytick_14">
     <g id="line2d_26">
      <g>
       <use style="stroke:#000000;stroke-width:0.8;" x="349.42" xlink:href="#m138440231b" y="117.674682"/>
      </g>
     </g>
     <g id="text_22">
      <!-- 14 -->
      <g transform="translate(356.42 121.4739)scale(0.1 -0.1)">
       <use xlink:href="#DejaVuSans-31"/>
       <use x="63.623047" xlink:href="#DejaVuSans-34"/>
      </g>
     </g>
    </g>
    <g id="ytick_15">
     <g id="line2d_27">
      <g>
       <use style="stroke:#000000;stroke-width:0.8;" x="349.42" xlink:href="#m138440231b" y="81.46823"/>
      </g>
     </g>
     <g id="text_23">
      <!-- 16 -->
      <g transform="translate(356.42 85.267449)scale(0.1 -0.1)">
       <use xlink:href="#DejaVuSans-31"/>
       <use x="63.623047" xlink:href="#DejaVuSans-36"/>
      </g>
     </g>
    </g>
    <g id="ytick_16">
     <g id="line2d_28">
      <g>
       <use style="stroke:#000000;stroke-width:0.8;" x="349.42" xlink:href="#m138440231b" y="45.261779"/>
      </g>
     </g>
     <g id="text_24">
      <!-- 18 -->
      <g transform="translate(356.42 49.060998)scale(0.1 -0.1)">
       <use xlink:href="#DejaVuSans-31"/>
       <use x="63.623047" xlink:href="#DejaVuSans-38"/>
      </g>
     </g>
    </g>
    <g id="text_25">
     <!-- Minimum read-mean PhredQ score -->
     <g transform="translate(380.743438 252.584062)rotate(-90)scale(0.1 -0.1)">
      <defs>
       <path d="M 628 4666 
L 1569 4666 
L 2759 1491 
L 3956 4666 
L 4897 4666 
L 4897 0 
L 4281 0 
L 4281 4097 
L 3078 897 
L 2444 897 
L 1241 4097 
L 1241 0 
L 628 0 
L 628 4666 
z
" id="DejaVuSans-4d" transform="scale(0.015625)"/>
       <path d="M 544 1381 
L 544 3500 
L 1119 3500 
L 1119 1403 
Q 1119 906 1312 657 
Q 1506 409 1894 409 
Q 2359 409 2629 706 
Q 2900 1003 2900 1516 
L 2900 3500 
L 3475 3500 
L 3475 0 
L 2900 0 
L 2900 538 
Q 2691 219 2414 64 
Q 2138 -91 1772 -91 
Q 1169 -91 856 284 
Q 544 659 544 1381 
z
M 1991 3584 
L 1991 3584 
z
" id="DejaVuSans-75" transform="scale(0.015625)"/>
       <path d="M 313 2009 
L 1997 2009 
L 1997 1497 
L 313 1497 
L 313 2009 
z
" id="DejaVuSans-2d" transform="scale(0.015625)"/>
       <path d="M 1259 4147 
L 1259 2394 
L 2053 2394 
Q 2494 2394 2734 2622 
Q 2975 2850 2975 3272 
Q 2975 3691 2734 3919 
Q 2494 4147 2053 4147 
L 1259 4147 
z
M 628 4666 
L 2053 4666 
Q 2838 4666 3239 4311 
Q 3641 3956 3641 3272 
Q 3641 2581 3239 2228 
Q 2838 1875 2053 1875 
L 1259 1875 
L 1259 0 
L 628 0 
L 628 4666 
z
" id="DejaVuSans-50" transform="scale(0.015625)"/>
       <path d="M 2522 4238 
Q 1834 4238 1429 3725 
Q 1025 3213 1025 2328 
Q 1025 1447 1429 934 
Q 1834 422 2522 422 
Q 3209 422 3611 934 
Q 4013 1447 4013 2328 
Q 4013 3213 3611 3725 
Q 3209 4238 2522 4238 
z
M 3406 84 
L 4238 -825 
L 3475 -825 
L 2784 -78 
Q 2681 -84 2626 -87 
Q 2572 -91 2522 -91 
Q 1538 -91 948 567 
Q 359 1225 359 2328 
Q 359 3434 948 4092 
Q 1538 4750 2522 4750 
Q 3503 4750 4090 4092 
Q 4678 3434 4678 2328 
Q 4678 1516 4351 937 
Q 4025 359 3406 84 
z
" id="DejaVuSans-51" transform="scale(0.015625)"/>
      </defs>
      <use xlink:href="#DejaVuSans-4d"/>
      <use x="86.279297" xlink:href="#DejaVuSans-69"/>
      <use x="114.0625" xlink:href="#DejaVuSans-6e"/>
      <use x="177.441406" xlink:href="#DejaVuSans-69"/>
      <use x="205.224609" xlink:href="#DejaVuSans-6d"/>
      <use x="302.636719" xlink:href="#DejaVuSans-75"/>
      <use x="366.015625" xlink:href="#DejaVuSans-6d"/>
      <use x="463.427734" xlink:href="#DejaVuSans-20"/>
      <use x="495.214844" xlink:href="#DejaVuSans-72"/>
      <use x="534.078125" xlink:href="#DejaVuSans-65"/>
      <use x="595.601562" xlink:href="#DejaVuSans-61"/>
      <use x="656.880859" xlink:href="#DejaVuSans-64"/>
      <use x="720.357422" xlink:href="#DejaVuSans-2d"/>
      <use x="756.441406" xlink:href="#DejaVuSans-6d"/>
      <use x="853.853516" xlink:href="#DejaVuSans-65"/>
      <use x="915.376953" xlink:href="#DejaVuSans-61"/>
      <use x="976.65625" xlink:href="#DejaVuSans-6e"/>
      <use x="1040.035156" xlink:href="#DejaVuSans-20"/>
      <use x="1071.822266" xlink:href="#DejaVuSans-50"/>
      <use x="1132.125" xlink:href="#DejaVuSans-68"/>
      <use x="1195.503906" xlink:href="#DejaVuSans-72"/>
      <use x="1234.367188" xlink:href="#DejaVuSans-65"/>
      <use x="1295.890625" xlink:href="#DejaVuSans-64"/>
      <use x="1359.367188" xlink:href="#DejaVuSans-51"/>
      <use x="1438.078125" xlink:href="#DejaVuSans-20"/>
      <use x="1469.865234" xlink:href="#DejaVuSans-73"/>
      <use x="1521.964844" xlink:href="#DejaVuSans-63"/>
      <use x="1576.945312" xlink:href="#DejaVuSans-6f"/>
      <use x="1638.126953" xlink:href="#DejaVuSans-72"/>
      <use x="1676.990234" xlink:href="#DejaVuSans-65"/>
     </g>
    </g>
   </g>
   <g id="line2d_29">
    <path clip-path="url(#pd591c4cac5)" d="M 335.994091 303.89147 
L 335.438563 300.125882 
L 334.883035 298.168686 
L 334.327507 296.831604 
L 333.216451 292.887737 
L 332.660923 289.365416 
L 332.105395 277.216918 
L 331.549867 272.903859 
L 330.438811 267.667203 
L 329.327755 264.70887 
L 328.216699 262.765938 
L 326.550115 260.688619 
L 322.105891 256.424441 
L 320.439307 255.196102 
L 319.328251 254.41869 
L 318.772724 254.147709 
L 318.217196 253.732902 
L 316.550612 252.791394 
L 315.439556 252.141433 
L 309.328748 249.469015 
L 307.662164 248.817708 
L 298.218188 245.78308 
L 287.107629 243.017397 
L 272.108373 240.130979 
L 268.219677 239.505261 
L 263.775453 238.766116 
L 260.442286 238.322761 
L 249.331726 236.720577 
L 209.333711 231.788511 
L 203.222904 230.995807 
L 201.000792 230.743402 
L 179.3352 227.798459 
L 174.335449 227.117457 
L 167.669113 226.047393 
L 163.224889 225.340361 
L 145.447994 222.139628 
L 124.893458 218.178304 
L 121.004762 217.502757 
L 116.560539 216.686351 
L 113.782899 216.214599 
L 111.005259 215.690126 
L 98.783643 213.421787 
L 86.0065 210.672807 
L 75.451468 207.531075 
L 72.673828 206.077958 
L 71.007244 204.75632 
L 69.896188 203.394631 
L 69.34066 202.52999 
L 68.785132 201.338177 
L 68.229604 199.338793 
L 67.674076 195.474398 
L 67.674076 195.474398 
" style="fill:none;stroke:#1f77b4;stroke-dasharray:5.55,2.4;stroke-dashoffset:0;stroke-width:1.5;"/>
   </g>
   <g id="line2d_30">
    <path clip-path="url(#pd591c4cac5)" d="M 335.994091 304.332642 
L 335.426494 249.450898 
L 334.858897 237.502809 
L 334.2913 230.808365 
L 333.723703 225.840036 
L 332.588509 220.187384 
L 330.885718 212.437246 
L 330.318121 210.415893 
L 329.750524 209.076378 
L 329.182927 207.0522 
L 326.912539 201.319431 
L 326.344942 200.383996 
L 325.777345 199.029267 
L 324.074554 195.938017 
L 323.506956 194.572614 
L 320.668971 190.216856 
L 317.830986 186.214679 
L 316.128195 184.121244 
L 314.425404 181.818923 
L 312.722613 179.72055 
L 311.587419 178.5663 
L 310.452225 177.367266 
L 309.884628 176.619689 
L 308.181837 175.199546 
L 307.61424 174.785288 
L 306.479046 173.678796 
L 305.343852 172.737962 
L 304.208658 171.820888 
L 303.073464 170.844741 
L 302.505867 170.445284 
L 300.803076 168.895555 
L 292.28912 162.541932 
L 290.586329 161.44324 
L 288.883538 160.272762 
L 283.775165 157.184188 
L 282.072374 156.107092 
L 274.126016 151.522088 
L 271.855628 150.448938 
L 269.017643 149.012538 
L 267.882449 148.445967 
L 258.800896 144.170943 
L 257.098105 143.415569 
L 245.178568 138.590897 
L 243.475777 138.086406 
L 242.340583 137.715253 
L 240.637792 137.039359 
L 232.123836 133.857417 
L 229.285851 132.917849 
L 224.177478 131.27531 
L 221.90709 130.471615 
L 219.069105 129.46639 
L 217.366314 128.806115 
L 205.446777 125.044608 
L 200.906 123.658818 
L 198.635612 122.823803 
L 196.932821 122.312799 
L 195.797627 121.899994 
L 192.392045 120.915052 
L 188.418866 119.570613 
L 186.716075 118.990967 
L 183.87809 118.210525 
L 175.931732 115.444869 
L 172.526149 114.365376 
L 166.850179 112.450176 
L 165.147388 111.808718 
L 156.633433 108.805365 
L 155.498239 108.421153 
L 150.389866 106.746302 
L 146.984284 105.521664 
L 144.146298 104.345252 
L 141.87591 103.572084 
L 140.740716 103.161924 
L 137.902731 102.027871 
L 132.226761 99.920654 
L 127.118388 97.779701 
L 124.848 97.00541 
L 120.307224 95.261164 
L 118.036836 94.251817 
L 116.334045 93.588644 
L 114.063656 92.726587 
L 112.928462 92.301678 
L 108.955283 90.580534 
L 107.820089 90.052351 
L 101.008925 87.206566 
L 93.062567 83.423849 
L 86.251403 79.831617 
L 85.116208 79.301459 
L 83.981014 78.590411 
L 82.278223 77.747795 
L 80.575432 76.437883 
L 77.737447 74.203332 
L 76.602253 73.103736 
L 75.467059 72.158731 
L 74.331865 70.966602 
L 73.764268 70.473474 
L 72.629074 69.028584 
L 70.926283 66.640963 
L 70.358686 65.487781 
L 69.223492 62.397872 
L 68.655895 60.016431 
L 68.088298 55.995695 
L 67.520701 43.06829 
L 67.520701 43.06829 
" style="fill:none;stroke:#ff7f0e;stroke-dasharray:5.55,2.4;stroke-dashoffset:0;stroke-width:1.5;"/>
   </g>
   <g id="line2d_31">
    <path clip-path="url(#pd591c4cac5)" d="M 335.994091 241.262504 
L 335.269191 216.946007 
L 334.54429 214.32926 
L 333.81939 212.829072 
L 331.644689 210.506803 
L 330.194889 209.350974 
L 328.745088 208.292481 
L 325.845487 206.821194 
L 323.670786 205.598731 
L 321.496085 204.630733 
L 320.771185 204.234659 
L 318.596484 203.410343 
L 314.971982 201.926793 
L 310.622581 200.388887 
L 309.17278 199.92652 
L 306.998079 199.084123 
L 305.548279 198.563883 
L 303.373578 197.815483 
L 299.749076 196.703805 
L 295.399675 195.399099 
L 277.277167 190.440752 
L 272.202865 189.255285 
L 268.578364 188.35747 
L 263.504062 187.270307 
L 262.054261 186.916512 
L 238.857452 181.535202 
L 212.761042 176.172191 
L 204.787138 174.653157 
L 201.887537 174.100485 
L 188.114432 171.399039 
L 185.214831 170.818119 
L 181.590329 170.079541 
L 167.817224 167.508578 
L 162.742922 166.525556 
L 157.66862 165.426979 
L 151.869417 164.28256 
L 148.244916 163.560066 
L 144.620414 162.857299 
L 140.995913 162.066704 
L 130.847309 159.940751 
L 123.598306 158.265763 
L 117.074203 156.894957 
L 110.550101 155.368286 
L 109.1003 155.002076 
L 93.877394 151.424127 
L 90.252893 150.358061 
L 83.72879 148.476306 
L 83.00389 148.283076 
L 75.029986 144.771621 
L 74.305086 144.393298 
L 72.855286 143.18777 
L 70.680585 141.401597 
L 69.955684 140.499207 
L 68.505884 137.126373 
L 67.780984 132.599067 
L 67.780984 132.599067 
" style="fill:none;stroke:#2ca02c;stroke-dasharray:5.55,2.4;stroke-dashoffset:0;stroke-width:1.5;"/>
   </g>
   <g id="line2d_32">
    <path clip-path="url(#pd591c4cac5)" d="M 335.994091 253.323448 
L 335.400842 242.640775 
L 334.807593 240.219324 
L 333.621096 236.829435 
L 333.027847 235.496218 
L 331.248101 232.793304 
L 328.281858 229.085216 
L 327.09536 227.985734 
L 325.315614 225.859952 
L 324.129117 224.744223 
L 321.756122 222.740502 
L 321.162873 222.356856 
L 319.976376 221.209865 
L 318.789878 220.446495 
L 315.230386 217.934334 
L 314.043889 217.184323 
L 312.857391 216.241979 
L 299.805919 208.484338 
L 298.619422 207.946447 
L 297.432925 207.375742 
L 296.246427 206.750971 
L 294.466681 205.709201 
L 292.093686 204.732978 
L 290.31394 203.820244 
L 288.534194 203.135992 
L 287.347696 202.540888 
L 284.381453 201.066405 
L 270.143484 194.736196 
L 267.770489 193.680325 
L 265.397494 192.773285 
L 261.838002 191.325509 
L 260.651504 190.846873 
L 258.871758 190.196815 
L 255.905515 189.122867 
L 225.64983 179.045295 
L 223.276835 178.317994 
L 222.090338 177.916141 
L 209.632115 174.128025 
L 207.25912 173.369456 
L 201.919882 171.824381 
L 168.697954 162.010395 
L 165.138461 160.991314 
L 159.205974 159.204201 
L 157.426228 158.704434 
L 150.900492 156.82951 
L 148.527497 156.07304 
L 145.561254 155.218511 
L 134.289528 151.744197 
L 130.730036 150.65086 
L 127.170544 149.488568 
L 121.831305 147.504072 
L 120.051559 146.880141 
L 113.525823 144.675617 
L 109.966331 143.491091 
L 108.186585 142.853198 
L 107.000088 142.404017 
L 103.440595 141.060065 
L 101.660849 140.465256 
L 97.508108 138.786648 
L 93.948616 137.30239 
L 90.982372 136.04048 
L 88.016129 134.848162 
L 86.829631 134.242701 
L 84.456636 133.170621 
L 82.67689 132.214367 
L 80.303895 131.114565 
L 74.964657 127.705906 
L 73.184911 126.091094 
L 71.998413 124.917587 
L 70.218667 122.447911 
L 69.625419 121.369995 
L 69.03217 119.833861 
L 68.438921 117.24983 
L 67.845672 112.81258 
L 67.845672 112.81258 
" style="fill:none;stroke:#d62728;stroke-dasharray:5.55,2.4;stroke-dashoffset:0;stroke-width:1.5;"/>
   </g>
   <g id="line2d_33">
    <path clip-path="url(#pd591c4cac5)" d="M 335.994091 267.84421 
L 335.42611 235.280994 
L 334.858129 227.221796 
L 333.722166 218.386554 
L 333.154185 214.938102 
L 332.586204 212.93886 
L 332.018223 210.215668 
L 330.31428 204.42937 
L 328.610336 199.954297 
L 325.202449 192.376567 
L 324.634468 191.504756 
L 324.066487 190.216435 
L 322.930525 188.713366 
L 321.226582 185.852762 
L 318.386676 181.739104 
L 317.250714 179.993791 
L 316.114751 178.698138 
L 315.54677 177.89951 
L 314.978789 177.348411 
L 314.410808 176.522976 
L 312.706865 174.946705 
L 306.459072 169.169414 
L 304.187148 167.276725 
L 302.483204 165.93657 
L 300.779261 164.454068 
L 299.643299 163.531797 
L 299.075317 163.229136 
L 296.235412 161.07733 
L 293.395506 159.196021 
L 291.123582 157.642527 
L 289.987619 156.820973 
L 288.851657 156.159896 
L 286.011751 154.599192 
L 283.739827 153.223631 
L 278.060016 150.006716 
L 276.924053 149.569722 
L 274.652129 148.341899 
L 259.884619 141.689808 
L 257.044714 140.45957 
L 255.908751 140.045806 
L 254.772789 139.611397 
L 251.932884 138.466089 
L 250.796921 138.033555 
L 249.092978 137.480275 
L 244.549129 136.055051 
L 241.141242 134.903412 
L 239.437299 134.214505 
L 228.645657 130.661714 
L 224.669789 129.482634 
L 207.062374 124.238782 
L 204.222469 123.396537 
L 174.119469 114.99695 
L 172.983506 114.715983 
L 170.711582 114.011439 
L 167.303695 113.037585 
L 165.031771 112.360196 
L 160.487921 110.940164 
L 159.351959 110.56021 
L 157.080035 109.874957 
L 151.400223 108.16791 
L 147.992337 107.223556 
L 140.608582 105.12135 
L 135.496752 103.515275 
L 130.384922 101.968255 
L 126.977035 100.903831 
L 125.841073 100.505816 
L 119.59328 98.503591 
L 116.185393 97.508023 
L 113.913469 96.766886 
L 109.36962 95.269278 
L 104.25779 93.532861 
L 101.985865 92.806566 
L 100.281922 92.209786 
L 94.60211 90.130857 
L 91.194224 88.691779 
L 89.49028 88.091724 
L 83.242488 85.259812 
L 78.130658 82.398942 
L 76.994695 81.654192 
L 75.858733 80.921262 
L 74.15479 79.435244 
L 72.450846 77.874208 
L 71.314884 76.685712 
L 70.178922 74.786986 
L 69.610941 73.703867 
L 69.042959 72.299723 
L 68.474978 70.143746 
L 67.906997 67.071177 
L 67.906997 67.071177 
" style="fill:none;stroke:#9467bd;stroke-dasharray:5.55,2.4;stroke-dashoffset:0;stroke-width:1.5;"/>
   </g>
   <g id="line2d_34">
    <path clip-path="url(#pd591c4cac5)" d="M 335.994091 271.820477 
L 335.420334 231.632166 
L 334.846577 224.220865 
L 334.272821 220.519888 
L 333.125307 215.14592 
L 332.55155 213.355264 
L 331.404037 209.06563 
L 330.83028 207.438512 
L 327.961496 201.077806 
L 326.240225 197.701761 
L 323.371441 192.177186 
L 322.797685 191.237517 
L 322.223928 190.541253 
L 321.650171 189.43777 
L 319.928901 187.270607 
L 318.781387 185.735899 
L 317.633873 184.178189 
L 314.765089 180.52975 
L 311.896305 177.081626 
L 307.880008 173.126332 
L 306.732494 171.88755 
L 306.158737 171.491318 
L 305.011224 170.437917 
L 300.994926 166.605115 
L 300.421169 166.035044 
L 299.273656 165.178326 
L 298.699899 164.495483 
L 294.109845 160.908448 
L 292.962331 159.99153 
L 291.814817 159.280663 
L 287.79852 156.31573 
L 286.077249 154.956655 
L 284.929736 154.239613 
L 280.913438 151.412869 
L 278.044654 149.574392 
L 276.323384 148.311389 
L 275.17587 147.431349 
L 272.880843 146.054316 
L 270.585816 144.586574 
L 268.290789 143.176156 
L 267.143275 142.568048 
L 265.995761 141.871126 
L 264.848248 141.164774 
L 257.963166 137.575701 
L 253.373112 135.415278 
L 251.078085 134.388385 
L 249.356814 133.554384 
L 247.635544 132.740375 
L 245.914274 131.85372 
L 244.193003 130.980761 
L 242.471733 130.251884 
L 240.176706 129.201186 
L 237.881678 128.121679 
L 235.012894 126.856992 
L 233.865381 126.339591 
L 232.717867 125.831005 
L 215.505163 118.576995 
L 210.915109 116.844951 
L 209.767595 116.494672 
L 181.653512 105.605865 
L 179.932242 104.992396 
L 178.784728 104.54133 
L 176.489701 103.757837 
L 174.76843 103.094246 
L 165.588322 99.601346 
L 163.867051 98.908423 
L 158.70324 96.928285 
L 156.98197 96.276669 
L 155.834456 95.878058 
L 152.965672 94.881707 
L 144.35932 91.867673 
L 143.785563 91.555072 
L 142.064293 90.948726 
L 134.031698 87.930355 
L 129.441643 86.147114 
L 128.29413 85.65776 
L 126.572859 85.056992 
L 124.851589 84.364171 
L 119.114021 82.175848 
L 116.818994 81.152017 
L 109.933912 78.547954 
L 108.786399 78.040921 
L 107.065128 77.246169 
L 104.770101 76.400932 
L 103.048831 75.647958 
L 101.32756 74.98224 
L 100.180047 74.470397 
L 97.311263 73.071285 
L 93.294965 71.42011 
L 85.26237 67.351674 
L 82.967343 66.054605 
L 81.819829 65.191092 
L 77.803531 62.530558 
L 75.508504 60.846404 
L 74.934747 60.281609 
L 73.787234 58.907667 
L 73.213477 58.342126 
L 72.63972 57.56319 
L 72.065963 56.979739 
L 70.344693 54.056584 
L 69.770936 52.740003 
L 69.197179 51.000436 
L 68.049666 44.941053 
L 67.475909 26.985482 
L 67.475909 26.985482 
" style="fill:none;stroke:#8c564b;stroke-dasharray:5.55,2.4;stroke-dashoffset:0;stroke-width:1.5;"/>
   </g>
   <g id="patch_7">
    <path d="M 54.05 318.2 
L 54.05 13.118124 
" style="fill:none;stroke:#000000;stroke-linecap:square;stroke-linejoin:miter;stroke-width:0.8;"/>
   </g>
   <g id="patch_8">
    <path d="M 349.42 318.2 
L 349.42 13.118124 
" style="fill:none;stroke:#000000;stroke-linecap:square;stroke-linejoin:miter;stroke-width:0.8;"/>
   </g>
   <g id="patch_9">
    <path d="M 54.05 318.2 
L 349.42 318.2 
" style="fill:none;stroke:#000000;stroke-linecap:square;stroke-linejoin:miter;stroke-width:0.8;"/>
   </g>
   <g id="patch_10">
    <path d="M 54.05 13.118124 
L 349.42 13.118124 
" style="fill:none;stroke:#000000;stroke-linecap:square;stroke-linejoin:miter;stroke-width:0.8;"/>
   </g>
   <g id="legend_1">
    <g id="patch_11">
     <path d="M 410.494 211.193437 
L 532.85025 211.193437 
Q 534.85025 211.193437 534.85025 209.193437 
L 534.85025 122.124687 
Q 534.85025 120.124687 532.85025 120.124687 
L 410.494 120.124687 
Q 408.494 120.124687 408.494 122.124687 
L 408.494 209.193437 
Q 408.494 211.193437 410.494 211.193437 
z
" style="fill:#ffffff;opacity:0.8;stroke:#000000;stroke-linejoin:miter;"/>
    </g>
    <g id="line2d_35">
     <path d="M 412.494 128.223125 
L 432.494 128.223125 
" style="fill:none;stroke:#1f77b4;stroke-linecap:square;stroke-width:1.5;"/>
    </g>
    <g id="line2d_36"/>
    <g id="text_26">
     <!-- Bonito (0.876) -->
     <g transform="translate(440.494 131.723125)scale(0.1 -0.1)">
      <defs>
       <path d="M 1259 2228 
L 1259 519 
L 2272 519 
Q 2781 519 3026 730 
Q 3272 941 3272 1375 
Q 3272 1813 3026 2020 
Q 2781 2228 2272 2228 
L 1259 2228 
z
M 1259 4147 
L 1259 2741 
L 2194 2741 
Q 2656 2741 2882 2914 
Q 3109 3088 3109 3444 
Q 3109 3797 2882 3972 
Q 2656 4147 2194 4147 
L 1259 4147 
z
M 628 4666 
L 2241 4666 
Q 2963 4666 3353 4366 
Q 3744 4066 3744 3513 
Q 3744 3084 3544 2831 
Q 3344 2578 2956 2516 
Q 3422 2416 3680 2098 
Q 3938 1781 3938 1306 
Q 3938 681 3513 340 
Q 3088 0 2303 0 
L 628 0 
L 628 4666 
z
" id="DejaVuSans-42" transform="scale(0.015625)"/>
       <path d="M 1984 4856 
Q 1566 4138 1362 3434 
Q 1159 2731 1159 2009 
Q 1159 1288 1364 580 
Q 1569 -128 1984 -844 
L 1484 -844 
Q 1016 -109 783 600 
Q 550 1309 550 2009 
Q 550 2706 781 3412 
Q 1013 4119 1484 4856 
L 1984 4856 
z
" id="DejaVuSans-28" transform="scale(0.015625)"/>
       <path d="M 513 4856 
L 1013 4856 
Q 1481 4119 1714 3412 
Q 1947 2706 1947 2009 
Q 1947 1309 1714 600 
Q 1481 -109 1013 -844 
L 513 -844 
Q 928 -128 1133 580 
Q 1338 1288 1338 2009 
Q 1338 2731 1133 3434 
Q 928 4138 513 4856 
z
" id="DejaVuSans-29" transform="scale(0.015625)"/>
      </defs>
      <use xlink:href="#DejaVuSans-42"/>
      <use x="68.603516" xlink:href="#DejaVuSans-6f"/>
      <use x="129.785156" xlink:href="#DejaVuSans-6e"/>
      <use x="193.164062" xlink:href="#DejaVuSans-69"/>
      <use x="220.947266" xlink:href="#DejaVuSans-74"/>
      <use x="260.15625" xlink:href="#DejaVuSans-6f"/>
      <use x="321.337891" xlink:href="#DejaVuSans-20"/>
      <use x="353.125" xlink:href="#DejaVuSans-28"/>
      <use x="392.138672" xlink:href="#DejaVuSans-30"/>
      <use x="455.761719" xlink:href="#DejaVuSans-2e"/>
      <use x="487.548828" xlink:href="#DejaVuSans-38"/>
      <use x="551.171875" xlink:href="#DejaVuSans-37"/>
      <use x="614.794922" xlink:href="#DejaVuSans-36"/>
      <use x="678.417969" xlink:href="#DejaVuSans-29"/>
     </g>
    </g>
    <g id="line2d_37">
     <path d="M 412.494 142.90125 
L 432.494 142.90125 
" style="fill:none;stroke:#ff7f0e;stroke-linecap:square;stroke-width:1.5;"/>
    </g>
    <g id="line2d_38"/>
    <g id="text_27">
     <!-- CATCaller (0.866) -->
     <g transform="translate(440.494 146.40125)scale(0.1 -0.1)">
      <defs>
       <path d="M 4122 4306 
L 4122 3641 
Q 3803 3938 3442 4084 
Q 3081 4231 2675 4231 
Q 1875 4231 1450 3742 
Q 1025 3253 1025 2328 
Q 1025 1406 1450 917 
Q 1875 428 2675 428 
Q 3081 428 3442 575 
Q 3803 722 4122 1019 
L 4122 359 
Q 3791 134 3420 21 
Q 3050 -91 2638 -91 
Q 1578 -91 968 557 
Q 359 1206 359 2328 
Q 359 3453 968 4101 
Q 1578 4750 2638 4750 
Q 3056 4750 3426 4639 
Q 3797 4528 4122 4306 
z
" id="DejaVuSans-43" transform="scale(0.015625)"/>
       <path d="M -19 4666 
L 3928 4666 
L 3928 4134 
L 2272 4134 
L 2272 0 
L 1638 0 
L 1638 4134 
L -19 4134 
L -19 4666 
z
" id="DejaVuSans-54" transform="scale(0.015625)"/>
       <path d="M 603 4863 
L 1178 4863 
L 1178 0 
L 603 0 
L 603 4863 
z
" id="DejaVuSans-6c" transform="scale(0.015625)"/>
      </defs>
      <use xlink:href="#DejaVuSans-43"/>
      <use x="69.824219" xlink:href="#DejaVuSans-41"/>
      <use x="130.482422" xlink:href="#DejaVuSans-54"/>
      <use x="185.691406" xlink:href="#DejaVuSans-43"/>
      <use x="255.515625" xlink:href="#DejaVuSans-61"/>
      <use x="316.794922" xlink:href="#DejaVuSans-6c"/>
      <use x="344.578125" xlink:href="#DejaVuSans-6c"/>
      <use x="372.361328" xlink:href="#DejaVuSans-65"/>
      <use x="433.884766" xlink:href="#DejaVuSans-72"/>
      <use x="474.998047" xlink:href="#DejaVuSans-20"/>
      <use x="506.785156" xlink:href="#DejaVuSans-28"/>
      <use x="545.798828" xlink:href="#DejaVuSans-30"/>
      <use x="609.421875" xlink:href="#DejaVuSans-2e"/>
      <use x="641.208984" xlink:href="#DejaVuSans-38"/>
      <use x="704.832031" xlink:href="#DejaVuSans-36"/>
      <use x="768.455078" xlink:href="#DejaVuSans-36"/>
      <use x="832.078125" xlink:href="#DejaVuSans-29"/>
     </g>
    </g>
    <g id="line2d_39">
     <path d="M 412.494 157.579375 
L 432.494 157.579375 
" style="fill:none;stroke:#2ca02c;stroke-linecap:square;stroke-width:1.5;"/>
    </g>
    <g id="line2d_40"/>
    <g id="text_28">
     <!-- Causalcall (0.759) -->
     <g transform="translate(440.494 161.079375)scale(0.1 -0.1)">
      <use xlink:href="#DejaVuSans-43"/>
      <use x="69.824219" xlink:href="#DejaVuSans-61"/>
      <use x="131.103516" xlink:href="#DejaVuSans-75"/>
      <use x="194.482422" xlink:href="#DejaVuSans-73"/>
      <use x="246.582031" xlink:href="#DejaVuSans-61"/>
      <use x="307.861328" xlink:href="#DejaVuSans-6c"/>
      <use x="335.644531" xlink:href="#DejaVuSans-63"/>
      <use x="390.625" xlink:href="#DejaVuSans-61"/>
      <use x="451.904297" xlink:href="#DejaVuSans-6c"/>
      <use x="479.6875" xlink:href="#DejaVuSans-6c"/>
      <use x="507.470703" xlink:href="#DejaVuSans-20"/>
      <use x="539.257812" xlink:href="#DejaVuSans-28"/>
      <use x="578.271484" xlink:href="#DejaVuSans-30"/>
      <use x="641.894531" xlink:href="#DejaVuSans-2e"/>
      <use x="673.681641" xlink:href="#DejaVuSans-37"/>
      <use x="737.304688" xlink:href="#DejaVuSans-35"/>
      <use x="800.927734" xlink:href="#DejaVuSans-39"/>
      <use x="864.550781" xlink:href="#DejaVuSans-29"/>
     </g>
    </g>
    <g id="line2d_41">
     <path d="M 412.494 172.2575 
L 432.494 172.2575 
" style="fill:none;stroke:#d62728;stroke-linecap:square;stroke-width:1.5;"/>
    </g>
    <g id="line2d_42"/>
    <g id="text_29">
     <!-- MinCall (0.843) -->
     <g transform="translate(440.494 175.7575)scale(0.1 -0.1)">
      <defs>
       <path d="M 2597 2516 
Q 3050 2419 3304 2112 
Q 3559 1806 3559 1356 
Q 3559 666 3084 287 
Q 2609 -91 1734 -91 
Q 1441 -91 1130 -33 
Q 819 25 488 141 
L 488 750 
Q 750 597 1062 519 
Q 1375 441 1716 441 
Q 2309 441 2620 675 
Q 2931 909 2931 1356 
Q 2931 1769 2642 2001 
Q 2353 2234 1838 2234 
L 1294 2234 
L 1294 2753 
L 1863 2753 
Q 2328 2753 2575 2939 
Q 2822 3125 2822 3475 
Q 2822 3834 2567 4026 
Q 2313 4219 1838 4219 
Q 1578 4219 1281 4162 
Q 984 4106 628 3988 
L 628 4550 
Q 988 4650 1302 4700 
Q 1616 4750 1894 4750 
Q 2613 4750 3031 4423 
Q 3450 4097 3450 3541 
Q 3450 3153 3228 2886 
Q 3006 2619 2597 2516 
z
" id="DejaVuSans-33" transform="scale(0.015625)"/>
      </defs>
      <use xlink:href="#DejaVuSans-4d"/>
      <use x="86.279297" xlink:href="#DejaVuSans-69"/>
      <use x="114.0625" xlink:href="#DejaVuSans-6e"/>
      <use x="177.441406" xlink:href="#DejaVuSans-43"/>
      <use x="247.265625" xlink:href="#DejaVuSans-61"/>
      <use x="308.544922" xlink:href="#DejaVuSans-6c"/>
      <use x="336.328125" xlink:href="#DejaVuSans-6c"/>
      <use x="364.111328" xlink:href="#DejaVuSans-20"/>
      <use x="395.898438" xlink:href="#DejaVuSans-28"/>
      <use x="434.912109" xlink:href="#DejaVuSans-30"/>
      <use x="498.535156" xlink:href="#DejaVuSans-2e"/>
      <use x="530.322266" xlink:href="#DejaVuSans-38"/>
      <use x="593.945312" xlink:href="#DejaVuSans-34"/>
      <use x="657.568359" xlink:href="#DejaVuSans-33"/>
      <use x="721.191406" xlink:href="#DejaVuSans-29"/>
     </g>
    </g>
    <g id="line2d_43">
     <path d="M 412.494 186.935625 
L 432.494 186.935625 
" style="fill:none;stroke:#9467bd;stroke-linecap:square;stroke-width:1.5;"/>
    </g>
    <g id="line2d_44"/>
    <g id="text_30">
     <!-- SACall (0.86) -->
     <g transform="translate(440.494 190.435625)scale(0.1 -0.1)">
      <defs>
       <path d="M 3425 4513 
L 3425 3897 
Q 3066 4069 2747 4153 
Q 2428 4238 2131 4238 
Q 1616 4238 1336 4038 
Q 1056 3838 1056 3469 
Q 1056 3159 1242 3001 
Q 1428 2844 1947 2747 
L 2328 2669 
Q 3034 2534 3370 2195 
Q 3706 1856 3706 1288 
Q 3706 609 3251 259 
Q 2797 -91 1919 -91 
Q 1588 -91 1214 -16 
Q 841 59 441 206 
L 441 856 
Q 825 641 1194 531 
Q 1563 422 1919 422 
Q 2459 422 2753 634 
Q 3047 847 3047 1241 
Q 3047 1584 2836 1778 
Q 2625 1972 2144 2069 
L 1759 2144 
Q 1053 2284 737 2584 
Q 422 2884 422 3419 
Q 422 4038 858 4394 
Q 1294 4750 2059 4750 
Q 2388 4750 2728 4690 
Q 3069 4631 3425 4513 
z
" id="DejaVuSans-53" transform="scale(0.015625)"/>
      </defs>
      <use xlink:href="#DejaVuSans-53"/>
      <use x="65.351562" xlink:href="#DejaVuSans-41"/>
      <use x="132.009766" xlink:href="#DejaVuSans-43"/>
      <use x="201.833984" xlink:href="#DejaVuSans-61"/>
      <use x="263.113281" xlink:href="#DejaVuSans-6c"/>
      <use x="290.896484" xlink:href="#DejaVuSans-6c"/>
      <use x="318.679688" xlink:href="#DejaVuSans-20"/>
      <use x="350.466797" xlink:href="#DejaVuSans-28"/>
      <use x="389.480469" xlink:href="#DejaVuSans-30"/>
      <use x="453.103516" xlink:href="#DejaVuSans-2e"/>
      <use x="484.890625" xlink:href="#DejaVuSans-38"/>
      <use x="548.513672" xlink:href="#DejaVuSans-36"/>
      <use x="612.136719" xlink:href="#DejaVuSans-29"/>
     </g>
    </g>
    <g id="line2d_45">
     <path d="M 412.494 201.61375 
L 432.494 201.61375 
" style="fill:none;stroke:#8c564b;stroke-linecap:square;stroke-width:1.5;"/>
    </g>
    <g id="line2d_46"/>
    <g id="text_31">
     <!-- URNano (0.844) -->
     <g transform="translate(440.494 205.11375)scale(0.1 -0.1)">
      <defs>
       <path d="M 556 4666 
L 1191 4666 
L 1191 1831 
Q 1191 1081 1462 751 
Q 1734 422 2344 422 
Q 2950 422 3222 751 
Q 3494 1081 3494 1831 
L 3494 4666 
L 4128 4666 
L 4128 1753 
Q 4128 841 3676 375 
Q 3225 -91 2344 -91 
Q 1459 -91 1007 375 
Q 556 841 556 1753 
L 556 4666 
z
" id="DejaVuSans-55" transform="scale(0.015625)"/>
       <path d="M 2841 2188 
Q 3044 2119 3236 1894 
Q 3428 1669 3622 1275 
L 4263 0 
L 3584 0 
L 2988 1197 
Q 2756 1666 2539 1819 
Q 2322 1972 1947 1972 
L 1259 1972 
L 1259 0 
L 628 0 
L 628 4666 
L 2053 4666 
Q 2853 4666 3247 4331 
Q 3641 3997 3641 3322 
Q 3641 2881 3436 2590 
Q 3231 2300 2841 2188 
z
M 1259 4147 
L 1259 2491 
L 2053 2491 
Q 2509 2491 2742 2702 
Q 2975 2913 2975 3322 
Q 2975 3731 2742 3939 
Q 2509 4147 2053 4147 
L 1259 4147 
z
" id="DejaVuSans-52" transform="scale(0.015625)"/>
       <path d="M 628 4666 
L 1478 4666 
L 3547 763 
L 3547 4666 
L 4159 4666 
L 4159 0 
L 3309 0 
L 1241 3903 
L 1241 0 
L 628 0 
L 628 4666 
z
" id="DejaVuSans-4e" transform="scale(0.015625)"/>
      </defs>
      <use xlink:href="#DejaVuSans-55"/>
      <use x="73.193359" xlink:href="#DejaVuSans-52"/>
      <use x="142.675781" xlink:href="#DejaVuSans-4e"/>
      <use x="217.480469" xlink:href="#DejaVuSans-61"/>
      <use x="278.759766" xlink:href="#DejaVuSans-6e"/>
      <use x="342.138672" xlink:href="#DejaVuSans-6f"/>
      <use x="403.320312" xlink:href="#DejaVuSans-20"/>
      <use x="435.107422" xlink:href="#DejaVuSans-28"/>
      <use x="474.121094" xlink:href="#DejaVuSans-30"/>
      <use x="537.744141" xlink:href="#DejaVuSans-2e"/>
      <use x="569.53125" xlink:href="#DejaVuSans-38"/>
      <use x="633.154297" xlink:href="#DejaVuSans-34"/>
      <use x="696.777344" xlink:href="#DejaVuSans-34"/>
      <use x="760.400391" xlink:href="#DejaVuSans-29"/>
     </g>
    </g>
   </g>
  </g>
 </g>
 <defs>
  <clipPath id="pd591c4cac5">
   <rect height="305.081876" width="295.37" x="54.05" y="13.118124"/>
  </clipPath>
 </defs>
</svg>
